%TF.GenerationSoftware,KiCad,Pcbnew,(5.1.9)-1*%
%TF.CreationDate,2021-08-09T23:15:38-02:30*%
%TF.ProjectId,Electris,456c6563-7472-4697-932e-6b696361645f,A*%
%TF.SameCoordinates,Original*%
%TF.FileFunction,Paste,Bot*%
%TF.FilePolarity,Positive*%
%FSLAX46Y46*%
G04 Gerber Fmt 4.6, Leading zero omitted, Abs format (unit mm)*
G04 Created by KiCad (PCBNEW (5.1.9)-1) date 2021-08-09 23:15:38*
%MOMM*%
%LPD*%
G01*
G04 APERTURE LIST*
%ADD10R,2.000000X3.800000*%
%ADD11R,2.000000X1.500000*%
G04 APERTURE END LIST*
%TO.C,C6*%
G36*
G01*
X191800000Y-47525000D02*
X191800000Y-48475000D01*
G75*
G02*
X191550000Y-48725000I-250000J0D01*
G01*
X190875000Y-48725000D01*
G75*
G02*
X190625000Y-48475000I0J250000D01*
G01*
X190625000Y-47525000D01*
G75*
G02*
X190875000Y-47275000I250000J0D01*
G01*
X191550000Y-47275000D01*
G75*
G02*
X191800000Y-47525000I0J-250000D01*
G01*
G37*
G36*
G01*
X193875000Y-47525000D02*
X193875000Y-48475000D01*
G75*
G02*
X193625000Y-48725000I-250000J0D01*
G01*
X192950000Y-48725000D01*
G75*
G02*
X192700000Y-48475000I0J250000D01*
G01*
X192700000Y-47525000D01*
G75*
G02*
X192950000Y-47275000I250000J0D01*
G01*
X193625000Y-47275000D01*
G75*
G02*
X193875000Y-47525000I0J-250000D01*
G01*
G37*
%TD*%
%TO.C,C9*%
G36*
G01*
X193875000Y-49775000D02*
X193875000Y-50725000D01*
G75*
G02*
X193625000Y-50975000I-250000J0D01*
G01*
X192950000Y-50975000D01*
G75*
G02*
X192700000Y-50725000I0J250000D01*
G01*
X192700000Y-49775000D01*
G75*
G02*
X192950000Y-49525000I250000J0D01*
G01*
X193625000Y-49525000D01*
G75*
G02*
X193875000Y-49775000I0J-250000D01*
G01*
G37*
G36*
G01*
X191800000Y-49775000D02*
X191800000Y-50725000D01*
G75*
G02*
X191550000Y-50975000I-250000J0D01*
G01*
X190875000Y-50975000D01*
G75*
G02*
X190625000Y-50725000I0J250000D01*
G01*
X190625000Y-49775000D01*
G75*
G02*
X190875000Y-49525000I250000J0D01*
G01*
X191550000Y-49525000D01*
G75*
G02*
X191800000Y-49775000I0J-250000D01*
G01*
G37*
%TD*%
D10*
%TO.C,U1*%
X202150000Y-50250000D03*
D11*
X195850000Y-50250000D03*
X195850000Y-47950000D03*
X195850000Y-52550000D03*
%TD*%
M02*
