%TF.GenerationSoftware,KiCad,Pcbnew,(5.1.9)-1*%
%TF.CreationDate,2021-08-09T23:15:38-02:30*%
%TF.ProjectId,Electris,456c6563-7472-4697-932e-6b696361645f,A*%
%TF.SameCoordinates,Original*%
%TF.FileFunction,Soldermask,Bot*%
%TF.FilePolarity,Negative*%
%FSLAX46Y46*%
G04 Gerber Fmt 4.6, Leading zero omitted, Abs format (unit mm)*
G04 Created by KiCad (PCBNEW (5.1.9)-1) date 2021-08-09 23:15:38*
%MOMM*%
%LPD*%
G01*
G04 APERTURE LIST*
%ADD10C,4.300000*%
%ADD11R,1.700000X1.700000*%
%ADD12C,1.700000*%
%ADD13C,3.500000*%
%ADD14O,1.700000X1.700000*%
%ADD15C,1.200000*%
%ADD16C,4.000000*%
%ADD17C,1.600000*%
%ADD18O,1.700000X2.000000*%
%ADD19R,2.000000X3.800000*%
%ADD20R,2.000000X1.500000*%
%ADD21C,1.524000*%
G04 APERTURE END LIST*
D10*
%TO.C,REF\u002A\u002A*%
X230000000Y-94000000D03*
%TD*%
%TO.C,REF\u002A\u002A*%
X184000000Y-34250000D03*
%TD*%
%TO.C,REF\u002A\u002A*%
X160000000Y-94000000D03*
%TD*%
%TO.C,REF\u002A\u002A*%
X230000000Y-34500000D03*
%TD*%
%TO.C,C6*%
G36*
G01*
X191800000Y-47525000D02*
X191800000Y-48475000D01*
G75*
G02*
X191550000Y-48725000I-250000J0D01*
G01*
X190875000Y-48725000D01*
G75*
G02*
X190625000Y-48475000I0J250000D01*
G01*
X190625000Y-47525000D01*
G75*
G02*
X190875000Y-47275000I250000J0D01*
G01*
X191550000Y-47275000D01*
G75*
G02*
X191800000Y-47525000I0J-250000D01*
G01*
G37*
G36*
G01*
X193875000Y-47525000D02*
X193875000Y-48475000D01*
G75*
G02*
X193625000Y-48725000I-250000J0D01*
G01*
X192950000Y-48725000D01*
G75*
G02*
X192700000Y-48475000I0J250000D01*
G01*
X192700000Y-47525000D01*
G75*
G02*
X192950000Y-47275000I250000J0D01*
G01*
X193625000Y-47275000D01*
G75*
G02*
X193875000Y-47525000I0J-250000D01*
G01*
G37*
%TD*%
%TO.C,C9*%
G36*
G01*
X193875000Y-49775000D02*
X193875000Y-50725000D01*
G75*
G02*
X193625000Y-50975000I-250000J0D01*
G01*
X192950000Y-50975000D01*
G75*
G02*
X192700000Y-50725000I0J250000D01*
G01*
X192700000Y-49775000D01*
G75*
G02*
X192950000Y-49525000I250000J0D01*
G01*
X193625000Y-49525000D01*
G75*
G02*
X193875000Y-49775000I0J-250000D01*
G01*
G37*
G36*
G01*
X191800000Y-49775000D02*
X191800000Y-50725000D01*
G75*
G02*
X191550000Y-50975000I-250000J0D01*
G01*
X190875000Y-50975000D01*
G75*
G02*
X190625000Y-50725000I0J250000D01*
G01*
X190625000Y-49775000D01*
G75*
G02*
X190875000Y-49525000I250000J0D01*
G01*
X191550000Y-49525000D01*
G75*
G02*
X191800000Y-49775000I0J-250000D01*
G01*
G37*
%TD*%
D11*
%TO.C,J1*%
X195750000Y-44500000D03*
D12*
X198250000Y-44500000D03*
X198250000Y-42500000D03*
X195750000Y-42500000D03*
D13*
X190980000Y-39790000D03*
X203020000Y-39790000D03*
%TD*%
D11*
%TO.C,J3*%
X184500000Y-90250000D03*
D14*
X187040000Y-90250000D03*
X189580000Y-90250000D03*
X192120000Y-90250000D03*
%TD*%
%TO.C,J4*%
G36*
G01*
X220375000Y-33912500D02*
X220375000Y-33287500D01*
G75*
G02*
X220687500Y-32975000I312500J0D01*
G01*
X222312500Y-32975000D01*
G75*
G02*
X222625000Y-33287500I0J-312500D01*
G01*
X222625000Y-33912500D01*
G75*
G02*
X222312500Y-34225000I-312500J0D01*
G01*
X220687500Y-34225000D01*
G75*
G02*
X220375000Y-33912500I0J312500D01*
G01*
G37*
G36*
G01*
X219337500Y-37375000D02*
X219962500Y-37375000D01*
G75*
G02*
X220275000Y-37687500I0J-312500D01*
G01*
X220275000Y-39312500D01*
G75*
G02*
X219962500Y-39625000I-312500J0D01*
G01*
X219337500Y-39625000D01*
G75*
G02*
X219025000Y-39312500I0J312500D01*
G01*
X219025000Y-37687500D01*
G75*
G02*
X219337500Y-37375000I312500J0D01*
G01*
G37*
G36*
G01*
X223037500Y-37375000D02*
X223662500Y-37375000D01*
G75*
G02*
X223975000Y-37687500I0J-312500D01*
G01*
X223975000Y-39312500D01*
G75*
G02*
X223662500Y-39625000I-312500J0D01*
G01*
X223037500Y-39625000D01*
G75*
G02*
X222725000Y-39312500I0J312500D01*
G01*
X222725000Y-37687500D01*
G75*
G02*
X223037500Y-37375000I312500J0D01*
G01*
G37*
G36*
G01*
X220375000Y-40812500D02*
X220375000Y-40187500D01*
G75*
G02*
X220687500Y-39875000I312500J0D01*
G01*
X222312500Y-39875000D01*
G75*
G02*
X222625000Y-40187500I0J-312500D01*
G01*
X222625000Y-40812500D01*
G75*
G02*
X222312500Y-41125000I-312500J0D01*
G01*
X220687500Y-41125000D01*
G75*
G02*
X220375000Y-40812500I0J312500D01*
G01*
G37*
D15*
X221500000Y-36000000D03*
%TD*%
D16*
%TO.C,J5*%
X158972500Y-46960000D03*
X183962500Y-46960000D03*
D17*
X173997500Y-44420000D03*
X171712500Y-44420000D03*
X176282500Y-44420000D03*
X167142500Y-44420000D03*
X169427500Y-44420000D03*
X172855000Y-46960000D03*
X170570000Y-46960000D03*
X175140000Y-46960000D03*
X166000000Y-46960000D03*
X168285000Y-46960000D03*
X167142500Y-49500000D03*
X169427500Y-49500000D03*
X171712500Y-49500000D03*
X173997500Y-49500000D03*
X176282500Y-49500000D03*
%TD*%
D18*
%TO.C,SW1*%
X210000000Y-93500000D03*
G36*
G01*
X206650000Y-94250000D02*
X206650000Y-92750000D01*
G75*
G02*
X206900000Y-92500000I250000J0D01*
G01*
X208100000Y-92500000D01*
G75*
G02*
X208350000Y-92750000I0J-250000D01*
G01*
X208350000Y-94250000D01*
G75*
G02*
X208100000Y-94500000I-250000J0D01*
G01*
X206900000Y-94500000D01*
G75*
G02*
X206650000Y-94250000I0J250000D01*
G01*
G37*
%TD*%
%TO.C,SW2*%
X210000000Y-88000000D03*
G36*
G01*
X206650000Y-88750000D02*
X206650000Y-87250000D01*
G75*
G02*
X206900000Y-87000000I250000J0D01*
G01*
X208100000Y-87000000D01*
G75*
G02*
X208350000Y-87250000I0J-250000D01*
G01*
X208350000Y-88750000D01*
G75*
G02*
X208100000Y-89000000I-250000J0D01*
G01*
X206900000Y-89000000D01*
G75*
G02*
X206650000Y-88750000I0J250000D01*
G01*
G37*
%TD*%
%TO.C,SW3*%
G36*
G01*
X206650000Y-83250000D02*
X206650000Y-81750000D01*
G75*
G02*
X206900000Y-81500000I250000J0D01*
G01*
X208100000Y-81500000D01*
G75*
G02*
X208350000Y-81750000I0J-250000D01*
G01*
X208350000Y-83250000D01*
G75*
G02*
X208100000Y-83500000I-250000J0D01*
G01*
X206900000Y-83500000D01*
G75*
G02*
X206650000Y-83250000I0J250000D01*
G01*
G37*
X210000000Y-82500000D03*
%TD*%
%TO.C,SW4*%
G36*
G01*
X206650000Y-77750000D02*
X206650000Y-76250000D01*
G75*
G02*
X206900000Y-76000000I250000J0D01*
G01*
X208100000Y-76000000D01*
G75*
G02*
X208350000Y-76250000I0J-250000D01*
G01*
X208350000Y-77750000D01*
G75*
G02*
X208100000Y-78000000I-250000J0D01*
G01*
X206900000Y-78000000D01*
G75*
G02*
X206650000Y-77750000I0J250000D01*
G01*
G37*
X210000000Y-77000000D03*
%TD*%
%TO.C,SW5*%
X210000000Y-71500000D03*
G36*
G01*
X206650000Y-72250000D02*
X206650000Y-70750000D01*
G75*
G02*
X206900000Y-70500000I250000J0D01*
G01*
X208100000Y-70500000D01*
G75*
G02*
X208350000Y-70750000I0J-250000D01*
G01*
X208350000Y-72250000D01*
G75*
G02*
X208100000Y-72500000I-250000J0D01*
G01*
X206900000Y-72500000D01*
G75*
G02*
X206650000Y-72250000I0J250000D01*
G01*
G37*
%TD*%
%TO.C,SW6*%
G36*
G01*
X206650000Y-66750000D02*
X206650000Y-65250000D01*
G75*
G02*
X206900000Y-65000000I250000J0D01*
G01*
X208100000Y-65000000D01*
G75*
G02*
X208350000Y-65250000I0J-250000D01*
G01*
X208350000Y-66750000D01*
G75*
G02*
X208100000Y-67000000I-250000J0D01*
G01*
X206900000Y-67000000D01*
G75*
G02*
X206650000Y-66750000I0J250000D01*
G01*
G37*
X210000000Y-66000000D03*
%TD*%
%TO.C,SW7*%
G36*
G01*
X206650000Y-61250000D02*
X206650000Y-59750000D01*
G75*
G02*
X206900000Y-59500000I250000J0D01*
G01*
X208100000Y-59500000D01*
G75*
G02*
X208350000Y-59750000I0J-250000D01*
G01*
X208350000Y-61250000D01*
G75*
G02*
X208100000Y-61500000I-250000J0D01*
G01*
X206900000Y-61500000D01*
G75*
G02*
X206650000Y-61250000I0J250000D01*
G01*
G37*
X210000000Y-60500000D03*
%TD*%
D19*
%TO.C,U1*%
X202150000Y-50250000D03*
D20*
X195850000Y-50250000D03*
X195850000Y-47950000D03*
X195850000Y-52550000D03*
%TD*%
D21*
%TO.C,U2*%
X186250000Y-75750000D03*
%TD*%
%TO.C,J6*%
G36*
G01*
X187150000Y-54250000D02*
X187150000Y-52750000D01*
G75*
G02*
X187400000Y-52500000I250000J0D01*
G01*
X188600000Y-52500000D01*
G75*
G02*
X188850000Y-52750000I0J-250000D01*
G01*
X188850000Y-54250000D01*
G75*
G02*
X188600000Y-54500000I-250000J0D01*
G01*
X187400000Y-54500000D01*
G75*
G02*
X187150000Y-54250000I0J250000D01*
G01*
G37*
D18*
X190500000Y-53500000D03*
%TD*%
M02*
