M48
; DRILL file {KiCad (5.1.9)-1} date 08/09/21 23:15:39
; FORMAT={-:-/ absolute / inch / decimal}
; #@! TF.CreationDate,2021-08-09T23:15:39-02:30
; #@! TF.GenerationSoftware,Kicad,Pcbnew,(5.1.9)-1
; #@! TF.FileFunction,Plated,1,2,PTH
FMAT,2
INCH
T1C0.0157
T2C0.0197
T3C0.0300
T4C0.0354
T5C0.0362
T6C0.0394
T7C0.0917
%
G90
G05
T1
X6.7062Y-2.3917
X6.7717Y-2.5591
X6.8701Y-2.5492
X6.9291Y-2.4016
X6.9882Y-3.0413
X7.0177Y-2.8445
X7.0276Y-2.3228
X7.0276Y-2.6344
X7.091Y-2.3228
X7.091Y-2.8445
X7.2441Y-2.4902
X7.2835Y-2.9331
X7.2835Y-3.0315
X7.2933Y-3.2928
X7.2933Y-3.3661
X7.3031Y-2.4902
X7.3031Y-2.5635
X7.3425Y-2.628
X7.3425Y-2.7013
X7.3597Y-3.248
X7.3711Y-2.2736
X7.3819Y-2.9331
X7.3819Y-3.0315
X7.4016Y-3.2382
X7.4124Y-2.2736
X7.4606Y-2.5098
X7.4606Y-2.6476
X7.4606Y-2.721
X7.4803Y-3.435
X7.5197Y-2.5098
X7.5197Y-2.6476
X7.5787Y-2.6476
X7.6083Y-2.0571
X7.6235Y-3.0413
X7.6575Y-2.8445
X7.6969Y-3.0413
X7.7362Y-3.1791
X7.7657Y-3.1496
X7.815Y-2.628
X7.815Y-2.7461
X7.815Y-2.8642
X7.8346Y-3.0512
X7.9921Y-2.5394
X7.9985Y-2.4409
X7.9985Y-2.6575
X7.9985Y-2.874
X7.9985Y-3.0906
X7.9985Y-3.3071
X7.9985Y-3.5236
X7.9985Y-3.7402
X8.002Y-2.3327
X8.002Y-2.7559
X8.002Y-2.9724
X8.002Y-3.189
X8.002Y-3.4055
X8.002Y-3.622
X8.0512Y-1.9685
X8.2776Y-2.2441
X8.3071Y-1.9488
X8.3169Y-2.1752
X8.5138Y-2.2638
X8.563Y-1.9488
X8.5728Y-1.8012
X8.5728Y-1.8799
X8.5876Y-2.1358
X8.5925Y-2.2101
X8.5925Y-2.2638
X8.7598Y-2.3031
X8.7894Y-1.9488
X8.7992Y-2.1752
X9.0551Y-1.8012
X9.0551Y-1.8799
X9.0551Y-1.9488
T3
X7.3327Y-2.9823
T4
X6.5354Y-1.8488
X6.5804Y-1.7488
X6.5804Y-1.9488
X6.6254Y-1.8488
X6.6704Y-1.7488
X6.6704Y-1.9488
X6.7154Y-1.8488
X6.7603Y-1.7488
X6.7603Y-1.9488
X6.8053Y-1.8488
X6.8503Y-1.7488
X6.8503Y-1.9488
X6.8953Y-1.8488
X6.9403Y-1.7488
X6.9403Y-1.9488
T5
X7.7067Y-1.6732
X7.7067Y-1.752
X7.8051Y-1.6732
X7.8051Y-1.752
T6
X7.2638Y-3.5531
X7.3638Y-3.5531
X7.4016Y-2.1063
X7.4638Y-3.5531
X7.5Y-2.1063
X7.5638Y-3.5531
X8.1693Y-2.3819
X8.1693Y-2.5984
X8.1693Y-2.815
X8.1693Y-3.0315
X8.1693Y-3.248
X8.1693Y-3.4646
X8.1693Y-3.6811
X8.2677Y-2.3819
X8.2677Y-2.5984
X8.2677Y-2.815
X8.2677Y-3.0315
X8.2677Y-3.248
X8.2677Y-3.4646
X8.2677Y-3.6811
T7
X7.5189Y-1.5665
X7.9929Y-1.5665
T2
G00X8.6476Y-1.4961
M15
G01X8.6476Y-1.5354
M16
G05
G00X8.7008Y-1.3228
M15
G01X8.7402Y-1.3228
M16
G05
G00X8.7008Y-1.5945
M15
G01X8.7402Y-1.5945
M16
G05
G00X8.7933Y-1.4961
M15
G01X8.7933Y-1.5354
M16
G05
T0
M30
