%TF.GenerationSoftware,KiCad,Pcbnew,(5.1.9)-1*%
%TF.CreationDate,2021-08-09T23:15:38-02:30*%
%TF.ProjectId,Electris,456c6563-7472-4697-932e-6b696361645f,A*%
%TF.SameCoordinates,Original*%
%TF.FileFunction,Copper,L2,Bot*%
%TF.FilePolarity,Positive*%
%FSLAX46Y46*%
G04 Gerber Fmt 4.6, Leading zero omitted, Abs format (unit mm)*
G04 Created by KiCad (PCBNEW (5.1.9)-1) date 2021-08-09 23:15:38*
%MOMM*%
%LPD*%
G01*
G04 APERTURE LIST*
%TA.AperFunction,ComponentPad*%
%ADD10R,1.700000X1.700000*%
%TD*%
%TA.AperFunction,ComponentPad*%
%ADD11C,1.700000*%
%TD*%
%TA.AperFunction,ComponentPad*%
%ADD12C,3.500000*%
%TD*%
%TA.AperFunction,ComponentPad*%
%ADD13O,1.700000X1.700000*%
%TD*%
%TA.AperFunction,WasherPad*%
%ADD14C,4.000000*%
%TD*%
%TA.AperFunction,ComponentPad*%
%ADD15C,1.600000*%
%TD*%
%TA.AperFunction,ComponentPad*%
%ADD16O,1.700000X2.000000*%
%TD*%
%TA.AperFunction,SMDPad,CuDef*%
%ADD17R,2.000000X3.800000*%
%TD*%
%TA.AperFunction,SMDPad,CuDef*%
%ADD18R,2.000000X1.500000*%
%TD*%
%TA.AperFunction,ComponentPad*%
%ADD19C,1.524000*%
%TD*%
%TA.AperFunction,ViaPad*%
%ADD20C,0.800000*%
%TD*%
%TA.AperFunction,Conductor*%
%ADD21C,0.127000*%
%TD*%
%TA.AperFunction,Conductor*%
%ADD22C,0.500000*%
%TD*%
%TA.AperFunction,Conductor*%
%ADD23C,0.254000*%
%TD*%
%TA.AperFunction,Conductor*%
%ADD24C,0.100000*%
%TD*%
G04 APERTURE END LIST*
%TO.P,C6,2*%
%TO.N,GND*%
%TA.AperFunction,SMDPad,CuDef*%
G36*
G01*
X191800000Y-47525000D02*
X191800000Y-48475000D01*
G75*
G02*
X191550000Y-48725000I-250000J0D01*
G01*
X190875000Y-48725000D01*
G75*
G02*
X190625000Y-48475000I0J250000D01*
G01*
X190625000Y-47525000D01*
G75*
G02*
X190875000Y-47275000I250000J0D01*
G01*
X191550000Y-47275000D01*
G75*
G02*
X191800000Y-47525000I0J-250000D01*
G01*
G37*
%TD.AperFunction*%
%TO.P,C6,1*%
%TO.N,Net-(C6-Pad1)*%
%TA.AperFunction,SMDPad,CuDef*%
G36*
G01*
X193875000Y-47525000D02*
X193875000Y-48475000D01*
G75*
G02*
X193625000Y-48725000I-250000J0D01*
G01*
X192950000Y-48725000D01*
G75*
G02*
X192700000Y-48475000I0J250000D01*
G01*
X192700000Y-47525000D01*
G75*
G02*
X192950000Y-47275000I250000J0D01*
G01*
X193625000Y-47275000D01*
G75*
G02*
X193875000Y-47525000I0J-250000D01*
G01*
G37*
%TD.AperFunction*%
%TD*%
%TO.P,C9,1*%
%TO.N,+3V3*%
%TA.AperFunction,SMDPad,CuDef*%
G36*
G01*
X193875000Y-49775000D02*
X193875000Y-50725000D01*
G75*
G02*
X193625000Y-50975000I-250000J0D01*
G01*
X192950000Y-50975000D01*
G75*
G02*
X192700000Y-50725000I0J250000D01*
G01*
X192700000Y-49775000D01*
G75*
G02*
X192950000Y-49525000I250000J0D01*
G01*
X193625000Y-49525000D01*
G75*
G02*
X193875000Y-49775000I0J-250000D01*
G01*
G37*
%TD.AperFunction*%
%TO.P,C9,2*%
%TO.N,GND*%
%TA.AperFunction,SMDPad,CuDef*%
G36*
G01*
X191800000Y-49775000D02*
X191800000Y-50725000D01*
G75*
G02*
X191550000Y-50975000I-250000J0D01*
G01*
X190875000Y-50975000D01*
G75*
G02*
X190625000Y-50725000I0J250000D01*
G01*
X190625000Y-49775000D01*
G75*
G02*
X190875000Y-49525000I250000J0D01*
G01*
X191550000Y-49525000D01*
G75*
G02*
X191800000Y-49775000I0J-250000D01*
G01*
G37*
%TD.AperFunction*%
%TD*%
D10*
%TO.P,J1,1*%
%TO.N,Net-(C6-Pad1)*%
X195750000Y-44500000D03*
D11*
%TO.P,J1,2*%
%TO.N,/USB_D-*%
X198250000Y-44500000D03*
%TO.P,J1,3*%
%TO.N,/USB_D+*%
X198250000Y-42500000D03*
%TO.P,J1,4*%
%TO.N,GND*%
X195750000Y-42500000D03*
D12*
%TO.P,J1,5*%
X190980000Y-39790000D03*
X203020000Y-39790000D03*
%TD*%
D10*
%TO.P,J3,1*%
%TO.N,GND*%
X184500000Y-90250000D03*
D13*
%TO.P,J3,2*%
%TO.N,/SWD_CLK*%
X187040000Y-90250000D03*
%TO.P,J3,3*%
%TO.N,/SWD_DATA*%
X189580000Y-90250000D03*
%TO.P,J3,4*%
%TO.N,+3V3*%
X192120000Y-90250000D03*
%TD*%
%TO.P,J4,S*%
%TO.N,GND*%
%TA.AperFunction,ComponentPad*%
G36*
G01*
X220375000Y-33912500D02*
X220375000Y-33287500D01*
G75*
G02*
X220687500Y-32975000I312500J0D01*
G01*
X222312500Y-32975000D01*
G75*
G02*
X222625000Y-33287500I0J-312500D01*
G01*
X222625000Y-33912500D01*
G75*
G02*
X222312500Y-34225000I-312500J0D01*
G01*
X220687500Y-34225000D01*
G75*
G02*
X220375000Y-33912500I0J312500D01*
G01*
G37*
%TD.AperFunction*%
%TO.P,J4,T*%
%TO.N,/AUDIO_L*%
%TA.AperFunction,ComponentPad*%
G36*
G01*
X219337500Y-37375000D02*
X219962500Y-37375000D01*
G75*
G02*
X220275000Y-37687500I0J-312500D01*
G01*
X220275000Y-39312500D01*
G75*
G02*
X219962500Y-39625000I-312500J0D01*
G01*
X219337500Y-39625000D01*
G75*
G02*
X219025000Y-39312500I0J312500D01*
G01*
X219025000Y-37687500D01*
G75*
G02*
X219337500Y-37375000I312500J0D01*
G01*
G37*
%TD.AperFunction*%
%TA.AperFunction,ComponentPad*%
G36*
G01*
X223037500Y-37375000D02*
X223662500Y-37375000D01*
G75*
G02*
X223975000Y-37687500I0J-312500D01*
G01*
X223975000Y-39312500D01*
G75*
G02*
X223662500Y-39625000I-312500J0D01*
G01*
X223037500Y-39625000D01*
G75*
G02*
X222725000Y-39312500I0J312500D01*
G01*
X222725000Y-37687500D01*
G75*
G02*
X223037500Y-37375000I312500J0D01*
G01*
G37*
%TD.AperFunction*%
%TO.P,J4,R*%
%TO.N,/AUDIO_R*%
%TA.AperFunction,ComponentPad*%
G36*
G01*
X220375000Y-40812500D02*
X220375000Y-40187500D01*
G75*
G02*
X220687500Y-39875000I312500J0D01*
G01*
X222312500Y-39875000D01*
G75*
G02*
X222625000Y-40187500I0J-312500D01*
G01*
X222625000Y-40812500D01*
G75*
G02*
X222312500Y-41125000I-312500J0D01*
G01*
X220687500Y-41125000D01*
G75*
G02*
X220375000Y-40812500I0J312500D01*
G01*
G37*
%TD.AperFunction*%
%TD*%
D14*
%TO.P,J5,*%
%TO.N,*%
X158972500Y-46960000D03*
X183962500Y-46960000D03*
D15*
%TO.P,J5,12*%
%TO.N,Net-(J5-Pad12)*%
X173997500Y-44420000D03*
%TO.P,J5,13*%
%TO.N,/VGA_HSYNC*%
X171712500Y-44420000D03*
%TO.P,J5,11*%
%TO.N,Net-(J5-Pad11)*%
X176282500Y-44420000D03*
%TO.P,J5,15*%
%TO.N,Net-(J5-Pad15)*%
X167142500Y-44420000D03*
%TO.P,J5,14*%
%TO.N,/VGA_VSYNC*%
X169427500Y-44420000D03*
%TO.P,J5,7*%
%TO.N,GND*%
X172855000Y-46960000D03*
%TO.P,J5,8*%
X170570000Y-46960000D03*
%TO.P,J5,6*%
X175140000Y-46960000D03*
%TO.P,J5,10*%
X166000000Y-46960000D03*
%TO.P,J5,9*%
%TO.N,Net-(J5-Pad9)*%
X168285000Y-46960000D03*
%TO.P,J5,5*%
%TO.N,GND*%
X167142500Y-49500000D03*
%TO.P,J5,4*%
%TO.N,Net-(J5-Pad4)*%
X169427500Y-49500000D03*
%TO.P,J5,3*%
%TO.N,/VGA_B*%
X171712500Y-49500000D03*
%TO.P,J5,2*%
%TO.N,/VGA_G*%
X173997500Y-49500000D03*
%TO.P,J5,1*%
%TO.N,/VGA_R*%
X176282500Y-49500000D03*
%TD*%
D16*
%TO.P,SW1,2*%
%TO.N,GND*%
X210000000Y-93500000D03*
%TO.P,SW1,1*%
%TO.N,Net-(R37-Pad1)*%
%TA.AperFunction,ComponentPad*%
G36*
G01*
X206650000Y-94250000D02*
X206650000Y-92750000D01*
G75*
G02*
X206900000Y-92500000I250000J0D01*
G01*
X208100000Y-92500000D01*
G75*
G02*
X208350000Y-92750000I0J-250000D01*
G01*
X208350000Y-94250000D01*
G75*
G02*
X208100000Y-94500000I-250000J0D01*
G01*
X206900000Y-94500000D01*
G75*
G02*
X206650000Y-94250000I0J250000D01*
G01*
G37*
%TD.AperFunction*%
%TD*%
%TO.P,SW2,2*%
%TO.N,GND*%
X210000000Y-88000000D03*
%TO.P,SW2,1*%
%TO.N,Net-(R38-Pad1)*%
%TA.AperFunction,ComponentPad*%
G36*
G01*
X206650000Y-88750000D02*
X206650000Y-87250000D01*
G75*
G02*
X206900000Y-87000000I250000J0D01*
G01*
X208100000Y-87000000D01*
G75*
G02*
X208350000Y-87250000I0J-250000D01*
G01*
X208350000Y-88750000D01*
G75*
G02*
X208100000Y-89000000I-250000J0D01*
G01*
X206900000Y-89000000D01*
G75*
G02*
X206650000Y-88750000I0J250000D01*
G01*
G37*
%TD.AperFunction*%
%TD*%
%TO.P,SW3,1*%
%TO.N,Net-(R39-Pad1)*%
%TA.AperFunction,ComponentPad*%
G36*
G01*
X206650000Y-83250000D02*
X206650000Y-81750000D01*
G75*
G02*
X206900000Y-81500000I250000J0D01*
G01*
X208100000Y-81500000D01*
G75*
G02*
X208350000Y-81750000I0J-250000D01*
G01*
X208350000Y-83250000D01*
G75*
G02*
X208100000Y-83500000I-250000J0D01*
G01*
X206900000Y-83500000D01*
G75*
G02*
X206650000Y-83250000I0J250000D01*
G01*
G37*
%TD.AperFunction*%
%TO.P,SW3,2*%
%TO.N,GND*%
X210000000Y-82500000D03*
%TD*%
%TO.P,SW4,1*%
%TO.N,Net-(R40-Pad1)*%
%TA.AperFunction,ComponentPad*%
G36*
G01*
X206650000Y-77750000D02*
X206650000Y-76250000D01*
G75*
G02*
X206900000Y-76000000I250000J0D01*
G01*
X208100000Y-76000000D01*
G75*
G02*
X208350000Y-76250000I0J-250000D01*
G01*
X208350000Y-77750000D01*
G75*
G02*
X208100000Y-78000000I-250000J0D01*
G01*
X206900000Y-78000000D01*
G75*
G02*
X206650000Y-77750000I0J250000D01*
G01*
G37*
%TD.AperFunction*%
%TO.P,SW4,2*%
%TO.N,GND*%
X210000000Y-77000000D03*
%TD*%
%TO.P,SW5,2*%
%TO.N,GND*%
X210000000Y-71500000D03*
%TO.P,SW5,1*%
%TO.N,Net-(R41-Pad1)*%
%TA.AperFunction,ComponentPad*%
G36*
G01*
X206650000Y-72250000D02*
X206650000Y-70750000D01*
G75*
G02*
X206900000Y-70500000I250000J0D01*
G01*
X208100000Y-70500000D01*
G75*
G02*
X208350000Y-70750000I0J-250000D01*
G01*
X208350000Y-72250000D01*
G75*
G02*
X208100000Y-72500000I-250000J0D01*
G01*
X206900000Y-72500000D01*
G75*
G02*
X206650000Y-72250000I0J250000D01*
G01*
G37*
%TD.AperFunction*%
%TD*%
%TO.P,SW6,1*%
%TO.N,Net-(R42-Pad1)*%
%TA.AperFunction,ComponentPad*%
G36*
G01*
X206650000Y-66750000D02*
X206650000Y-65250000D01*
G75*
G02*
X206900000Y-65000000I250000J0D01*
G01*
X208100000Y-65000000D01*
G75*
G02*
X208350000Y-65250000I0J-250000D01*
G01*
X208350000Y-66750000D01*
G75*
G02*
X208100000Y-67000000I-250000J0D01*
G01*
X206900000Y-67000000D01*
G75*
G02*
X206650000Y-66750000I0J250000D01*
G01*
G37*
%TD.AperFunction*%
%TO.P,SW6,2*%
%TO.N,GND*%
X210000000Y-66000000D03*
%TD*%
%TO.P,SW7,1*%
%TO.N,Net-(R43-Pad1)*%
%TA.AperFunction,ComponentPad*%
G36*
G01*
X206650000Y-61250000D02*
X206650000Y-59750000D01*
G75*
G02*
X206900000Y-59500000I250000J0D01*
G01*
X208100000Y-59500000D01*
G75*
G02*
X208350000Y-59750000I0J-250000D01*
G01*
X208350000Y-61250000D01*
G75*
G02*
X208100000Y-61500000I-250000J0D01*
G01*
X206900000Y-61500000D01*
G75*
G02*
X206650000Y-61250000I0J250000D01*
G01*
G37*
%TD.AperFunction*%
%TO.P,SW7,2*%
%TO.N,GND*%
X210000000Y-60500000D03*
%TD*%
D17*
%TO.P,U1,2*%
%TO.N,+3V3*%
X202150000Y-50250000D03*
D18*
X195850000Y-50250000D03*
%TO.P,U1,3*%
%TO.N,Net-(C6-Pad1)*%
X195850000Y-47950000D03*
%TO.P,U1,1*%
%TO.N,GND*%
X195850000Y-52550000D03*
%TD*%
D19*
%TO.P,U2,57*%
%TO.N,GND*%
X186250000Y-75750000D03*
%TD*%
%TO.P,J6,1*%
%TO.N,GND*%
%TA.AperFunction,ComponentPad*%
G36*
G01*
X187150000Y-54250000D02*
X187150000Y-52750000D01*
G75*
G02*
X187400000Y-52500000I250000J0D01*
G01*
X188600000Y-52500000D01*
G75*
G02*
X188850000Y-52750000I0J-250000D01*
G01*
X188850000Y-54250000D01*
G75*
G02*
X188600000Y-54500000I-250000J0D01*
G01*
X187400000Y-54500000D01*
G75*
G02*
X187150000Y-54250000I0J250000D01*
G01*
G37*
%TD.AperFunction*%
D16*
%TO.P,J6,2*%
%TO.N,Net-(J6-Pad2)*%
X190500000Y-53500000D03*
%TD*%
D20*
%TO.N,GND*%
X178500000Y-59000000D03*
X174500000Y-64750000D03*
X172000000Y-65000000D03*
X204500000Y-50000000D03*
X211250000Y-55250000D03*
X223500000Y-55250000D03*
X223250000Y-49500000D03*
X230000000Y-49500000D03*
X230000000Y-47750000D03*
X230000000Y-45750000D03*
X217750000Y-45750000D03*
X217750000Y-47750000D03*
X217500000Y-49500000D03*
X211000000Y-49500000D03*
X216250000Y-57500000D03*
X218250000Y-57500000D03*
X203250000Y-92000000D03*
X203250000Y-86500000D03*
X203250000Y-81000000D03*
X203250000Y-75500000D03*
X203250000Y-59250000D03*
X203000000Y-64500000D03*
X203250000Y-70000000D03*
X194500000Y-72250000D03*
X195500000Y-77250000D03*
X185250000Y-85500000D03*
X177500000Y-77250000D03*
X178250000Y-72250000D03*
X185000000Y-74500000D03*
X187500000Y-74500000D03*
X187500000Y-77000000D03*
X185000000Y-77000000D03*
X184000000Y-63250000D03*
X185500000Y-63250000D03*
X191000000Y-63750000D03*
X189500000Y-63750000D03*
X186500000Y-66750000D03*
X192500000Y-67250000D03*
X191000000Y-67250000D03*
X189500000Y-67250000D03*
X199000000Y-77500000D03*
X198500000Y-72750000D03*
X198500000Y-69750000D03*
X198500000Y-66750000D03*
%TO.N,+3V3*%
X185250000Y-83637500D03*
X190000000Y-87250000D03*
X203162500Y-95000000D03*
X203162500Y-89500000D03*
X203162500Y-84000000D03*
X203162500Y-78500000D03*
X203162500Y-73000000D03*
X203162500Y-67500000D03*
X203162500Y-62000000D03*
X186500000Y-68612500D03*
X185500000Y-65112500D03*
X180112500Y-59000000D03*
X170337500Y-60750000D03*
X193250000Y-52250000D03*
X218250000Y-56137500D03*
X218125000Y-54250000D03*
X193637500Y-77250000D03*
X180112500Y-72250000D03*
X189500000Y-69112500D03*
%TO.N,/USB_D-*%
X188275000Y-57750000D03*
%TO.N,/USB_D+*%
X187225000Y-57750000D03*
%TO.N,/SWD_CLK*%
X186937258Y-82499659D03*
%TO.N,/SWD_DATA*%
X188000000Y-82250000D03*
%TO.N,/QSPI_CSn*%
X178500000Y-66912500D03*
X176000000Y-61000000D03*
%TO.N,/PWM_L*%
X210250000Y-57000000D03*
X196500000Y-80750000D03*
%TO.N,/PWM_R*%
X197250000Y-80000000D03*
X222500000Y-58500000D03*
%TD*%
D21*
%TO.N,GND*%
X187500000Y-77000000D02*
X187500000Y-74500000D01*
D22*
%TO.N,+3V3*%
X202150000Y-50250000D02*
X195850000Y-50250000D01*
X195850000Y-50250000D02*
X193287500Y-50250000D01*
X193250000Y-50287500D02*
X193287500Y-50250000D01*
X193250000Y-52250000D02*
X193250000Y-50287500D01*
X204100001Y-90437501D02*
X203644590Y-89982090D01*
X203644590Y-89982090D02*
X203162500Y-89500000D01*
X204100001Y-94062499D02*
X204100001Y-90437501D01*
X203162500Y-95000000D02*
X204100001Y-94062499D01*
X204500000Y-85337500D02*
X203644590Y-84482090D01*
X204500000Y-88162500D02*
X204500000Y-85337500D01*
X203644590Y-84482090D02*
X203162500Y-84000000D01*
X203162500Y-89500000D02*
X204500000Y-88162500D01*
X203644590Y-78982090D02*
X203162500Y-78500000D01*
X204100001Y-79437501D02*
X203644590Y-78982090D01*
X204100001Y-83062499D02*
X204100001Y-79437501D01*
X203162500Y-84000000D02*
X204100001Y-83062499D01*
X204750000Y-74587500D02*
X203644590Y-73482090D01*
X203644590Y-73482090D02*
X203162500Y-73000000D01*
X204750000Y-76912500D02*
X204750000Y-74587500D01*
X203162500Y-78500000D02*
X204750000Y-76912500D01*
X203644590Y-67982090D02*
X203162500Y-67500000D01*
X204250000Y-68587500D02*
X203644590Y-67982090D01*
X204250000Y-71912500D02*
X204250000Y-68587500D01*
X203162500Y-73000000D02*
X204250000Y-71912500D01*
X203644590Y-62482090D02*
X203162500Y-62000000D01*
X204250000Y-66412500D02*
X204250000Y-63087500D01*
X204250000Y-63087500D02*
X203644590Y-62482090D01*
X203162500Y-67500000D02*
X204250000Y-66412500D01*
X218250000Y-54375000D02*
X218125000Y-54250000D01*
X218250000Y-56137500D02*
X218250000Y-54375000D01*
X218125000Y-54250000D02*
X216500000Y-52625000D01*
X203650000Y-52650000D02*
X202150000Y-51150000D01*
X207600000Y-52650000D02*
X203650000Y-52650000D01*
X207625000Y-52625000D02*
X207600000Y-52650000D01*
X202150000Y-51150000D02*
X202150000Y-50250000D01*
X216500000Y-52625000D02*
X207625000Y-52625000D01*
X170337500Y-60750000D02*
X170337500Y-59162500D01*
X170337500Y-59162500D02*
X172750000Y-56750000D01*
X177862500Y-56750000D02*
X180112500Y-59000000D01*
X172750000Y-56750000D02*
X177862500Y-56750000D01*
X185500000Y-65112500D02*
X183112500Y-65112500D01*
X180112500Y-62112500D02*
X180112500Y-59000000D01*
X183112500Y-65112500D02*
X180112500Y-62112500D01*
X190000000Y-88130000D02*
X192120000Y-90250000D01*
X190000000Y-87250000D02*
X190000000Y-88130000D01*
X190000000Y-81250000D02*
X190000000Y-84500000D01*
X189250000Y-80500000D02*
X190000000Y-81250000D01*
X186250000Y-80500000D02*
X189250000Y-80500000D01*
X185250000Y-81500000D02*
X186250000Y-80500000D01*
X190000000Y-84500000D02*
X190000000Y-87250000D01*
X185250000Y-83637500D02*
X185250000Y-81500000D01*
X187000000Y-69112500D02*
X186500000Y-68612500D01*
X189500000Y-69112500D02*
X187000000Y-69112500D01*
X182862500Y-72250000D02*
X186500000Y-68612500D01*
X180112500Y-72250000D02*
X182862500Y-72250000D01*
X185500000Y-67500000D02*
X185500000Y-65112500D01*
X185500000Y-67612500D02*
X185500000Y-67500000D01*
X186500000Y-68612500D02*
X185500000Y-67612500D01*
X193637500Y-73137500D02*
X193637500Y-77250000D01*
X189612500Y-69112500D02*
X193637500Y-73137500D01*
X189500000Y-69112500D02*
X189612500Y-69112500D01*
X190387500Y-80500000D02*
X193637500Y-77250000D01*
X189250000Y-80500000D02*
X190387500Y-80500000D01*
X196870000Y-95000000D02*
X192120000Y-90250000D01*
X203162500Y-95000000D02*
X196870000Y-95000000D01*
X193250000Y-57362500D02*
X193250000Y-52250000D01*
X185500000Y-65112500D02*
X193250000Y-57362500D01*
D21*
%TO.N,/USB_D-*%
X197875000Y-44125000D02*
X198250000Y-44500000D01*
X188275000Y-57750000D02*
X187937500Y-57412500D01*
X187187500Y-36077666D02*
X188077666Y-35187500D01*
X187937500Y-56672334D02*
X185937500Y-54672334D01*
X185937500Y-54672334D02*
X185937500Y-51077666D01*
X197875000Y-40625000D02*
X197000000Y-41500000D01*
X197000000Y-43000000D02*
X197875000Y-43875000D01*
X187937500Y-57412500D02*
X187937500Y-56672334D01*
X185937500Y-51077666D02*
X187187500Y-49827666D01*
X197000000Y-41500000D02*
X197000000Y-43000000D01*
X187187500Y-49827666D02*
X187187500Y-36077666D01*
X188077666Y-35187500D02*
X195922334Y-35187500D01*
X197875000Y-43875000D02*
X197875000Y-44125000D01*
X195922334Y-35187500D02*
X197875000Y-37140166D01*
X197875000Y-37140166D02*
X197875000Y-40625000D01*
%TO.N,/USB_D+*%
X187562500Y-57412500D02*
X187244305Y-57730695D01*
X186232485Y-55590211D02*
X186297979Y-55605160D01*
X186297979Y-55605160D02*
X186358505Y-55634308D01*
X186099812Y-55605160D02*
X186165306Y-55590211D01*
X186039286Y-55634308D02*
X186099812Y-55605160D01*
X186358505Y-55634308D02*
X186411028Y-55676194D01*
X185986763Y-55676193D02*
X186039286Y-55634308D01*
X187562500Y-56827666D02*
X187562500Y-57412500D01*
X185525378Y-56045017D02*
X185590872Y-56030068D01*
X187244305Y-57730695D02*
X187225000Y-57750000D01*
X185703921Y-55959036D02*
X185986763Y-55676193D01*
X185279657Y-55959036D02*
X185332179Y-56000921D01*
X186411028Y-55676194D02*
X187562500Y-56827666D01*
X185193675Y-55780494D02*
X185208624Y-55845988D01*
X185208624Y-55647821D02*
X185193675Y-55713315D01*
X185237772Y-55906514D02*
X185279657Y-55959036D01*
X185237772Y-55587295D02*
X185208624Y-55647821D01*
X185590872Y-56030068D02*
X185651398Y-56000921D01*
X185648481Y-55073387D02*
X185633532Y-55138881D01*
X186812500Y-35922334D02*
X186812500Y-49672334D01*
X185604385Y-54880188D02*
X185633532Y-54940714D01*
X185648481Y-55006208D02*
X185648481Y-55073387D01*
X185193675Y-55713315D02*
X185193675Y-55780494D01*
X185279657Y-55534772D02*
X185237772Y-55587295D01*
X185458199Y-56045017D02*
X185525378Y-56045017D01*
X185562500Y-50922334D02*
X185562500Y-54827666D01*
X185562500Y-54827666D02*
X185604385Y-54880188D01*
X185633532Y-54940714D02*
X185648481Y-55006208D01*
X185208624Y-55845988D02*
X185237772Y-55906514D01*
X185332179Y-56000921D02*
X185392705Y-56030068D01*
X186812500Y-49672334D02*
X185562500Y-50922334D01*
X198250000Y-42500000D02*
X198250000Y-36984834D01*
X187922334Y-34812500D02*
X186812500Y-35922334D01*
X185651398Y-56000921D02*
X185703921Y-55959036D01*
X185562500Y-55251930D02*
X185279657Y-55534772D01*
X185392705Y-56030068D02*
X185458199Y-56045017D01*
X185604385Y-55199407D02*
X185562500Y-55251930D01*
X196077666Y-34812500D02*
X187922334Y-34812500D01*
X185633532Y-55138881D02*
X185604385Y-55199407D01*
X186165306Y-55590211D02*
X186232485Y-55590211D01*
X198250000Y-36984834D02*
X196077666Y-34812500D01*
%TO.N,/SWD_CLK*%
X186937258Y-90147258D02*
X187040000Y-90250000D01*
X186937258Y-82499659D02*
X186937258Y-90147258D01*
%TO.N,/SWD_DATA*%
X188399999Y-82649999D02*
X188000000Y-82250000D01*
X188399999Y-89069999D02*
X188399999Y-82649999D01*
X189580000Y-90250000D02*
X188399999Y-89069999D01*
%TO.N,/QSPI_CSn*%
X176000000Y-64412500D02*
X176000000Y-61000000D01*
X178500000Y-66912500D02*
X176000000Y-64412500D01*
%TO.N,/PWM_L*%
X210250000Y-57000000D02*
X208925200Y-57000000D01*
X208925200Y-57000000D02*
X200750000Y-57000000D01*
X200750000Y-57000000D02*
X196500000Y-61250000D01*
X196500000Y-61250000D02*
X196500000Y-80750000D01*
%TO.N,/PWM_R*%
X197250000Y-80000000D02*
X197250000Y-76000000D01*
X197250000Y-76000000D02*
X197250000Y-63500000D01*
X197250000Y-63500000D02*
X197250000Y-62250000D01*
X197250000Y-62250000D02*
X201000000Y-58500000D01*
X201000000Y-58500000D02*
X222500000Y-58500000D01*
%TD*%
D23*
%TO.N,Net-(C6-Pad1)*%
X194261928Y-43650000D02*
X194265000Y-44214250D01*
X194423750Y-44373000D01*
X195623000Y-44373000D01*
X195623000Y-44353000D01*
X195877000Y-44353000D01*
X195877000Y-44373000D01*
X195897000Y-44373000D01*
X195897000Y-44627000D01*
X195877000Y-44627000D01*
X195877000Y-45826250D01*
X196035750Y-45985000D01*
X196600000Y-45988072D01*
X196724482Y-45975812D01*
X196844180Y-45939502D01*
X196954494Y-45880537D01*
X196966560Y-45870635D01*
X197045691Y-45973760D01*
X197056644Y-45986250D01*
X197507866Y-46437472D01*
X197572078Y-46521155D01*
X197609231Y-46610850D01*
X197623000Y-46715435D01*
X197623000Y-48491672D01*
X197609231Y-48596257D01*
X197572077Y-48685955D01*
X197512976Y-48762976D01*
X197479327Y-48788796D01*
X197488072Y-48700000D01*
X197485000Y-48235750D01*
X197326250Y-48077000D01*
X195977000Y-48077000D01*
X195977000Y-48097000D01*
X195723000Y-48097000D01*
X195723000Y-48077000D01*
X194373750Y-48077000D01*
X194323750Y-48127000D01*
X193414500Y-48127000D01*
X193414500Y-48147000D01*
X193160500Y-48147000D01*
X193160500Y-48127000D01*
X193140500Y-48127000D01*
X193140500Y-47873000D01*
X193160500Y-47873000D01*
X193160500Y-46798750D01*
X193414500Y-46798750D01*
X193414500Y-47873000D01*
X194351250Y-47873000D01*
X194401250Y-47823000D01*
X195723000Y-47823000D01*
X195723000Y-46723750D01*
X195977000Y-46723750D01*
X195977000Y-47823000D01*
X197326250Y-47823000D01*
X197485000Y-47664250D01*
X197488072Y-47200000D01*
X197475812Y-47075518D01*
X197439502Y-46955820D01*
X197380537Y-46845506D01*
X197301185Y-46748815D01*
X197204494Y-46669463D01*
X197094180Y-46610498D01*
X196974482Y-46574188D01*
X196850000Y-46561928D01*
X196135750Y-46565000D01*
X195977000Y-46723750D01*
X195723000Y-46723750D01*
X195564250Y-46565000D01*
X194850000Y-46561928D01*
X194725518Y-46574188D01*
X194605820Y-46610498D01*
X194495506Y-46669463D01*
X194398815Y-46748815D01*
X194331725Y-46830565D01*
X194326185Y-46823815D01*
X194229494Y-46744463D01*
X194119180Y-46685498D01*
X193999482Y-46649188D01*
X193875000Y-46636928D01*
X193573250Y-46640000D01*
X193414500Y-46798750D01*
X193160500Y-46798750D01*
X193001750Y-46640000D01*
X192809064Y-46638038D01*
X192875153Y-45778886D01*
X192875433Y-45774021D01*
X192876906Y-45735673D01*
X192877000Y-45730798D01*
X192877000Y-45350000D01*
X194261928Y-45350000D01*
X194274188Y-45474482D01*
X194310498Y-45594180D01*
X194369463Y-45704494D01*
X194448815Y-45801185D01*
X194545506Y-45880537D01*
X194655820Y-45939502D01*
X194775518Y-45975812D01*
X194900000Y-45988072D01*
X195464250Y-45985000D01*
X195623000Y-45826250D01*
X195623000Y-44627000D01*
X194423750Y-44627000D01*
X194265000Y-44785750D01*
X194261928Y-45350000D01*
X192877000Y-45350000D01*
X192877000Y-44008328D01*
X192890769Y-43903743D01*
X192927923Y-43814045D01*
X192987024Y-43737024D01*
X193064045Y-43677923D01*
X193153743Y-43640769D01*
X193258328Y-43627000D01*
X194264193Y-43627000D01*
X194261928Y-43650000D01*
%TA.AperFunction,Conductor*%
D24*
G36*
X194261928Y-43650000D02*
G01*
X194265000Y-44214250D01*
X194423750Y-44373000D01*
X195623000Y-44373000D01*
X195623000Y-44353000D01*
X195877000Y-44353000D01*
X195877000Y-44373000D01*
X195897000Y-44373000D01*
X195897000Y-44627000D01*
X195877000Y-44627000D01*
X195877000Y-45826250D01*
X196035750Y-45985000D01*
X196600000Y-45988072D01*
X196724482Y-45975812D01*
X196844180Y-45939502D01*
X196954494Y-45880537D01*
X196966560Y-45870635D01*
X197045691Y-45973760D01*
X197056644Y-45986250D01*
X197507866Y-46437472D01*
X197572078Y-46521155D01*
X197609231Y-46610850D01*
X197623000Y-46715435D01*
X197623000Y-48491672D01*
X197609231Y-48596257D01*
X197572077Y-48685955D01*
X197512976Y-48762976D01*
X197479327Y-48788796D01*
X197488072Y-48700000D01*
X197485000Y-48235750D01*
X197326250Y-48077000D01*
X195977000Y-48077000D01*
X195977000Y-48097000D01*
X195723000Y-48097000D01*
X195723000Y-48077000D01*
X194373750Y-48077000D01*
X194323750Y-48127000D01*
X193414500Y-48127000D01*
X193414500Y-48147000D01*
X193160500Y-48147000D01*
X193160500Y-48127000D01*
X193140500Y-48127000D01*
X193140500Y-47873000D01*
X193160500Y-47873000D01*
X193160500Y-46798750D01*
X193414500Y-46798750D01*
X193414500Y-47873000D01*
X194351250Y-47873000D01*
X194401250Y-47823000D01*
X195723000Y-47823000D01*
X195723000Y-46723750D01*
X195977000Y-46723750D01*
X195977000Y-47823000D01*
X197326250Y-47823000D01*
X197485000Y-47664250D01*
X197488072Y-47200000D01*
X197475812Y-47075518D01*
X197439502Y-46955820D01*
X197380537Y-46845506D01*
X197301185Y-46748815D01*
X197204494Y-46669463D01*
X197094180Y-46610498D01*
X196974482Y-46574188D01*
X196850000Y-46561928D01*
X196135750Y-46565000D01*
X195977000Y-46723750D01*
X195723000Y-46723750D01*
X195564250Y-46565000D01*
X194850000Y-46561928D01*
X194725518Y-46574188D01*
X194605820Y-46610498D01*
X194495506Y-46669463D01*
X194398815Y-46748815D01*
X194331725Y-46830565D01*
X194326185Y-46823815D01*
X194229494Y-46744463D01*
X194119180Y-46685498D01*
X193999482Y-46649188D01*
X193875000Y-46636928D01*
X193573250Y-46640000D01*
X193414500Y-46798750D01*
X193160500Y-46798750D01*
X193001750Y-46640000D01*
X192809064Y-46638038D01*
X192875153Y-45778886D01*
X192875433Y-45774021D01*
X192876906Y-45735673D01*
X192877000Y-45730798D01*
X192877000Y-45350000D01*
X194261928Y-45350000D01*
X194274188Y-45474482D01*
X194310498Y-45594180D01*
X194369463Y-45704494D01*
X194448815Y-45801185D01*
X194545506Y-45880537D01*
X194655820Y-45939502D01*
X194775518Y-45975812D01*
X194900000Y-45988072D01*
X195464250Y-45985000D01*
X195623000Y-45826250D01*
X195623000Y-44627000D01*
X194423750Y-44627000D01*
X194265000Y-44785750D01*
X194261928Y-45350000D01*
X192877000Y-45350000D01*
X192877000Y-44008328D01*
X192890769Y-43903743D01*
X192927923Y-43814045D01*
X192987024Y-43737024D01*
X193064045Y-43677923D01*
X193153743Y-43640769D01*
X193258328Y-43627000D01*
X194264193Y-43627000D01*
X194261928Y-43650000D01*
G37*
%TD.AperFunction*%
%TD*%
D23*
%TO.N,GND*%
X230768083Y-29981173D02*
X231511891Y-30184656D01*
X232207905Y-30516638D01*
X232834130Y-30966626D01*
X233370777Y-31520403D01*
X233800871Y-32160451D01*
X234110829Y-32866553D01*
X234292065Y-33621457D01*
X234340000Y-34274207D01*
X234340001Y-94220597D01*
X234268827Y-95018083D01*
X234065344Y-95761890D01*
X233733363Y-96457904D01*
X233283374Y-97084130D01*
X232729597Y-97620777D01*
X232089549Y-98050871D01*
X231383447Y-98360829D01*
X230628543Y-98542065D01*
X229975793Y-98590000D01*
X160029392Y-98590000D01*
X159231917Y-98518827D01*
X158488110Y-98315344D01*
X157792096Y-97983363D01*
X157165870Y-97533374D01*
X156629223Y-96979597D01*
X156199129Y-96339549D01*
X155889171Y-95633447D01*
X155707935Y-94878543D01*
X155660000Y-94225793D01*
X155660000Y-93725701D01*
X157215000Y-93725701D01*
X157215000Y-94274299D01*
X157322026Y-94812354D01*
X157531965Y-95319192D01*
X157836750Y-95775334D01*
X158224666Y-96163250D01*
X158680808Y-96468035D01*
X159187646Y-96677974D01*
X159725701Y-96785000D01*
X160274299Y-96785000D01*
X160812354Y-96677974D01*
X161319192Y-96468035D01*
X161775334Y-96163250D01*
X162163250Y-95775334D01*
X162468035Y-95319192D01*
X162677974Y-94812354D01*
X162785000Y-94274299D01*
X162785000Y-93725701D01*
X162677974Y-93187646D01*
X162468035Y-92680808D01*
X162163250Y-92224666D01*
X161775334Y-91836750D01*
X161319192Y-91531965D01*
X160812354Y-91322026D01*
X160274299Y-91215000D01*
X159725701Y-91215000D01*
X159187646Y-91322026D01*
X158680808Y-91531965D01*
X158224666Y-91836750D01*
X157836750Y-92224666D01*
X157531965Y-92680808D01*
X157322026Y-93187646D01*
X157215000Y-93725701D01*
X155660000Y-93725701D01*
X155660000Y-91100000D01*
X183011928Y-91100000D01*
X183024188Y-91224482D01*
X183060498Y-91344180D01*
X183119463Y-91454494D01*
X183198815Y-91551185D01*
X183295506Y-91630537D01*
X183405820Y-91689502D01*
X183525518Y-91725812D01*
X183650000Y-91738072D01*
X184214250Y-91735000D01*
X184373000Y-91576250D01*
X184373000Y-90377000D01*
X183173750Y-90377000D01*
X183015000Y-90535750D01*
X183011928Y-91100000D01*
X155660000Y-91100000D01*
X155660000Y-89400000D01*
X183011928Y-89400000D01*
X183015000Y-89964250D01*
X183173750Y-90123000D01*
X184373000Y-90123000D01*
X184373000Y-88923750D01*
X184214250Y-88765000D01*
X183650000Y-88761928D01*
X183525518Y-88774188D01*
X183405820Y-88810498D01*
X183295506Y-88869463D01*
X183198815Y-88948815D01*
X183119463Y-89045506D01*
X183060498Y-89155820D01*
X183024188Y-89275518D01*
X183011928Y-89400000D01*
X155660000Y-89400000D01*
X155660000Y-76715565D01*
X185464040Y-76715565D01*
X185531020Y-76955656D01*
X185780048Y-77072756D01*
X186047135Y-77139023D01*
X186322017Y-77151910D01*
X186594133Y-77110922D01*
X186853023Y-77017636D01*
X186968980Y-76955656D01*
X187035960Y-76715565D01*
X186250000Y-75929605D01*
X185464040Y-76715565D01*
X155660000Y-76715565D01*
X155660000Y-75822017D01*
X184848090Y-75822017D01*
X184889078Y-76094133D01*
X184982364Y-76353023D01*
X185044344Y-76468980D01*
X185284435Y-76535960D01*
X186070395Y-75750000D01*
X186429605Y-75750000D01*
X187215565Y-76535960D01*
X187455656Y-76468980D01*
X187572756Y-76219952D01*
X187639023Y-75952865D01*
X187651910Y-75677983D01*
X187610922Y-75405867D01*
X187517636Y-75146977D01*
X187455656Y-75031020D01*
X187215565Y-74964040D01*
X186429605Y-75750000D01*
X186070395Y-75750000D01*
X185284435Y-74964040D01*
X185044344Y-75031020D01*
X184927244Y-75280048D01*
X184860977Y-75547135D01*
X184848090Y-75822017D01*
X155660000Y-75822017D01*
X155660000Y-74784435D01*
X185464040Y-74784435D01*
X186250000Y-75570395D01*
X187035960Y-74784435D01*
X186968980Y-74544344D01*
X186719952Y-74427244D01*
X186452865Y-74360977D01*
X186177983Y-74348090D01*
X185905867Y-74389078D01*
X185646977Y-74482364D01*
X185531020Y-74544344D01*
X185464040Y-74784435D01*
X155660000Y-74784435D01*
X155660000Y-60648061D01*
X169302500Y-60648061D01*
X169302500Y-60851939D01*
X169342274Y-61051898D01*
X169420295Y-61240256D01*
X169533563Y-61409774D01*
X169677726Y-61553937D01*
X169847244Y-61667205D01*
X170035602Y-61745226D01*
X170235561Y-61785000D01*
X170439439Y-61785000D01*
X170639398Y-61745226D01*
X170827756Y-61667205D01*
X170997274Y-61553937D01*
X171141437Y-61409774D01*
X171254705Y-61240256D01*
X171332726Y-61051898D01*
X171363325Y-60898061D01*
X174965000Y-60898061D01*
X174965000Y-61101939D01*
X175004774Y-61301898D01*
X175082795Y-61490256D01*
X175196063Y-61659774D01*
X175301501Y-61765212D01*
X175301500Y-64378202D01*
X175298122Y-64412500D01*
X175301500Y-64446798D01*
X175301500Y-64446808D01*
X175311607Y-64549429D01*
X175345554Y-64661336D01*
X175351549Y-64681098D01*
X175416409Y-64802443D01*
X175481826Y-64882153D01*
X175481829Y-64882156D01*
X175503697Y-64908802D01*
X175530344Y-64930671D01*
X177465000Y-66865328D01*
X177465000Y-67014439D01*
X177504774Y-67214398D01*
X177582795Y-67402756D01*
X177696063Y-67572274D01*
X177840226Y-67716437D01*
X178009744Y-67829705D01*
X178198102Y-67907726D01*
X178398061Y-67947500D01*
X178601939Y-67947500D01*
X178801898Y-67907726D01*
X178990256Y-67829705D01*
X179159774Y-67716437D01*
X179303937Y-67572274D01*
X179417205Y-67402756D01*
X179495226Y-67214398D01*
X179535000Y-67014439D01*
X179535000Y-66810561D01*
X179495226Y-66610602D01*
X179417205Y-66422244D01*
X179303937Y-66252726D01*
X179159774Y-66108563D01*
X178990256Y-65995295D01*
X178801898Y-65917274D01*
X178601939Y-65877500D01*
X178452828Y-65877500D01*
X176698500Y-64123173D01*
X176698500Y-61765211D01*
X176803937Y-61659774D01*
X176917205Y-61490256D01*
X176995226Y-61301898D01*
X177035000Y-61101939D01*
X177035000Y-60898061D01*
X176995226Y-60698102D01*
X176917205Y-60509744D01*
X176803937Y-60340226D01*
X176659774Y-60196063D01*
X176490256Y-60082795D01*
X176301898Y-60004774D01*
X176101939Y-59965000D01*
X175898061Y-59965000D01*
X175698102Y-60004774D01*
X175509744Y-60082795D01*
X175340226Y-60196063D01*
X175196063Y-60340226D01*
X175082795Y-60509744D01*
X175004774Y-60698102D01*
X174965000Y-60898061D01*
X171363325Y-60898061D01*
X171372500Y-60851939D01*
X171372500Y-60648061D01*
X171332726Y-60448102D01*
X171254705Y-60259744D01*
X171222500Y-60211546D01*
X171222500Y-59529078D01*
X173116579Y-57635000D01*
X177495922Y-57635000D01*
X179105965Y-59245044D01*
X179117274Y-59301898D01*
X179195295Y-59490256D01*
X179227501Y-59538456D01*
X179227500Y-62069031D01*
X179223219Y-62112500D01*
X179227500Y-62155969D01*
X179227500Y-62155976D01*
X179240305Y-62285989D01*
X179290911Y-62452812D01*
X179373089Y-62606558D01*
X179483683Y-62741317D01*
X179517456Y-62769034D01*
X182455970Y-65707549D01*
X182483683Y-65741317D01*
X182517451Y-65769030D01*
X182517453Y-65769032D01*
X182618441Y-65851911D01*
X182772186Y-65934089D01*
X182939010Y-65984695D01*
X183069023Y-65997500D01*
X183069031Y-65997500D01*
X183112500Y-66001781D01*
X183155969Y-65997500D01*
X184615001Y-65997500D01*
X184615000Y-67456523D01*
X184615000Y-67569031D01*
X184610719Y-67612500D01*
X184615000Y-67655969D01*
X184615000Y-67655976D01*
X184627805Y-67785989D01*
X184678411Y-67952812D01*
X184760589Y-68106558D01*
X184871183Y-68241317D01*
X184904956Y-68269034D01*
X185248421Y-68612500D01*
X182495922Y-71365000D01*
X180650954Y-71365000D01*
X180602756Y-71332795D01*
X180414398Y-71254774D01*
X180214439Y-71215000D01*
X180010561Y-71215000D01*
X179810602Y-71254774D01*
X179622244Y-71332795D01*
X179452726Y-71446063D01*
X179308563Y-71590226D01*
X179195295Y-71759744D01*
X179117274Y-71948102D01*
X179077500Y-72148061D01*
X179077500Y-72351939D01*
X179117274Y-72551898D01*
X179195295Y-72740256D01*
X179308563Y-72909774D01*
X179452726Y-73053937D01*
X179622244Y-73167205D01*
X179810602Y-73245226D01*
X180010561Y-73285000D01*
X180214439Y-73285000D01*
X180414398Y-73245226D01*
X180602756Y-73167205D01*
X180650954Y-73135000D01*
X182819031Y-73135000D01*
X182862500Y-73139281D01*
X182905969Y-73135000D01*
X182905977Y-73135000D01*
X183035990Y-73122195D01*
X183202813Y-73071589D01*
X183356559Y-72989411D01*
X183491317Y-72878817D01*
X183519034Y-72845044D01*
X186509999Y-69854080D01*
X186659687Y-69934089D01*
X186826510Y-69984695D01*
X186956523Y-69997500D01*
X186956531Y-69997500D01*
X187000000Y-70001781D01*
X187043469Y-69997500D01*
X188961546Y-69997500D01*
X189009744Y-70029705D01*
X189198102Y-70107726D01*
X189395391Y-70146969D01*
X192752500Y-73504079D01*
X192752501Y-76711544D01*
X192720295Y-76759744D01*
X192642274Y-76948102D01*
X192630965Y-77004956D01*
X190020922Y-79615000D01*
X189293469Y-79615000D01*
X189250000Y-79610719D01*
X189206531Y-79615000D01*
X186293469Y-79615000D01*
X186250000Y-79610719D01*
X186206531Y-79615000D01*
X186206523Y-79615000D01*
X186076510Y-79627805D01*
X185909686Y-79678411D01*
X185755941Y-79760589D01*
X185654953Y-79843468D01*
X185654951Y-79843470D01*
X185621183Y-79871183D01*
X185593470Y-79904951D01*
X184654951Y-80843471D01*
X184621184Y-80871183D01*
X184593471Y-80904951D01*
X184593468Y-80904954D01*
X184510590Y-81005941D01*
X184428412Y-81159687D01*
X184377805Y-81326510D01*
X184360719Y-81500000D01*
X184365001Y-81543479D01*
X184365000Y-83099045D01*
X184332795Y-83147244D01*
X184254774Y-83335602D01*
X184215000Y-83535561D01*
X184215000Y-83739439D01*
X184254774Y-83939398D01*
X184332795Y-84127756D01*
X184446063Y-84297274D01*
X184590226Y-84441437D01*
X184759744Y-84554705D01*
X184948102Y-84632726D01*
X185148061Y-84672500D01*
X185351939Y-84672500D01*
X185551898Y-84632726D01*
X185740256Y-84554705D01*
X185909774Y-84441437D01*
X186053937Y-84297274D01*
X186167205Y-84127756D01*
X186238758Y-83955013D01*
X186238759Y-88999378D01*
X186093368Y-89096525D01*
X185961513Y-89228380D01*
X185939502Y-89155820D01*
X185880537Y-89045506D01*
X185801185Y-88948815D01*
X185704494Y-88869463D01*
X185594180Y-88810498D01*
X185474482Y-88774188D01*
X185350000Y-88761928D01*
X184785750Y-88765000D01*
X184627000Y-88923750D01*
X184627000Y-90123000D01*
X184647000Y-90123000D01*
X184647000Y-90377000D01*
X184627000Y-90377000D01*
X184627000Y-91576250D01*
X184785750Y-91735000D01*
X185350000Y-91738072D01*
X185474482Y-91725812D01*
X185594180Y-91689502D01*
X185704494Y-91630537D01*
X185801185Y-91551185D01*
X185880537Y-91454494D01*
X185939502Y-91344180D01*
X185961513Y-91271620D01*
X186093368Y-91403475D01*
X186336589Y-91565990D01*
X186606842Y-91677932D01*
X186893740Y-91735000D01*
X187186260Y-91735000D01*
X187473158Y-91677932D01*
X187743411Y-91565990D01*
X187986632Y-91403475D01*
X188193475Y-91196632D01*
X188310000Y-91022240D01*
X188426525Y-91196632D01*
X188633368Y-91403475D01*
X188876589Y-91565990D01*
X189146842Y-91677932D01*
X189433740Y-91735000D01*
X189726260Y-91735000D01*
X190013158Y-91677932D01*
X190283411Y-91565990D01*
X190526632Y-91403475D01*
X190733475Y-91196632D01*
X190850000Y-91022240D01*
X190966525Y-91196632D01*
X191173368Y-91403475D01*
X191416589Y-91565990D01*
X191686842Y-91677932D01*
X191973740Y-91735000D01*
X192266260Y-91735000D01*
X192338961Y-91720539D01*
X196213470Y-95595049D01*
X196241183Y-95628817D01*
X196274951Y-95656530D01*
X196274953Y-95656532D01*
X196307487Y-95683232D01*
X196375941Y-95739411D01*
X196529687Y-95821589D01*
X196696510Y-95872195D01*
X196826523Y-95885000D01*
X196826533Y-95885000D01*
X196869999Y-95889281D01*
X196913465Y-95885000D01*
X202624046Y-95885000D01*
X202672244Y-95917205D01*
X202860602Y-95995226D01*
X203060561Y-96035000D01*
X203264439Y-96035000D01*
X203464398Y-95995226D01*
X203652756Y-95917205D01*
X203822274Y-95803937D01*
X203966437Y-95659774D01*
X204079705Y-95490256D01*
X204157726Y-95301898D01*
X204169035Y-95245043D01*
X204695051Y-94719028D01*
X204728818Y-94691316D01*
X204769460Y-94641795D01*
X204839412Y-94556558D01*
X204921590Y-94402813D01*
X204972196Y-94235989D01*
X204977867Y-94178411D01*
X204985001Y-94105976D01*
X204985001Y-94105968D01*
X204989282Y-94062499D01*
X204985001Y-94019030D01*
X204985001Y-92750000D01*
X206011928Y-92750000D01*
X206011928Y-94250000D01*
X206028992Y-94423254D01*
X206079528Y-94589850D01*
X206161595Y-94743386D01*
X206272038Y-94877962D01*
X206406614Y-94988405D01*
X206560150Y-95070472D01*
X206726746Y-95121008D01*
X206900000Y-95138072D01*
X208100000Y-95138072D01*
X208273254Y-95121008D01*
X208439850Y-95070472D01*
X208593386Y-94988405D01*
X208727962Y-94877962D01*
X208838405Y-94743386D01*
X208892914Y-94641407D01*
X208893198Y-94641795D01*
X209107954Y-94838664D01*
X209356991Y-94989854D01*
X209630739Y-95089554D01*
X209643110Y-95091476D01*
X209873000Y-94970155D01*
X209873000Y-93627000D01*
X210127000Y-93627000D01*
X210127000Y-94970155D01*
X210356890Y-95091476D01*
X210369261Y-95089554D01*
X210643009Y-94989854D01*
X210892046Y-94838664D01*
X211106802Y-94641795D01*
X211279025Y-94406812D01*
X211402096Y-94142745D01*
X211471285Y-93859742D01*
X211388322Y-93725701D01*
X227215000Y-93725701D01*
X227215000Y-94274299D01*
X227322026Y-94812354D01*
X227531965Y-95319192D01*
X227836750Y-95775334D01*
X228224666Y-96163250D01*
X228680808Y-96468035D01*
X229187646Y-96677974D01*
X229725701Y-96785000D01*
X230274299Y-96785000D01*
X230812354Y-96677974D01*
X231319192Y-96468035D01*
X231775334Y-96163250D01*
X232163250Y-95775334D01*
X232468035Y-95319192D01*
X232677974Y-94812354D01*
X232785000Y-94274299D01*
X232785000Y-93725701D01*
X232677974Y-93187646D01*
X232468035Y-92680808D01*
X232163250Y-92224666D01*
X231775334Y-91836750D01*
X231319192Y-91531965D01*
X230812354Y-91322026D01*
X230274299Y-91215000D01*
X229725701Y-91215000D01*
X229187646Y-91322026D01*
X228680808Y-91531965D01*
X228224666Y-91836750D01*
X227836750Y-92224666D01*
X227531965Y-92680808D01*
X227322026Y-93187646D01*
X227215000Y-93725701D01*
X211388322Y-93725701D01*
X211327232Y-93627000D01*
X210127000Y-93627000D01*
X209873000Y-93627000D01*
X209853000Y-93627000D01*
X209853000Y-93373000D01*
X209873000Y-93373000D01*
X209873000Y-92029845D01*
X210127000Y-92029845D01*
X210127000Y-93373000D01*
X211327232Y-93373000D01*
X211471285Y-93140258D01*
X211402096Y-92857255D01*
X211279025Y-92593188D01*
X211106802Y-92358205D01*
X210892046Y-92161336D01*
X210643009Y-92010146D01*
X210369261Y-91910446D01*
X210356890Y-91908524D01*
X210127000Y-92029845D01*
X209873000Y-92029845D01*
X209643110Y-91908524D01*
X209630739Y-91910446D01*
X209356991Y-92010146D01*
X209107954Y-92161336D01*
X208893198Y-92358205D01*
X208892914Y-92358593D01*
X208838405Y-92256614D01*
X208727962Y-92122038D01*
X208593386Y-92011595D01*
X208439850Y-91929528D01*
X208273254Y-91878992D01*
X208100000Y-91861928D01*
X206900000Y-91861928D01*
X206726746Y-91878992D01*
X206560150Y-91929528D01*
X206406614Y-92011595D01*
X206272038Y-92122038D01*
X206161595Y-92256614D01*
X206079528Y-92410150D01*
X206028992Y-92576746D01*
X206011928Y-92750000D01*
X204985001Y-92750000D01*
X204985001Y-90480966D01*
X204989282Y-90437500D01*
X204985001Y-90394034D01*
X204985001Y-90394024D01*
X204972196Y-90264011D01*
X204921590Y-90097188D01*
X204839412Y-89943442D01*
X204728818Y-89808684D01*
X204695045Y-89780967D01*
X204414078Y-89500000D01*
X205095050Y-88819029D01*
X205128817Y-88791317D01*
X205162726Y-88750000D01*
X205239411Y-88656559D01*
X205321589Y-88502814D01*
X205372195Y-88335990D01*
X205381134Y-88245226D01*
X205385000Y-88205977D01*
X205385000Y-88205969D01*
X205389281Y-88162500D01*
X205385000Y-88119031D01*
X205385000Y-87250000D01*
X206011928Y-87250000D01*
X206011928Y-88750000D01*
X206028992Y-88923254D01*
X206079528Y-89089850D01*
X206161595Y-89243386D01*
X206272038Y-89377962D01*
X206406614Y-89488405D01*
X206560150Y-89570472D01*
X206726746Y-89621008D01*
X206900000Y-89638072D01*
X208100000Y-89638072D01*
X208273254Y-89621008D01*
X208439850Y-89570472D01*
X208593386Y-89488405D01*
X208727962Y-89377962D01*
X208838405Y-89243386D01*
X208892914Y-89141407D01*
X208893198Y-89141795D01*
X209107954Y-89338664D01*
X209356991Y-89489854D01*
X209630739Y-89589554D01*
X209643110Y-89591476D01*
X209873000Y-89470155D01*
X209873000Y-88127000D01*
X210127000Y-88127000D01*
X210127000Y-89470155D01*
X210356890Y-89591476D01*
X210369261Y-89589554D01*
X210643009Y-89489854D01*
X210892046Y-89338664D01*
X211106802Y-89141795D01*
X211279025Y-88906812D01*
X211402096Y-88642745D01*
X211471285Y-88359742D01*
X211327232Y-88127000D01*
X210127000Y-88127000D01*
X209873000Y-88127000D01*
X209853000Y-88127000D01*
X209853000Y-87873000D01*
X209873000Y-87873000D01*
X209873000Y-86529845D01*
X210127000Y-86529845D01*
X210127000Y-87873000D01*
X211327232Y-87873000D01*
X211471285Y-87640258D01*
X211402096Y-87357255D01*
X211279025Y-87093188D01*
X211106802Y-86858205D01*
X210892046Y-86661336D01*
X210643009Y-86510146D01*
X210369261Y-86410446D01*
X210356890Y-86408524D01*
X210127000Y-86529845D01*
X209873000Y-86529845D01*
X209643110Y-86408524D01*
X209630739Y-86410446D01*
X209356991Y-86510146D01*
X209107954Y-86661336D01*
X208893198Y-86858205D01*
X208892914Y-86858593D01*
X208838405Y-86756614D01*
X208727962Y-86622038D01*
X208593386Y-86511595D01*
X208439850Y-86429528D01*
X208273254Y-86378992D01*
X208100000Y-86361928D01*
X206900000Y-86361928D01*
X206726746Y-86378992D01*
X206560150Y-86429528D01*
X206406614Y-86511595D01*
X206272038Y-86622038D01*
X206161595Y-86756614D01*
X206079528Y-86910150D01*
X206028992Y-87076746D01*
X206011928Y-87250000D01*
X205385000Y-87250000D01*
X205385000Y-85380965D01*
X205389281Y-85337499D01*
X205385000Y-85294033D01*
X205385000Y-85294023D01*
X205372195Y-85164010D01*
X205321589Y-84997187D01*
X205239411Y-84843441D01*
X205128817Y-84708683D01*
X205095049Y-84680970D01*
X204414078Y-84000000D01*
X204695051Y-83719028D01*
X204728818Y-83691316D01*
X204769460Y-83641795D01*
X204839412Y-83556558D01*
X204921590Y-83402813D01*
X204972196Y-83235989D01*
X204976128Y-83196063D01*
X204985001Y-83105976D01*
X204985001Y-83105968D01*
X204989282Y-83062499D01*
X204985001Y-83019030D01*
X204985001Y-81750000D01*
X206011928Y-81750000D01*
X206011928Y-83250000D01*
X206028992Y-83423254D01*
X206079528Y-83589850D01*
X206161595Y-83743386D01*
X206272038Y-83877962D01*
X206406614Y-83988405D01*
X206560150Y-84070472D01*
X206726746Y-84121008D01*
X206900000Y-84138072D01*
X208100000Y-84138072D01*
X208273254Y-84121008D01*
X208439850Y-84070472D01*
X208593386Y-83988405D01*
X208727962Y-83877962D01*
X208838405Y-83743386D01*
X208892914Y-83641407D01*
X208893198Y-83641795D01*
X209107954Y-83838664D01*
X209356991Y-83989854D01*
X209630739Y-84089554D01*
X209643110Y-84091476D01*
X209873000Y-83970155D01*
X209873000Y-82627000D01*
X210127000Y-82627000D01*
X210127000Y-83970155D01*
X210356890Y-84091476D01*
X210369261Y-84089554D01*
X210643009Y-83989854D01*
X210892046Y-83838664D01*
X211106802Y-83641795D01*
X211279025Y-83406812D01*
X211402096Y-83142745D01*
X211471285Y-82859742D01*
X211327232Y-82627000D01*
X210127000Y-82627000D01*
X209873000Y-82627000D01*
X209853000Y-82627000D01*
X209853000Y-82373000D01*
X209873000Y-82373000D01*
X209873000Y-81029845D01*
X210127000Y-81029845D01*
X210127000Y-82373000D01*
X211327232Y-82373000D01*
X211471285Y-82140258D01*
X211402096Y-81857255D01*
X211279025Y-81593188D01*
X211106802Y-81358205D01*
X210892046Y-81161336D01*
X210643009Y-81010146D01*
X210369261Y-80910446D01*
X210356890Y-80908524D01*
X210127000Y-81029845D01*
X209873000Y-81029845D01*
X209643110Y-80908524D01*
X209630739Y-80910446D01*
X209356991Y-81010146D01*
X209107954Y-81161336D01*
X208893198Y-81358205D01*
X208892914Y-81358593D01*
X208838405Y-81256614D01*
X208727962Y-81122038D01*
X208593386Y-81011595D01*
X208439850Y-80929528D01*
X208273254Y-80878992D01*
X208100000Y-80861928D01*
X206900000Y-80861928D01*
X206726746Y-80878992D01*
X206560150Y-80929528D01*
X206406614Y-81011595D01*
X206272038Y-81122038D01*
X206161595Y-81256614D01*
X206079528Y-81410150D01*
X206028992Y-81576746D01*
X206011928Y-81750000D01*
X204985001Y-81750000D01*
X204985001Y-79480966D01*
X204989282Y-79437500D01*
X204985001Y-79394034D01*
X204985001Y-79394024D01*
X204972196Y-79264011D01*
X204921590Y-79097188D01*
X204839412Y-78943442D01*
X204728818Y-78808684D01*
X204695045Y-78780967D01*
X204414078Y-78500000D01*
X205345050Y-77569029D01*
X205378817Y-77541317D01*
X205408808Y-77504774D01*
X205489410Y-77406560D01*
X205489411Y-77406559D01*
X205571589Y-77252813D01*
X205622195Y-77085990D01*
X205635000Y-76955977D01*
X205635000Y-76955967D01*
X205639281Y-76912501D01*
X205635000Y-76869034D01*
X205635000Y-76250000D01*
X206011928Y-76250000D01*
X206011928Y-77750000D01*
X206028992Y-77923254D01*
X206079528Y-78089850D01*
X206161595Y-78243386D01*
X206272038Y-78377962D01*
X206406614Y-78488405D01*
X206560150Y-78570472D01*
X206726746Y-78621008D01*
X206900000Y-78638072D01*
X208100000Y-78638072D01*
X208273254Y-78621008D01*
X208439850Y-78570472D01*
X208593386Y-78488405D01*
X208727962Y-78377962D01*
X208838405Y-78243386D01*
X208892914Y-78141407D01*
X208893198Y-78141795D01*
X209107954Y-78338664D01*
X209356991Y-78489854D01*
X209630739Y-78589554D01*
X209643110Y-78591476D01*
X209873000Y-78470155D01*
X209873000Y-77127000D01*
X210127000Y-77127000D01*
X210127000Y-78470155D01*
X210356890Y-78591476D01*
X210369261Y-78589554D01*
X210643009Y-78489854D01*
X210892046Y-78338664D01*
X211106802Y-78141795D01*
X211279025Y-77906812D01*
X211402096Y-77642745D01*
X211471285Y-77359742D01*
X211327232Y-77127000D01*
X210127000Y-77127000D01*
X209873000Y-77127000D01*
X209853000Y-77127000D01*
X209853000Y-76873000D01*
X209873000Y-76873000D01*
X209873000Y-75529845D01*
X210127000Y-75529845D01*
X210127000Y-76873000D01*
X211327232Y-76873000D01*
X211471285Y-76640258D01*
X211402096Y-76357255D01*
X211279025Y-76093188D01*
X211106802Y-75858205D01*
X210892046Y-75661336D01*
X210643009Y-75510146D01*
X210369261Y-75410446D01*
X210356890Y-75408524D01*
X210127000Y-75529845D01*
X209873000Y-75529845D01*
X209643110Y-75408524D01*
X209630739Y-75410446D01*
X209356991Y-75510146D01*
X209107954Y-75661336D01*
X208893198Y-75858205D01*
X208892914Y-75858593D01*
X208838405Y-75756614D01*
X208727962Y-75622038D01*
X208593386Y-75511595D01*
X208439850Y-75429528D01*
X208273254Y-75378992D01*
X208100000Y-75361928D01*
X206900000Y-75361928D01*
X206726746Y-75378992D01*
X206560150Y-75429528D01*
X206406614Y-75511595D01*
X206272038Y-75622038D01*
X206161595Y-75756614D01*
X206079528Y-75910150D01*
X206028992Y-76076746D01*
X206011928Y-76250000D01*
X205635000Y-76250000D01*
X205635000Y-74630969D01*
X205639281Y-74587500D01*
X205635000Y-74544031D01*
X205635000Y-74544023D01*
X205622195Y-74414010D01*
X205571589Y-74247187D01*
X205489411Y-74093441D01*
X205476030Y-74077136D01*
X205406532Y-73992453D01*
X205406530Y-73992451D01*
X205378817Y-73958683D01*
X205345049Y-73930970D01*
X204414078Y-73000000D01*
X204845050Y-72569029D01*
X204878817Y-72541317D01*
X204989411Y-72406559D01*
X205071589Y-72252813D01*
X205122195Y-72085990D01*
X205135000Y-71955977D01*
X205135000Y-71955967D01*
X205139281Y-71912501D01*
X205135000Y-71869035D01*
X205135000Y-70750000D01*
X206011928Y-70750000D01*
X206011928Y-72250000D01*
X206028992Y-72423254D01*
X206079528Y-72589850D01*
X206161595Y-72743386D01*
X206272038Y-72877962D01*
X206406614Y-72988405D01*
X206560150Y-73070472D01*
X206726746Y-73121008D01*
X206900000Y-73138072D01*
X208100000Y-73138072D01*
X208273254Y-73121008D01*
X208439850Y-73070472D01*
X208593386Y-72988405D01*
X208727962Y-72877962D01*
X208838405Y-72743386D01*
X208892914Y-72641407D01*
X208893198Y-72641795D01*
X209107954Y-72838664D01*
X209356991Y-72989854D01*
X209630739Y-73089554D01*
X209643110Y-73091476D01*
X209873000Y-72970155D01*
X209873000Y-71627000D01*
X210127000Y-71627000D01*
X210127000Y-72970155D01*
X210356890Y-73091476D01*
X210369261Y-73089554D01*
X210643009Y-72989854D01*
X210892046Y-72838664D01*
X211106802Y-72641795D01*
X211279025Y-72406812D01*
X211402096Y-72142745D01*
X211471285Y-71859742D01*
X211327232Y-71627000D01*
X210127000Y-71627000D01*
X209873000Y-71627000D01*
X209853000Y-71627000D01*
X209853000Y-71373000D01*
X209873000Y-71373000D01*
X209873000Y-70029845D01*
X210127000Y-70029845D01*
X210127000Y-71373000D01*
X211327232Y-71373000D01*
X211471285Y-71140258D01*
X211402096Y-70857255D01*
X211279025Y-70593188D01*
X211106802Y-70358205D01*
X210892046Y-70161336D01*
X210643009Y-70010146D01*
X210369261Y-69910446D01*
X210356890Y-69908524D01*
X210127000Y-70029845D01*
X209873000Y-70029845D01*
X209643110Y-69908524D01*
X209630739Y-69910446D01*
X209356991Y-70010146D01*
X209107954Y-70161336D01*
X208893198Y-70358205D01*
X208892914Y-70358593D01*
X208838405Y-70256614D01*
X208727962Y-70122038D01*
X208593386Y-70011595D01*
X208439850Y-69929528D01*
X208273254Y-69878992D01*
X208100000Y-69861928D01*
X206900000Y-69861928D01*
X206726746Y-69878992D01*
X206560150Y-69929528D01*
X206406614Y-70011595D01*
X206272038Y-70122038D01*
X206161595Y-70256614D01*
X206079528Y-70410150D01*
X206028992Y-70576746D01*
X206011928Y-70750000D01*
X205135000Y-70750000D01*
X205135000Y-68630966D01*
X205139281Y-68587499D01*
X205135000Y-68544033D01*
X205135000Y-68544023D01*
X205122195Y-68414010D01*
X205071589Y-68247187D01*
X204989411Y-68093441D01*
X204878817Y-67958683D01*
X204845049Y-67930970D01*
X204414078Y-67500000D01*
X204845050Y-67069029D01*
X204878817Y-67041317D01*
X204926117Y-66983683D01*
X204989410Y-66906560D01*
X204989411Y-66906559D01*
X205071589Y-66752813D01*
X205122195Y-66585990D01*
X205135000Y-66455977D01*
X205135000Y-66455967D01*
X205139281Y-66412501D01*
X205135000Y-66369035D01*
X205135000Y-65250000D01*
X206011928Y-65250000D01*
X206011928Y-66750000D01*
X206028992Y-66923254D01*
X206079528Y-67089850D01*
X206161595Y-67243386D01*
X206272038Y-67377962D01*
X206406614Y-67488405D01*
X206560150Y-67570472D01*
X206726746Y-67621008D01*
X206900000Y-67638072D01*
X208100000Y-67638072D01*
X208273254Y-67621008D01*
X208439850Y-67570472D01*
X208593386Y-67488405D01*
X208727962Y-67377962D01*
X208838405Y-67243386D01*
X208892914Y-67141407D01*
X208893198Y-67141795D01*
X209107954Y-67338664D01*
X209356991Y-67489854D01*
X209630739Y-67589554D01*
X209643110Y-67591476D01*
X209873000Y-67470155D01*
X209873000Y-66127000D01*
X210127000Y-66127000D01*
X210127000Y-67470155D01*
X210356890Y-67591476D01*
X210369261Y-67589554D01*
X210643009Y-67489854D01*
X210892046Y-67338664D01*
X211106802Y-67141795D01*
X211279025Y-66906812D01*
X211402096Y-66642745D01*
X211471285Y-66359742D01*
X211327232Y-66127000D01*
X210127000Y-66127000D01*
X209873000Y-66127000D01*
X209853000Y-66127000D01*
X209853000Y-65873000D01*
X209873000Y-65873000D01*
X209873000Y-64529845D01*
X210127000Y-64529845D01*
X210127000Y-65873000D01*
X211327232Y-65873000D01*
X211471285Y-65640258D01*
X211402096Y-65357255D01*
X211279025Y-65093188D01*
X211106802Y-64858205D01*
X210892046Y-64661336D01*
X210643009Y-64510146D01*
X210369261Y-64410446D01*
X210356890Y-64408524D01*
X210127000Y-64529845D01*
X209873000Y-64529845D01*
X209643110Y-64408524D01*
X209630739Y-64410446D01*
X209356991Y-64510146D01*
X209107954Y-64661336D01*
X208893198Y-64858205D01*
X208892914Y-64858593D01*
X208838405Y-64756614D01*
X208727962Y-64622038D01*
X208593386Y-64511595D01*
X208439850Y-64429528D01*
X208273254Y-64378992D01*
X208100000Y-64361928D01*
X206900000Y-64361928D01*
X206726746Y-64378992D01*
X206560150Y-64429528D01*
X206406614Y-64511595D01*
X206272038Y-64622038D01*
X206161595Y-64756614D01*
X206079528Y-64910150D01*
X206028992Y-65076746D01*
X206011928Y-65250000D01*
X205135000Y-65250000D01*
X205135000Y-63130966D01*
X205139281Y-63087499D01*
X205135000Y-63044033D01*
X205135000Y-63044023D01*
X205122195Y-62914010D01*
X205071589Y-62747187D01*
X204989411Y-62593441D01*
X204965210Y-62563952D01*
X204906532Y-62492453D01*
X204906530Y-62492451D01*
X204878817Y-62458683D01*
X204845049Y-62430970D01*
X204239636Y-61825558D01*
X204169035Y-61754957D01*
X204157726Y-61698102D01*
X204079705Y-61509744D01*
X203966437Y-61340226D01*
X203822274Y-61196063D01*
X203652756Y-61082795D01*
X203464398Y-61004774D01*
X203264439Y-60965000D01*
X203060561Y-60965000D01*
X202860602Y-61004774D01*
X202672244Y-61082795D01*
X202502726Y-61196063D01*
X202358563Y-61340226D01*
X202245295Y-61509744D01*
X202167274Y-61698102D01*
X202127500Y-61898061D01*
X202127500Y-62101939D01*
X202167274Y-62301898D01*
X202245295Y-62490256D01*
X202358563Y-62659774D01*
X202502726Y-62803937D01*
X202672244Y-62917205D01*
X202860602Y-62995226D01*
X202917457Y-63006535D01*
X203365001Y-63454079D01*
X203365000Y-66045921D01*
X202917457Y-66493465D01*
X202860602Y-66504774D01*
X202672244Y-66582795D01*
X202502726Y-66696063D01*
X202358563Y-66840226D01*
X202245295Y-67009744D01*
X202167274Y-67198102D01*
X202127500Y-67398061D01*
X202127500Y-67601939D01*
X202167274Y-67801898D01*
X202245295Y-67990256D01*
X202358563Y-68159774D01*
X202502726Y-68303937D01*
X202672244Y-68417205D01*
X202860602Y-68495226D01*
X202917457Y-68506535D01*
X203365001Y-68954079D01*
X203365000Y-71545921D01*
X202917457Y-71993465D01*
X202860602Y-72004774D01*
X202672244Y-72082795D01*
X202502726Y-72196063D01*
X202358563Y-72340226D01*
X202245295Y-72509744D01*
X202167274Y-72698102D01*
X202127500Y-72898061D01*
X202127500Y-73101939D01*
X202167274Y-73301898D01*
X202245295Y-73490256D01*
X202358563Y-73659774D01*
X202502726Y-73803937D01*
X202672244Y-73917205D01*
X202860602Y-73995226D01*
X202917457Y-74006535D01*
X202988058Y-74077136D01*
X203865001Y-74954080D01*
X203865000Y-76545921D01*
X202917457Y-77493465D01*
X202860602Y-77504774D01*
X202672244Y-77582795D01*
X202502726Y-77696063D01*
X202358563Y-77840226D01*
X202245295Y-78009744D01*
X202167274Y-78198102D01*
X202127500Y-78398061D01*
X202127500Y-78601939D01*
X202167274Y-78801898D01*
X202245295Y-78990256D01*
X202358563Y-79159774D01*
X202502726Y-79303937D01*
X202672244Y-79417205D01*
X202860602Y-79495226D01*
X202917457Y-79506535D01*
X203215002Y-79804080D01*
X203215001Y-82695920D01*
X202917457Y-82993465D01*
X202860602Y-83004774D01*
X202672244Y-83082795D01*
X202502726Y-83196063D01*
X202358563Y-83340226D01*
X202245295Y-83509744D01*
X202167274Y-83698102D01*
X202127500Y-83898061D01*
X202127500Y-84101939D01*
X202167274Y-84301898D01*
X202245295Y-84490256D01*
X202358563Y-84659774D01*
X202502726Y-84803937D01*
X202672244Y-84917205D01*
X202860602Y-84995226D01*
X202917457Y-85006535D01*
X202988058Y-85077136D01*
X203615001Y-85704080D01*
X203615000Y-87795921D01*
X202917457Y-88493465D01*
X202860602Y-88504774D01*
X202672244Y-88582795D01*
X202502726Y-88696063D01*
X202358563Y-88840226D01*
X202245295Y-89009744D01*
X202167274Y-89198102D01*
X202127500Y-89398061D01*
X202127500Y-89601939D01*
X202167274Y-89801898D01*
X202245295Y-89990256D01*
X202358563Y-90159774D01*
X202502726Y-90303937D01*
X202672244Y-90417205D01*
X202860602Y-90495226D01*
X202917457Y-90506535D01*
X203215002Y-90804080D01*
X203215001Y-93695920D01*
X202917457Y-93993465D01*
X202860602Y-94004774D01*
X202672244Y-94082795D01*
X202624046Y-94115000D01*
X197236579Y-94115000D01*
X193590539Y-90468961D01*
X193605000Y-90396260D01*
X193605000Y-90103740D01*
X193547932Y-89816842D01*
X193435990Y-89546589D01*
X193273475Y-89303368D01*
X193066632Y-89096525D01*
X192823411Y-88934010D01*
X192553158Y-88822068D01*
X192266260Y-88765000D01*
X191973740Y-88765000D01*
X191901040Y-88779461D01*
X190895027Y-87773448D01*
X190917205Y-87740256D01*
X190995226Y-87551898D01*
X191035000Y-87351939D01*
X191035000Y-87148061D01*
X190995226Y-86948102D01*
X190917205Y-86759744D01*
X190885000Y-86711546D01*
X190885000Y-81293465D01*
X190889281Y-81249999D01*
X190887739Y-81234339D01*
X191016317Y-81128817D01*
X191044034Y-81095044D01*
X191491017Y-80648061D01*
X195465000Y-80648061D01*
X195465000Y-80851939D01*
X195504774Y-81051898D01*
X195582795Y-81240256D01*
X195696063Y-81409774D01*
X195840226Y-81553937D01*
X196009744Y-81667205D01*
X196198102Y-81745226D01*
X196398061Y-81785000D01*
X196601939Y-81785000D01*
X196801898Y-81745226D01*
X196990256Y-81667205D01*
X197159774Y-81553937D01*
X197303937Y-81409774D01*
X197417205Y-81240256D01*
X197495226Y-81051898D01*
X197504628Y-81004628D01*
X197551898Y-80995226D01*
X197740256Y-80917205D01*
X197909774Y-80803937D01*
X198053937Y-80659774D01*
X198167205Y-80490256D01*
X198245226Y-80301898D01*
X198285000Y-80101939D01*
X198285000Y-79898061D01*
X198245226Y-79698102D01*
X198167205Y-79509744D01*
X198053937Y-79340226D01*
X197948500Y-79234789D01*
X197948500Y-62539327D01*
X201289328Y-59198500D01*
X206209288Y-59198500D01*
X206161595Y-59256614D01*
X206079528Y-59410150D01*
X206028992Y-59576746D01*
X206011928Y-59750000D01*
X206011928Y-61250000D01*
X206028992Y-61423254D01*
X206079528Y-61589850D01*
X206161595Y-61743386D01*
X206272038Y-61877962D01*
X206406614Y-61988405D01*
X206560150Y-62070472D01*
X206726746Y-62121008D01*
X206900000Y-62138072D01*
X208100000Y-62138072D01*
X208273254Y-62121008D01*
X208439850Y-62070472D01*
X208593386Y-61988405D01*
X208727962Y-61877962D01*
X208838405Y-61743386D01*
X208892914Y-61641407D01*
X208893198Y-61641795D01*
X209107954Y-61838664D01*
X209356991Y-61989854D01*
X209630739Y-62089554D01*
X209643110Y-62091476D01*
X209873000Y-61970155D01*
X209873000Y-60627000D01*
X210127000Y-60627000D01*
X210127000Y-61970155D01*
X210356890Y-62091476D01*
X210369261Y-62089554D01*
X210643009Y-61989854D01*
X210892046Y-61838664D01*
X211106802Y-61641795D01*
X211279025Y-61406812D01*
X211402096Y-61142745D01*
X211471285Y-60859742D01*
X211327232Y-60627000D01*
X210127000Y-60627000D01*
X209873000Y-60627000D01*
X209853000Y-60627000D01*
X209853000Y-60373000D01*
X209873000Y-60373000D01*
X209873000Y-60353000D01*
X210127000Y-60353000D01*
X210127000Y-60373000D01*
X211327232Y-60373000D01*
X211471285Y-60140258D01*
X211402096Y-59857255D01*
X211279025Y-59593188D01*
X211106802Y-59358205D01*
X210932587Y-59198500D01*
X221734789Y-59198500D01*
X221840226Y-59303937D01*
X222009744Y-59417205D01*
X222198102Y-59495226D01*
X222398061Y-59535000D01*
X222601939Y-59535000D01*
X222801898Y-59495226D01*
X222990256Y-59417205D01*
X223159774Y-59303937D01*
X223303937Y-59159774D01*
X223417205Y-58990256D01*
X223495226Y-58801898D01*
X223535000Y-58601939D01*
X223535000Y-58398061D01*
X223495226Y-58198102D01*
X223417205Y-58009744D01*
X223303937Y-57840226D01*
X223159774Y-57696063D01*
X222990256Y-57582795D01*
X222801898Y-57504774D01*
X222601939Y-57465000D01*
X222398061Y-57465000D01*
X222198102Y-57504774D01*
X222009744Y-57582795D01*
X221840226Y-57696063D01*
X221734789Y-57801500D01*
X210912211Y-57801500D01*
X211053937Y-57659774D01*
X211167205Y-57490256D01*
X211245226Y-57301898D01*
X211285000Y-57101939D01*
X211285000Y-56898061D01*
X211245226Y-56698102D01*
X211167205Y-56509744D01*
X211053937Y-56340226D01*
X210909774Y-56196063D01*
X210740256Y-56082795D01*
X210551898Y-56004774D01*
X210351939Y-55965000D01*
X210148061Y-55965000D01*
X209948102Y-56004774D01*
X209759744Y-56082795D01*
X209590226Y-56196063D01*
X209484789Y-56301500D01*
X200784298Y-56301500D01*
X200750000Y-56298122D01*
X200715702Y-56301500D01*
X200715691Y-56301500D01*
X200613070Y-56311607D01*
X200481403Y-56351548D01*
X200384234Y-56403486D01*
X200360057Y-56416409D01*
X200280346Y-56481826D01*
X200280343Y-56481829D01*
X200253697Y-56503697D01*
X200231829Y-56530343D01*
X196030344Y-60731829D01*
X196003697Y-60753698D01*
X195981829Y-60780344D01*
X195981826Y-60780347D01*
X195916409Y-60860057D01*
X195860316Y-60965000D01*
X195851548Y-60981404D01*
X195811607Y-61113071D01*
X195801500Y-61215692D01*
X195801500Y-61215702D01*
X195798122Y-61250000D01*
X195801500Y-61284298D01*
X195801501Y-79984788D01*
X195696063Y-80090226D01*
X195582795Y-80259744D01*
X195504774Y-80448102D01*
X195465000Y-80648061D01*
X191491017Y-80648061D01*
X193882544Y-78256535D01*
X193939398Y-78245226D01*
X194127756Y-78167205D01*
X194297274Y-78053937D01*
X194441437Y-77909774D01*
X194554705Y-77740256D01*
X194632726Y-77551898D01*
X194672500Y-77351939D01*
X194672500Y-77148061D01*
X194632726Y-76948102D01*
X194554705Y-76759744D01*
X194522500Y-76711546D01*
X194522500Y-73180969D01*
X194526781Y-73137500D01*
X194522500Y-73094031D01*
X194522500Y-73094023D01*
X194509695Y-72964010D01*
X194459089Y-72797186D01*
X194376911Y-72643441D01*
X194294032Y-72542453D01*
X194294030Y-72542451D01*
X194266317Y-72508683D01*
X194232550Y-72480972D01*
X190447882Y-68696304D01*
X190417205Y-68622244D01*
X190303937Y-68452726D01*
X190159774Y-68308563D01*
X189990256Y-68195295D01*
X189801898Y-68117274D01*
X189601939Y-68077500D01*
X189398061Y-68077500D01*
X189198102Y-68117274D01*
X189009744Y-68195295D01*
X188961546Y-68227500D01*
X187460804Y-68227500D01*
X187417205Y-68122244D01*
X187303937Y-67952726D01*
X187159774Y-67808563D01*
X186990256Y-67695295D01*
X186801898Y-67617274D01*
X186745044Y-67605965D01*
X186385000Y-67245922D01*
X186385000Y-65650954D01*
X186417205Y-65602756D01*
X186495226Y-65414398D01*
X186506535Y-65357543D01*
X193845051Y-58019028D01*
X193878817Y-57991317D01*
X193989411Y-57856559D01*
X194071589Y-57702813D01*
X194122195Y-57535990D01*
X194135000Y-57405977D01*
X194135000Y-57405967D01*
X194139281Y-57362501D01*
X194135000Y-57319035D01*
X194135000Y-52788454D01*
X194167205Y-52740256D01*
X194215000Y-52624869D01*
X194215000Y-52677002D01*
X194373748Y-52677002D01*
X194215000Y-52835750D01*
X194211928Y-53300000D01*
X194224188Y-53424482D01*
X194260498Y-53544180D01*
X194319463Y-53654494D01*
X194398815Y-53751185D01*
X194495506Y-53830537D01*
X194605820Y-53889502D01*
X194725518Y-53925812D01*
X194850000Y-53938072D01*
X195564250Y-53935000D01*
X195723000Y-53776250D01*
X195723000Y-52677000D01*
X195977000Y-52677000D01*
X195977000Y-53776250D01*
X196135750Y-53935000D01*
X196850000Y-53938072D01*
X196974482Y-53925812D01*
X197094180Y-53889502D01*
X197204494Y-53830537D01*
X197301185Y-53751185D01*
X197380537Y-53654494D01*
X197439502Y-53544180D01*
X197475812Y-53424482D01*
X197488072Y-53300000D01*
X197485000Y-52835750D01*
X197326250Y-52677000D01*
X195977000Y-52677000D01*
X195723000Y-52677000D01*
X195703000Y-52677000D01*
X195703000Y-52423000D01*
X195723000Y-52423000D01*
X195723000Y-52403000D01*
X195977000Y-52403000D01*
X195977000Y-52423000D01*
X197326250Y-52423000D01*
X197485000Y-52264250D01*
X197488072Y-51800000D01*
X197475812Y-51675518D01*
X197439502Y-51555820D01*
X197380537Y-51445506D01*
X197343191Y-51400000D01*
X197380537Y-51354494D01*
X197439502Y-51244180D01*
X197472621Y-51135000D01*
X200511928Y-51135000D01*
X200511928Y-52150000D01*
X200524188Y-52274482D01*
X200560498Y-52394180D01*
X200619463Y-52504494D01*
X200698815Y-52601185D01*
X200795506Y-52680537D01*
X200905820Y-52739502D01*
X201025518Y-52775812D01*
X201150000Y-52788072D01*
X202536493Y-52788072D01*
X202993470Y-53245049D01*
X203021183Y-53278817D01*
X203054951Y-53306530D01*
X203054953Y-53306532D01*
X203086955Y-53332795D01*
X203155941Y-53389411D01*
X203309687Y-53471589D01*
X203476510Y-53522195D01*
X203606523Y-53535000D01*
X203606533Y-53535000D01*
X203649999Y-53539281D01*
X203693465Y-53535000D01*
X207556531Y-53535000D01*
X207600000Y-53539281D01*
X207643469Y-53535000D01*
X207643477Y-53535000D01*
X207773490Y-53522195D01*
X207813691Y-53510000D01*
X216133422Y-53510000D01*
X217118465Y-54495044D01*
X217129774Y-54551898D01*
X217207795Y-54740256D01*
X217321063Y-54909774D01*
X217365001Y-54953712D01*
X217365000Y-55599045D01*
X217332795Y-55647244D01*
X217254774Y-55835602D01*
X217215000Y-56035561D01*
X217215000Y-56239439D01*
X217254774Y-56439398D01*
X217332795Y-56627756D01*
X217446063Y-56797274D01*
X217590226Y-56941437D01*
X217759744Y-57054705D01*
X217948102Y-57132726D01*
X218148061Y-57172500D01*
X218351939Y-57172500D01*
X218551898Y-57132726D01*
X218740256Y-57054705D01*
X218909774Y-56941437D01*
X219053937Y-56797274D01*
X219167205Y-56627756D01*
X219245226Y-56439398D01*
X219285000Y-56239439D01*
X219285000Y-56035561D01*
X219245226Y-55835602D01*
X219167205Y-55647244D01*
X219135000Y-55599046D01*
X219135000Y-54477623D01*
X219160000Y-54351939D01*
X219160000Y-54148061D01*
X219120226Y-53948102D01*
X219042205Y-53759744D01*
X218928937Y-53590226D01*
X218784774Y-53446063D01*
X218615256Y-53332795D01*
X218426898Y-53254774D01*
X218370044Y-53243465D01*
X217156534Y-52029956D01*
X217128817Y-51996183D01*
X216994059Y-51885589D01*
X216840313Y-51803411D01*
X216673490Y-51752805D01*
X216543477Y-51740000D01*
X216543469Y-51740000D01*
X216500000Y-51735719D01*
X216456531Y-51740000D01*
X207668465Y-51740000D01*
X207624999Y-51735719D01*
X207581533Y-51740000D01*
X207581523Y-51740000D01*
X207451510Y-51752805D01*
X207411309Y-51765000D01*
X204016579Y-51765000D01*
X203788072Y-51536493D01*
X203788072Y-48350000D01*
X203775812Y-48225518D01*
X203739502Y-48105820D01*
X203680537Y-47995506D01*
X203601185Y-47898815D01*
X203504494Y-47819463D01*
X203394180Y-47760498D01*
X203274482Y-47724188D01*
X203150000Y-47711928D01*
X201150000Y-47711928D01*
X201025518Y-47724188D01*
X200905820Y-47760498D01*
X200795506Y-47819463D01*
X200698815Y-47898815D01*
X200619463Y-47995506D01*
X200560498Y-48105820D01*
X200524188Y-48225518D01*
X200511928Y-48350000D01*
X200511928Y-49365000D01*
X197980124Y-49365000D01*
X197990120Y-49357330D01*
X198107330Y-49240120D01*
X198186790Y-49136567D01*
X198269677Y-48993004D01*
X198319627Y-48872414D01*
X198362531Y-48712293D01*
X198379568Y-48582883D01*
X198385000Y-48500000D01*
X198385000Y-46707107D01*
X198379568Y-46624224D01*
X198362531Y-46494814D01*
X198319627Y-46334693D01*
X198269677Y-46214103D01*
X198186792Y-46070543D01*
X198121152Y-45985000D01*
X198396260Y-45985000D01*
X198683158Y-45927932D01*
X198953411Y-45815990D01*
X199196632Y-45653475D01*
X199403475Y-45446632D01*
X199565990Y-45203411D01*
X199677932Y-44933158D01*
X199735000Y-44646260D01*
X199735000Y-44353740D01*
X199677932Y-44066842D01*
X199565990Y-43796589D01*
X199403475Y-43553368D01*
X199350107Y-43500000D01*
X199403475Y-43446632D01*
X199565990Y-43203411D01*
X199677932Y-42933158D01*
X199735000Y-42646260D01*
X199735000Y-42353740D01*
X199677932Y-42066842D01*
X199565990Y-41796589D01*
X199403475Y-41553368D01*
X199309716Y-41459609D01*
X201529997Y-41459609D01*
X201716073Y-41800766D01*
X202133409Y-42016513D01*
X202584815Y-42146696D01*
X203052946Y-42186313D01*
X203519811Y-42133842D01*
X203967468Y-41991297D01*
X204323927Y-41800766D01*
X204510003Y-41459609D01*
X203020000Y-39969605D01*
X201529997Y-41459609D01*
X199309716Y-41459609D01*
X199196632Y-41346525D01*
X198953411Y-41184010D01*
X198948500Y-41181976D01*
X198948500Y-39822946D01*
X200623687Y-39822946D01*
X200676158Y-40289811D01*
X200818703Y-40737468D01*
X201009234Y-41093927D01*
X201350391Y-41280003D01*
X202840395Y-39790000D01*
X203199605Y-39790000D01*
X204689609Y-41280003D01*
X205030766Y-41093927D01*
X205246513Y-40676591D01*
X205376696Y-40225185D01*
X205416313Y-39757054D01*
X205363842Y-39290189D01*
X205221297Y-38842532D01*
X205030766Y-38486073D01*
X204689609Y-38299997D01*
X203199605Y-39790000D01*
X202840395Y-39790000D01*
X201350391Y-38299997D01*
X201009234Y-38486073D01*
X200793487Y-38903409D01*
X200663304Y-39354815D01*
X200623687Y-39822946D01*
X198948500Y-39822946D01*
X198948500Y-38120391D01*
X201529997Y-38120391D01*
X203020000Y-39610395D01*
X204510003Y-38120391D01*
X204323927Y-37779234D01*
X204146479Y-37687500D01*
X218386928Y-37687500D01*
X218386928Y-39312500D01*
X218405193Y-39497947D01*
X218459286Y-39676268D01*
X218547128Y-39840610D01*
X218665344Y-39984656D01*
X218809390Y-40102872D01*
X218973732Y-40190714D01*
X219152053Y-40244807D01*
X219337500Y-40263072D01*
X219736928Y-40263072D01*
X219736928Y-40812500D01*
X219755193Y-40997947D01*
X219809286Y-41176268D01*
X219897128Y-41340610D01*
X220015344Y-41484656D01*
X220159390Y-41602872D01*
X220323732Y-41690714D01*
X220502053Y-41744807D01*
X220687500Y-41763072D01*
X222312500Y-41763072D01*
X222497947Y-41744807D01*
X222676268Y-41690714D01*
X222840610Y-41602872D01*
X222984656Y-41484656D01*
X223102872Y-41340610D01*
X223190714Y-41176268D01*
X223244807Y-40997947D01*
X223263072Y-40812500D01*
X223263072Y-40263072D01*
X223662500Y-40263072D01*
X223847947Y-40244807D01*
X224026268Y-40190714D01*
X224190610Y-40102872D01*
X224334656Y-39984656D01*
X224452872Y-39840610D01*
X224540714Y-39676268D01*
X224594807Y-39497947D01*
X224613072Y-39312500D01*
X224613072Y-37687500D01*
X224594807Y-37502053D01*
X224540714Y-37323732D01*
X224452872Y-37159390D01*
X224334656Y-37015344D01*
X224190610Y-36897128D01*
X224026268Y-36809286D01*
X223847947Y-36755193D01*
X223662500Y-36736928D01*
X223037500Y-36736928D01*
X222852053Y-36755193D01*
X222673732Y-36809286D01*
X222509390Y-36897128D01*
X222365344Y-37015344D01*
X222247128Y-37159390D01*
X222159286Y-37323732D01*
X222105193Y-37502053D01*
X222086928Y-37687500D01*
X222086928Y-39236928D01*
X220913072Y-39236928D01*
X220913072Y-37687500D01*
X220894807Y-37502053D01*
X220840714Y-37323732D01*
X220752872Y-37159390D01*
X220634656Y-37015344D01*
X220490610Y-36897128D01*
X220326268Y-36809286D01*
X220147947Y-36755193D01*
X219962500Y-36736928D01*
X219337500Y-36736928D01*
X219152053Y-36755193D01*
X218973732Y-36809286D01*
X218809390Y-36897128D01*
X218665344Y-37015344D01*
X218547128Y-37159390D01*
X218459286Y-37323732D01*
X218405193Y-37502053D01*
X218386928Y-37687500D01*
X204146479Y-37687500D01*
X203906591Y-37563487D01*
X203455185Y-37433304D01*
X202987054Y-37393687D01*
X202520189Y-37446158D01*
X202072532Y-37588703D01*
X201716073Y-37779234D01*
X201529997Y-38120391D01*
X198948500Y-38120391D01*
X198948500Y-37019131D01*
X198951878Y-36984833D01*
X198948500Y-36950535D01*
X198948500Y-36950525D01*
X198938393Y-36847904D01*
X198898452Y-36716237D01*
X198898451Y-36716235D01*
X198833591Y-36594890D01*
X198768174Y-36515179D01*
X198768166Y-36515171D01*
X198746303Y-36488531D01*
X198719663Y-36466668D01*
X196595841Y-34342848D01*
X196573969Y-34316197D01*
X196467609Y-34228909D01*
X196460296Y-34225000D01*
X219736928Y-34225000D01*
X219749188Y-34349482D01*
X219785498Y-34469180D01*
X219844463Y-34579494D01*
X219923815Y-34676185D01*
X220020506Y-34755537D01*
X220130820Y-34814502D01*
X220250518Y-34850812D01*
X220375000Y-34863072D01*
X221023305Y-34860699D01*
X220915008Y-34905557D01*
X220712733Y-35040713D01*
X220540713Y-35212733D01*
X220405557Y-35415008D01*
X220312460Y-35639764D01*
X220265000Y-35878363D01*
X220265000Y-36121637D01*
X220312460Y-36360236D01*
X220405557Y-36584992D01*
X220540713Y-36787267D01*
X220712733Y-36959287D01*
X220915008Y-37094443D01*
X221139764Y-37187540D01*
X221378363Y-37235000D01*
X221621637Y-37235000D01*
X221860236Y-37187540D01*
X222084992Y-37094443D01*
X222287267Y-36959287D01*
X222459287Y-36787267D01*
X222594443Y-36584992D01*
X222687540Y-36360236D01*
X222735000Y-36121637D01*
X222735000Y-35878363D01*
X222687540Y-35639764D01*
X222594443Y-35415008D01*
X222459287Y-35212733D01*
X222287267Y-35040713D01*
X222084992Y-34905557D01*
X221976695Y-34860699D01*
X222625000Y-34863072D01*
X222749482Y-34850812D01*
X222869180Y-34814502D01*
X222979494Y-34755537D01*
X223076185Y-34676185D01*
X223155537Y-34579494D01*
X223214502Y-34469180D01*
X223250812Y-34349482D01*
X223263002Y-34225701D01*
X227215000Y-34225701D01*
X227215000Y-34774299D01*
X227322026Y-35312354D01*
X227531965Y-35819192D01*
X227836750Y-36275334D01*
X228224666Y-36663250D01*
X228680808Y-36968035D01*
X229187646Y-37177974D01*
X229725701Y-37285000D01*
X230274299Y-37285000D01*
X230812354Y-37177974D01*
X231319192Y-36968035D01*
X231775334Y-36663250D01*
X232163250Y-36275334D01*
X232468035Y-35819192D01*
X232677974Y-35312354D01*
X232785000Y-34774299D01*
X232785000Y-34225701D01*
X232677974Y-33687646D01*
X232468035Y-33180808D01*
X232163250Y-32724666D01*
X231775334Y-32336750D01*
X231319192Y-32031965D01*
X230812354Y-31822026D01*
X230274299Y-31715000D01*
X229725701Y-31715000D01*
X229187646Y-31822026D01*
X228680808Y-32031965D01*
X228224666Y-32336750D01*
X227836750Y-32724666D01*
X227531965Y-33180808D01*
X227322026Y-33687646D01*
X227215000Y-34225701D01*
X223263002Y-34225701D01*
X223263072Y-34225000D01*
X223260000Y-33885750D01*
X223101250Y-33727000D01*
X221627000Y-33727000D01*
X221627000Y-33747000D01*
X221373000Y-33747000D01*
X221373000Y-33727000D01*
X219898750Y-33727000D01*
X219740000Y-33885750D01*
X219736928Y-34225000D01*
X196460296Y-34225000D01*
X196346263Y-34164048D01*
X196214596Y-34124107D01*
X196111975Y-34114000D01*
X196111964Y-34114000D01*
X196077666Y-34110622D01*
X196043368Y-34114000D01*
X187956631Y-34114000D01*
X187922333Y-34110622D01*
X187888035Y-34114000D01*
X187888025Y-34114000D01*
X187785404Y-34124107D01*
X187653737Y-34164048D01*
X187653735Y-34164049D01*
X187532390Y-34228909D01*
X187452679Y-34294326D01*
X187452671Y-34294334D01*
X187426031Y-34316197D01*
X187404167Y-34342838D01*
X186673252Y-35073755D01*
X186677974Y-35062354D01*
X186785000Y-34524299D01*
X186785000Y-33975701D01*
X186677974Y-33437646D01*
X186486340Y-32975000D01*
X219736928Y-32975000D01*
X219740000Y-33314250D01*
X219898750Y-33473000D01*
X221373000Y-33473000D01*
X221373000Y-32498750D01*
X221627000Y-32498750D01*
X221627000Y-33473000D01*
X223101250Y-33473000D01*
X223260000Y-33314250D01*
X223263072Y-32975000D01*
X223250812Y-32850518D01*
X223214502Y-32730820D01*
X223155537Y-32620506D01*
X223076185Y-32523815D01*
X222979494Y-32444463D01*
X222869180Y-32385498D01*
X222749482Y-32349188D01*
X222625000Y-32336928D01*
X221785750Y-32340000D01*
X221627000Y-32498750D01*
X221373000Y-32498750D01*
X221214250Y-32340000D01*
X220375000Y-32336928D01*
X220250518Y-32349188D01*
X220130820Y-32385498D01*
X220020506Y-32444463D01*
X219923815Y-32523815D01*
X219844463Y-32620506D01*
X219785498Y-32730820D01*
X219749188Y-32850518D01*
X219736928Y-32975000D01*
X186486340Y-32975000D01*
X186468035Y-32930808D01*
X186163250Y-32474666D01*
X185775334Y-32086750D01*
X185319192Y-31781965D01*
X184812354Y-31572026D01*
X184274299Y-31465000D01*
X183725701Y-31465000D01*
X183187646Y-31572026D01*
X182680808Y-31781965D01*
X182224666Y-32086750D01*
X181836750Y-32474666D01*
X181531965Y-32930808D01*
X181322026Y-33437646D01*
X181215000Y-33975701D01*
X181215000Y-34524299D01*
X181322026Y-35062354D01*
X181531965Y-35569192D01*
X181836750Y-36025334D01*
X182224666Y-36413250D01*
X182680808Y-36718035D01*
X183187646Y-36927974D01*
X183725701Y-37035000D01*
X184274299Y-37035000D01*
X184812354Y-36927974D01*
X185319192Y-36718035D01*
X185775334Y-36413250D01*
X186114000Y-36074584D01*
X186114001Y-45437073D01*
X186009238Y-45280285D01*
X185642215Y-44913262D01*
X185210641Y-44624893D01*
X184731101Y-44426261D01*
X184222025Y-44325000D01*
X183702975Y-44325000D01*
X183193899Y-44426261D01*
X182714359Y-44624893D01*
X182282785Y-44913262D01*
X181915762Y-45280285D01*
X181627393Y-45711859D01*
X181428761Y-46191399D01*
X181327500Y-46700475D01*
X181327500Y-47219525D01*
X181428761Y-47728601D01*
X181627393Y-48208141D01*
X181915762Y-48639715D01*
X182282785Y-49006738D01*
X182714359Y-49295107D01*
X183193899Y-49493739D01*
X183702975Y-49595000D01*
X184222025Y-49595000D01*
X184731101Y-49493739D01*
X185210641Y-49295107D01*
X185642215Y-49006738D01*
X186009238Y-48639715D01*
X186114001Y-48482926D01*
X186114001Y-49383005D01*
X185092844Y-50404163D01*
X185066197Y-50426032D01*
X185044329Y-50452678D01*
X185044326Y-50452681D01*
X184978909Y-50532391D01*
X184934948Y-50614637D01*
X184914048Y-50653738D01*
X184874107Y-50785405D01*
X184864000Y-50888026D01*
X184864000Y-50888036D01*
X184860622Y-50922334D01*
X184864000Y-50956632D01*
X184864001Y-54822790D01*
X184863105Y-54886660D01*
X184870248Y-54925400D01*
X184873023Y-54953579D01*
X184830894Y-54995709D01*
X184826820Y-54998514D01*
X184782290Y-55044312D01*
X184761484Y-55065118D01*
X184758366Y-55068918D01*
X184754936Y-55072445D01*
X184736575Y-55095469D01*
X184698877Y-55141405D01*
X184676965Y-55165242D01*
X184646276Y-55215638D01*
X184614188Y-55265151D01*
X184597817Y-55306297D01*
X184589927Y-55322682D01*
X184567962Y-55361139D01*
X184549258Y-55417098D01*
X184528993Y-55472507D01*
X184522188Y-55516267D01*
X184518142Y-55533993D01*
X184505282Y-55576386D01*
X184499498Y-55635117D01*
X184492072Y-55693626D01*
X184495175Y-55737806D01*
X184495175Y-55756003D01*
X184492072Y-55800183D01*
X184499497Y-55858689D01*
X184505282Y-55917424D01*
X184518143Y-55959820D01*
X184522188Y-55977542D01*
X184528993Y-56021302D01*
X184549258Y-56076711D01*
X184567962Y-56132670D01*
X184589927Y-56171127D01*
X184597819Y-56187515D01*
X184614191Y-56228664D01*
X184646284Y-56278184D01*
X184676965Y-56328567D01*
X184706934Y-56361170D01*
X184718275Y-56375391D01*
X184743395Y-56411868D01*
X184785705Y-56453008D01*
X184826825Y-56495298D01*
X184863303Y-56520419D01*
X184877520Y-56531757D01*
X184910133Y-56561734D01*
X184960535Y-56592426D01*
X185010029Y-56624502D01*
X185051183Y-56640876D01*
X185067566Y-56648766D01*
X185106023Y-56670730D01*
X185161979Y-56689433D01*
X185217399Y-56709702D01*
X185261166Y-56716508D01*
X185278873Y-56720549D01*
X185321269Y-56733410D01*
X185380002Y-56739195D01*
X185438509Y-56746620D01*
X185482689Y-56743517D01*
X185500887Y-56743517D01*
X185545067Y-56746620D01*
X185603573Y-56739195D01*
X185662308Y-56733410D01*
X185704704Y-56720549D01*
X185722414Y-56716507D01*
X185766177Y-56709702D01*
X185821586Y-56689437D01*
X185877554Y-56670730D01*
X185916012Y-56648765D01*
X185932388Y-56640879D01*
X185973542Y-56624505D01*
X186023050Y-56592420D01*
X186073443Y-56561734D01*
X186097279Y-56539824D01*
X186143224Y-56502118D01*
X186166248Y-56483757D01*
X186169775Y-56480327D01*
X186173575Y-56477209D01*
X186194381Y-56456403D01*
X186198959Y-56451952D01*
X186641863Y-56894856D01*
X186565226Y-56946063D01*
X186421063Y-57090226D01*
X186307795Y-57259744D01*
X186229774Y-57448102D01*
X186190000Y-57648061D01*
X186190000Y-57851939D01*
X186229774Y-58051898D01*
X186307795Y-58240256D01*
X186421063Y-58409774D01*
X186565226Y-58553937D01*
X186734744Y-58667205D01*
X186923102Y-58745226D01*
X187123061Y-58785000D01*
X187326939Y-58785000D01*
X187526898Y-58745226D01*
X187715256Y-58667205D01*
X187750000Y-58643990D01*
X187784744Y-58667205D01*
X187973102Y-58745226D01*
X188173061Y-58785000D01*
X188376939Y-58785000D01*
X188576898Y-58745226D01*
X188765256Y-58667205D01*
X188934774Y-58553937D01*
X189078937Y-58409774D01*
X189192205Y-58240256D01*
X189270226Y-58051898D01*
X189310000Y-57851939D01*
X189310000Y-57648061D01*
X189270226Y-57448102D01*
X189192205Y-57259744D01*
X189078937Y-57090226D01*
X188934774Y-56946063D01*
X188765256Y-56832795D01*
X188636000Y-56779255D01*
X188636000Y-56706631D01*
X188639378Y-56672333D01*
X188636000Y-56638035D01*
X188636000Y-56638025D01*
X188625893Y-56535404D01*
X188585952Y-56403737D01*
X188567409Y-56369046D01*
X188521091Y-56282390D01*
X188455674Y-56202679D01*
X188455666Y-56202671D01*
X188433803Y-56176031D01*
X188407163Y-56154168D01*
X187389761Y-55136767D01*
X187714250Y-55135000D01*
X187873000Y-54976250D01*
X187873000Y-53627000D01*
X187853000Y-53627000D01*
X187853000Y-53373000D01*
X187873000Y-53373000D01*
X187873000Y-52023750D01*
X188127000Y-52023750D01*
X188127000Y-53373000D01*
X188147000Y-53373000D01*
X188147000Y-53627000D01*
X188127000Y-53627000D01*
X188127000Y-54976250D01*
X188285750Y-55135000D01*
X188850000Y-55138072D01*
X188974482Y-55125812D01*
X189094180Y-55089502D01*
X189204494Y-55030537D01*
X189301185Y-54951185D01*
X189380537Y-54854494D01*
X189439502Y-54744180D01*
X189450055Y-54709392D01*
X189670987Y-54890706D01*
X189928967Y-55028599D01*
X190208890Y-55113513D01*
X190500000Y-55142185D01*
X190791111Y-55113513D01*
X191071034Y-55028599D01*
X191329014Y-54890706D01*
X191555134Y-54705134D01*
X191740706Y-54479014D01*
X191878599Y-54221033D01*
X191963513Y-53941110D01*
X191985000Y-53722949D01*
X191985000Y-53277050D01*
X191963513Y-53058889D01*
X191878599Y-52778966D01*
X191740706Y-52520986D01*
X191555134Y-52294866D01*
X191329013Y-52109294D01*
X191071033Y-51971401D01*
X190791110Y-51886487D01*
X190500000Y-51857815D01*
X190208889Y-51886487D01*
X189928966Y-51971401D01*
X189670986Y-52109294D01*
X189450055Y-52290608D01*
X189439502Y-52255820D01*
X189380537Y-52145506D01*
X189301185Y-52048815D01*
X189204494Y-51969463D01*
X189094180Y-51910498D01*
X188974482Y-51874188D01*
X188850000Y-51861928D01*
X188285750Y-51865000D01*
X188127000Y-52023750D01*
X187873000Y-52023750D01*
X187714250Y-51865000D01*
X187150000Y-51861928D01*
X187025518Y-51874188D01*
X186905820Y-51910498D01*
X186795506Y-51969463D01*
X186698815Y-52048815D01*
X186636000Y-52125356D01*
X186636000Y-51366993D01*
X187027993Y-50975000D01*
X189986928Y-50975000D01*
X189999188Y-51099482D01*
X190035498Y-51219180D01*
X190094463Y-51329494D01*
X190173815Y-51426185D01*
X190270506Y-51505537D01*
X190380820Y-51564502D01*
X190500518Y-51600812D01*
X190625000Y-51613072D01*
X190926750Y-51610000D01*
X191085500Y-51451250D01*
X191085500Y-50377000D01*
X190148750Y-50377000D01*
X189990000Y-50535750D01*
X189986928Y-50975000D01*
X187027993Y-50975000D01*
X187657162Y-50345832D01*
X187683802Y-50323969D01*
X187705667Y-50297327D01*
X187705674Y-50297320D01*
X187771091Y-50217610D01*
X187835951Y-50096265D01*
X187846261Y-50062278D01*
X187875893Y-49964596D01*
X187886000Y-49861975D01*
X187886000Y-49861964D01*
X187889378Y-49827666D01*
X187886000Y-49793368D01*
X187886000Y-48725000D01*
X189986928Y-48725000D01*
X189999188Y-48849482D01*
X190035498Y-48969180D01*
X190094463Y-49079494D01*
X190131809Y-49125000D01*
X190094463Y-49170506D01*
X190035498Y-49280820D01*
X189999188Y-49400518D01*
X189986928Y-49525000D01*
X189990000Y-49964250D01*
X190148750Y-50123000D01*
X191085500Y-50123000D01*
X191085500Y-48127000D01*
X190148750Y-48127000D01*
X189990000Y-48285750D01*
X189986928Y-48725000D01*
X187886000Y-48725000D01*
X187886000Y-47275000D01*
X189986928Y-47275000D01*
X189990000Y-47714250D01*
X190148750Y-47873000D01*
X191085500Y-47873000D01*
X191085500Y-46798750D01*
X190926750Y-46640000D01*
X190625000Y-46636928D01*
X190500518Y-46649188D01*
X190380820Y-46685498D01*
X190270506Y-46744463D01*
X190173815Y-46823815D01*
X190094463Y-46920506D01*
X190035498Y-47030820D01*
X189999188Y-47150518D01*
X189986928Y-47275000D01*
X187886000Y-47275000D01*
X187886000Y-41459609D01*
X189489997Y-41459609D01*
X189676073Y-41800766D01*
X190093409Y-42016513D01*
X190544815Y-42146696D01*
X191012946Y-42186313D01*
X191479811Y-42133842D01*
X191927468Y-41991297D01*
X192283927Y-41800766D01*
X192470003Y-41459609D01*
X190980000Y-39969605D01*
X189489997Y-41459609D01*
X187886000Y-41459609D01*
X187886000Y-39822946D01*
X188583687Y-39822946D01*
X188636158Y-40289811D01*
X188778703Y-40737468D01*
X188969234Y-41093927D01*
X189310391Y-41280003D01*
X190800395Y-39790000D01*
X191159605Y-39790000D01*
X192649609Y-41280003D01*
X192990766Y-41093927D01*
X193206513Y-40676591D01*
X193336696Y-40225185D01*
X193376313Y-39757054D01*
X193323842Y-39290189D01*
X193181297Y-38842532D01*
X192990766Y-38486073D01*
X192649609Y-38299997D01*
X191159605Y-39790000D01*
X190800395Y-39790000D01*
X189310391Y-38299997D01*
X188969234Y-38486073D01*
X188753487Y-38903409D01*
X188623304Y-39354815D01*
X188583687Y-39822946D01*
X187886000Y-39822946D01*
X187886000Y-38120391D01*
X189489997Y-38120391D01*
X190980000Y-39610395D01*
X192470003Y-38120391D01*
X192283927Y-37779234D01*
X191866591Y-37563487D01*
X191415185Y-37433304D01*
X190947054Y-37393687D01*
X190480189Y-37446158D01*
X190032532Y-37588703D01*
X189676073Y-37779234D01*
X189489997Y-38120391D01*
X187886000Y-38120391D01*
X187886000Y-36366993D01*
X188366994Y-35886000D01*
X195633007Y-35886000D01*
X197176500Y-37429494D01*
X197176501Y-40335671D01*
X196530344Y-40981829D01*
X196503697Y-41003698D01*
X196481829Y-41030344D01*
X196481826Y-41030347D01*
X196416409Y-41110057D01*
X196389776Y-41159883D01*
X196257117Y-41096629D01*
X195973589Y-41024661D01*
X195681469Y-41009389D01*
X195391981Y-41051401D01*
X195116253Y-41149081D01*
X194978843Y-41222528D01*
X194901208Y-41471603D01*
X195750000Y-42320395D01*
X195764143Y-42306253D01*
X195943748Y-42485858D01*
X195929605Y-42500000D01*
X195943748Y-42514143D01*
X195764143Y-42693748D01*
X195750000Y-42679605D01*
X195735858Y-42693748D01*
X195556253Y-42514143D01*
X195570395Y-42500000D01*
X194721603Y-41651208D01*
X194472528Y-41728843D01*
X194346629Y-41992883D01*
X194274661Y-42276411D01*
X194259389Y-42568531D01*
X194301401Y-42858019D01*
X194303874Y-42865000D01*
X193250000Y-42865000D01*
X193167117Y-42870432D01*
X193037707Y-42887469D01*
X192877586Y-42930373D01*
X192756996Y-42980323D01*
X192613433Y-43063210D01*
X192509880Y-43142670D01*
X192392670Y-43259880D01*
X192313210Y-43363433D01*
X192230323Y-43506996D01*
X192180373Y-43627586D01*
X192137469Y-43787707D01*
X192120432Y-43917117D01*
X192115000Y-44000000D01*
X192115000Y-45718609D01*
X192114463Y-45732583D01*
X192041231Y-46684603D01*
X191924482Y-46649188D01*
X191800000Y-46636928D01*
X191498250Y-46640000D01*
X191339500Y-46798750D01*
X191339500Y-47873000D01*
X191359500Y-47873000D01*
X191359500Y-48127000D01*
X191339500Y-48127000D01*
X191339500Y-50123000D01*
X191359500Y-50123000D01*
X191359500Y-50377000D01*
X191339500Y-50377000D01*
X191339500Y-51451250D01*
X191498250Y-51610000D01*
X191800000Y-51613072D01*
X191924482Y-51600812D01*
X192044180Y-51564502D01*
X192154494Y-51505537D01*
X192251185Y-51426185D01*
X192316658Y-51346406D01*
X192322038Y-51352962D01*
X192365000Y-51388220D01*
X192365000Y-51711545D01*
X192332795Y-51759744D01*
X192254774Y-51948102D01*
X192215000Y-52148061D01*
X192215000Y-52351939D01*
X192254774Y-52551898D01*
X192332795Y-52740256D01*
X192365001Y-52788456D01*
X192365000Y-56995921D01*
X185254957Y-64105965D01*
X185198102Y-64117274D01*
X185009744Y-64195295D01*
X184961546Y-64227500D01*
X183479079Y-64227500D01*
X180997500Y-61745922D01*
X180997500Y-59538454D01*
X181029705Y-59490256D01*
X181107726Y-59301898D01*
X181147500Y-59101939D01*
X181147500Y-58898061D01*
X181107726Y-58698102D01*
X181029705Y-58509744D01*
X180916437Y-58340226D01*
X180772274Y-58196063D01*
X180602756Y-58082795D01*
X180414398Y-58004774D01*
X180357544Y-57993465D01*
X178519034Y-56154956D01*
X178491317Y-56121183D01*
X178356559Y-56010589D01*
X178202813Y-55928411D01*
X178035990Y-55877805D01*
X177905977Y-55865000D01*
X177905969Y-55865000D01*
X177862500Y-55860719D01*
X177819031Y-55865000D01*
X172793465Y-55865000D01*
X172749999Y-55860719D01*
X172706533Y-55865000D01*
X172706523Y-55865000D01*
X172576510Y-55877805D01*
X172409687Y-55928411D01*
X172255941Y-56010589D01*
X172255939Y-56010590D01*
X172255940Y-56010590D01*
X172154953Y-56093468D01*
X172154951Y-56093470D01*
X172121183Y-56121183D01*
X172093470Y-56154951D01*
X169742451Y-58505971D01*
X169708684Y-58533683D01*
X169680971Y-58567451D01*
X169680968Y-58567454D01*
X169598090Y-58668441D01*
X169515912Y-58822187D01*
X169465305Y-58989010D01*
X169448219Y-59162500D01*
X169452501Y-59205979D01*
X169452500Y-60211545D01*
X169420295Y-60259744D01*
X169342274Y-60448102D01*
X169302500Y-60648061D01*
X155660000Y-60648061D01*
X155660000Y-50492702D01*
X166329403Y-50492702D01*
X166400986Y-50736671D01*
X166656496Y-50857571D01*
X166930684Y-50926300D01*
X167213012Y-50940217D01*
X167492630Y-50898787D01*
X167758792Y-50803603D01*
X167884014Y-50736671D01*
X167955597Y-50492702D01*
X167142500Y-49679605D01*
X166329403Y-50492702D01*
X155660000Y-50492702D01*
X155660000Y-46700475D01*
X156337500Y-46700475D01*
X156337500Y-47219525D01*
X156438761Y-47728601D01*
X156637393Y-48208141D01*
X156925762Y-48639715D01*
X157292785Y-49006738D01*
X157724359Y-49295107D01*
X158203899Y-49493739D01*
X158712975Y-49595000D01*
X159232025Y-49595000D01*
X159355135Y-49570512D01*
X165702283Y-49570512D01*
X165743713Y-49850130D01*
X165838897Y-50116292D01*
X165905829Y-50241514D01*
X166149798Y-50313097D01*
X166962895Y-49500000D01*
X166149798Y-48686903D01*
X165905829Y-48758486D01*
X165784929Y-49013996D01*
X165716200Y-49288184D01*
X165702283Y-49570512D01*
X159355135Y-49570512D01*
X159741101Y-49493739D01*
X160220641Y-49295107D01*
X160652215Y-49006738D01*
X161019238Y-48639715D01*
X161307607Y-48208141D01*
X161506239Y-47728601D01*
X161607500Y-47219525D01*
X161607500Y-47030512D01*
X164559783Y-47030512D01*
X164601213Y-47310130D01*
X164696397Y-47576292D01*
X164763329Y-47701514D01*
X165007298Y-47773097D01*
X165820395Y-46960000D01*
X165007298Y-46146903D01*
X164763329Y-46218486D01*
X164642429Y-46473996D01*
X164573700Y-46748184D01*
X164559783Y-47030512D01*
X161607500Y-47030512D01*
X161607500Y-46700475D01*
X161506239Y-46191399D01*
X161413414Y-45967298D01*
X165186903Y-45967298D01*
X166000000Y-46780395D01*
X166813097Y-45967298D01*
X166766449Y-45808311D01*
X167001165Y-45855000D01*
X167283835Y-45855000D01*
X167386331Y-45834612D01*
X167370241Y-45845363D01*
X167170363Y-46045241D01*
X167084448Y-46173822D01*
X166992702Y-46146903D01*
X166179605Y-46960000D01*
X166992702Y-47773097D01*
X167084448Y-47746178D01*
X167170363Y-47874759D01*
X167370241Y-48074637D01*
X167377558Y-48079526D01*
X167354316Y-48073700D01*
X167071988Y-48059783D01*
X166792370Y-48101213D01*
X166766844Y-48110342D01*
X166813097Y-47952702D01*
X166000000Y-47139605D01*
X165186903Y-47952702D01*
X165258486Y-48196671D01*
X165513996Y-48317571D01*
X165788184Y-48386300D01*
X166070512Y-48400217D01*
X166350130Y-48358787D01*
X166375656Y-48349658D01*
X166329403Y-48507298D01*
X167142500Y-49320395D01*
X167955597Y-48507298D01*
X167908949Y-48348311D01*
X168143665Y-48395000D01*
X168426335Y-48395000D01*
X168528831Y-48374612D01*
X168512741Y-48385363D01*
X168312863Y-48585241D01*
X168226948Y-48713822D01*
X168135202Y-48686903D01*
X167322105Y-49500000D01*
X168135202Y-50313097D01*
X168226948Y-50286178D01*
X168312863Y-50414759D01*
X168512741Y-50614637D01*
X168747773Y-50771680D01*
X169008926Y-50879853D01*
X169286165Y-50935000D01*
X169568835Y-50935000D01*
X169846074Y-50879853D01*
X170107227Y-50771680D01*
X170342259Y-50614637D01*
X170542137Y-50414759D01*
X170570000Y-50373059D01*
X170597863Y-50414759D01*
X170797741Y-50614637D01*
X171032773Y-50771680D01*
X171293926Y-50879853D01*
X171571165Y-50935000D01*
X171853835Y-50935000D01*
X172131074Y-50879853D01*
X172392227Y-50771680D01*
X172627259Y-50614637D01*
X172827137Y-50414759D01*
X172855000Y-50373059D01*
X172882863Y-50414759D01*
X173082741Y-50614637D01*
X173317773Y-50771680D01*
X173578926Y-50879853D01*
X173856165Y-50935000D01*
X174138835Y-50935000D01*
X174416074Y-50879853D01*
X174677227Y-50771680D01*
X174912259Y-50614637D01*
X175112137Y-50414759D01*
X175140000Y-50373059D01*
X175167863Y-50414759D01*
X175367741Y-50614637D01*
X175602773Y-50771680D01*
X175863926Y-50879853D01*
X176141165Y-50935000D01*
X176423835Y-50935000D01*
X176701074Y-50879853D01*
X176962227Y-50771680D01*
X177197259Y-50614637D01*
X177397137Y-50414759D01*
X177554180Y-50179727D01*
X177662353Y-49918574D01*
X177717500Y-49641335D01*
X177717500Y-49358665D01*
X177662353Y-49081426D01*
X177554180Y-48820273D01*
X177397137Y-48585241D01*
X177197259Y-48385363D01*
X176962227Y-48228320D01*
X176701074Y-48120147D01*
X176423835Y-48065000D01*
X176141165Y-48065000D01*
X175906449Y-48111689D01*
X175953097Y-47952702D01*
X175140000Y-47139605D01*
X174326903Y-47952702D01*
X174373551Y-48111689D01*
X174138835Y-48065000D01*
X173856165Y-48065000D01*
X173621449Y-48111689D01*
X173668097Y-47952702D01*
X172855000Y-47139605D01*
X172041903Y-47952702D01*
X172088551Y-48111689D01*
X171853835Y-48065000D01*
X171571165Y-48065000D01*
X171336449Y-48111689D01*
X171383097Y-47952702D01*
X170570000Y-47139605D01*
X169756903Y-47952702D01*
X169803551Y-48111689D01*
X169568835Y-48065000D01*
X169286165Y-48065000D01*
X169183669Y-48085388D01*
X169199759Y-48074637D01*
X169399637Y-47874759D01*
X169485552Y-47746178D01*
X169577298Y-47773097D01*
X170390395Y-46960000D01*
X170749605Y-46960000D01*
X171562702Y-47773097D01*
X171712500Y-47729145D01*
X171862298Y-47773097D01*
X172675395Y-46960000D01*
X173034605Y-46960000D01*
X173847702Y-47773097D01*
X173997500Y-47729145D01*
X174147298Y-47773097D01*
X174960395Y-46960000D01*
X175319605Y-46960000D01*
X176132702Y-47773097D01*
X176376671Y-47701514D01*
X176497571Y-47446004D01*
X176566300Y-47171816D01*
X176580217Y-46889488D01*
X176538787Y-46609870D01*
X176443603Y-46343708D01*
X176376671Y-46218486D01*
X176132702Y-46146903D01*
X175319605Y-46960000D01*
X174960395Y-46960000D01*
X174147298Y-46146903D01*
X173997500Y-46190855D01*
X173847702Y-46146903D01*
X173034605Y-46960000D01*
X172675395Y-46960000D01*
X171862298Y-46146903D01*
X171712500Y-46190855D01*
X171562702Y-46146903D01*
X170749605Y-46960000D01*
X170390395Y-46960000D01*
X169577298Y-46146903D01*
X169485552Y-46173822D01*
X169399637Y-46045241D01*
X169199759Y-45845363D01*
X169183669Y-45834612D01*
X169286165Y-45855000D01*
X169568835Y-45855000D01*
X169803551Y-45808311D01*
X169756903Y-45967298D01*
X170570000Y-46780395D01*
X171383097Y-45967298D01*
X171336449Y-45808311D01*
X171571165Y-45855000D01*
X171853835Y-45855000D01*
X172088551Y-45808311D01*
X172041903Y-45967298D01*
X172855000Y-46780395D01*
X173668097Y-45967298D01*
X173621449Y-45808311D01*
X173856165Y-45855000D01*
X174138835Y-45855000D01*
X174373551Y-45808311D01*
X174326903Y-45967298D01*
X175140000Y-46780395D01*
X175953097Y-45967298D01*
X175906449Y-45808311D01*
X176141165Y-45855000D01*
X176423835Y-45855000D01*
X176701074Y-45799853D01*
X176962227Y-45691680D01*
X177197259Y-45534637D01*
X177397137Y-45334759D01*
X177554180Y-45099727D01*
X177662353Y-44838574D01*
X177717500Y-44561335D01*
X177717500Y-44278665D01*
X177662353Y-44001426D01*
X177554180Y-43740273D01*
X177397137Y-43505241D01*
X177197259Y-43305363D01*
X176962227Y-43148320D01*
X176701074Y-43040147D01*
X176423835Y-42985000D01*
X176141165Y-42985000D01*
X175863926Y-43040147D01*
X175602773Y-43148320D01*
X175367741Y-43305363D01*
X175167863Y-43505241D01*
X175140000Y-43546941D01*
X175112137Y-43505241D01*
X174912259Y-43305363D01*
X174677227Y-43148320D01*
X174416074Y-43040147D01*
X174138835Y-42985000D01*
X173856165Y-42985000D01*
X173578926Y-43040147D01*
X173317773Y-43148320D01*
X173082741Y-43305363D01*
X172882863Y-43505241D01*
X172855000Y-43546941D01*
X172827137Y-43505241D01*
X172627259Y-43305363D01*
X172392227Y-43148320D01*
X172131074Y-43040147D01*
X171853835Y-42985000D01*
X171571165Y-42985000D01*
X171293926Y-43040147D01*
X171032773Y-43148320D01*
X170797741Y-43305363D01*
X170597863Y-43505241D01*
X170570000Y-43546941D01*
X170542137Y-43505241D01*
X170342259Y-43305363D01*
X170107227Y-43148320D01*
X169846074Y-43040147D01*
X169568835Y-42985000D01*
X169286165Y-42985000D01*
X169008926Y-43040147D01*
X168747773Y-43148320D01*
X168512741Y-43305363D01*
X168312863Y-43505241D01*
X168285000Y-43546941D01*
X168257137Y-43505241D01*
X168057259Y-43305363D01*
X167822227Y-43148320D01*
X167561074Y-43040147D01*
X167283835Y-42985000D01*
X167001165Y-42985000D01*
X166723926Y-43040147D01*
X166462773Y-43148320D01*
X166227741Y-43305363D01*
X166027863Y-43505241D01*
X165870820Y-43740273D01*
X165762647Y-44001426D01*
X165707500Y-44278665D01*
X165707500Y-44561335D01*
X165762647Y-44838574D01*
X165870820Y-45099727D01*
X166027863Y-45334759D01*
X166227741Y-45534637D01*
X166235058Y-45539526D01*
X166211816Y-45533700D01*
X165929488Y-45519783D01*
X165649870Y-45561213D01*
X165383708Y-45656397D01*
X165258486Y-45723329D01*
X165186903Y-45967298D01*
X161413414Y-45967298D01*
X161307607Y-45711859D01*
X161019238Y-45280285D01*
X160652215Y-44913262D01*
X160220641Y-44624893D01*
X159741101Y-44426261D01*
X159232025Y-44325000D01*
X158712975Y-44325000D01*
X158203899Y-44426261D01*
X157724359Y-44624893D01*
X157292785Y-44913262D01*
X156925762Y-45280285D01*
X156637393Y-45711859D01*
X156438761Y-46191399D01*
X156337500Y-46700475D01*
X155660000Y-46700475D01*
X155660000Y-34279392D01*
X155731173Y-33481917D01*
X155934656Y-32738109D01*
X156266638Y-32042095D01*
X156716626Y-31415870D01*
X157270403Y-30879223D01*
X157910451Y-30449129D01*
X158616553Y-30139171D01*
X159371457Y-29957935D01*
X160024207Y-29910000D01*
X229970608Y-29910000D01*
X230768083Y-29981173D01*
%TA.AperFunction,Conductor*%
D24*
G36*
X230768083Y-29981173D02*
G01*
X231511891Y-30184656D01*
X232207905Y-30516638D01*
X232834130Y-30966626D01*
X233370777Y-31520403D01*
X233800871Y-32160451D01*
X234110829Y-32866553D01*
X234292065Y-33621457D01*
X234340000Y-34274207D01*
X234340001Y-94220597D01*
X234268827Y-95018083D01*
X234065344Y-95761890D01*
X233733363Y-96457904D01*
X233283374Y-97084130D01*
X232729597Y-97620777D01*
X232089549Y-98050871D01*
X231383447Y-98360829D01*
X230628543Y-98542065D01*
X229975793Y-98590000D01*
X160029392Y-98590000D01*
X159231917Y-98518827D01*
X158488110Y-98315344D01*
X157792096Y-97983363D01*
X157165870Y-97533374D01*
X156629223Y-96979597D01*
X156199129Y-96339549D01*
X155889171Y-95633447D01*
X155707935Y-94878543D01*
X155660000Y-94225793D01*
X155660000Y-93725701D01*
X157215000Y-93725701D01*
X157215000Y-94274299D01*
X157322026Y-94812354D01*
X157531965Y-95319192D01*
X157836750Y-95775334D01*
X158224666Y-96163250D01*
X158680808Y-96468035D01*
X159187646Y-96677974D01*
X159725701Y-96785000D01*
X160274299Y-96785000D01*
X160812354Y-96677974D01*
X161319192Y-96468035D01*
X161775334Y-96163250D01*
X162163250Y-95775334D01*
X162468035Y-95319192D01*
X162677974Y-94812354D01*
X162785000Y-94274299D01*
X162785000Y-93725701D01*
X162677974Y-93187646D01*
X162468035Y-92680808D01*
X162163250Y-92224666D01*
X161775334Y-91836750D01*
X161319192Y-91531965D01*
X160812354Y-91322026D01*
X160274299Y-91215000D01*
X159725701Y-91215000D01*
X159187646Y-91322026D01*
X158680808Y-91531965D01*
X158224666Y-91836750D01*
X157836750Y-92224666D01*
X157531965Y-92680808D01*
X157322026Y-93187646D01*
X157215000Y-93725701D01*
X155660000Y-93725701D01*
X155660000Y-91100000D01*
X183011928Y-91100000D01*
X183024188Y-91224482D01*
X183060498Y-91344180D01*
X183119463Y-91454494D01*
X183198815Y-91551185D01*
X183295506Y-91630537D01*
X183405820Y-91689502D01*
X183525518Y-91725812D01*
X183650000Y-91738072D01*
X184214250Y-91735000D01*
X184373000Y-91576250D01*
X184373000Y-90377000D01*
X183173750Y-90377000D01*
X183015000Y-90535750D01*
X183011928Y-91100000D01*
X155660000Y-91100000D01*
X155660000Y-89400000D01*
X183011928Y-89400000D01*
X183015000Y-89964250D01*
X183173750Y-90123000D01*
X184373000Y-90123000D01*
X184373000Y-88923750D01*
X184214250Y-88765000D01*
X183650000Y-88761928D01*
X183525518Y-88774188D01*
X183405820Y-88810498D01*
X183295506Y-88869463D01*
X183198815Y-88948815D01*
X183119463Y-89045506D01*
X183060498Y-89155820D01*
X183024188Y-89275518D01*
X183011928Y-89400000D01*
X155660000Y-89400000D01*
X155660000Y-76715565D01*
X185464040Y-76715565D01*
X185531020Y-76955656D01*
X185780048Y-77072756D01*
X186047135Y-77139023D01*
X186322017Y-77151910D01*
X186594133Y-77110922D01*
X186853023Y-77017636D01*
X186968980Y-76955656D01*
X187035960Y-76715565D01*
X186250000Y-75929605D01*
X185464040Y-76715565D01*
X155660000Y-76715565D01*
X155660000Y-75822017D01*
X184848090Y-75822017D01*
X184889078Y-76094133D01*
X184982364Y-76353023D01*
X185044344Y-76468980D01*
X185284435Y-76535960D01*
X186070395Y-75750000D01*
X186429605Y-75750000D01*
X187215565Y-76535960D01*
X187455656Y-76468980D01*
X187572756Y-76219952D01*
X187639023Y-75952865D01*
X187651910Y-75677983D01*
X187610922Y-75405867D01*
X187517636Y-75146977D01*
X187455656Y-75031020D01*
X187215565Y-74964040D01*
X186429605Y-75750000D01*
X186070395Y-75750000D01*
X185284435Y-74964040D01*
X185044344Y-75031020D01*
X184927244Y-75280048D01*
X184860977Y-75547135D01*
X184848090Y-75822017D01*
X155660000Y-75822017D01*
X155660000Y-74784435D01*
X185464040Y-74784435D01*
X186250000Y-75570395D01*
X187035960Y-74784435D01*
X186968980Y-74544344D01*
X186719952Y-74427244D01*
X186452865Y-74360977D01*
X186177983Y-74348090D01*
X185905867Y-74389078D01*
X185646977Y-74482364D01*
X185531020Y-74544344D01*
X185464040Y-74784435D01*
X155660000Y-74784435D01*
X155660000Y-60648061D01*
X169302500Y-60648061D01*
X169302500Y-60851939D01*
X169342274Y-61051898D01*
X169420295Y-61240256D01*
X169533563Y-61409774D01*
X169677726Y-61553937D01*
X169847244Y-61667205D01*
X170035602Y-61745226D01*
X170235561Y-61785000D01*
X170439439Y-61785000D01*
X170639398Y-61745226D01*
X170827756Y-61667205D01*
X170997274Y-61553937D01*
X171141437Y-61409774D01*
X171254705Y-61240256D01*
X171332726Y-61051898D01*
X171363325Y-60898061D01*
X174965000Y-60898061D01*
X174965000Y-61101939D01*
X175004774Y-61301898D01*
X175082795Y-61490256D01*
X175196063Y-61659774D01*
X175301501Y-61765212D01*
X175301500Y-64378202D01*
X175298122Y-64412500D01*
X175301500Y-64446798D01*
X175301500Y-64446808D01*
X175311607Y-64549429D01*
X175345554Y-64661336D01*
X175351549Y-64681098D01*
X175416409Y-64802443D01*
X175481826Y-64882153D01*
X175481829Y-64882156D01*
X175503697Y-64908802D01*
X175530344Y-64930671D01*
X177465000Y-66865328D01*
X177465000Y-67014439D01*
X177504774Y-67214398D01*
X177582795Y-67402756D01*
X177696063Y-67572274D01*
X177840226Y-67716437D01*
X178009744Y-67829705D01*
X178198102Y-67907726D01*
X178398061Y-67947500D01*
X178601939Y-67947500D01*
X178801898Y-67907726D01*
X178990256Y-67829705D01*
X179159774Y-67716437D01*
X179303937Y-67572274D01*
X179417205Y-67402756D01*
X179495226Y-67214398D01*
X179535000Y-67014439D01*
X179535000Y-66810561D01*
X179495226Y-66610602D01*
X179417205Y-66422244D01*
X179303937Y-66252726D01*
X179159774Y-66108563D01*
X178990256Y-65995295D01*
X178801898Y-65917274D01*
X178601939Y-65877500D01*
X178452828Y-65877500D01*
X176698500Y-64123173D01*
X176698500Y-61765211D01*
X176803937Y-61659774D01*
X176917205Y-61490256D01*
X176995226Y-61301898D01*
X177035000Y-61101939D01*
X177035000Y-60898061D01*
X176995226Y-60698102D01*
X176917205Y-60509744D01*
X176803937Y-60340226D01*
X176659774Y-60196063D01*
X176490256Y-60082795D01*
X176301898Y-60004774D01*
X176101939Y-59965000D01*
X175898061Y-59965000D01*
X175698102Y-60004774D01*
X175509744Y-60082795D01*
X175340226Y-60196063D01*
X175196063Y-60340226D01*
X175082795Y-60509744D01*
X175004774Y-60698102D01*
X174965000Y-60898061D01*
X171363325Y-60898061D01*
X171372500Y-60851939D01*
X171372500Y-60648061D01*
X171332726Y-60448102D01*
X171254705Y-60259744D01*
X171222500Y-60211546D01*
X171222500Y-59529078D01*
X173116579Y-57635000D01*
X177495922Y-57635000D01*
X179105965Y-59245044D01*
X179117274Y-59301898D01*
X179195295Y-59490256D01*
X179227501Y-59538456D01*
X179227500Y-62069031D01*
X179223219Y-62112500D01*
X179227500Y-62155969D01*
X179227500Y-62155976D01*
X179240305Y-62285989D01*
X179290911Y-62452812D01*
X179373089Y-62606558D01*
X179483683Y-62741317D01*
X179517456Y-62769034D01*
X182455970Y-65707549D01*
X182483683Y-65741317D01*
X182517451Y-65769030D01*
X182517453Y-65769032D01*
X182618441Y-65851911D01*
X182772186Y-65934089D01*
X182939010Y-65984695D01*
X183069023Y-65997500D01*
X183069031Y-65997500D01*
X183112500Y-66001781D01*
X183155969Y-65997500D01*
X184615001Y-65997500D01*
X184615000Y-67456523D01*
X184615000Y-67569031D01*
X184610719Y-67612500D01*
X184615000Y-67655969D01*
X184615000Y-67655976D01*
X184627805Y-67785989D01*
X184678411Y-67952812D01*
X184760589Y-68106558D01*
X184871183Y-68241317D01*
X184904956Y-68269034D01*
X185248421Y-68612500D01*
X182495922Y-71365000D01*
X180650954Y-71365000D01*
X180602756Y-71332795D01*
X180414398Y-71254774D01*
X180214439Y-71215000D01*
X180010561Y-71215000D01*
X179810602Y-71254774D01*
X179622244Y-71332795D01*
X179452726Y-71446063D01*
X179308563Y-71590226D01*
X179195295Y-71759744D01*
X179117274Y-71948102D01*
X179077500Y-72148061D01*
X179077500Y-72351939D01*
X179117274Y-72551898D01*
X179195295Y-72740256D01*
X179308563Y-72909774D01*
X179452726Y-73053937D01*
X179622244Y-73167205D01*
X179810602Y-73245226D01*
X180010561Y-73285000D01*
X180214439Y-73285000D01*
X180414398Y-73245226D01*
X180602756Y-73167205D01*
X180650954Y-73135000D01*
X182819031Y-73135000D01*
X182862500Y-73139281D01*
X182905969Y-73135000D01*
X182905977Y-73135000D01*
X183035990Y-73122195D01*
X183202813Y-73071589D01*
X183356559Y-72989411D01*
X183491317Y-72878817D01*
X183519034Y-72845044D01*
X186509999Y-69854080D01*
X186659687Y-69934089D01*
X186826510Y-69984695D01*
X186956523Y-69997500D01*
X186956531Y-69997500D01*
X187000000Y-70001781D01*
X187043469Y-69997500D01*
X188961546Y-69997500D01*
X189009744Y-70029705D01*
X189198102Y-70107726D01*
X189395391Y-70146969D01*
X192752500Y-73504079D01*
X192752501Y-76711544D01*
X192720295Y-76759744D01*
X192642274Y-76948102D01*
X192630965Y-77004956D01*
X190020922Y-79615000D01*
X189293469Y-79615000D01*
X189250000Y-79610719D01*
X189206531Y-79615000D01*
X186293469Y-79615000D01*
X186250000Y-79610719D01*
X186206531Y-79615000D01*
X186206523Y-79615000D01*
X186076510Y-79627805D01*
X185909686Y-79678411D01*
X185755941Y-79760589D01*
X185654953Y-79843468D01*
X185654951Y-79843470D01*
X185621183Y-79871183D01*
X185593470Y-79904951D01*
X184654951Y-80843471D01*
X184621184Y-80871183D01*
X184593471Y-80904951D01*
X184593468Y-80904954D01*
X184510590Y-81005941D01*
X184428412Y-81159687D01*
X184377805Y-81326510D01*
X184360719Y-81500000D01*
X184365001Y-81543479D01*
X184365000Y-83099045D01*
X184332795Y-83147244D01*
X184254774Y-83335602D01*
X184215000Y-83535561D01*
X184215000Y-83739439D01*
X184254774Y-83939398D01*
X184332795Y-84127756D01*
X184446063Y-84297274D01*
X184590226Y-84441437D01*
X184759744Y-84554705D01*
X184948102Y-84632726D01*
X185148061Y-84672500D01*
X185351939Y-84672500D01*
X185551898Y-84632726D01*
X185740256Y-84554705D01*
X185909774Y-84441437D01*
X186053937Y-84297274D01*
X186167205Y-84127756D01*
X186238758Y-83955013D01*
X186238759Y-88999378D01*
X186093368Y-89096525D01*
X185961513Y-89228380D01*
X185939502Y-89155820D01*
X185880537Y-89045506D01*
X185801185Y-88948815D01*
X185704494Y-88869463D01*
X185594180Y-88810498D01*
X185474482Y-88774188D01*
X185350000Y-88761928D01*
X184785750Y-88765000D01*
X184627000Y-88923750D01*
X184627000Y-90123000D01*
X184647000Y-90123000D01*
X184647000Y-90377000D01*
X184627000Y-90377000D01*
X184627000Y-91576250D01*
X184785750Y-91735000D01*
X185350000Y-91738072D01*
X185474482Y-91725812D01*
X185594180Y-91689502D01*
X185704494Y-91630537D01*
X185801185Y-91551185D01*
X185880537Y-91454494D01*
X185939502Y-91344180D01*
X185961513Y-91271620D01*
X186093368Y-91403475D01*
X186336589Y-91565990D01*
X186606842Y-91677932D01*
X186893740Y-91735000D01*
X187186260Y-91735000D01*
X187473158Y-91677932D01*
X187743411Y-91565990D01*
X187986632Y-91403475D01*
X188193475Y-91196632D01*
X188310000Y-91022240D01*
X188426525Y-91196632D01*
X188633368Y-91403475D01*
X188876589Y-91565990D01*
X189146842Y-91677932D01*
X189433740Y-91735000D01*
X189726260Y-91735000D01*
X190013158Y-91677932D01*
X190283411Y-91565990D01*
X190526632Y-91403475D01*
X190733475Y-91196632D01*
X190850000Y-91022240D01*
X190966525Y-91196632D01*
X191173368Y-91403475D01*
X191416589Y-91565990D01*
X191686842Y-91677932D01*
X191973740Y-91735000D01*
X192266260Y-91735000D01*
X192338961Y-91720539D01*
X196213470Y-95595049D01*
X196241183Y-95628817D01*
X196274951Y-95656530D01*
X196274953Y-95656532D01*
X196307487Y-95683232D01*
X196375941Y-95739411D01*
X196529687Y-95821589D01*
X196696510Y-95872195D01*
X196826523Y-95885000D01*
X196826533Y-95885000D01*
X196869999Y-95889281D01*
X196913465Y-95885000D01*
X202624046Y-95885000D01*
X202672244Y-95917205D01*
X202860602Y-95995226D01*
X203060561Y-96035000D01*
X203264439Y-96035000D01*
X203464398Y-95995226D01*
X203652756Y-95917205D01*
X203822274Y-95803937D01*
X203966437Y-95659774D01*
X204079705Y-95490256D01*
X204157726Y-95301898D01*
X204169035Y-95245043D01*
X204695051Y-94719028D01*
X204728818Y-94691316D01*
X204769460Y-94641795D01*
X204839412Y-94556558D01*
X204921590Y-94402813D01*
X204972196Y-94235989D01*
X204977867Y-94178411D01*
X204985001Y-94105976D01*
X204985001Y-94105968D01*
X204989282Y-94062499D01*
X204985001Y-94019030D01*
X204985001Y-92750000D01*
X206011928Y-92750000D01*
X206011928Y-94250000D01*
X206028992Y-94423254D01*
X206079528Y-94589850D01*
X206161595Y-94743386D01*
X206272038Y-94877962D01*
X206406614Y-94988405D01*
X206560150Y-95070472D01*
X206726746Y-95121008D01*
X206900000Y-95138072D01*
X208100000Y-95138072D01*
X208273254Y-95121008D01*
X208439850Y-95070472D01*
X208593386Y-94988405D01*
X208727962Y-94877962D01*
X208838405Y-94743386D01*
X208892914Y-94641407D01*
X208893198Y-94641795D01*
X209107954Y-94838664D01*
X209356991Y-94989854D01*
X209630739Y-95089554D01*
X209643110Y-95091476D01*
X209873000Y-94970155D01*
X209873000Y-93627000D01*
X210127000Y-93627000D01*
X210127000Y-94970155D01*
X210356890Y-95091476D01*
X210369261Y-95089554D01*
X210643009Y-94989854D01*
X210892046Y-94838664D01*
X211106802Y-94641795D01*
X211279025Y-94406812D01*
X211402096Y-94142745D01*
X211471285Y-93859742D01*
X211388322Y-93725701D01*
X227215000Y-93725701D01*
X227215000Y-94274299D01*
X227322026Y-94812354D01*
X227531965Y-95319192D01*
X227836750Y-95775334D01*
X228224666Y-96163250D01*
X228680808Y-96468035D01*
X229187646Y-96677974D01*
X229725701Y-96785000D01*
X230274299Y-96785000D01*
X230812354Y-96677974D01*
X231319192Y-96468035D01*
X231775334Y-96163250D01*
X232163250Y-95775334D01*
X232468035Y-95319192D01*
X232677974Y-94812354D01*
X232785000Y-94274299D01*
X232785000Y-93725701D01*
X232677974Y-93187646D01*
X232468035Y-92680808D01*
X232163250Y-92224666D01*
X231775334Y-91836750D01*
X231319192Y-91531965D01*
X230812354Y-91322026D01*
X230274299Y-91215000D01*
X229725701Y-91215000D01*
X229187646Y-91322026D01*
X228680808Y-91531965D01*
X228224666Y-91836750D01*
X227836750Y-92224666D01*
X227531965Y-92680808D01*
X227322026Y-93187646D01*
X227215000Y-93725701D01*
X211388322Y-93725701D01*
X211327232Y-93627000D01*
X210127000Y-93627000D01*
X209873000Y-93627000D01*
X209853000Y-93627000D01*
X209853000Y-93373000D01*
X209873000Y-93373000D01*
X209873000Y-92029845D01*
X210127000Y-92029845D01*
X210127000Y-93373000D01*
X211327232Y-93373000D01*
X211471285Y-93140258D01*
X211402096Y-92857255D01*
X211279025Y-92593188D01*
X211106802Y-92358205D01*
X210892046Y-92161336D01*
X210643009Y-92010146D01*
X210369261Y-91910446D01*
X210356890Y-91908524D01*
X210127000Y-92029845D01*
X209873000Y-92029845D01*
X209643110Y-91908524D01*
X209630739Y-91910446D01*
X209356991Y-92010146D01*
X209107954Y-92161336D01*
X208893198Y-92358205D01*
X208892914Y-92358593D01*
X208838405Y-92256614D01*
X208727962Y-92122038D01*
X208593386Y-92011595D01*
X208439850Y-91929528D01*
X208273254Y-91878992D01*
X208100000Y-91861928D01*
X206900000Y-91861928D01*
X206726746Y-91878992D01*
X206560150Y-91929528D01*
X206406614Y-92011595D01*
X206272038Y-92122038D01*
X206161595Y-92256614D01*
X206079528Y-92410150D01*
X206028992Y-92576746D01*
X206011928Y-92750000D01*
X204985001Y-92750000D01*
X204985001Y-90480966D01*
X204989282Y-90437500D01*
X204985001Y-90394034D01*
X204985001Y-90394024D01*
X204972196Y-90264011D01*
X204921590Y-90097188D01*
X204839412Y-89943442D01*
X204728818Y-89808684D01*
X204695045Y-89780967D01*
X204414078Y-89500000D01*
X205095050Y-88819029D01*
X205128817Y-88791317D01*
X205162726Y-88750000D01*
X205239411Y-88656559D01*
X205321589Y-88502814D01*
X205372195Y-88335990D01*
X205381134Y-88245226D01*
X205385000Y-88205977D01*
X205385000Y-88205969D01*
X205389281Y-88162500D01*
X205385000Y-88119031D01*
X205385000Y-87250000D01*
X206011928Y-87250000D01*
X206011928Y-88750000D01*
X206028992Y-88923254D01*
X206079528Y-89089850D01*
X206161595Y-89243386D01*
X206272038Y-89377962D01*
X206406614Y-89488405D01*
X206560150Y-89570472D01*
X206726746Y-89621008D01*
X206900000Y-89638072D01*
X208100000Y-89638072D01*
X208273254Y-89621008D01*
X208439850Y-89570472D01*
X208593386Y-89488405D01*
X208727962Y-89377962D01*
X208838405Y-89243386D01*
X208892914Y-89141407D01*
X208893198Y-89141795D01*
X209107954Y-89338664D01*
X209356991Y-89489854D01*
X209630739Y-89589554D01*
X209643110Y-89591476D01*
X209873000Y-89470155D01*
X209873000Y-88127000D01*
X210127000Y-88127000D01*
X210127000Y-89470155D01*
X210356890Y-89591476D01*
X210369261Y-89589554D01*
X210643009Y-89489854D01*
X210892046Y-89338664D01*
X211106802Y-89141795D01*
X211279025Y-88906812D01*
X211402096Y-88642745D01*
X211471285Y-88359742D01*
X211327232Y-88127000D01*
X210127000Y-88127000D01*
X209873000Y-88127000D01*
X209853000Y-88127000D01*
X209853000Y-87873000D01*
X209873000Y-87873000D01*
X209873000Y-86529845D01*
X210127000Y-86529845D01*
X210127000Y-87873000D01*
X211327232Y-87873000D01*
X211471285Y-87640258D01*
X211402096Y-87357255D01*
X211279025Y-87093188D01*
X211106802Y-86858205D01*
X210892046Y-86661336D01*
X210643009Y-86510146D01*
X210369261Y-86410446D01*
X210356890Y-86408524D01*
X210127000Y-86529845D01*
X209873000Y-86529845D01*
X209643110Y-86408524D01*
X209630739Y-86410446D01*
X209356991Y-86510146D01*
X209107954Y-86661336D01*
X208893198Y-86858205D01*
X208892914Y-86858593D01*
X208838405Y-86756614D01*
X208727962Y-86622038D01*
X208593386Y-86511595D01*
X208439850Y-86429528D01*
X208273254Y-86378992D01*
X208100000Y-86361928D01*
X206900000Y-86361928D01*
X206726746Y-86378992D01*
X206560150Y-86429528D01*
X206406614Y-86511595D01*
X206272038Y-86622038D01*
X206161595Y-86756614D01*
X206079528Y-86910150D01*
X206028992Y-87076746D01*
X206011928Y-87250000D01*
X205385000Y-87250000D01*
X205385000Y-85380965D01*
X205389281Y-85337499D01*
X205385000Y-85294033D01*
X205385000Y-85294023D01*
X205372195Y-85164010D01*
X205321589Y-84997187D01*
X205239411Y-84843441D01*
X205128817Y-84708683D01*
X205095049Y-84680970D01*
X204414078Y-84000000D01*
X204695051Y-83719028D01*
X204728818Y-83691316D01*
X204769460Y-83641795D01*
X204839412Y-83556558D01*
X204921590Y-83402813D01*
X204972196Y-83235989D01*
X204976128Y-83196063D01*
X204985001Y-83105976D01*
X204985001Y-83105968D01*
X204989282Y-83062499D01*
X204985001Y-83019030D01*
X204985001Y-81750000D01*
X206011928Y-81750000D01*
X206011928Y-83250000D01*
X206028992Y-83423254D01*
X206079528Y-83589850D01*
X206161595Y-83743386D01*
X206272038Y-83877962D01*
X206406614Y-83988405D01*
X206560150Y-84070472D01*
X206726746Y-84121008D01*
X206900000Y-84138072D01*
X208100000Y-84138072D01*
X208273254Y-84121008D01*
X208439850Y-84070472D01*
X208593386Y-83988405D01*
X208727962Y-83877962D01*
X208838405Y-83743386D01*
X208892914Y-83641407D01*
X208893198Y-83641795D01*
X209107954Y-83838664D01*
X209356991Y-83989854D01*
X209630739Y-84089554D01*
X209643110Y-84091476D01*
X209873000Y-83970155D01*
X209873000Y-82627000D01*
X210127000Y-82627000D01*
X210127000Y-83970155D01*
X210356890Y-84091476D01*
X210369261Y-84089554D01*
X210643009Y-83989854D01*
X210892046Y-83838664D01*
X211106802Y-83641795D01*
X211279025Y-83406812D01*
X211402096Y-83142745D01*
X211471285Y-82859742D01*
X211327232Y-82627000D01*
X210127000Y-82627000D01*
X209873000Y-82627000D01*
X209853000Y-82627000D01*
X209853000Y-82373000D01*
X209873000Y-82373000D01*
X209873000Y-81029845D01*
X210127000Y-81029845D01*
X210127000Y-82373000D01*
X211327232Y-82373000D01*
X211471285Y-82140258D01*
X211402096Y-81857255D01*
X211279025Y-81593188D01*
X211106802Y-81358205D01*
X210892046Y-81161336D01*
X210643009Y-81010146D01*
X210369261Y-80910446D01*
X210356890Y-80908524D01*
X210127000Y-81029845D01*
X209873000Y-81029845D01*
X209643110Y-80908524D01*
X209630739Y-80910446D01*
X209356991Y-81010146D01*
X209107954Y-81161336D01*
X208893198Y-81358205D01*
X208892914Y-81358593D01*
X208838405Y-81256614D01*
X208727962Y-81122038D01*
X208593386Y-81011595D01*
X208439850Y-80929528D01*
X208273254Y-80878992D01*
X208100000Y-80861928D01*
X206900000Y-80861928D01*
X206726746Y-80878992D01*
X206560150Y-80929528D01*
X206406614Y-81011595D01*
X206272038Y-81122038D01*
X206161595Y-81256614D01*
X206079528Y-81410150D01*
X206028992Y-81576746D01*
X206011928Y-81750000D01*
X204985001Y-81750000D01*
X204985001Y-79480966D01*
X204989282Y-79437500D01*
X204985001Y-79394034D01*
X204985001Y-79394024D01*
X204972196Y-79264011D01*
X204921590Y-79097188D01*
X204839412Y-78943442D01*
X204728818Y-78808684D01*
X204695045Y-78780967D01*
X204414078Y-78500000D01*
X205345050Y-77569029D01*
X205378817Y-77541317D01*
X205408808Y-77504774D01*
X205489410Y-77406560D01*
X205489411Y-77406559D01*
X205571589Y-77252813D01*
X205622195Y-77085990D01*
X205635000Y-76955977D01*
X205635000Y-76955967D01*
X205639281Y-76912501D01*
X205635000Y-76869034D01*
X205635000Y-76250000D01*
X206011928Y-76250000D01*
X206011928Y-77750000D01*
X206028992Y-77923254D01*
X206079528Y-78089850D01*
X206161595Y-78243386D01*
X206272038Y-78377962D01*
X206406614Y-78488405D01*
X206560150Y-78570472D01*
X206726746Y-78621008D01*
X206900000Y-78638072D01*
X208100000Y-78638072D01*
X208273254Y-78621008D01*
X208439850Y-78570472D01*
X208593386Y-78488405D01*
X208727962Y-78377962D01*
X208838405Y-78243386D01*
X208892914Y-78141407D01*
X208893198Y-78141795D01*
X209107954Y-78338664D01*
X209356991Y-78489854D01*
X209630739Y-78589554D01*
X209643110Y-78591476D01*
X209873000Y-78470155D01*
X209873000Y-77127000D01*
X210127000Y-77127000D01*
X210127000Y-78470155D01*
X210356890Y-78591476D01*
X210369261Y-78589554D01*
X210643009Y-78489854D01*
X210892046Y-78338664D01*
X211106802Y-78141795D01*
X211279025Y-77906812D01*
X211402096Y-77642745D01*
X211471285Y-77359742D01*
X211327232Y-77127000D01*
X210127000Y-77127000D01*
X209873000Y-77127000D01*
X209853000Y-77127000D01*
X209853000Y-76873000D01*
X209873000Y-76873000D01*
X209873000Y-75529845D01*
X210127000Y-75529845D01*
X210127000Y-76873000D01*
X211327232Y-76873000D01*
X211471285Y-76640258D01*
X211402096Y-76357255D01*
X211279025Y-76093188D01*
X211106802Y-75858205D01*
X210892046Y-75661336D01*
X210643009Y-75510146D01*
X210369261Y-75410446D01*
X210356890Y-75408524D01*
X210127000Y-75529845D01*
X209873000Y-75529845D01*
X209643110Y-75408524D01*
X209630739Y-75410446D01*
X209356991Y-75510146D01*
X209107954Y-75661336D01*
X208893198Y-75858205D01*
X208892914Y-75858593D01*
X208838405Y-75756614D01*
X208727962Y-75622038D01*
X208593386Y-75511595D01*
X208439850Y-75429528D01*
X208273254Y-75378992D01*
X208100000Y-75361928D01*
X206900000Y-75361928D01*
X206726746Y-75378992D01*
X206560150Y-75429528D01*
X206406614Y-75511595D01*
X206272038Y-75622038D01*
X206161595Y-75756614D01*
X206079528Y-75910150D01*
X206028992Y-76076746D01*
X206011928Y-76250000D01*
X205635000Y-76250000D01*
X205635000Y-74630969D01*
X205639281Y-74587500D01*
X205635000Y-74544031D01*
X205635000Y-74544023D01*
X205622195Y-74414010D01*
X205571589Y-74247187D01*
X205489411Y-74093441D01*
X205476030Y-74077136D01*
X205406532Y-73992453D01*
X205406530Y-73992451D01*
X205378817Y-73958683D01*
X205345049Y-73930970D01*
X204414078Y-73000000D01*
X204845050Y-72569029D01*
X204878817Y-72541317D01*
X204989411Y-72406559D01*
X205071589Y-72252813D01*
X205122195Y-72085990D01*
X205135000Y-71955977D01*
X205135000Y-71955967D01*
X205139281Y-71912501D01*
X205135000Y-71869035D01*
X205135000Y-70750000D01*
X206011928Y-70750000D01*
X206011928Y-72250000D01*
X206028992Y-72423254D01*
X206079528Y-72589850D01*
X206161595Y-72743386D01*
X206272038Y-72877962D01*
X206406614Y-72988405D01*
X206560150Y-73070472D01*
X206726746Y-73121008D01*
X206900000Y-73138072D01*
X208100000Y-73138072D01*
X208273254Y-73121008D01*
X208439850Y-73070472D01*
X208593386Y-72988405D01*
X208727962Y-72877962D01*
X208838405Y-72743386D01*
X208892914Y-72641407D01*
X208893198Y-72641795D01*
X209107954Y-72838664D01*
X209356991Y-72989854D01*
X209630739Y-73089554D01*
X209643110Y-73091476D01*
X209873000Y-72970155D01*
X209873000Y-71627000D01*
X210127000Y-71627000D01*
X210127000Y-72970155D01*
X210356890Y-73091476D01*
X210369261Y-73089554D01*
X210643009Y-72989854D01*
X210892046Y-72838664D01*
X211106802Y-72641795D01*
X211279025Y-72406812D01*
X211402096Y-72142745D01*
X211471285Y-71859742D01*
X211327232Y-71627000D01*
X210127000Y-71627000D01*
X209873000Y-71627000D01*
X209853000Y-71627000D01*
X209853000Y-71373000D01*
X209873000Y-71373000D01*
X209873000Y-70029845D01*
X210127000Y-70029845D01*
X210127000Y-71373000D01*
X211327232Y-71373000D01*
X211471285Y-71140258D01*
X211402096Y-70857255D01*
X211279025Y-70593188D01*
X211106802Y-70358205D01*
X210892046Y-70161336D01*
X210643009Y-70010146D01*
X210369261Y-69910446D01*
X210356890Y-69908524D01*
X210127000Y-70029845D01*
X209873000Y-70029845D01*
X209643110Y-69908524D01*
X209630739Y-69910446D01*
X209356991Y-70010146D01*
X209107954Y-70161336D01*
X208893198Y-70358205D01*
X208892914Y-70358593D01*
X208838405Y-70256614D01*
X208727962Y-70122038D01*
X208593386Y-70011595D01*
X208439850Y-69929528D01*
X208273254Y-69878992D01*
X208100000Y-69861928D01*
X206900000Y-69861928D01*
X206726746Y-69878992D01*
X206560150Y-69929528D01*
X206406614Y-70011595D01*
X206272038Y-70122038D01*
X206161595Y-70256614D01*
X206079528Y-70410150D01*
X206028992Y-70576746D01*
X206011928Y-70750000D01*
X205135000Y-70750000D01*
X205135000Y-68630966D01*
X205139281Y-68587499D01*
X205135000Y-68544033D01*
X205135000Y-68544023D01*
X205122195Y-68414010D01*
X205071589Y-68247187D01*
X204989411Y-68093441D01*
X204878817Y-67958683D01*
X204845049Y-67930970D01*
X204414078Y-67500000D01*
X204845050Y-67069029D01*
X204878817Y-67041317D01*
X204926117Y-66983683D01*
X204989410Y-66906560D01*
X204989411Y-66906559D01*
X205071589Y-66752813D01*
X205122195Y-66585990D01*
X205135000Y-66455977D01*
X205135000Y-66455967D01*
X205139281Y-66412501D01*
X205135000Y-66369035D01*
X205135000Y-65250000D01*
X206011928Y-65250000D01*
X206011928Y-66750000D01*
X206028992Y-66923254D01*
X206079528Y-67089850D01*
X206161595Y-67243386D01*
X206272038Y-67377962D01*
X206406614Y-67488405D01*
X206560150Y-67570472D01*
X206726746Y-67621008D01*
X206900000Y-67638072D01*
X208100000Y-67638072D01*
X208273254Y-67621008D01*
X208439850Y-67570472D01*
X208593386Y-67488405D01*
X208727962Y-67377962D01*
X208838405Y-67243386D01*
X208892914Y-67141407D01*
X208893198Y-67141795D01*
X209107954Y-67338664D01*
X209356991Y-67489854D01*
X209630739Y-67589554D01*
X209643110Y-67591476D01*
X209873000Y-67470155D01*
X209873000Y-66127000D01*
X210127000Y-66127000D01*
X210127000Y-67470155D01*
X210356890Y-67591476D01*
X210369261Y-67589554D01*
X210643009Y-67489854D01*
X210892046Y-67338664D01*
X211106802Y-67141795D01*
X211279025Y-66906812D01*
X211402096Y-66642745D01*
X211471285Y-66359742D01*
X211327232Y-66127000D01*
X210127000Y-66127000D01*
X209873000Y-66127000D01*
X209853000Y-66127000D01*
X209853000Y-65873000D01*
X209873000Y-65873000D01*
X209873000Y-64529845D01*
X210127000Y-64529845D01*
X210127000Y-65873000D01*
X211327232Y-65873000D01*
X211471285Y-65640258D01*
X211402096Y-65357255D01*
X211279025Y-65093188D01*
X211106802Y-64858205D01*
X210892046Y-64661336D01*
X210643009Y-64510146D01*
X210369261Y-64410446D01*
X210356890Y-64408524D01*
X210127000Y-64529845D01*
X209873000Y-64529845D01*
X209643110Y-64408524D01*
X209630739Y-64410446D01*
X209356991Y-64510146D01*
X209107954Y-64661336D01*
X208893198Y-64858205D01*
X208892914Y-64858593D01*
X208838405Y-64756614D01*
X208727962Y-64622038D01*
X208593386Y-64511595D01*
X208439850Y-64429528D01*
X208273254Y-64378992D01*
X208100000Y-64361928D01*
X206900000Y-64361928D01*
X206726746Y-64378992D01*
X206560150Y-64429528D01*
X206406614Y-64511595D01*
X206272038Y-64622038D01*
X206161595Y-64756614D01*
X206079528Y-64910150D01*
X206028992Y-65076746D01*
X206011928Y-65250000D01*
X205135000Y-65250000D01*
X205135000Y-63130966D01*
X205139281Y-63087499D01*
X205135000Y-63044033D01*
X205135000Y-63044023D01*
X205122195Y-62914010D01*
X205071589Y-62747187D01*
X204989411Y-62593441D01*
X204965210Y-62563952D01*
X204906532Y-62492453D01*
X204906530Y-62492451D01*
X204878817Y-62458683D01*
X204845049Y-62430970D01*
X204239636Y-61825558D01*
X204169035Y-61754957D01*
X204157726Y-61698102D01*
X204079705Y-61509744D01*
X203966437Y-61340226D01*
X203822274Y-61196063D01*
X203652756Y-61082795D01*
X203464398Y-61004774D01*
X203264439Y-60965000D01*
X203060561Y-60965000D01*
X202860602Y-61004774D01*
X202672244Y-61082795D01*
X202502726Y-61196063D01*
X202358563Y-61340226D01*
X202245295Y-61509744D01*
X202167274Y-61698102D01*
X202127500Y-61898061D01*
X202127500Y-62101939D01*
X202167274Y-62301898D01*
X202245295Y-62490256D01*
X202358563Y-62659774D01*
X202502726Y-62803937D01*
X202672244Y-62917205D01*
X202860602Y-62995226D01*
X202917457Y-63006535D01*
X203365001Y-63454079D01*
X203365000Y-66045921D01*
X202917457Y-66493465D01*
X202860602Y-66504774D01*
X202672244Y-66582795D01*
X202502726Y-66696063D01*
X202358563Y-66840226D01*
X202245295Y-67009744D01*
X202167274Y-67198102D01*
X202127500Y-67398061D01*
X202127500Y-67601939D01*
X202167274Y-67801898D01*
X202245295Y-67990256D01*
X202358563Y-68159774D01*
X202502726Y-68303937D01*
X202672244Y-68417205D01*
X202860602Y-68495226D01*
X202917457Y-68506535D01*
X203365001Y-68954079D01*
X203365000Y-71545921D01*
X202917457Y-71993465D01*
X202860602Y-72004774D01*
X202672244Y-72082795D01*
X202502726Y-72196063D01*
X202358563Y-72340226D01*
X202245295Y-72509744D01*
X202167274Y-72698102D01*
X202127500Y-72898061D01*
X202127500Y-73101939D01*
X202167274Y-73301898D01*
X202245295Y-73490256D01*
X202358563Y-73659774D01*
X202502726Y-73803937D01*
X202672244Y-73917205D01*
X202860602Y-73995226D01*
X202917457Y-74006535D01*
X202988058Y-74077136D01*
X203865001Y-74954080D01*
X203865000Y-76545921D01*
X202917457Y-77493465D01*
X202860602Y-77504774D01*
X202672244Y-77582795D01*
X202502726Y-77696063D01*
X202358563Y-77840226D01*
X202245295Y-78009744D01*
X202167274Y-78198102D01*
X202127500Y-78398061D01*
X202127500Y-78601939D01*
X202167274Y-78801898D01*
X202245295Y-78990256D01*
X202358563Y-79159774D01*
X202502726Y-79303937D01*
X202672244Y-79417205D01*
X202860602Y-79495226D01*
X202917457Y-79506535D01*
X203215002Y-79804080D01*
X203215001Y-82695920D01*
X202917457Y-82993465D01*
X202860602Y-83004774D01*
X202672244Y-83082795D01*
X202502726Y-83196063D01*
X202358563Y-83340226D01*
X202245295Y-83509744D01*
X202167274Y-83698102D01*
X202127500Y-83898061D01*
X202127500Y-84101939D01*
X202167274Y-84301898D01*
X202245295Y-84490256D01*
X202358563Y-84659774D01*
X202502726Y-84803937D01*
X202672244Y-84917205D01*
X202860602Y-84995226D01*
X202917457Y-85006535D01*
X202988058Y-85077136D01*
X203615001Y-85704080D01*
X203615000Y-87795921D01*
X202917457Y-88493465D01*
X202860602Y-88504774D01*
X202672244Y-88582795D01*
X202502726Y-88696063D01*
X202358563Y-88840226D01*
X202245295Y-89009744D01*
X202167274Y-89198102D01*
X202127500Y-89398061D01*
X202127500Y-89601939D01*
X202167274Y-89801898D01*
X202245295Y-89990256D01*
X202358563Y-90159774D01*
X202502726Y-90303937D01*
X202672244Y-90417205D01*
X202860602Y-90495226D01*
X202917457Y-90506535D01*
X203215002Y-90804080D01*
X203215001Y-93695920D01*
X202917457Y-93993465D01*
X202860602Y-94004774D01*
X202672244Y-94082795D01*
X202624046Y-94115000D01*
X197236579Y-94115000D01*
X193590539Y-90468961D01*
X193605000Y-90396260D01*
X193605000Y-90103740D01*
X193547932Y-89816842D01*
X193435990Y-89546589D01*
X193273475Y-89303368D01*
X193066632Y-89096525D01*
X192823411Y-88934010D01*
X192553158Y-88822068D01*
X192266260Y-88765000D01*
X191973740Y-88765000D01*
X191901040Y-88779461D01*
X190895027Y-87773448D01*
X190917205Y-87740256D01*
X190995226Y-87551898D01*
X191035000Y-87351939D01*
X191035000Y-87148061D01*
X190995226Y-86948102D01*
X190917205Y-86759744D01*
X190885000Y-86711546D01*
X190885000Y-81293465D01*
X190889281Y-81249999D01*
X190887739Y-81234339D01*
X191016317Y-81128817D01*
X191044034Y-81095044D01*
X191491017Y-80648061D01*
X195465000Y-80648061D01*
X195465000Y-80851939D01*
X195504774Y-81051898D01*
X195582795Y-81240256D01*
X195696063Y-81409774D01*
X195840226Y-81553937D01*
X196009744Y-81667205D01*
X196198102Y-81745226D01*
X196398061Y-81785000D01*
X196601939Y-81785000D01*
X196801898Y-81745226D01*
X196990256Y-81667205D01*
X197159774Y-81553937D01*
X197303937Y-81409774D01*
X197417205Y-81240256D01*
X197495226Y-81051898D01*
X197504628Y-81004628D01*
X197551898Y-80995226D01*
X197740256Y-80917205D01*
X197909774Y-80803937D01*
X198053937Y-80659774D01*
X198167205Y-80490256D01*
X198245226Y-80301898D01*
X198285000Y-80101939D01*
X198285000Y-79898061D01*
X198245226Y-79698102D01*
X198167205Y-79509744D01*
X198053937Y-79340226D01*
X197948500Y-79234789D01*
X197948500Y-62539327D01*
X201289328Y-59198500D01*
X206209288Y-59198500D01*
X206161595Y-59256614D01*
X206079528Y-59410150D01*
X206028992Y-59576746D01*
X206011928Y-59750000D01*
X206011928Y-61250000D01*
X206028992Y-61423254D01*
X206079528Y-61589850D01*
X206161595Y-61743386D01*
X206272038Y-61877962D01*
X206406614Y-61988405D01*
X206560150Y-62070472D01*
X206726746Y-62121008D01*
X206900000Y-62138072D01*
X208100000Y-62138072D01*
X208273254Y-62121008D01*
X208439850Y-62070472D01*
X208593386Y-61988405D01*
X208727962Y-61877962D01*
X208838405Y-61743386D01*
X208892914Y-61641407D01*
X208893198Y-61641795D01*
X209107954Y-61838664D01*
X209356991Y-61989854D01*
X209630739Y-62089554D01*
X209643110Y-62091476D01*
X209873000Y-61970155D01*
X209873000Y-60627000D01*
X210127000Y-60627000D01*
X210127000Y-61970155D01*
X210356890Y-62091476D01*
X210369261Y-62089554D01*
X210643009Y-61989854D01*
X210892046Y-61838664D01*
X211106802Y-61641795D01*
X211279025Y-61406812D01*
X211402096Y-61142745D01*
X211471285Y-60859742D01*
X211327232Y-60627000D01*
X210127000Y-60627000D01*
X209873000Y-60627000D01*
X209853000Y-60627000D01*
X209853000Y-60373000D01*
X209873000Y-60373000D01*
X209873000Y-60353000D01*
X210127000Y-60353000D01*
X210127000Y-60373000D01*
X211327232Y-60373000D01*
X211471285Y-60140258D01*
X211402096Y-59857255D01*
X211279025Y-59593188D01*
X211106802Y-59358205D01*
X210932587Y-59198500D01*
X221734789Y-59198500D01*
X221840226Y-59303937D01*
X222009744Y-59417205D01*
X222198102Y-59495226D01*
X222398061Y-59535000D01*
X222601939Y-59535000D01*
X222801898Y-59495226D01*
X222990256Y-59417205D01*
X223159774Y-59303937D01*
X223303937Y-59159774D01*
X223417205Y-58990256D01*
X223495226Y-58801898D01*
X223535000Y-58601939D01*
X223535000Y-58398061D01*
X223495226Y-58198102D01*
X223417205Y-58009744D01*
X223303937Y-57840226D01*
X223159774Y-57696063D01*
X222990256Y-57582795D01*
X222801898Y-57504774D01*
X222601939Y-57465000D01*
X222398061Y-57465000D01*
X222198102Y-57504774D01*
X222009744Y-57582795D01*
X221840226Y-57696063D01*
X221734789Y-57801500D01*
X210912211Y-57801500D01*
X211053937Y-57659774D01*
X211167205Y-57490256D01*
X211245226Y-57301898D01*
X211285000Y-57101939D01*
X211285000Y-56898061D01*
X211245226Y-56698102D01*
X211167205Y-56509744D01*
X211053937Y-56340226D01*
X210909774Y-56196063D01*
X210740256Y-56082795D01*
X210551898Y-56004774D01*
X210351939Y-55965000D01*
X210148061Y-55965000D01*
X209948102Y-56004774D01*
X209759744Y-56082795D01*
X209590226Y-56196063D01*
X209484789Y-56301500D01*
X200784298Y-56301500D01*
X200750000Y-56298122D01*
X200715702Y-56301500D01*
X200715691Y-56301500D01*
X200613070Y-56311607D01*
X200481403Y-56351548D01*
X200384234Y-56403486D01*
X200360057Y-56416409D01*
X200280346Y-56481826D01*
X200280343Y-56481829D01*
X200253697Y-56503697D01*
X200231829Y-56530343D01*
X196030344Y-60731829D01*
X196003697Y-60753698D01*
X195981829Y-60780344D01*
X195981826Y-60780347D01*
X195916409Y-60860057D01*
X195860316Y-60965000D01*
X195851548Y-60981404D01*
X195811607Y-61113071D01*
X195801500Y-61215692D01*
X195801500Y-61215702D01*
X195798122Y-61250000D01*
X195801500Y-61284298D01*
X195801501Y-79984788D01*
X195696063Y-80090226D01*
X195582795Y-80259744D01*
X195504774Y-80448102D01*
X195465000Y-80648061D01*
X191491017Y-80648061D01*
X193882544Y-78256535D01*
X193939398Y-78245226D01*
X194127756Y-78167205D01*
X194297274Y-78053937D01*
X194441437Y-77909774D01*
X194554705Y-77740256D01*
X194632726Y-77551898D01*
X194672500Y-77351939D01*
X194672500Y-77148061D01*
X194632726Y-76948102D01*
X194554705Y-76759744D01*
X194522500Y-76711546D01*
X194522500Y-73180969D01*
X194526781Y-73137500D01*
X194522500Y-73094031D01*
X194522500Y-73094023D01*
X194509695Y-72964010D01*
X194459089Y-72797186D01*
X194376911Y-72643441D01*
X194294032Y-72542453D01*
X194294030Y-72542451D01*
X194266317Y-72508683D01*
X194232550Y-72480972D01*
X190447882Y-68696304D01*
X190417205Y-68622244D01*
X190303937Y-68452726D01*
X190159774Y-68308563D01*
X189990256Y-68195295D01*
X189801898Y-68117274D01*
X189601939Y-68077500D01*
X189398061Y-68077500D01*
X189198102Y-68117274D01*
X189009744Y-68195295D01*
X188961546Y-68227500D01*
X187460804Y-68227500D01*
X187417205Y-68122244D01*
X187303937Y-67952726D01*
X187159774Y-67808563D01*
X186990256Y-67695295D01*
X186801898Y-67617274D01*
X186745044Y-67605965D01*
X186385000Y-67245922D01*
X186385000Y-65650954D01*
X186417205Y-65602756D01*
X186495226Y-65414398D01*
X186506535Y-65357543D01*
X193845051Y-58019028D01*
X193878817Y-57991317D01*
X193989411Y-57856559D01*
X194071589Y-57702813D01*
X194122195Y-57535990D01*
X194135000Y-57405977D01*
X194135000Y-57405967D01*
X194139281Y-57362501D01*
X194135000Y-57319035D01*
X194135000Y-52788454D01*
X194167205Y-52740256D01*
X194215000Y-52624869D01*
X194215000Y-52677002D01*
X194373748Y-52677002D01*
X194215000Y-52835750D01*
X194211928Y-53300000D01*
X194224188Y-53424482D01*
X194260498Y-53544180D01*
X194319463Y-53654494D01*
X194398815Y-53751185D01*
X194495506Y-53830537D01*
X194605820Y-53889502D01*
X194725518Y-53925812D01*
X194850000Y-53938072D01*
X195564250Y-53935000D01*
X195723000Y-53776250D01*
X195723000Y-52677000D01*
X195977000Y-52677000D01*
X195977000Y-53776250D01*
X196135750Y-53935000D01*
X196850000Y-53938072D01*
X196974482Y-53925812D01*
X197094180Y-53889502D01*
X197204494Y-53830537D01*
X197301185Y-53751185D01*
X197380537Y-53654494D01*
X197439502Y-53544180D01*
X197475812Y-53424482D01*
X197488072Y-53300000D01*
X197485000Y-52835750D01*
X197326250Y-52677000D01*
X195977000Y-52677000D01*
X195723000Y-52677000D01*
X195703000Y-52677000D01*
X195703000Y-52423000D01*
X195723000Y-52423000D01*
X195723000Y-52403000D01*
X195977000Y-52403000D01*
X195977000Y-52423000D01*
X197326250Y-52423000D01*
X197485000Y-52264250D01*
X197488072Y-51800000D01*
X197475812Y-51675518D01*
X197439502Y-51555820D01*
X197380537Y-51445506D01*
X197343191Y-51400000D01*
X197380537Y-51354494D01*
X197439502Y-51244180D01*
X197472621Y-51135000D01*
X200511928Y-51135000D01*
X200511928Y-52150000D01*
X200524188Y-52274482D01*
X200560498Y-52394180D01*
X200619463Y-52504494D01*
X200698815Y-52601185D01*
X200795506Y-52680537D01*
X200905820Y-52739502D01*
X201025518Y-52775812D01*
X201150000Y-52788072D01*
X202536493Y-52788072D01*
X202993470Y-53245049D01*
X203021183Y-53278817D01*
X203054951Y-53306530D01*
X203054953Y-53306532D01*
X203086955Y-53332795D01*
X203155941Y-53389411D01*
X203309687Y-53471589D01*
X203476510Y-53522195D01*
X203606523Y-53535000D01*
X203606533Y-53535000D01*
X203649999Y-53539281D01*
X203693465Y-53535000D01*
X207556531Y-53535000D01*
X207600000Y-53539281D01*
X207643469Y-53535000D01*
X207643477Y-53535000D01*
X207773490Y-53522195D01*
X207813691Y-53510000D01*
X216133422Y-53510000D01*
X217118465Y-54495044D01*
X217129774Y-54551898D01*
X217207795Y-54740256D01*
X217321063Y-54909774D01*
X217365001Y-54953712D01*
X217365000Y-55599045D01*
X217332795Y-55647244D01*
X217254774Y-55835602D01*
X217215000Y-56035561D01*
X217215000Y-56239439D01*
X217254774Y-56439398D01*
X217332795Y-56627756D01*
X217446063Y-56797274D01*
X217590226Y-56941437D01*
X217759744Y-57054705D01*
X217948102Y-57132726D01*
X218148061Y-57172500D01*
X218351939Y-57172500D01*
X218551898Y-57132726D01*
X218740256Y-57054705D01*
X218909774Y-56941437D01*
X219053937Y-56797274D01*
X219167205Y-56627756D01*
X219245226Y-56439398D01*
X219285000Y-56239439D01*
X219285000Y-56035561D01*
X219245226Y-55835602D01*
X219167205Y-55647244D01*
X219135000Y-55599046D01*
X219135000Y-54477623D01*
X219160000Y-54351939D01*
X219160000Y-54148061D01*
X219120226Y-53948102D01*
X219042205Y-53759744D01*
X218928937Y-53590226D01*
X218784774Y-53446063D01*
X218615256Y-53332795D01*
X218426898Y-53254774D01*
X218370044Y-53243465D01*
X217156534Y-52029956D01*
X217128817Y-51996183D01*
X216994059Y-51885589D01*
X216840313Y-51803411D01*
X216673490Y-51752805D01*
X216543477Y-51740000D01*
X216543469Y-51740000D01*
X216500000Y-51735719D01*
X216456531Y-51740000D01*
X207668465Y-51740000D01*
X207624999Y-51735719D01*
X207581533Y-51740000D01*
X207581523Y-51740000D01*
X207451510Y-51752805D01*
X207411309Y-51765000D01*
X204016579Y-51765000D01*
X203788072Y-51536493D01*
X203788072Y-48350000D01*
X203775812Y-48225518D01*
X203739502Y-48105820D01*
X203680537Y-47995506D01*
X203601185Y-47898815D01*
X203504494Y-47819463D01*
X203394180Y-47760498D01*
X203274482Y-47724188D01*
X203150000Y-47711928D01*
X201150000Y-47711928D01*
X201025518Y-47724188D01*
X200905820Y-47760498D01*
X200795506Y-47819463D01*
X200698815Y-47898815D01*
X200619463Y-47995506D01*
X200560498Y-48105820D01*
X200524188Y-48225518D01*
X200511928Y-48350000D01*
X200511928Y-49365000D01*
X197980124Y-49365000D01*
X197990120Y-49357330D01*
X198107330Y-49240120D01*
X198186790Y-49136567D01*
X198269677Y-48993004D01*
X198319627Y-48872414D01*
X198362531Y-48712293D01*
X198379568Y-48582883D01*
X198385000Y-48500000D01*
X198385000Y-46707107D01*
X198379568Y-46624224D01*
X198362531Y-46494814D01*
X198319627Y-46334693D01*
X198269677Y-46214103D01*
X198186792Y-46070543D01*
X198121152Y-45985000D01*
X198396260Y-45985000D01*
X198683158Y-45927932D01*
X198953411Y-45815990D01*
X199196632Y-45653475D01*
X199403475Y-45446632D01*
X199565990Y-45203411D01*
X199677932Y-44933158D01*
X199735000Y-44646260D01*
X199735000Y-44353740D01*
X199677932Y-44066842D01*
X199565990Y-43796589D01*
X199403475Y-43553368D01*
X199350107Y-43500000D01*
X199403475Y-43446632D01*
X199565990Y-43203411D01*
X199677932Y-42933158D01*
X199735000Y-42646260D01*
X199735000Y-42353740D01*
X199677932Y-42066842D01*
X199565990Y-41796589D01*
X199403475Y-41553368D01*
X199309716Y-41459609D01*
X201529997Y-41459609D01*
X201716073Y-41800766D01*
X202133409Y-42016513D01*
X202584815Y-42146696D01*
X203052946Y-42186313D01*
X203519811Y-42133842D01*
X203967468Y-41991297D01*
X204323927Y-41800766D01*
X204510003Y-41459609D01*
X203020000Y-39969605D01*
X201529997Y-41459609D01*
X199309716Y-41459609D01*
X199196632Y-41346525D01*
X198953411Y-41184010D01*
X198948500Y-41181976D01*
X198948500Y-39822946D01*
X200623687Y-39822946D01*
X200676158Y-40289811D01*
X200818703Y-40737468D01*
X201009234Y-41093927D01*
X201350391Y-41280003D01*
X202840395Y-39790000D01*
X203199605Y-39790000D01*
X204689609Y-41280003D01*
X205030766Y-41093927D01*
X205246513Y-40676591D01*
X205376696Y-40225185D01*
X205416313Y-39757054D01*
X205363842Y-39290189D01*
X205221297Y-38842532D01*
X205030766Y-38486073D01*
X204689609Y-38299997D01*
X203199605Y-39790000D01*
X202840395Y-39790000D01*
X201350391Y-38299997D01*
X201009234Y-38486073D01*
X200793487Y-38903409D01*
X200663304Y-39354815D01*
X200623687Y-39822946D01*
X198948500Y-39822946D01*
X198948500Y-38120391D01*
X201529997Y-38120391D01*
X203020000Y-39610395D01*
X204510003Y-38120391D01*
X204323927Y-37779234D01*
X204146479Y-37687500D01*
X218386928Y-37687500D01*
X218386928Y-39312500D01*
X218405193Y-39497947D01*
X218459286Y-39676268D01*
X218547128Y-39840610D01*
X218665344Y-39984656D01*
X218809390Y-40102872D01*
X218973732Y-40190714D01*
X219152053Y-40244807D01*
X219337500Y-40263072D01*
X219736928Y-40263072D01*
X219736928Y-40812500D01*
X219755193Y-40997947D01*
X219809286Y-41176268D01*
X219897128Y-41340610D01*
X220015344Y-41484656D01*
X220159390Y-41602872D01*
X220323732Y-41690714D01*
X220502053Y-41744807D01*
X220687500Y-41763072D01*
X222312500Y-41763072D01*
X222497947Y-41744807D01*
X222676268Y-41690714D01*
X222840610Y-41602872D01*
X222984656Y-41484656D01*
X223102872Y-41340610D01*
X223190714Y-41176268D01*
X223244807Y-40997947D01*
X223263072Y-40812500D01*
X223263072Y-40263072D01*
X223662500Y-40263072D01*
X223847947Y-40244807D01*
X224026268Y-40190714D01*
X224190610Y-40102872D01*
X224334656Y-39984656D01*
X224452872Y-39840610D01*
X224540714Y-39676268D01*
X224594807Y-39497947D01*
X224613072Y-39312500D01*
X224613072Y-37687500D01*
X224594807Y-37502053D01*
X224540714Y-37323732D01*
X224452872Y-37159390D01*
X224334656Y-37015344D01*
X224190610Y-36897128D01*
X224026268Y-36809286D01*
X223847947Y-36755193D01*
X223662500Y-36736928D01*
X223037500Y-36736928D01*
X222852053Y-36755193D01*
X222673732Y-36809286D01*
X222509390Y-36897128D01*
X222365344Y-37015344D01*
X222247128Y-37159390D01*
X222159286Y-37323732D01*
X222105193Y-37502053D01*
X222086928Y-37687500D01*
X222086928Y-39236928D01*
X220913072Y-39236928D01*
X220913072Y-37687500D01*
X220894807Y-37502053D01*
X220840714Y-37323732D01*
X220752872Y-37159390D01*
X220634656Y-37015344D01*
X220490610Y-36897128D01*
X220326268Y-36809286D01*
X220147947Y-36755193D01*
X219962500Y-36736928D01*
X219337500Y-36736928D01*
X219152053Y-36755193D01*
X218973732Y-36809286D01*
X218809390Y-36897128D01*
X218665344Y-37015344D01*
X218547128Y-37159390D01*
X218459286Y-37323732D01*
X218405193Y-37502053D01*
X218386928Y-37687500D01*
X204146479Y-37687500D01*
X203906591Y-37563487D01*
X203455185Y-37433304D01*
X202987054Y-37393687D01*
X202520189Y-37446158D01*
X202072532Y-37588703D01*
X201716073Y-37779234D01*
X201529997Y-38120391D01*
X198948500Y-38120391D01*
X198948500Y-37019131D01*
X198951878Y-36984833D01*
X198948500Y-36950535D01*
X198948500Y-36950525D01*
X198938393Y-36847904D01*
X198898452Y-36716237D01*
X198898451Y-36716235D01*
X198833591Y-36594890D01*
X198768174Y-36515179D01*
X198768166Y-36515171D01*
X198746303Y-36488531D01*
X198719663Y-36466668D01*
X196595841Y-34342848D01*
X196573969Y-34316197D01*
X196467609Y-34228909D01*
X196460296Y-34225000D01*
X219736928Y-34225000D01*
X219749188Y-34349482D01*
X219785498Y-34469180D01*
X219844463Y-34579494D01*
X219923815Y-34676185D01*
X220020506Y-34755537D01*
X220130820Y-34814502D01*
X220250518Y-34850812D01*
X220375000Y-34863072D01*
X221023305Y-34860699D01*
X220915008Y-34905557D01*
X220712733Y-35040713D01*
X220540713Y-35212733D01*
X220405557Y-35415008D01*
X220312460Y-35639764D01*
X220265000Y-35878363D01*
X220265000Y-36121637D01*
X220312460Y-36360236D01*
X220405557Y-36584992D01*
X220540713Y-36787267D01*
X220712733Y-36959287D01*
X220915008Y-37094443D01*
X221139764Y-37187540D01*
X221378363Y-37235000D01*
X221621637Y-37235000D01*
X221860236Y-37187540D01*
X222084992Y-37094443D01*
X222287267Y-36959287D01*
X222459287Y-36787267D01*
X222594443Y-36584992D01*
X222687540Y-36360236D01*
X222735000Y-36121637D01*
X222735000Y-35878363D01*
X222687540Y-35639764D01*
X222594443Y-35415008D01*
X222459287Y-35212733D01*
X222287267Y-35040713D01*
X222084992Y-34905557D01*
X221976695Y-34860699D01*
X222625000Y-34863072D01*
X222749482Y-34850812D01*
X222869180Y-34814502D01*
X222979494Y-34755537D01*
X223076185Y-34676185D01*
X223155537Y-34579494D01*
X223214502Y-34469180D01*
X223250812Y-34349482D01*
X223263002Y-34225701D01*
X227215000Y-34225701D01*
X227215000Y-34774299D01*
X227322026Y-35312354D01*
X227531965Y-35819192D01*
X227836750Y-36275334D01*
X228224666Y-36663250D01*
X228680808Y-36968035D01*
X229187646Y-37177974D01*
X229725701Y-37285000D01*
X230274299Y-37285000D01*
X230812354Y-37177974D01*
X231319192Y-36968035D01*
X231775334Y-36663250D01*
X232163250Y-36275334D01*
X232468035Y-35819192D01*
X232677974Y-35312354D01*
X232785000Y-34774299D01*
X232785000Y-34225701D01*
X232677974Y-33687646D01*
X232468035Y-33180808D01*
X232163250Y-32724666D01*
X231775334Y-32336750D01*
X231319192Y-32031965D01*
X230812354Y-31822026D01*
X230274299Y-31715000D01*
X229725701Y-31715000D01*
X229187646Y-31822026D01*
X228680808Y-32031965D01*
X228224666Y-32336750D01*
X227836750Y-32724666D01*
X227531965Y-33180808D01*
X227322026Y-33687646D01*
X227215000Y-34225701D01*
X223263002Y-34225701D01*
X223263072Y-34225000D01*
X223260000Y-33885750D01*
X223101250Y-33727000D01*
X221627000Y-33727000D01*
X221627000Y-33747000D01*
X221373000Y-33747000D01*
X221373000Y-33727000D01*
X219898750Y-33727000D01*
X219740000Y-33885750D01*
X219736928Y-34225000D01*
X196460296Y-34225000D01*
X196346263Y-34164048D01*
X196214596Y-34124107D01*
X196111975Y-34114000D01*
X196111964Y-34114000D01*
X196077666Y-34110622D01*
X196043368Y-34114000D01*
X187956631Y-34114000D01*
X187922333Y-34110622D01*
X187888035Y-34114000D01*
X187888025Y-34114000D01*
X187785404Y-34124107D01*
X187653737Y-34164048D01*
X187653735Y-34164049D01*
X187532390Y-34228909D01*
X187452679Y-34294326D01*
X187452671Y-34294334D01*
X187426031Y-34316197D01*
X187404167Y-34342838D01*
X186673252Y-35073755D01*
X186677974Y-35062354D01*
X186785000Y-34524299D01*
X186785000Y-33975701D01*
X186677974Y-33437646D01*
X186486340Y-32975000D01*
X219736928Y-32975000D01*
X219740000Y-33314250D01*
X219898750Y-33473000D01*
X221373000Y-33473000D01*
X221373000Y-32498750D01*
X221627000Y-32498750D01*
X221627000Y-33473000D01*
X223101250Y-33473000D01*
X223260000Y-33314250D01*
X223263072Y-32975000D01*
X223250812Y-32850518D01*
X223214502Y-32730820D01*
X223155537Y-32620506D01*
X223076185Y-32523815D01*
X222979494Y-32444463D01*
X222869180Y-32385498D01*
X222749482Y-32349188D01*
X222625000Y-32336928D01*
X221785750Y-32340000D01*
X221627000Y-32498750D01*
X221373000Y-32498750D01*
X221214250Y-32340000D01*
X220375000Y-32336928D01*
X220250518Y-32349188D01*
X220130820Y-32385498D01*
X220020506Y-32444463D01*
X219923815Y-32523815D01*
X219844463Y-32620506D01*
X219785498Y-32730820D01*
X219749188Y-32850518D01*
X219736928Y-32975000D01*
X186486340Y-32975000D01*
X186468035Y-32930808D01*
X186163250Y-32474666D01*
X185775334Y-32086750D01*
X185319192Y-31781965D01*
X184812354Y-31572026D01*
X184274299Y-31465000D01*
X183725701Y-31465000D01*
X183187646Y-31572026D01*
X182680808Y-31781965D01*
X182224666Y-32086750D01*
X181836750Y-32474666D01*
X181531965Y-32930808D01*
X181322026Y-33437646D01*
X181215000Y-33975701D01*
X181215000Y-34524299D01*
X181322026Y-35062354D01*
X181531965Y-35569192D01*
X181836750Y-36025334D01*
X182224666Y-36413250D01*
X182680808Y-36718035D01*
X183187646Y-36927974D01*
X183725701Y-37035000D01*
X184274299Y-37035000D01*
X184812354Y-36927974D01*
X185319192Y-36718035D01*
X185775334Y-36413250D01*
X186114000Y-36074584D01*
X186114001Y-45437073D01*
X186009238Y-45280285D01*
X185642215Y-44913262D01*
X185210641Y-44624893D01*
X184731101Y-44426261D01*
X184222025Y-44325000D01*
X183702975Y-44325000D01*
X183193899Y-44426261D01*
X182714359Y-44624893D01*
X182282785Y-44913262D01*
X181915762Y-45280285D01*
X181627393Y-45711859D01*
X181428761Y-46191399D01*
X181327500Y-46700475D01*
X181327500Y-47219525D01*
X181428761Y-47728601D01*
X181627393Y-48208141D01*
X181915762Y-48639715D01*
X182282785Y-49006738D01*
X182714359Y-49295107D01*
X183193899Y-49493739D01*
X183702975Y-49595000D01*
X184222025Y-49595000D01*
X184731101Y-49493739D01*
X185210641Y-49295107D01*
X185642215Y-49006738D01*
X186009238Y-48639715D01*
X186114001Y-48482926D01*
X186114001Y-49383005D01*
X185092844Y-50404163D01*
X185066197Y-50426032D01*
X185044329Y-50452678D01*
X185044326Y-50452681D01*
X184978909Y-50532391D01*
X184934948Y-50614637D01*
X184914048Y-50653738D01*
X184874107Y-50785405D01*
X184864000Y-50888026D01*
X184864000Y-50888036D01*
X184860622Y-50922334D01*
X184864000Y-50956632D01*
X184864001Y-54822790D01*
X184863105Y-54886660D01*
X184870248Y-54925400D01*
X184873023Y-54953579D01*
X184830894Y-54995709D01*
X184826820Y-54998514D01*
X184782290Y-55044312D01*
X184761484Y-55065118D01*
X184758366Y-55068918D01*
X184754936Y-55072445D01*
X184736575Y-55095469D01*
X184698877Y-55141405D01*
X184676965Y-55165242D01*
X184646276Y-55215638D01*
X184614188Y-55265151D01*
X184597817Y-55306297D01*
X184589927Y-55322682D01*
X184567962Y-55361139D01*
X184549258Y-55417098D01*
X184528993Y-55472507D01*
X184522188Y-55516267D01*
X184518142Y-55533993D01*
X184505282Y-55576386D01*
X184499498Y-55635117D01*
X184492072Y-55693626D01*
X184495175Y-55737806D01*
X184495175Y-55756003D01*
X184492072Y-55800183D01*
X184499497Y-55858689D01*
X184505282Y-55917424D01*
X184518143Y-55959820D01*
X184522188Y-55977542D01*
X184528993Y-56021302D01*
X184549258Y-56076711D01*
X184567962Y-56132670D01*
X184589927Y-56171127D01*
X184597819Y-56187515D01*
X184614191Y-56228664D01*
X184646284Y-56278184D01*
X184676965Y-56328567D01*
X184706934Y-56361170D01*
X184718275Y-56375391D01*
X184743395Y-56411868D01*
X184785705Y-56453008D01*
X184826825Y-56495298D01*
X184863303Y-56520419D01*
X184877520Y-56531757D01*
X184910133Y-56561734D01*
X184960535Y-56592426D01*
X185010029Y-56624502D01*
X185051183Y-56640876D01*
X185067566Y-56648766D01*
X185106023Y-56670730D01*
X185161979Y-56689433D01*
X185217399Y-56709702D01*
X185261166Y-56716508D01*
X185278873Y-56720549D01*
X185321269Y-56733410D01*
X185380002Y-56739195D01*
X185438509Y-56746620D01*
X185482689Y-56743517D01*
X185500887Y-56743517D01*
X185545067Y-56746620D01*
X185603573Y-56739195D01*
X185662308Y-56733410D01*
X185704704Y-56720549D01*
X185722414Y-56716507D01*
X185766177Y-56709702D01*
X185821586Y-56689437D01*
X185877554Y-56670730D01*
X185916012Y-56648765D01*
X185932388Y-56640879D01*
X185973542Y-56624505D01*
X186023050Y-56592420D01*
X186073443Y-56561734D01*
X186097279Y-56539824D01*
X186143224Y-56502118D01*
X186166248Y-56483757D01*
X186169775Y-56480327D01*
X186173575Y-56477209D01*
X186194381Y-56456403D01*
X186198959Y-56451952D01*
X186641863Y-56894856D01*
X186565226Y-56946063D01*
X186421063Y-57090226D01*
X186307795Y-57259744D01*
X186229774Y-57448102D01*
X186190000Y-57648061D01*
X186190000Y-57851939D01*
X186229774Y-58051898D01*
X186307795Y-58240256D01*
X186421063Y-58409774D01*
X186565226Y-58553937D01*
X186734744Y-58667205D01*
X186923102Y-58745226D01*
X187123061Y-58785000D01*
X187326939Y-58785000D01*
X187526898Y-58745226D01*
X187715256Y-58667205D01*
X187750000Y-58643990D01*
X187784744Y-58667205D01*
X187973102Y-58745226D01*
X188173061Y-58785000D01*
X188376939Y-58785000D01*
X188576898Y-58745226D01*
X188765256Y-58667205D01*
X188934774Y-58553937D01*
X189078937Y-58409774D01*
X189192205Y-58240256D01*
X189270226Y-58051898D01*
X189310000Y-57851939D01*
X189310000Y-57648061D01*
X189270226Y-57448102D01*
X189192205Y-57259744D01*
X189078937Y-57090226D01*
X188934774Y-56946063D01*
X188765256Y-56832795D01*
X188636000Y-56779255D01*
X188636000Y-56706631D01*
X188639378Y-56672333D01*
X188636000Y-56638035D01*
X188636000Y-56638025D01*
X188625893Y-56535404D01*
X188585952Y-56403737D01*
X188567409Y-56369046D01*
X188521091Y-56282390D01*
X188455674Y-56202679D01*
X188455666Y-56202671D01*
X188433803Y-56176031D01*
X188407163Y-56154168D01*
X187389761Y-55136767D01*
X187714250Y-55135000D01*
X187873000Y-54976250D01*
X187873000Y-53627000D01*
X187853000Y-53627000D01*
X187853000Y-53373000D01*
X187873000Y-53373000D01*
X187873000Y-52023750D01*
X188127000Y-52023750D01*
X188127000Y-53373000D01*
X188147000Y-53373000D01*
X188147000Y-53627000D01*
X188127000Y-53627000D01*
X188127000Y-54976250D01*
X188285750Y-55135000D01*
X188850000Y-55138072D01*
X188974482Y-55125812D01*
X189094180Y-55089502D01*
X189204494Y-55030537D01*
X189301185Y-54951185D01*
X189380537Y-54854494D01*
X189439502Y-54744180D01*
X189450055Y-54709392D01*
X189670987Y-54890706D01*
X189928967Y-55028599D01*
X190208890Y-55113513D01*
X190500000Y-55142185D01*
X190791111Y-55113513D01*
X191071034Y-55028599D01*
X191329014Y-54890706D01*
X191555134Y-54705134D01*
X191740706Y-54479014D01*
X191878599Y-54221033D01*
X191963513Y-53941110D01*
X191985000Y-53722949D01*
X191985000Y-53277050D01*
X191963513Y-53058889D01*
X191878599Y-52778966D01*
X191740706Y-52520986D01*
X191555134Y-52294866D01*
X191329013Y-52109294D01*
X191071033Y-51971401D01*
X190791110Y-51886487D01*
X190500000Y-51857815D01*
X190208889Y-51886487D01*
X189928966Y-51971401D01*
X189670986Y-52109294D01*
X189450055Y-52290608D01*
X189439502Y-52255820D01*
X189380537Y-52145506D01*
X189301185Y-52048815D01*
X189204494Y-51969463D01*
X189094180Y-51910498D01*
X188974482Y-51874188D01*
X188850000Y-51861928D01*
X188285750Y-51865000D01*
X188127000Y-52023750D01*
X187873000Y-52023750D01*
X187714250Y-51865000D01*
X187150000Y-51861928D01*
X187025518Y-51874188D01*
X186905820Y-51910498D01*
X186795506Y-51969463D01*
X186698815Y-52048815D01*
X186636000Y-52125356D01*
X186636000Y-51366993D01*
X187027993Y-50975000D01*
X189986928Y-50975000D01*
X189999188Y-51099482D01*
X190035498Y-51219180D01*
X190094463Y-51329494D01*
X190173815Y-51426185D01*
X190270506Y-51505537D01*
X190380820Y-51564502D01*
X190500518Y-51600812D01*
X190625000Y-51613072D01*
X190926750Y-51610000D01*
X191085500Y-51451250D01*
X191085500Y-50377000D01*
X190148750Y-50377000D01*
X189990000Y-50535750D01*
X189986928Y-50975000D01*
X187027993Y-50975000D01*
X187657162Y-50345832D01*
X187683802Y-50323969D01*
X187705667Y-50297327D01*
X187705674Y-50297320D01*
X187771091Y-50217610D01*
X187835951Y-50096265D01*
X187846261Y-50062278D01*
X187875893Y-49964596D01*
X187886000Y-49861975D01*
X187886000Y-49861964D01*
X187889378Y-49827666D01*
X187886000Y-49793368D01*
X187886000Y-48725000D01*
X189986928Y-48725000D01*
X189999188Y-48849482D01*
X190035498Y-48969180D01*
X190094463Y-49079494D01*
X190131809Y-49125000D01*
X190094463Y-49170506D01*
X190035498Y-49280820D01*
X189999188Y-49400518D01*
X189986928Y-49525000D01*
X189990000Y-49964250D01*
X190148750Y-50123000D01*
X191085500Y-50123000D01*
X191085500Y-48127000D01*
X190148750Y-48127000D01*
X189990000Y-48285750D01*
X189986928Y-48725000D01*
X187886000Y-48725000D01*
X187886000Y-47275000D01*
X189986928Y-47275000D01*
X189990000Y-47714250D01*
X190148750Y-47873000D01*
X191085500Y-47873000D01*
X191085500Y-46798750D01*
X190926750Y-46640000D01*
X190625000Y-46636928D01*
X190500518Y-46649188D01*
X190380820Y-46685498D01*
X190270506Y-46744463D01*
X190173815Y-46823815D01*
X190094463Y-46920506D01*
X190035498Y-47030820D01*
X189999188Y-47150518D01*
X189986928Y-47275000D01*
X187886000Y-47275000D01*
X187886000Y-41459609D01*
X189489997Y-41459609D01*
X189676073Y-41800766D01*
X190093409Y-42016513D01*
X190544815Y-42146696D01*
X191012946Y-42186313D01*
X191479811Y-42133842D01*
X191927468Y-41991297D01*
X192283927Y-41800766D01*
X192470003Y-41459609D01*
X190980000Y-39969605D01*
X189489997Y-41459609D01*
X187886000Y-41459609D01*
X187886000Y-39822946D01*
X188583687Y-39822946D01*
X188636158Y-40289811D01*
X188778703Y-40737468D01*
X188969234Y-41093927D01*
X189310391Y-41280003D01*
X190800395Y-39790000D01*
X191159605Y-39790000D01*
X192649609Y-41280003D01*
X192990766Y-41093927D01*
X193206513Y-40676591D01*
X193336696Y-40225185D01*
X193376313Y-39757054D01*
X193323842Y-39290189D01*
X193181297Y-38842532D01*
X192990766Y-38486073D01*
X192649609Y-38299997D01*
X191159605Y-39790000D01*
X190800395Y-39790000D01*
X189310391Y-38299997D01*
X188969234Y-38486073D01*
X188753487Y-38903409D01*
X188623304Y-39354815D01*
X188583687Y-39822946D01*
X187886000Y-39822946D01*
X187886000Y-38120391D01*
X189489997Y-38120391D01*
X190980000Y-39610395D01*
X192470003Y-38120391D01*
X192283927Y-37779234D01*
X191866591Y-37563487D01*
X191415185Y-37433304D01*
X190947054Y-37393687D01*
X190480189Y-37446158D01*
X190032532Y-37588703D01*
X189676073Y-37779234D01*
X189489997Y-38120391D01*
X187886000Y-38120391D01*
X187886000Y-36366993D01*
X188366994Y-35886000D01*
X195633007Y-35886000D01*
X197176500Y-37429494D01*
X197176501Y-40335671D01*
X196530344Y-40981829D01*
X196503697Y-41003698D01*
X196481829Y-41030344D01*
X196481826Y-41030347D01*
X196416409Y-41110057D01*
X196389776Y-41159883D01*
X196257117Y-41096629D01*
X195973589Y-41024661D01*
X195681469Y-41009389D01*
X195391981Y-41051401D01*
X195116253Y-41149081D01*
X194978843Y-41222528D01*
X194901208Y-41471603D01*
X195750000Y-42320395D01*
X195764143Y-42306253D01*
X195943748Y-42485858D01*
X195929605Y-42500000D01*
X195943748Y-42514143D01*
X195764143Y-42693748D01*
X195750000Y-42679605D01*
X195735858Y-42693748D01*
X195556253Y-42514143D01*
X195570395Y-42500000D01*
X194721603Y-41651208D01*
X194472528Y-41728843D01*
X194346629Y-41992883D01*
X194274661Y-42276411D01*
X194259389Y-42568531D01*
X194301401Y-42858019D01*
X194303874Y-42865000D01*
X193250000Y-42865000D01*
X193167117Y-42870432D01*
X193037707Y-42887469D01*
X192877586Y-42930373D01*
X192756996Y-42980323D01*
X192613433Y-43063210D01*
X192509880Y-43142670D01*
X192392670Y-43259880D01*
X192313210Y-43363433D01*
X192230323Y-43506996D01*
X192180373Y-43627586D01*
X192137469Y-43787707D01*
X192120432Y-43917117D01*
X192115000Y-44000000D01*
X192115000Y-45718609D01*
X192114463Y-45732583D01*
X192041231Y-46684603D01*
X191924482Y-46649188D01*
X191800000Y-46636928D01*
X191498250Y-46640000D01*
X191339500Y-46798750D01*
X191339500Y-47873000D01*
X191359500Y-47873000D01*
X191359500Y-48127000D01*
X191339500Y-48127000D01*
X191339500Y-50123000D01*
X191359500Y-50123000D01*
X191359500Y-50377000D01*
X191339500Y-50377000D01*
X191339500Y-51451250D01*
X191498250Y-51610000D01*
X191800000Y-51613072D01*
X191924482Y-51600812D01*
X192044180Y-51564502D01*
X192154494Y-51505537D01*
X192251185Y-51426185D01*
X192316658Y-51346406D01*
X192322038Y-51352962D01*
X192365000Y-51388220D01*
X192365000Y-51711545D01*
X192332795Y-51759744D01*
X192254774Y-51948102D01*
X192215000Y-52148061D01*
X192215000Y-52351939D01*
X192254774Y-52551898D01*
X192332795Y-52740256D01*
X192365001Y-52788456D01*
X192365000Y-56995921D01*
X185254957Y-64105965D01*
X185198102Y-64117274D01*
X185009744Y-64195295D01*
X184961546Y-64227500D01*
X183479079Y-64227500D01*
X180997500Y-61745922D01*
X180997500Y-59538454D01*
X181029705Y-59490256D01*
X181107726Y-59301898D01*
X181147500Y-59101939D01*
X181147500Y-58898061D01*
X181107726Y-58698102D01*
X181029705Y-58509744D01*
X180916437Y-58340226D01*
X180772274Y-58196063D01*
X180602756Y-58082795D01*
X180414398Y-58004774D01*
X180357544Y-57993465D01*
X178519034Y-56154956D01*
X178491317Y-56121183D01*
X178356559Y-56010589D01*
X178202813Y-55928411D01*
X178035990Y-55877805D01*
X177905977Y-55865000D01*
X177905969Y-55865000D01*
X177862500Y-55860719D01*
X177819031Y-55865000D01*
X172793465Y-55865000D01*
X172749999Y-55860719D01*
X172706533Y-55865000D01*
X172706523Y-55865000D01*
X172576510Y-55877805D01*
X172409687Y-55928411D01*
X172255941Y-56010589D01*
X172255939Y-56010590D01*
X172255940Y-56010590D01*
X172154953Y-56093468D01*
X172154951Y-56093470D01*
X172121183Y-56121183D01*
X172093470Y-56154951D01*
X169742451Y-58505971D01*
X169708684Y-58533683D01*
X169680971Y-58567451D01*
X169680968Y-58567454D01*
X169598090Y-58668441D01*
X169515912Y-58822187D01*
X169465305Y-58989010D01*
X169448219Y-59162500D01*
X169452501Y-59205979D01*
X169452500Y-60211545D01*
X169420295Y-60259744D01*
X169342274Y-60448102D01*
X169302500Y-60648061D01*
X155660000Y-60648061D01*
X155660000Y-50492702D01*
X166329403Y-50492702D01*
X166400986Y-50736671D01*
X166656496Y-50857571D01*
X166930684Y-50926300D01*
X167213012Y-50940217D01*
X167492630Y-50898787D01*
X167758792Y-50803603D01*
X167884014Y-50736671D01*
X167955597Y-50492702D01*
X167142500Y-49679605D01*
X166329403Y-50492702D01*
X155660000Y-50492702D01*
X155660000Y-46700475D01*
X156337500Y-46700475D01*
X156337500Y-47219525D01*
X156438761Y-47728601D01*
X156637393Y-48208141D01*
X156925762Y-48639715D01*
X157292785Y-49006738D01*
X157724359Y-49295107D01*
X158203899Y-49493739D01*
X158712975Y-49595000D01*
X159232025Y-49595000D01*
X159355135Y-49570512D01*
X165702283Y-49570512D01*
X165743713Y-49850130D01*
X165838897Y-50116292D01*
X165905829Y-50241514D01*
X166149798Y-50313097D01*
X166962895Y-49500000D01*
X166149798Y-48686903D01*
X165905829Y-48758486D01*
X165784929Y-49013996D01*
X165716200Y-49288184D01*
X165702283Y-49570512D01*
X159355135Y-49570512D01*
X159741101Y-49493739D01*
X160220641Y-49295107D01*
X160652215Y-49006738D01*
X161019238Y-48639715D01*
X161307607Y-48208141D01*
X161506239Y-47728601D01*
X161607500Y-47219525D01*
X161607500Y-47030512D01*
X164559783Y-47030512D01*
X164601213Y-47310130D01*
X164696397Y-47576292D01*
X164763329Y-47701514D01*
X165007298Y-47773097D01*
X165820395Y-46960000D01*
X165007298Y-46146903D01*
X164763329Y-46218486D01*
X164642429Y-46473996D01*
X164573700Y-46748184D01*
X164559783Y-47030512D01*
X161607500Y-47030512D01*
X161607500Y-46700475D01*
X161506239Y-46191399D01*
X161413414Y-45967298D01*
X165186903Y-45967298D01*
X166000000Y-46780395D01*
X166813097Y-45967298D01*
X166766449Y-45808311D01*
X167001165Y-45855000D01*
X167283835Y-45855000D01*
X167386331Y-45834612D01*
X167370241Y-45845363D01*
X167170363Y-46045241D01*
X167084448Y-46173822D01*
X166992702Y-46146903D01*
X166179605Y-46960000D01*
X166992702Y-47773097D01*
X167084448Y-47746178D01*
X167170363Y-47874759D01*
X167370241Y-48074637D01*
X167377558Y-48079526D01*
X167354316Y-48073700D01*
X167071988Y-48059783D01*
X166792370Y-48101213D01*
X166766844Y-48110342D01*
X166813097Y-47952702D01*
X166000000Y-47139605D01*
X165186903Y-47952702D01*
X165258486Y-48196671D01*
X165513996Y-48317571D01*
X165788184Y-48386300D01*
X166070512Y-48400217D01*
X166350130Y-48358787D01*
X166375656Y-48349658D01*
X166329403Y-48507298D01*
X167142500Y-49320395D01*
X167955597Y-48507298D01*
X167908949Y-48348311D01*
X168143665Y-48395000D01*
X168426335Y-48395000D01*
X168528831Y-48374612D01*
X168512741Y-48385363D01*
X168312863Y-48585241D01*
X168226948Y-48713822D01*
X168135202Y-48686903D01*
X167322105Y-49500000D01*
X168135202Y-50313097D01*
X168226948Y-50286178D01*
X168312863Y-50414759D01*
X168512741Y-50614637D01*
X168747773Y-50771680D01*
X169008926Y-50879853D01*
X169286165Y-50935000D01*
X169568835Y-50935000D01*
X169846074Y-50879853D01*
X170107227Y-50771680D01*
X170342259Y-50614637D01*
X170542137Y-50414759D01*
X170570000Y-50373059D01*
X170597863Y-50414759D01*
X170797741Y-50614637D01*
X171032773Y-50771680D01*
X171293926Y-50879853D01*
X171571165Y-50935000D01*
X171853835Y-50935000D01*
X172131074Y-50879853D01*
X172392227Y-50771680D01*
X172627259Y-50614637D01*
X172827137Y-50414759D01*
X172855000Y-50373059D01*
X172882863Y-50414759D01*
X173082741Y-50614637D01*
X173317773Y-50771680D01*
X173578926Y-50879853D01*
X173856165Y-50935000D01*
X174138835Y-50935000D01*
X174416074Y-50879853D01*
X174677227Y-50771680D01*
X174912259Y-50614637D01*
X175112137Y-50414759D01*
X175140000Y-50373059D01*
X175167863Y-50414759D01*
X175367741Y-50614637D01*
X175602773Y-50771680D01*
X175863926Y-50879853D01*
X176141165Y-50935000D01*
X176423835Y-50935000D01*
X176701074Y-50879853D01*
X176962227Y-50771680D01*
X177197259Y-50614637D01*
X177397137Y-50414759D01*
X177554180Y-50179727D01*
X177662353Y-49918574D01*
X177717500Y-49641335D01*
X177717500Y-49358665D01*
X177662353Y-49081426D01*
X177554180Y-48820273D01*
X177397137Y-48585241D01*
X177197259Y-48385363D01*
X176962227Y-48228320D01*
X176701074Y-48120147D01*
X176423835Y-48065000D01*
X176141165Y-48065000D01*
X175906449Y-48111689D01*
X175953097Y-47952702D01*
X175140000Y-47139605D01*
X174326903Y-47952702D01*
X174373551Y-48111689D01*
X174138835Y-48065000D01*
X173856165Y-48065000D01*
X173621449Y-48111689D01*
X173668097Y-47952702D01*
X172855000Y-47139605D01*
X172041903Y-47952702D01*
X172088551Y-48111689D01*
X171853835Y-48065000D01*
X171571165Y-48065000D01*
X171336449Y-48111689D01*
X171383097Y-47952702D01*
X170570000Y-47139605D01*
X169756903Y-47952702D01*
X169803551Y-48111689D01*
X169568835Y-48065000D01*
X169286165Y-48065000D01*
X169183669Y-48085388D01*
X169199759Y-48074637D01*
X169399637Y-47874759D01*
X169485552Y-47746178D01*
X169577298Y-47773097D01*
X170390395Y-46960000D01*
X170749605Y-46960000D01*
X171562702Y-47773097D01*
X171712500Y-47729145D01*
X171862298Y-47773097D01*
X172675395Y-46960000D01*
X173034605Y-46960000D01*
X173847702Y-47773097D01*
X173997500Y-47729145D01*
X174147298Y-47773097D01*
X174960395Y-46960000D01*
X175319605Y-46960000D01*
X176132702Y-47773097D01*
X176376671Y-47701514D01*
X176497571Y-47446004D01*
X176566300Y-47171816D01*
X176580217Y-46889488D01*
X176538787Y-46609870D01*
X176443603Y-46343708D01*
X176376671Y-46218486D01*
X176132702Y-46146903D01*
X175319605Y-46960000D01*
X174960395Y-46960000D01*
X174147298Y-46146903D01*
X173997500Y-46190855D01*
X173847702Y-46146903D01*
X173034605Y-46960000D01*
X172675395Y-46960000D01*
X171862298Y-46146903D01*
X171712500Y-46190855D01*
X171562702Y-46146903D01*
X170749605Y-46960000D01*
X170390395Y-46960000D01*
X169577298Y-46146903D01*
X169485552Y-46173822D01*
X169399637Y-46045241D01*
X169199759Y-45845363D01*
X169183669Y-45834612D01*
X169286165Y-45855000D01*
X169568835Y-45855000D01*
X169803551Y-45808311D01*
X169756903Y-45967298D01*
X170570000Y-46780395D01*
X171383097Y-45967298D01*
X171336449Y-45808311D01*
X171571165Y-45855000D01*
X171853835Y-45855000D01*
X172088551Y-45808311D01*
X172041903Y-45967298D01*
X172855000Y-46780395D01*
X173668097Y-45967298D01*
X173621449Y-45808311D01*
X173856165Y-45855000D01*
X174138835Y-45855000D01*
X174373551Y-45808311D01*
X174326903Y-45967298D01*
X175140000Y-46780395D01*
X175953097Y-45967298D01*
X175906449Y-45808311D01*
X176141165Y-45855000D01*
X176423835Y-45855000D01*
X176701074Y-45799853D01*
X176962227Y-45691680D01*
X177197259Y-45534637D01*
X177397137Y-45334759D01*
X177554180Y-45099727D01*
X177662353Y-44838574D01*
X177717500Y-44561335D01*
X177717500Y-44278665D01*
X177662353Y-44001426D01*
X177554180Y-43740273D01*
X177397137Y-43505241D01*
X177197259Y-43305363D01*
X176962227Y-43148320D01*
X176701074Y-43040147D01*
X176423835Y-42985000D01*
X176141165Y-42985000D01*
X175863926Y-43040147D01*
X175602773Y-43148320D01*
X175367741Y-43305363D01*
X175167863Y-43505241D01*
X175140000Y-43546941D01*
X175112137Y-43505241D01*
X174912259Y-43305363D01*
X174677227Y-43148320D01*
X174416074Y-43040147D01*
X174138835Y-42985000D01*
X173856165Y-42985000D01*
X173578926Y-43040147D01*
X173317773Y-43148320D01*
X173082741Y-43305363D01*
X172882863Y-43505241D01*
X172855000Y-43546941D01*
X172827137Y-43505241D01*
X172627259Y-43305363D01*
X172392227Y-43148320D01*
X172131074Y-43040147D01*
X171853835Y-42985000D01*
X171571165Y-42985000D01*
X171293926Y-43040147D01*
X171032773Y-43148320D01*
X170797741Y-43305363D01*
X170597863Y-43505241D01*
X170570000Y-43546941D01*
X170542137Y-43505241D01*
X170342259Y-43305363D01*
X170107227Y-43148320D01*
X169846074Y-43040147D01*
X169568835Y-42985000D01*
X169286165Y-42985000D01*
X169008926Y-43040147D01*
X168747773Y-43148320D01*
X168512741Y-43305363D01*
X168312863Y-43505241D01*
X168285000Y-43546941D01*
X168257137Y-43505241D01*
X168057259Y-43305363D01*
X167822227Y-43148320D01*
X167561074Y-43040147D01*
X167283835Y-42985000D01*
X167001165Y-42985000D01*
X166723926Y-43040147D01*
X166462773Y-43148320D01*
X166227741Y-43305363D01*
X166027863Y-43505241D01*
X165870820Y-43740273D01*
X165762647Y-44001426D01*
X165707500Y-44278665D01*
X165707500Y-44561335D01*
X165762647Y-44838574D01*
X165870820Y-45099727D01*
X166027863Y-45334759D01*
X166227741Y-45534637D01*
X166235058Y-45539526D01*
X166211816Y-45533700D01*
X165929488Y-45519783D01*
X165649870Y-45561213D01*
X165383708Y-45656397D01*
X165258486Y-45723329D01*
X165186903Y-45967298D01*
X161413414Y-45967298D01*
X161307607Y-45711859D01*
X161019238Y-45280285D01*
X160652215Y-44913262D01*
X160220641Y-44624893D01*
X159741101Y-44426261D01*
X159232025Y-44325000D01*
X158712975Y-44325000D01*
X158203899Y-44426261D01*
X157724359Y-44624893D01*
X157292785Y-44913262D01*
X156925762Y-45280285D01*
X156637393Y-45711859D01*
X156438761Y-46191399D01*
X156337500Y-46700475D01*
X155660000Y-46700475D01*
X155660000Y-34279392D01*
X155731173Y-33481917D01*
X155934656Y-32738109D01*
X156266638Y-32042095D01*
X156716626Y-31415870D01*
X157270403Y-30879223D01*
X157910451Y-30449129D01*
X158616553Y-30139171D01*
X159371457Y-29957935D01*
X160024207Y-29910000D01*
X229970608Y-29910000D01*
X230768083Y-29981173D01*
G37*
%TD.AperFunction*%
%TD*%
M02*
