%TF.GenerationSoftware,KiCad,Pcbnew,(5.1.9)-1*%
%TF.CreationDate,2021-08-09T23:15:38-02:30*%
%TF.ProjectId,Electris,456c6563-7472-4697-932e-6b696361645f,A*%
%TF.SameCoordinates,Original*%
%TF.FileFunction,Legend,Top*%
%TF.FilePolarity,Positive*%
%FSLAX46Y46*%
G04 Gerber Fmt 4.6, Leading zero omitted, Abs format (unit mm)*
G04 Created by KiCad (PCBNEW (5.1.9)-1) date 2021-08-09 23:15:38*
%MOMM*%
%LPD*%
G01*
G04 APERTURE LIST*
%ADD10C,0.100000*%
%ADD11C,0.300000*%
%ADD12C,0.150000*%
%ADD13C,0.010000*%
%ADD14C,0.120000*%
G04 APERTURE END LIST*
D10*
G36*
X195750000Y-98500000D02*
G01*
X185750000Y-98500000D01*
X185750000Y-94500000D01*
X195750000Y-94500000D01*
X195750000Y-98500000D01*
G37*
X195750000Y-98500000D02*
X185750000Y-98500000D01*
X185750000Y-94500000D01*
X195750000Y-94500000D01*
X195750000Y-98500000D01*
D11*
X181678571Y-98357142D02*
X181892857Y-98428571D01*
X182250000Y-98428571D01*
X182392857Y-98357142D01*
X182464285Y-98285714D01*
X182535714Y-98142857D01*
X182535714Y-98000000D01*
X182464285Y-97857142D01*
X182392857Y-97785714D01*
X182250000Y-97714285D01*
X181964285Y-97642857D01*
X181821428Y-97571428D01*
X181750000Y-97500000D01*
X181678571Y-97357142D01*
X181678571Y-97214285D01*
X181750000Y-97071428D01*
X181821428Y-97000000D01*
X181964285Y-96928571D01*
X182321428Y-96928571D01*
X182535714Y-97000000D01*
X183178571Y-98428571D02*
X183178571Y-96928571D01*
X184035714Y-98428571D01*
X184035714Y-96928571D01*
X184750000Y-98285714D02*
X184821428Y-98357142D01*
X184750000Y-98428571D01*
X184678571Y-98357142D01*
X184750000Y-98285714D01*
X184750000Y-98428571D01*
X184750000Y-97500000D02*
X184821428Y-97571428D01*
X184750000Y-97642857D01*
X184678571Y-97571428D01*
X184750000Y-97500000D01*
X184750000Y-97642857D01*
D12*
X166059523Y-97535714D02*
X166773809Y-97535714D01*
X166345238Y-97107142D02*
X166059523Y-98392857D01*
X166678571Y-97964285D02*
X165964285Y-97964285D01*
X166392857Y-98392857D02*
X166678571Y-97107142D01*
X167107142Y-97535714D02*
X167107142Y-98392857D01*
X167059523Y-98488095D01*
X166964285Y-98535714D01*
X166916666Y-98535714D01*
X167107142Y-97202380D02*
X167059523Y-97250000D01*
X167107142Y-97297619D01*
X167154761Y-97250000D01*
X167107142Y-97202380D01*
X167107142Y-97297619D01*
X168011904Y-97535714D02*
X168011904Y-98202380D01*
X167583333Y-97535714D02*
X167583333Y-98059523D01*
X167630952Y-98154761D01*
X167726190Y-98202380D01*
X167869047Y-98202380D01*
X167964285Y-98154761D01*
X168011904Y-98107142D01*
X168440476Y-98154761D02*
X168535714Y-98202380D01*
X168726190Y-98202380D01*
X168821428Y-98154761D01*
X168869047Y-98059523D01*
X168869047Y-98011904D01*
X168821428Y-97916666D01*
X168726190Y-97869047D01*
X168583333Y-97869047D01*
X168488095Y-97821428D01*
X168440476Y-97726190D01*
X168440476Y-97678571D01*
X168488095Y-97583333D01*
X168583333Y-97535714D01*
X168726190Y-97535714D01*
X168821428Y-97583333D01*
X169154761Y-97535714D02*
X169535714Y-97535714D01*
X169297619Y-97202380D02*
X169297619Y-98059523D01*
X169345238Y-98154761D01*
X169440476Y-98202380D01*
X169535714Y-98202380D01*
X169869047Y-98202380D02*
X169869047Y-97535714D01*
X169869047Y-97202380D02*
X169821428Y-97250000D01*
X169869047Y-97297619D01*
X169916666Y-97250000D01*
X169869047Y-97202380D01*
X169869047Y-97297619D01*
X170773809Y-98154761D02*
X170678571Y-98202380D01*
X170488095Y-98202380D01*
X170392857Y-98154761D01*
X170345238Y-98107142D01*
X170297619Y-98011904D01*
X170297619Y-97726190D01*
X170345238Y-97630952D01*
X170392857Y-97583333D01*
X170488095Y-97535714D01*
X170678571Y-97535714D01*
X170773809Y-97583333D01*
X171583333Y-98154761D02*
X171488095Y-98202380D01*
X171297619Y-98202380D01*
X171202380Y-98154761D01*
X171154761Y-98059523D01*
X171154761Y-97678571D01*
X171202380Y-97583333D01*
X171297619Y-97535714D01*
X171488095Y-97535714D01*
X171583333Y-97583333D01*
X171630952Y-97678571D01*
X171630952Y-97773809D01*
X171154761Y-97869047D01*
X171916666Y-97535714D02*
X172297619Y-97535714D01*
X172059523Y-98202380D02*
X172059523Y-97345238D01*
X172107142Y-97250000D01*
X172202380Y-97202380D01*
X172297619Y-97202380D01*
X172773809Y-98202380D02*
X172678571Y-98154761D01*
X172630952Y-98107142D01*
X172583333Y-98011904D01*
X172583333Y-97726190D01*
X172630952Y-97630952D01*
X172678571Y-97583333D01*
X172773809Y-97535714D01*
X172916666Y-97535714D01*
X173011904Y-97583333D01*
X173059523Y-97630952D01*
X173107142Y-97726190D01*
X173107142Y-98011904D01*
X173059523Y-98107142D01*
X173011904Y-98154761D01*
X172916666Y-98202380D01*
X172773809Y-98202380D01*
X173535714Y-98202380D02*
X173535714Y-97535714D01*
X173535714Y-97726190D02*
X173583333Y-97630952D01*
X173630952Y-97583333D01*
X173726190Y-97535714D01*
X173821428Y-97535714D01*
X174107142Y-98154761D02*
X174202380Y-98202380D01*
X174392857Y-98202380D01*
X174488095Y-98154761D01*
X174535714Y-98059523D01*
X174535714Y-98011904D01*
X174488095Y-97916666D01*
X174392857Y-97869047D01*
X174250000Y-97869047D01*
X174154761Y-97821428D01*
X174107142Y-97726190D01*
X174107142Y-97678571D01*
X174154761Y-97583333D01*
X174250000Y-97535714D01*
X174392857Y-97535714D01*
X174488095Y-97583333D01*
X174869047Y-97535714D02*
X175107142Y-98202380D01*
X175345238Y-97535714D01*
X175726190Y-98202380D02*
X175726190Y-97535714D01*
X175726190Y-97202380D02*
X175678571Y-97250000D01*
X175726190Y-97297619D01*
X175773809Y-97250000D01*
X175726190Y-97202380D01*
X175726190Y-97297619D01*
X176630952Y-98202380D02*
X176630952Y-97202380D01*
X176630952Y-98154761D02*
X176535714Y-98202380D01*
X176345238Y-98202380D01*
X176250000Y-98154761D01*
X176202380Y-98107142D01*
X176154761Y-98011904D01*
X176154761Y-97726190D01*
X176202380Y-97630952D01*
X176250000Y-97583333D01*
X176345238Y-97535714D01*
X176535714Y-97535714D01*
X176630952Y-97583333D01*
X177488095Y-98154761D02*
X177392857Y-98202380D01*
X177202380Y-98202380D01*
X177107142Y-98154761D01*
X177059523Y-98059523D01*
X177059523Y-97678571D01*
X177107142Y-97583333D01*
X177202380Y-97535714D01*
X177392857Y-97535714D01*
X177488095Y-97583333D01*
X177535714Y-97678571D01*
X177535714Y-97773809D01*
X177059523Y-97869047D01*
X178107142Y-98202380D02*
X178011904Y-98154761D01*
X177964285Y-98107142D01*
X177916666Y-98011904D01*
X177916666Y-97726190D01*
X177964285Y-97630952D01*
X178011904Y-97583333D01*
X178107142Y-97535714D01*
X178250000Y-97535714D01*
X178345238Y-97583333D01*
X178392857Y-97630952D01*
X178440476Y-97726190D01*
X178440476Y-98011904D01*
X178392857Y-98107142D01*
X178345238Y-98154761D01*
X178250000Y-98202380D01*
X178107142Y-98202380D01*
D13*
%TO.C,G\u002A\u002A\u002A*%
G36*
X215062350Y-30061356D02*
G01*
X215487800Y-30521037D01*
X215604532Y-30647141D01*
X215706067Y-30756766D01*
X215794447Y-30852088D01*
X215871714Y-30935282D01*
X215939909Y-31008524D01*
X216001073Y-31073989D01*
X216057249Y-31133853D01*
X216110478Y-31190293D01*
X216162802Y-31245482D01*
X216216261Y-31301598D01*
X216272899Y-31360815D01*
X216334756Y-31425309D01*
X216403874Y-31497257D01*
X216404513Y-31497921D01*
X216668605Y-31772693D01*
X216671927Y-32278336D01*
X216675250Y-32783978D01*
X216757653Y-32813474D01*
X216873787Y-32865144D01*
X216977077Y-32933795D01*
X217054352Y-33003047D01*
X217136623Y-33097301D01*
X217200507Y-33199192D01*
X217250294Y-33314400D01*
X217265271Y-33359350D01*
X217275058Y-33399671D01*
X217280714Y-33443104D01*
X217283298Y-33497392D01*
X217283871Y-33559950D01*
X217283275Y-33628851D01*
X217280605Y-33680502D01*
X217274667Y-33723037D01*
X217264266Y-33764590D01*
X217248206Y-33813295D01*
X217245539Y-33820860D01*
X217194552Y-33939051D01*
X217129393Y-34041249D01*
X217045034Y-34135161D01*
X217032918Y-34146673D01*
X216922661Y-34233834D01*
X216803001Y-34297574D01*
X216673242Y-34338159D01*
X216532681Y-34355857D01*
X216484750Y-34356728D01*
X216342882Y-34344490D01*
X216211812Y-34309394D01*
X216090567Y-34251028D01*
X215978170Y-34168979D01*
X215925940Y-34119913D01*
X215835516Y-34011591D01*
X215768374Y-33893259D01*
X215724362Y-33764552D01*
X215703333Y-33625105D01*
X215701349Y-33571037D01*
X215702253Y-33540900D01*
X216062450Y-33540900D01*
X216067671Y-33645668D01*
X216096707Y-33742323D01*
X216150185Y-33832903D01*
X216152960Y-33836585D01*
X216194466Y-33879601D01*
X216250870Y-33923076D01*
X216312649Y-33960495D01*
X216370277Y-33985339D01*
X216370450Y-33985393D01*
X216418890Y-33993574D01*
X216482181Y-33994950D01*
X216550905Y-33990212D01*
X216615642Y-33980048D01*
X216666975Y-33965150D01*
X216671131Y-33963372D01*
X216756804Y-33912302D01*
X216825591Y-33845384D01*
X216876858Y-33766288D01*
X216909971Y-33678686D01*
X216924294Y-33586247D01*
X216919195Y-33492645D01*
X216894039Y-33401549D01*
X216848191Y-33316631D01*
X216793794Y-33253303D01*
X216729823Y-33199933D01*
X216665716Y-33165038D01*
X216593194Y-33145154D01*
X216516500Y-33137356D01*
X216420005Y-33139404D01*
X216338771Y-33157414D01*
X216266719Y-33193574D01*
X216197772Y-33250069D01*
X216194660Y-33253109D01*
X216131244Y-33326708D01*
X216089903Y-33403529D01*
X216067553Y-33490286D01*
X216062450Y-33540900D01*
X215702253Y-33540900D01*
X215704193Y-33476228D01*
X215715949Y-33394099D01*
X215738925Y-33314417D01*
X215775431Y-33226949D01*
X215782299Y-33212351D01*
X215845779Y-33106116D01*
X215929183Y-33008213D01*
X216027631Y-32922824D01*
X216136242Y-32854133D01*
X216250133Y-32806324D01*
X216259325Y-32803527D01*
X216313300Y-32787579D01*
X216313300Y-32356514D01*
X216313299Y-31925448D01*
X216073993Y-31675899D01*
X216021078Y-31620625D01*
X215969007Y-31566011D01*
X215916171Y-31510335D01*
X215860961Y-31451877D01*
X215801770Y-31388915D01*
X215736989Y-31319727D01*
X215665011Y-31242593D01*
X215584227Y-31155791D01*
X215493029Y-31057600D01*
X215389808Y-30946298D01*
X215272957Y-30820165D01*
X215140868Y-30677479D01*
X215107946Y-30641905D01*
X214899542Y-30416700D01*
X214498346Y-30416708D01*
X214422114Y-30416813D01*
X214323323Y-30417115D01*
X214204816Y-30417597D01*
X214069432Y-30418245D01*
X213920012Y-30419041D01*
X213759398Y-30419970D01*
X213590431Y-30421015D01*
X213415950Y-30422162D01*
X213238798Y-30423393D01*
X213061816Y-30424692D01*
X213001775Y-30425150D01*
X211906400Y-30433584D01*
X211906400Y-31724800D01*
X213922776Y-31724800D01*
X213944303Y-31658125D01*
X213995085Y-31539041D01*
X214066409Y-31427800D01*
X214154465Y-31328798D01*
X214255443Y-31246431D01*
X214346749Y-31193655D01*
X214437595Y-31154234D01*
X214518797Y-31128697D01*
X214600313Y-31114775D01*
X214692103Y-31110199D01*
X214713100Y-31110209D01*
X214853887Y-31123322D01*
X214986390Y-31160387D01*
X215109815Y-31221086D01*
X215223370Y-31305103D01*
X215242218Y-31322226D01*
X215329368Y-31415698D01*
X215396646Y-31516481D01*
X215449081Y-31632281D01*
X215454786Y-31648039D01*
X215472107Y-31699808D01*
X215483293Y-31743076D01*
X215489638Y-31786460D01*
X215492434Y-31838574D01*
X215492983Y-31902600D01*
X215492054Y-31972263D01*
X215488637Y-32025090D01*
X215481524Y-32069612D01*
X215469503Y-32114360D01*
X215458053Y-32148854D01*
X215422944Y-32239002D01*
X215383950Y-32313552D01*
X215335244Y-32382233D01*
X215281304Y-32443851D01*
X215187820Y-32531126D01*
X215087344Y-32598384D01*
X214972042Y-32650740D01*
X214954960Y-32656929D01*
X214901307Y-32674752D01*
X214856314Y-32686069D01*
X214810758Y-32692303D01*
X214755414Y-32694879D01*
X214706750Y-32695269D01*
X214614510Y-32692630D01*
X214541335Y-32684246D01*
X214490850Y-32672464D01*
X214360946Y-32620982D01*
X214242138Y-32548963D01*
X214137188Y-32459064D01*
X214048859Y-32353941D01*
X213979913Y-32236251D01*
X213944423Y-32147075D01*
X213922776Y-32080400D01*
X211906400Y-32080400D01*
X211906400Y-33388976D01*
X212479052Y-33382150D01*
X212510061Y-33293385D01*
X212565009Y-33173459D01*
X212641368Y-33063157D01*
X212735859Y-32966141D01*
X212845203Y-32886076D01*
X212903350Y-32854072D01*
X213032395Y-32801655D01*
X213159984Y-32773614D01*
X213289822Y-32769453D01*
X213413386Y-32786073D01*
X213551637Y-32826915D01*
X213676608Y-32888779D01*
X213786689Y-32970131D01*
X213880268Y-33069432D01*
X213955736Y-33185146D01*
X214011482Y-33315736D01*
X214028165Y-33372833D01*
X214050526Y-33508886D01*
X214048972Y-33643176D01*
X214024978Y-33773224D01*
X213980018Y-33896551D01*
X213915567Y-34010680D01*
X213833100Y-34113130D01*
X213734091Y-34201423D01*
X213620015Y-34273081D01*
X213492347Y-34325625D01*
X213454882Y-34336438D01*
X213349318Y-34354600D01*
X213234291Y-34358075D01*
X213120110Y-34347191D01*
X213017771Y-34322510D01*
X212882649Y-34264486D01*
X212764043Y-34187348D01*
X212662751Y-34091879D01*
X212579570Y-33978863D01*
X212515296Y-33849083D01*
X212502941Y-33816009D01*
X212479861Y-33750450D01*
X212193130Y-33747036D01*
X211906400Y-33743623D01*
X211906400Y-35035306D01*
X213249425Y-35043746D01*
X213446415Y-35044948D01*
X213646157Y-35046099D01*
X213845938Y-35047188D01*
X214043047Y-35048201D01*
X214234771Y-35049127D01*
X214418399Y-35049954D01*
X214591220Y-35050669D01*
X214750521Y-35051262D01*
X214893591Y-35051719D01*
X215017719Y-35052029D01*
X215120191Y-35052180D01*
X215152963Y-35052193D01*
X215713476Y-35052200D01*
X215735123Y-34985525D01*
X215781092Y-34873121D01*
X215843742Y-34771846D01*
X215927264Y-34674985D01*
X215931872Y-34670329D01*
X216037565Y-34577878D01*
X216147952Y-34509326D01*
X216266199Y-34463218D01*
X216395473Y-34438100D01*
X216446650Y-34433840D01*
X216588607Y-34437973D01*
X216724126Y-34465801D01*
X216850927Y-34515958D01*
X216966729Y-34587083D01*
X217069253Y-34677811D01*
X217156218Y-34786779D01*
X217217072Y-34894562D01*
X217263611Y-35021264D01*
X217286563Y-35150700D01*
X217287174Y-35280270D01*
X217266691Y-35407370D01*
X217226361Y-35529398D01*
X217167429Y-35643754D01*
X217091142Y-35747835D01*
X216998746Y-35839038D01*
X216891487Y-35914763D01*
X216770612Y-35972406D01*
X216688456Y-35998159D01*
X216617081Y-36010398D01*
X216531343Y-36016202D01*
X216441334Y-36015589D01*
X216357151Y-36008578D01*
X216297165Y-35997460D01*
X216172129Y-35952936D01*
X216055451Y-35887782D01*
X215950465Y-35805037D01*
X215860504Y-35707740D01*
X215788902Y-35598933D01*
X215742120Y-35491313D01*
X215714329Y-35407799D01*
X214882006Y-35407800D01*
X214049684Y-35407800D01*
X214330407Y-35696725D01*
X214377402Y-35744940D01*
X214440696Y-35809637D01*
X214518730Y-35889234D01*
X214609948Y-35982148D01*
X214712793Y-36086795D01*
X214825706Y-36201593D01*
X214947131Y-36324959D01*
X215075510Y-36455312D01*
X215209286Y-36591067D01*
X215346902Y-36730642D01*
X215486799Y-36872454D01*
X215627422Y-37014922D01*
X215639396Y-37027050D01*
X216667663Y-38068450D01*
X216668281Y-39580914D01*
X216668900Y-41093379D01*
X216722875Y-41109327D01*
X216804036Y-41140806D01*
X216890831Y-41187090D01*
X216973754Y-41242589D01*
X217032918Y-41291726D01*
X217120132Y-41385277D01*
X217187409Y-41486117D01*
X217239776Y-41601954D01*
X217245407Y-41617539D01*
X217262815Y-41669848D01*
X217274078Y-41713958D01*
X217280526Y-41758588D01*
X217283491Y-41812459D01*
X217284268Y-41872100D01*
X217279902Y-41981820D01*
X217264305Y-42076536D01*
X217235165Y-42165027D01*
X217190169Y-42256071D01*
X217177214Y-42278500D01*
X217095537Y-42392240D01*
X216995426Y-42488883D01*
X216878022Y-42567516D01*
X216744464Y-42627226D01*
X216738628Y-42629268D01*
X216686610Y-42645920D01*
X216640965Y-42656427D01*
X216592535Y-42662130D01*
X216532164Y-42664370D01*
X216497450Y-42664608D01*
X216406259Y-42662156D01*
X216333941Y-42654087D01*
X216281550Y-42641964D01*
X216154563Y-42591913D01*
X216037478Y-42522133D01*
X215933876Y-42435605D01*
X215847338Y-42335312D01*
X215782625Y-42226720D01*
X215743997Y-42137669D01*
X215719086Y-42057899D01*
X215705571Y-41976993D01*
X215703269Y-41928994D01*
X216061718Y-41928994D01*
X216070378Y-41980328D01*
X216103974Y-42063115D01*
X216156495Y-42141549D01*
X216222673Y-42209809D01*
X216297239Y-42262074D01*
X216345050Y-42283779D01*
X216411228Y-42298582D01*
X216489695Y-42302867D01*
X216569717Y-42296845D01*
X216640558Y-42280727D01*
X216648759Y-42277817D01*
X216735541Y-42232301D01*
X216810127Y-42167300D01*
X216868937Y-42087224D01*
X216908388Y-41996486D01*
X216920626Y-41943064D01*
X216924789Y-41839416D01*
X216905624Y-41740366D01*
X216864936Y-41649428D01*
X216804534Y-41570114D01*
X216726224Y-41505939D01*
X216683397Y-41481834D01*
X216645402Y-41464701D01*
X216611120Y-41454183D01*
X216572073Y-41448730D01*
X216519783Y-41446790D01*
X216491100Y-41446650D01*
X216432810Y-41447290D01*
X216391483Y-41450425D01*
X216358690Y-41457875D01*
X216326002Y-41471458D01*
X216290627Y-41489932D01*
X216212168Y-41541444D01*
X216152449Y-41602980D01*
X216105006Y-41681421D01*
X216099171Y-41693720D01*
X216074671Y-41766719D01*
X216061821Y-41848779D01*
X216061718Y-41928994D01*
X215703269Y-41928994D01*
X215701135Y-41884531D01*
X215701155Y-41860605D01*
X215714430Y-41722908D01*
X215750861Y-41591973D01*
X215808582Y-41470345D01*
X215885725Y-41360570D01*
X215980424Y-41265192D01*
X216090813Y-41186758D01*
X216215024Y-41127811D01*
X216246625Y-41116866D01*
X216313299Y-41095358D01*
X216312510Y-39658104D01*
X216311720Y-38220850D01*
X214925035Y-36814402D01*
X213538350Y-35407955D01*
X212722375Y-35407877D01*
X211906400Y-35407800D01*
X211906400Y-36703200D01*
X212487773Y-36703200D01*
X212495945Y-36659639D01*
X212521099Y-36580190D01*
X212565675Y-36495561D01*
X212625716Y-36410493D01*
X212697260Y-36329728D01*
X212776348Y-36258007D01*
X212859021Y-36200070D01*
X212897000Y-36179434D01*
X213006561Y-36133279D01*
X213112073Y-36106100D01*
X213223302Y-36095886D01*
X213297094Y-36097076D01*
X213436210Y-36115475D01*
X213564505Y-36155211D01*
X213680699Y-36214082D01*
X213783510Y-36289884D01*
X213871660Y-36380416D01*
X213943867Y-36483474D01*
X213998850Y-36596856D01*
X214035331Y-36718358D01*
X214052027Y-36845779D01*
X214047659Y-36976914D01*
X214020947Y-37109563D01*
X213970610Y-37241521D01*
X213966844Y-37249300D01*
X213920949Y-37325192D01*
X213858375Y-37403975D01*
X213785610Y-37478945D01*
X213709142Y-37543397D01*
X213637587Y-37589516D01*
X213513092Y-37641250D01*
X213380097Y-37671301D01*
X213243153Y-37679670D01*
X213106813Y-37666360D01*
X212975630Y-37631370D01*
X212880395Y-37589336D01*
X212814306Y-37547098D01*
X212743455Y-37489892D01*
X212675091Y-37424541D01*
X212616461Y-37357870D01*
X212581004Y-37307452D01*
X212551958Y-37253786D01*
X212523636Y-37192740D01*
X212509396Y-37157025D01*
X212480735Y-37077850D01*
X212193567Y-37074436D01*
X211906400Y-37071023D01*
X211906400Y-38354352D01*
X212917460Y-38351101D01*
X213928521Y-38347850D01*
X213957501Y-38267814D01*
X214013914Y-38148469D01*
X214091722Y-38039744D01*
X214188049Y-37944767D01*
X214300019Y-37866666D01*
X214351150Y-37839586D01*
X214448347Y-37797887D01*
X214538605Y-37771976D01*
X214631763Y-37759882D01*
X214737664Y-37759637D01*
X214748211Y-37760131D01*
X214885432Y-37778667D01*
X215011929Y-37818481D01*
X215126501Y-37877302D01*
X215227946Y-37952859D01*
X215315062Y-38042883D01*
X215386648Y-38145103D01*
X215441502Y-38257250D01*
X215478424Y-38377052D01*
X215496210Y-38502240D01*
X215493660Y-38630543D01*
X215469572Y-38759691D01*
X215422745Y-38887415D01*
X215383923Y-38961252D01*
X215329175Y-39038335D01*
X215258194Y-39115320D01*
X215178792Y-39184755D01*
X215098778Y-39239191D01*
X215084124Y-39247237D01*
X214953002Y-39302851D01*
X214819269Y-39334696D01*
X214685463Y-39343597D01*
X214554122Y-39330374D01*
X214427783Y-39295853D01*
X214308985Y-39240854D01*
X214200265Y-39166202D01*
X214104161Y-39072719D01*
X214023211Y-38961227D01*
X213985314Y-38890961D01*
X213963606Y-38844215D01*
X213945967Y-38803575D01*
X213935690Y-38776688D01*
X213934877Y-38773903D01*
X213933331Y-38769174D01*
X213930228Y-38765056D01*
X213923913Y-38761508D01*
X213912733Y-38758485D01*
X213895032Y-38755947D01*
X213869155Y-38753851D01*
X213833448Y-38752155D01*
X213786256Y-38750816D01*
X213725923Y-38749793D01*
X213650796Y-38749042D01*
X213559218Y-38748521D01*
X213449536Y-38748189D01*
X213320095Y-38748003D01*
X213169239Y-38747921D01*
X212995314Y-38747900D01*
X211906400Y-38747900D01*
X211906291Y-39189225D01*
X211905374Y-39375934D01*
X211902686Y-39538556D01*
X211898174Y-39678344D01*
X211891787Y-39796551D01*
X211883471Y-39894430D01*
X211873651Y-39970275D01*
X211866067Y-40017900D01*
X212172382Y-40017900D01*
X212268826Y-40017769D01*
X212342900Y-40017236D01*
X212397632Y-40016084D01*
X212436050Y-40014101D01*
X212461184Y-40011071D01*
X212476061Y-40006781D01*
X212483711Y-40001016D01*
X212486499Y-39995675D01*
X212512016Y-39932548D01*
X212545464Y-39862973D01*
X212582151Y-39795848D01*
X212617385Y-39740071D01*
X212630864Y-39721864D01*
X212728972Y-39617909D01*
X212840969Y-39534740D01*
X212964882Y-39473306D01*
X213098732Y-39434559D01*
X213240545Y-39419449D01*
X213259873Y-39419271D01*
X213397976Y-39429460D01*
X213523221Y-39460285D01*
X213638647Y-39513026D01*
X213747299Y-39588962D01*
X213818813Y-39654450D01*
X213911958Y-39762758D01*
X213980730Y-39876902D01*
X214025849Y-39998768D01*
X214048034Y-40130240D01*
X214049000Y-40258085D01*
X214029288Y-40399114D01*
X213987093Y-40528682D01*
X213921846Y-40648061D01*
X213832974Y-40758526D01*
X213817078Y-40774902D01*
X213713318Y-40861909D01*
X213595189Y-40930391D01*
X213467266Y-40978438D01*
X213334122Y-41004139D01*
X213258950Y-41008058D01*
X213126110Y-40995984D01*
X212997394Y-40961205D01*
X212875931Y-40905889D01*
X212764848Y-40832203D01*
X212667275Y-40742316D01*
X212586340Y-40638395D01*
X212525171Y-40522608D01*
X212513035Y-40491228D01*
X212484477Y-40411600D01*
X212141463Y-40411777D01*
X211798450Y-40411954D01*
X211758394Y-40555124D01*
X211669932Y-40826746D01*
X211560598Y-41083894D01*
X211430448Y-41326497D01*
X211279533Y-41554480D01*
X211107907Y-41767772D01*
X210915623Y-41966300D01*
X210702733Y-42149991D01*
X210477650Y-42313223D01*
X210237984Y-42457953D01*
X209981279Y-42584587D01*
X209708556Y-42692888D01*
X209420838Y-42782620D01*
X209119147Y-42853546D01*
X208804505Y-42905430D01*
X208477933Y-42938034D01*
X208140455Y-42951122D01*
X207793091Y-42944456D01*
X207759850Y-42942799D01*
X207596524Y-42932527D01*
X207417200Y-42918217D01*
X207226470Y-42900424D01*
X207028929Y-42879704D01*
X206829171Y-42856612D01*
X206631790Y-42831704D01*
X206441379Y-42805535D01*
X206262533Y-42778661D01*
X206099846Y-42751636D01*
X205957912Y-42725017D01*
X205956927Y-42724819D01*
X205727850Y-42678550D01*
X205724592Y-41748275D01*
X205723776Y-41514861D01*
X206079030Y-41514861D01*
X206079303Y-41623949D01*
X206079918Y-41755809D01*
X206080147Y-41797570D01*
X206083450Y-42386256D01*
X206166000Y-42401598D01*
X206280082Y-42421246D01*
X206415196Y-42441884D01*
X206567017Y-42462986D01*
X206731222Y-42484029D01*
X206903487Y-42504491D01*
X207079487Y-42523846D01*
X207254899Y-42541573D01*
X207425400Y-42557146D01*
X207505850Y-42563833D01*
X207659361Y-42575564D01*
X207792508Y-42584330D01*
X207910141Y-42590236D01*
X208017108Y-42593387D01*
X208118260Y-42593891D01*
X208218447Y-42591851D01*
X208322516Y-42587373D01*
X208394850Y-42583187D01*
X208718997Y-42553536D01*
X209025275Y-42506167D01*
X209314230Y-42440858D01*
X209586408Y-42357385D01*
X209842353Y-42255524D01*
X210082613Y-42135052D01*
X210307734Y-41995745D01*
X210518260Y-41837381D01*
X210714738Y-41659736D01*
X210757901Y-41616227D01*
X210922437Y-41430659D01*
X211067085Y-41232494D01*
X211192180Y-41020916D01*
X211298056Y-40795105D01*
X211385047Y-40554245D01*
X211453486Y-40297519D01*
X211469814Y-40208626D01*
X212827744Y-40208626D01*
X212828496Y-40265647D01*
X212832953Y-40307543D01*
X212843299Y-40344542D01*
X212861717Y-40386873D01*
X212868958Y-40401768D01*
X212925194Y-40489144D01*
X212997285Y-40558514D01*
X213081918Y-40608538D01*
X213175784Y-40637879D01*
X213275572Y-40645200D01*
X213377970Y-40629161D01*
X213408314Y-40619729D01*
X213492054Y-40577779D01*
X213564976Y-40516294D01*
X213624237Y-40439856D01*
X213666994Y-40353046D01*
X213690403Y-40260445D01*
X213691622Y-40166634D01*
X213691279Y-40163790D01*
X213667256Y-40068922D01*
X213621692Y-39979378D01*
X213558443Y-39900428D01*
X213481370Y-39837343D01*
X213432631Y-39810457D01*
X213370473Y-39791384D01*
X213294469Y-39782153D01*
X213214183Y-39782758D01*
X213139182Y-39793194D01*
X213084741Y-39810690D01*
X213014731Y-39853397D01*
X212947459Y-39912865D01*
X212891104Y-39981048D01*
X212862849Y-40028994D01*
X212844637Y-40071146D01*
X212834000Y-40110430D01*
X212829003Y-40156759D01*
X212827744Y-40208626D01*
X211469814Y-40208626D01*
X211503707Y-40024110D01*
X211536045Y-39733199D01*
X211538045Y-39706750D01*
X211539420Y-39678150D01*
X211540700Y-39631181D01*
X211541886Y-39565482D01*
X211542979Y-39480694D01*
X211543979Y-39376459D01*
X211544888Y-39252417D01*
X211545705Y-39108210D01*
X211546432Y-38943478D01*
X211547069Y-38757862D01*
X211547618Y-38551003D01*
X211547685Y-38517304D01*
X214274076Y-38517304D01*
X214274500Y-38601288D01*
X214286675Y-38678714D01*
X214302282Y-38724054D01*
X214354145Y-38808080D01*
X214425101Y-38880573D01*
X214509852Y-38937092D01*
X214597902Y-38971834D01*
X214658957Y-38984762D01*
X214713964Y-38986821D01*
X214774577Y-38977894D01*
X214808856Y-38969732D01*
X214905558Y-38932600D01*
X214987825Y-38876267D01*
X215053725Y-38803642D01*
X215101324Y-38717635D01*
X215128689Y-38621156D01*
X215133888Y-38517113D01*
X215130864Y-38485076D01*
X215106562Y-38391586D01*
X215060149Y-38305192D01*
X214994739Y-38230028D01*
X214913447Y-38170226D01*
X214880695Y-38153161D01*
X214837849Y-38135229D01*
X214797978Y-38124874D01*
X214751048Y-38120212D01*
X214700400Y-38119318D01*
X214641442Y-38120663D01*
X214597984Y-38125898D01*
X214560197Y-38136951D01*
X214520521Y-38154640D01*
X214433952Y-38209895D01*
X214361457Y-38282135D01*
X214308250Y-38366155D01*
X214307897Y-38366900D01*
X214285257Y-38436072D01*
X214274076Y-38517304D01*
X211547685Y-38517304D01*
X211548079Y-38322543D01*
X211548452Y-38072122D01*
X211548740Y-37799381D01*
X211548941Y-37503961D01*
X211549057Y-37185503D01*
X211549085Y-36887082D01*
X212827274Y-36887082D01*
X212829092Y-36946758D01*
X212835930Y-36992728D01*
X212850125Y-37036544D01*
X212863919Y-37068292D01*
X212917444Y-37156348D01*
X212986968Y-37226963D01*
X213068976Y-37278886D01*
X213159951Y-37310864D01*
X213256375Y-37321647D01*
X213354733Y-37309982D01*
X213448196Y-37276264D01*
X213536191Y-37220019D01*
X213606362Y-37146178D01*
X213656925Y-37060324D01*
X213675487Y-37014379D01*
X213685787Y-36970101D01*
X213689953Y-36916471D01*
X213690392Y-36887082D01*
X213689241Y-36830600D01*
X213683668Y-36788249D01*
X213671203Y-36748838D01*
X213649376Y-36701173D01*
X213649352Y-36701124D01*
X213593171Y-36612213D01*
X213520537Y-36541961D01*
X213431924Y-36489374D01*
X213345747Y-36462166D01*
X213251551Y-36454087D01*
X213158030Y-36465135D01*
X213085975Y-36489374D01*
X212995084Y-36543695D01*
X212922942Y-36614438D01*
X212868547Y-36701124D01*
X212846656Y-36748977D01*
X212834144Y-36788663D01*
X212828516Y-36831426D01*
X212827274Y-36887082D01*
X211549085Y-36887082D01*
X211549090Y-36843648D01*
X211549039Y-36478037D01*
X211548905Y-36088311D01*
X211548690Y-35674111D01*
X211548393Y-35235077D01*
X211548364Y-35197854D01*
X216063709Y-35197854D01*
X216066762Y-35281878D01*
X216081368Y-35360497D01*
X216098597Y-35407800D01*
X216134755Y-35468356D01*
X216183216Y-35527772D01*
X216236698Y-35578053D01*
X216280793Y-35607709D01*
X216380416Y-35645988D01*
X216483211Y-35659577D01*
X216586282Y-35648441D01*
X216686733Y-35612546D01*
X216686898Y-35612465D01*
X216775531Y-35555850D01*
X216844445Y-35483616D01*
X216892811Y-35397119D01*
X216919801Y-35297718D01*
X216925534Y-35220932D01*
X216914085Y-35123080D01*
X216881367Y-35033341D01*
X216830444Y-34954150D01*
X216764382Y-34887943D01*
X216686245Y-34837155D01*
X216599098Y-34804222D01*
X216506006Y-34791579D01*
X216410034Y-34801663D01*
X216400778Y-34803917D01*
X216296603Y-34842269D01*
X216208577Y-34899307D01*
X216138092Y-34973916D01*
X216092858Y-35050645D01*
X216072358Y-35117688D01*
X216063709Y-35197854D01*
X211548364Y-35197854D01*
X211548185Y-34969650D01*
X211547029Y-33562144D01*
X212823972Y-33562144D01*
X212833297Y-33656608D01*
X212864500Y-33747705D01*
X212894742Y-33800027D01*
X212949497Y-33869612D01*
X213008852Y-33921047D01*
X213081197Y-33961297D01*
X213097688Y-33968502D01*
X213141482Y-33984835D01*
X213181535Y-33993366D01*
X213228530Y-33995688D01*
X213271650Y-33994455D01*
X213363204Y-33984244D01*
X213432631Y-33963372D01*
X213514207Y-33913788D01*
X213585012Y-33845058D01*
X213641155Y-33762484D01*
X213678743Y-33671371D01*
X213691279Y-33610909D01*
X213690889Y-33531476D01*
X213673057Y-33446962D01*
X213640714Y-33364557D01*
X213596794Y-33291449D01*
X213544225Y-33234829D01*
X213534985Y-33227615D01*
X213476977Y-33188098D01*
X213425253Y-33162452D01*
X213371056Y-33147927D01*
X213305631Y-33141775D01*
X213258950Y-33140960D01*
X213196222Y-33141785D01*
X213151195Y-33145220D01*
X213116205Y-33152514D01*
X213083591Y-33164914D01*
X213068781Y-33171934D01*
X212984461Y-33226398D01*
X212916771Y-33296440D01*
X212866759Y-33378271D01*
X212835476Y-33468102D01*
X212823972Y-33562144D01*
X211547029Y-33562144D01*
X211545665Y-31901591D01*
X214268337Y-31901591D01*
X214278307Y-31997357D01*
X214310545Y-32090604D01*
X214351275Y-32158726D01*
X214408756Y-32221628D01*
X214480681Y-32276304D01*
X214556447Y-32314717D01*
X214557685Y-32315175D01*
X214621232Y-32329602D01*
X214697689Y-32333602D01*
X214776929Y-32327450D01*
X214848825Y-32311421D01*
X214861754Y-32306934D01*
X214936676Y-32267289D01*
X215006654Y-32209099D01*
X215064901Y-32139152D01*
X215104629Y-32064236D01*
X215104734Y-32063954D01*
X215129566Y-31964160D01*
X215131348Y-31864174D01*
X215111517Y-31767743D01*
X215071507Y-31678611D01*
X215012753Y-31600524D01*
X214936692Y-31537228D01*
X214893473Y-31512714D01*
X214855304Y-31495443D01*
X214821180Y-31484847D01*
X214782613Y-31479370D01*
X214731114Y-31477457D01*
X214700400Y-31477347D01*
X214637625Y-31478577D01*
X214592297Y-31482884D01*
X214556526Y-31491555D01*
X214522422Y-31505877D01*
X214520871Y-31506640D01*
X214433060Y-31562860D01*
X214362997Y-31633942D01*
X214311586Y-31716408D01*
X214279731Y-31806783D01*
X214268337Y-31901591D01*
X211545665Y-31901591D01*
X211544450Y-30423050D01*
X209598175Y-30419834D01*
X207651900Y-30416619D01*
X207651900Y-31369080D01*
X210261750Y-31375550D01*
X210261750Y-35280800D01*
X210261748Y-35660440D01*
X210261738Y-36015595D01*
X210261707Y-36347180D01*
X210261646Y-36656111D01*
X210261544Y-36943301D01*
X210261390Y-37209665D01*
X210261174Y-37456120D01*
X210260886Y-37683579D01*
X210260515Y-37892958D01*
X210260050Y-38085172D01*
X210259480Y-38261135D01*
X210258797Y-38421762D01*
X210257988Y-38567970D01*
X210257043Y-38700671D01*
X210255952Y-38820783D01*
X210254704Y-38929218D01*
X210253290Y-39026893D01*
X210251697Y-39114722D01*
X210249916Y-39193621D01*
X210247936Y-39264503D01*
X210245747Y-39328285D01*
X210243338Y-39385881D01*
X210240699Y-39438206D01*
X210237819Y-39486176D01*
X210234687Y-39530704D01*
X210231293Y-39572706D01*
X210227627Y-39613097D01*
X210223678Y-39652792D01*
X210219436Y-39692706D01*
X210214889Y-39733754D01*
X210210057Y-39776600D01*
X210180770Y-39987203D01*
X210142378Y-40177092D01*
X210093762Y-40349665D01*
X210033805Y-40508319D01*
X209961391Y-40656450D01*
X209875403Y-40797457D01*
X209873435Y-40800378D01*
X209767096Y-40935538D01*
X209639342Y-41058202D01*
X209491155Y-41167862D01*
X209323514Y-41264009D01*
X209137400Y-41346132D01*
X208933792Y-41413724D01*
X208713672Y-41466274D01*
X208534550Y-41496029D01*
X208201257Y-41529110D01*
X207863318Y-41538134D01*
X207523750Y-41523264D01*
X207185573Y-41484660D01*
X206851804Y-41422482D01*
X206763136Y-41401747D01*
X206712923Y-41389050D01*
X206647860Y-41371950D01*
X206572180Y-41351625D01*
X206490118Y-41329253D01*
X206405910Y-41306012D01*
X206323791Y-41283079D01*
X206247996Y-41261633D01*
X206182760Y-41242850D01*
X206132317Y-41227909D01*
X206100903Y-41217988D01*
X206095804Y-41216160D01*
X206091350Y-41216804D01*
X206087679Y-41223837D01*
X206084738Y-41239306D01*
X206082470Y-41265258D01*
X206080820Y-41303742D01*
X206079734Y-41356805D01*
X206079155Y-41426495D01*
X206079030Y-41514861D01*
X205723776Y-41514861D01*
X205721336Y-40818000D01*
X205878179Y-40818000D01*
X205953954Y-40818984D01*
X206011249Y-40822449D01*
X206056926Y-40829163D01*
X206097847Y-40839894D01*
X206110036Y-40843947D01*
X206165363Y-40862030D01*
X206240415Y-40885029D01*
X206330311Y-40911557D01*
X206430169Y-40940226D01*
X206535110Y-40969651D01*
X206640251Y-40998444D01*
X206740713Y-41025218D01*
X206820050Y-41045674D01*
X206978845Y-41083778D01*
X207125479Y-41114186D01*
X207265569Y-41137495D01*
X207404733Y-41154302D01*
X207548591Y-41165203D01*
X207702760Y-41170794D01*
X207872859Y-41171671D01*
X207991960Y-41170048D01*
X208209953Y-41162304D01*
X208406019Y-41147624D01*
X208582815Y-41125452D01*
X208742997Y-41095236D01*
X208889225Y-41056421D01*
X209024154Y-41008455D01*
X209150442Y-40950782D01*
X209217272Y-40914672D01*
X209341163Y-40835642D01*
X209445715Y-40749497D01*
X209535264Y-40651569D01*
X209614146Y-40537191D01*
X209678998Y-40417561D01*
X209725297Y-40311201D01*
X209765416Y-40192557D01*
X209799788Y-40059444D01*
X209828841Y-39909679D01*
X209853007Y-39741080D01*
X209872717Y-39551461D01*
X209886808Y-39364066D01*
X209888222Y-39328736D01*
X209889560Y-39268319D01*
X209890821Y-39183130D01*
X209892004Y-39073482D01*
X209893108Y-38939688D01*
X209894131Y-38782063D01*
X209895073Y-38600920D01*
X209895933Y-38396573D01*
X209896709Y-38169335D01*
X209897401Y-37919520D01*
X209898008Y-37647441D01*
X209898528Y-37353413D01*
X209898961Y-37037749D01*
X209899305Y-36700763D01*
X209899560Y-36342768D01*
X209899724Y-35964077D01*
X209899796Y-35565006D01*
X209899800Y-35449291D01*
X209899800Y-31737500D01*
X207296300Y-31737500D01*
X207296300Y-30061100D01*
X215062350Y-30061356D01*
G37*
X215062350Y-30061356D02*
X215487800Y-30521037D01*
X215604532Y-30647141D01*
X215706067Y-30756766D01*
X215794447Y-30852088D01*
X215871714Y-30935282D01*
X215939909Y-31008524D01*
X216001073Y-31073989D01*
X216057249Y-31133853D01*
X216110478Y-31190293D01*
X216162802Y-31245482D01*
X216216261Y-31301598D01*
X216272899Y-31360815D01*
X216334756Y-31425309D01*
X216403874Y-31497257D01*
X216404513Y-31497921D01*
X216668605Y-31772693D01*
X216671927Y-32278336D01*
X216675250Y-32783978D01*
X216757653Y-32813474D01*
X216873787Y-32865144D01*
X216977077Y-32933795D01*
X217054352Y-33003047D01*
X217136623Y-33097301D01*
X217200507Y-33199192D01*
X217250294Y-33314400D01*
X217265271Y-33359350D01*
X217275058Y-33399671D01*
X217280714Y-33443104D01*
X217283298Y-33497392D01*
X217283871Y-33559950D01*
X217283275Y-33628851D01*
X217280605Y-33680502D01*
X217274667Y-33723037D01*
X217264266Y-33764590D01*
X217248206Y-33813295D01*
X217245539Y-33820860D01*
X217194552Y-33939051D01*
X217129393Y-34041249D01*
X217045034Y-34135161D01*
X217032918Y-34146673D01*
X216922661Y-34233834D01*
X216803001Y-34297574D01*
X216673242Y-34338159D01*
X216532681Y-34355857D01*
X216484750Y-34356728D01*
X216342882Y-34344490D01*
X216211812Y-34309394D01*
X216090567Y-34251028D01*
X215978170Y-34168979D01*
X215925940Y-34119913D01*
X215835516Y-34011591D01*
X215768374Y-33893259D01*
X215724362Y-33764552D01*
X215703333Y-33625105D01*
X215701349Y-33571037D01*
X215702253Y-33540900D01*
X216062450Y-33540900D01*
X216067671Y-33645668D01*
X216096707Y-33742323D01*
X216150185Y-33832903D01*
X216152960Y-33836585D01*
X216194466Y-33879601D01*
X216250870Y-33923076D01*
X216312649Y-33960495D01*
X216370277Y-33985339D01*
X216370450Y-33985393D01*
X216418890Y-33993574D01*
X216482181Y-33994950D01*
X216550905Y-33990212D01*
X216615642Y-33980048D01*
X216666975Y-33965150D01*
X216671131Y-33963372D01*
X216756804Y-33912302D01*
X216825591Y-33845384D01*
X216876858Y-33766288D01*
X216909971Y-33678686D01*
X216924294Y-33586247D01*
X216919195Y-33492645D01*
X216894039Y-33401549D01*
X216848191Y-33316631D01*
X216793794Y-33253303D01*
X216729823Y-33199933D01*
X216665716Y-33165038D01*
X216593194Y-33145154D01*
X216516500Y-33137356D01*
X216420005Y-33139404D01*
X216338771Y-33157414D01*
X216266719Y-33193574D01*
X216197772Y-33250069D01*
X216194660Y-33253109D01*
X216131244Y-33326708D01*
X216089903Y-33403529D01*
X216067553Y-33490286D01*
X216062450Y-33540900D01*
X215702253Y-33540900D01*
X215704193Y-33476228D01*
X215715949Y-33394099D01*
X215738925Y-33314417D01*
X215775431Y-33226949D01*
X215782299Y-33212351D01*
X215845779Y-33106116D01*
X215929183Y-33008213D01*
X216027631Y-32922824D01*
X216136242Y-32854133D01*
X216250133Y-32806324D01*
X216259325Y-32803527D01*
X216313300Y-32787579D01*
X216313300Y-32356514D01*
X216313299Y-31925448D01*
X216073993Y-31675899D01*
X216021078Y-31620625D01*
X215969007Y-31566011D01*
X215916171Y-31510335D01*
X215860961Y-31451877D01*
X215801770Y-31388915D01*
X215736989Y-31319727D01*
X215665011Y-31242593D01*
X215584227Y-31155791D01*
X215493029Y-31057600D01*
X215389808Y-30946298D01*
X215272957Y-30820165D01*
X215140868Y-30677479D01*
X215107946Y-30641905D01*
X214899542Y-30416700D01*
X214498346Y-30416708D01*
X214422114Y-30416813D01*
X214323323Y-30417115D01*
X214204816Y-30417597D01*
X214069432Y-30418245D01*
X213920012Y-30419041D01*
X213759398Y-30419970D01*
X213590431Y-30421015D01*
X213415950Y-30422162D01*
X213238798Y-30423393D01*
X213061816Y-30424692D01*
X213001775Y-30425150D01*
X211906400Y-30433584D01*
X211906400Y-31724800D01*
X213922776Y-31724800D01*
X213944303Y-31658125D01*
X213995085Y-31539041D01*
X214066409Y-31427800D01*
X214154465Y-31328798D01*
X214255443Y-31246431D01*
X214346749Y-31193655D01*
X214437595Y-31154234D01*
X214518797Y-31128697D01*
X214600313Y-31114775D01*
X214692103Y-31110199D01*
X214713100Y-31110209D01*
X214853887Y-31123322D01*
X214986390Y-31160387D01*
X215109815Y-31221086D01*
X215223370Y-31305103D01*
X215242218Y-31322226D01*
X215329368Y-31415698D01*
X215396646Y-31516481D01*
X215449081Y-31632281D01*
X215454786Y-31648039D01*
X215472107Y-31699808D01*
X215483293Y-31743076D01*
X215489638Y-31786460D01*
X215492434Y-31838574D01*
X215492983Y-31902600D01*
X215492054Y-31972263D01*
X215488637Y-32025090D01*
X215481524Y-32069612D01*
X215469503Y-32114360D01*
X215458053Y-32148854D01*
X215422944Y-32239002D01*
X215383950Y-32313552D01*
X215335244Y-32382233D01*
X215281304Y-32443851D01*
X215187820Y-32531126D01*
X215087344Y-32598384D01*
X214972042Y-32650740D01*
X214954960Y-32656929D01*
X214901307Y-32674752D01*
X214856314Y-32686069D01*
X214810758Y-32692303D01*
X214755414Y-32694879D01*
X214706750Y-32695269D01*
X214614510Y-32692630D01*
X214541335Y-32684246D01*
X214490850Y-32672464D01*
X214360946Y-32620982D01*
X214242138Y-32548963D01*
X214137188Y-32459064D01*
X214048859Y-32353941D01*
X213979913Y-32236251D01*
X213944423Y-32147075D01*
X213922776Y-32080400D01*
X211906400Y-32080400D01*
X211906400Y-33388976D01*
X212479052Y-33382150D01*
X212510061Y-33293385D01*
X212565009Y-33173459D01*
X212641368Y-33063157D01*
X212735859Y-32966141D01*
X212845203Y-32886076D01*
X212903350Y-32854072D01*
X213032395Y-32801655D01*
X213159984Y-32773614D01*
X213289822Y-32769453D01*
X213413386Y-32786073D01*
X213551637Y-32826915D01*
X213676608Y-32888779D01*
X213786689Y-32970131D01*
X213880268Y-33069432D01*
X213955736Y-33185146D01*
X214011482Y-33315736D01*
X214028165Y-33372833D01*
X214050526Y-33508886D01*
X214048972Y-33643176D01*
X214024978Y-33773224D01*
X213980018Y-33896551D01*
X213915567Y-34010680D01*
X213833100Y-34113130D01*
X213734091Y-34201423D01*
X213620015Y-34273081D01*
X213492347Y-34325625D01*
X213454882Y-34336438D01*
X213349318Y-34354600D01*
X213234291Y-34358075D01*
X213120110Y-34347191D01*
X213017771Y-34322510D01*
X212882649Y-34264486D01*
X212764043Y-34187348D01*
X212662751Y-34091879D01*
X212579570Y-33978863D01*
X212515296Y-33849083D01*
X212502941Y-33816009D01*
X212479861Y-33750450D01*
X212193130Y-33747036D01*
X211906400Y-33743623D01*
X211906400Y-35035306D01*
X213249425Y-35043746D01*
X213446415Y-35044948D01*
X213646157Y-35046099D01*
X213845938Y-35047188D01*
X214043047Y-35048201D01*
X214234771Y-35049127D01*
X214418399Y-35049954D01*
X214591220Y-35050669D01*
X214750521Y-35051262D01*
X214893591Y-35051719D01*
X215017719Y-35052029D01*
X215120191Y-35052180D01*
X215152963Y-35052193D01*
X215713476Y-35052200D01*
X215735123Y-34985525D01*
X215781092Y-34873121D01*
X215843742Y-34771846D01*
X215927264Y-34674985D01*
X215931872Y-34670329D01*
X216037565Y-34577878D01*
X216147952Y-34509326D01*
X216266199Y-34463218D01*
X216395473Y-34438100D01*
X216446650Y-34433840D01*
X216588607Y-34437973D01*
X216724126Y-34465801D01*
X216850927Y-34515958D01*
X216966729Y-34587083D01*
X217069253Y-34677811D01*
X217156218Y-34786779D01*
X217217072Y-34894562D01*
X217263611Y-35021264D01*
X217286563Y-35150700D01*
X217287174Y-35280270D01*
X217266691Y-35407370D01*
X217226361Y-35529398D01*
X217167429Y-35643754D01*
X217091142Y-35747835D01*
X216998746Y-35839038D01*
X216891487Y-35914763D01*
X216770612Y-35972406D01*
X216688456Y-35998159D01*
X216617081Y-36010398D01*
X216531343Y-36016202D01*
X216441334Y-36015589D01*
X216357151Y-36008578D01*
X216297165Y-35997460D01*
X216172129Y-35952936D01*
X216055451Y-35887782D01*
X215950465Y-35805037D01*
X215860504Y-35707740D01*
X215788902Y-35598933D01*
X215742120Y-35491313D01*
X215714329Y-35407799D01*
X214882006Y-35407800D01*
X214049684Y-35407800D01*
X214330407Y-35696725D01*
X214377402Y-35744940D01*
X214440696Y-35809637D01*
X214518730Y-35889234D01*
X214609948Y-35982148D01*
X214712793Y-36086795D01*
X214825706Y-36201593D01*
X214947131Y-36324959D01*
X215075510Y-36455312D01*
X215209286Y-36591067D01*
X215346902Y-36730642D01*
X215486799Y-36872454D01*
X215627422Y-37014922D01*
X215639396Y-37027050D01*
X216667663Y-38068450D01*
X216668281Y-39580914D01*
X216668900Y-41093379D01*
X216722875Y-41109327D01*
X216804036Y-41140806D01*
X216890831Y-41187090D01*
X216973754Y-41242589D01*
X217032918Y-41291726D01*
X217120132Y-41385277D01*
X217187409Y-41486117D01*
X217239776Y-41601954D01*
X217245407Y-41617539D01*
X217262815Y-41669848D01*
X217274078Y-41713958D01*
X217280526Y-41758588D01*
X217283491Y-41812459D01*
X217284268Y-41872100D01*
X217279902Y-41981820D01*
X217264305Y-42076536D01*
X217235165Y-42165027D01*
X217190169Y-42256071D01*
X217177214Y-42278500D01*
X217095537Y-42392240D01*
X216995426Y-42488883D01*
X216878022Y-42567516D01*
X216744464Y-42627226D01*
X216738628Y-42629268D01*
X216686610Y-42645920D01*
X216640965Y-42656427D01*
X216592535Y-42662130D01*
X216532164Y-42664370D01*
X216497450Y-42664608D01*
X216406259Y-42662156D01*
X216333941Y-42654087D01*
X216281550Y-42641964D01*
X216154563Y-42591913D01*
X216037478Y-42522133D01*
X215933876Y-42435605D01*
X215847338Y-42335312D01*
X215782625Y-42226720D01*
X215743997Y-42137669D01*
X215719086Y-42057899D01*
X215705571Y-41976993D01*
X215703269Y-41928994D01*
X216061718Y-41928994D01*
X216070378Y-41980328D01*
X216103974Y-42063115D01*
X216156495Y-42141549D01*
X216222673Y-42209809D01*
X216297239Y-42262074D01*
X216345050Y-42283779D01*
X216411228Y-42298582D01*
X216489695Y-42302867D01*
X216569717Y-42296845D01*
X216640558Y-42280727D01*
X216648759Y-42277817D01*
X216735541Y-42232301D01*
X216810127Y-42167300D01*
X216868937Y-42087224D01*
X216908388Y-41996486D01*
X216920626Y-41943064D01*
X216924789Y-41839416D01*
X216905624Y-41740366D01*
X216864936Y-41649428D01*
X216804534Y-41570114D01*
X216726224Y-41505939D01*
X216683397Y-41481834D01*
X216645402Y-41464701D01*
X216611120Y-41454183D01*
X216572073Y-41448730D01*
X216519783Y-41446790D01*
X216491100Y-41446650D01*
X216432810Y-41447290D01*
X216391483Y-41450425D01*
X216358690Y-41457875D01*
X216326002Y-41471458D01*
X216290627Y-41489932D01*
X216212168Y-41541444D01*
X216152449Y-41602980D01*
X216105006Y-41681421D01*
X216099171Y-41693720D01*
X216074671Y-41766719D01*
X216061821Y-41848779D01*
X216061718Y-41928994D01*
X215703269Y-41928994D01*
X215701135Y-41884531D01*
X215701155Y-41860605D01*
X215714430Y-41722908D01*
X215750861Y-41591973D01*
X215808582Y-41470345D01*
X215885725Y-41360570D01*
X215980424Y-41265192D01*
X216090813Y-41186758D01*
X216215024Y-41127811D01*
X216246625Y-41116866D01*
X216313299Y-41095358D01*
X216312510Y-39658104D01*
X216311720Y-38220850D01*
X214925035Y-36814402D01*
X213538350Y-35407955D01*
X212722375Y-35407877D01*
X211906400Y-35407800D01*
X211906400Y-36703200D01*
X212487773Y-36703200D01*
X212495945Y-36659639D01*
X212521099Y-36580190D01*
X212565675Y-36495561D01*
X212625716Y-36410493D01*
X212697260Y-36329728D01*
X212776348Y-36258007D01*
X212859021Y-36200070D01*
X212897000Y-36179434D01*
X213006561Y-36133279D01*
X213112073Y-36106100D01*
X213223302Y-36095886D01*
X213297094Y-36097076D01*
X213436210Y-36115475D01*
X213564505Y-36155211D01*
X213680699Y-36214082D01*
X213783510Y-36289884D01*
X213871660Y-36380416D01*
X213943867Y-36483474D01*
X213998850Y-36596856D01*
X214035331Y-36718358D01*
X214052027Y-36845779D01*
X214047659Y-36976914D01*
X214020947Y-37109563D01*
X213970610Y-37241521D01*
X213966844Y-37249300D01*
X213920949Y-37325192D01*
X213858375Y-37403975D01*
X213785610Y-37478945D01*
X213709142Y-37543397D01*
X213637587Y-37589516D01*
X213513092Y-37641250D01*
X213380097Y-37671301D01*
X213243153Y-37679670D01*
X213106813Y-37666360D01*
X212975630Y-37631370D01*
X212880395Y-37589336D01*
X212814306Y-37547098D01*
X212743455Y-37489892D01*
X212675091Y-37424541D01*
X212616461Y-37357870D01*
X212581004Y-37307452D01*
X212551958Y-37253786D01*
X212523636Y-37192740D01*
X212509396Y-37157025D01*
X212480735Y-37077850D01*
X212193567Y-37074436D01*
X211906400Y-37071023D01*
X211906400Y-38354352D01*
X212917460Y-38351101D01*
X213928521Y-38347850D01*
X213957501Y-38267814D01*
X214013914Y-38148469D01*
X214091722Y-38039744D01*
X214188049Y-37944767D01*
X214300019Y-37866666D01*
X214351150Y-37839586D01*
X214448347Y-37797887D01*
X214538605Y-37771976D01*
X214631763Y-37759882D01*
X214737664Y-37759637D01*
X214748211Y-37760131D01*
X214885432Y-37778667D01*
X215011929Y-37818481D01*
X215126501Y-37877302D01*
X215227946Y-37952859D01*
X215315062Y-38042883D01*
X215386648Y-38145103D01*
X215441502Y-38257250D01*
X215478424Y-38377052D01*
X215496210Y-38502240D01*
X215493660Y-38630543D01*
X215469572Y-38759691D01*
X215422745Y-38887415D01*
X215383923Y-38961252D01*
X215329175Y-39038335D01*
X215258194Y-39115320D01*
X215178792Y-39184755D01*
X215098778Y-39239191D01*
X215084124Y-39247237D01*
X214953002Y-39302851D01*
X214819269Y-39334696D01*
X214685463Y-39343597D01*
X214554122Y-39330374D01*
X214427783Y-39295853D01*
X214308985Y-39240854D01*
X214200265Y-39166202D01*
X214104161Y-39072719D01*
X214023211Y-38961227D01*
X213985314Y-38890961D01*
X213963606Y-38844215D01*
X213945967Y-38803575D01*
X213935690Y-38776688D01*
X213934877Y-38773903D01*
X213933331Y-38769174D01*
X213930228Y-38765056D01*
X213923913Y-38761508D01*
X213912733Y-38758485D01*
X213895032Y-38755947D01*
X213869155Y-38753851D01*
X213833448Y-38752155D01*
X213786256Y-38750816D01*
X213725923Y-38749793D01*
X213650796Y-38749042D01*
X213559218Y-38748521D01*
X213449536Y-38748189D01*
X213320095Y-38748003D01*
X213169239Y-38747921D01*
X212995314Y-38747900D01*
X211906400Y-38747900D01*
X211906291Y-39189225D01*
X211905374Y-39375934D01*
X211902686Y-39538556D01*
X211898174Y-39678344D01*
X211891787Y-39796551D01*
X211883471Y-39894430D01*
X211873651Y-39970275D01*
X211866067Y-40017900D01*
X212172382Y-40017900D01*
X212268826Y-40017769D01*
X212342900Y-40017236D01*
X212397632Y-40016084D01*
X212436050Y-40014101D01*
X212461184Y-40011071D01*
X212476061Y-40006781D01*
X212483711Y-40001016D01*
X212486499Y-39995675D01*
X212512016Y-39932548D01*
X212545464Y-39862973D01*
X212582151Y-39795848D01*
X212617385Y-39740071D01*
X212630864Y-39721864D01*
X212728972Y-39617909D01*
X212840969Y-39534740D01*
X212964882Y-39473306D01*
X213098732Y-39434559D01*
X213240545Y-39419449D01*
X213259873Y-39419271D01*
X213397976Y-39429460D01*
X213523221Y-39460285D01*
X213638647Y-39513026D01*
X213747299Y-39588962D01*
X213818813Y-39654450D01*
X213911958Y-39762758D01*
X213980730Y-39876902D01*
X214025849Y-39998768D01*
X214048034Y-40130240D01*
X214049000Y-40258085D01*
X214029288Y-40399114D01*
X213987093Y-40528682D01*
X213921846Y-40648061D01*
X213832974Y-40758526D01*
X213817078Y-40774902D01*
X213713318Y-40861909D01*
X213595189Y-40930391D01*
X213467266Y-40978438D01*
X213334122Y-41004139D01*
X213258950Y-41008058D01*
X213126110Y-40995984D01*
X212997394Y-40961205D01*
X212875931Y-40905889D01*
X212764848Y-40832203D01*
X212667275Y-40742316D01*
X212586340Y-40638395D01*
X212525171Y-40522608D01*
X212513035Y-40491228D01*
X212484477Y-40411600D01*
X212141463Y-40411777D01*
X211798450Y-40411954D01*
X211758394Y-40555124D01*
X211669932Y-40826746D01*
X211560598Y-41083894D01*
X211430448Y-41326497D01*
X211279533Y-41554480D01*
X211107907Y-41767772D01*
X210915623Y-41966300D01*
X210702733Y-42149991D01*
X210477650Y-42313223D01*
X210237984Y-42457953D01*
X209981279Y-42584587D01*
X209708556Y-42692888D01*
X209420838Y-42782620D01*
X209119147Y-42853546D01*
X208804505Y-42905430D01*
X208477933Y-42938034D01*
X208140455Y-42951122D01*
X207793091Y-42944456D01*
X207759850Y-42942799D01*
X207596524Y-42932527D01*
X207417200Y-42918217D01*
X207226470Y-42900424D01*
X207028929Y-42879704D01*
X206829171Y-42856612D01*
X206631790Y-42831704D01*
X206441379Y-42805535D01*
X206262533Y-42778661D01*
X206099846Y-42751636D01*
X205957912Y-42725017D01*
X205956927Y-42724819D01*
X205727850Y-42678550D01*
X205724592Y-41748275D01*
X205723776Y-41514861D01*
X206079030Y-41514861D01*
X206079303Y-41623949D01*
X206079918Y-41755809D01*
X206080147Y-41797570D01*
X206083450Y-42386256D01*
X206166000Y-42401598D01*
X206280082Y-42421246D01*
X206415196Y-42441884D01*
X206567017Y-42462986D01*
X206731222Y-42484029D01*
X206903487Y-42504491D01*
X207079487Y-42523846D01*
X207254899Y-42541573D01*
X207425400Y-42557146D01*
X207505850Y-42563833D01*
X207659361Y-42575564D01*
X207792508Y-42584330D01*
X207910141Y-42590236D01*
X208017108Y-42593387D01*
X208118260Y-42593891D01*
X208218447Y-42591851D01*
X208322516Y-42587373D01*
X208394850Y-42583187D01*
X208718997Y-42553536D01*
X209025275Y-42506167D01*
X209314230Y-42440858D01*
X209586408Y-42357385D01*
X209842353Y-42255524D01*
X210082613Y-42135052D01*
X210307734Y-41995745D01*
X210518260Y-41837381D01*
X210714738Y-41659736D01*
X210757901Y-41616227D01*
X210922437Y-41430659D01*
X211067085Y-41232494D01*
X211192180Y-41020916D01*
X211298056Y-40795105D01*
X211385047Y-40554245D01*
X211453486Y-40297519D01*
X211469814Y-40208626D01*
X212827744Y-40208626D01*
X212828496Y-40265647D01*
X212832953Y-40307543D01*
X212843299Y-40344542D01*
X212861717Y-40386873D01*
X212868958Y-40401768D01*
X212925194Y-40489144D01*
X212997285Y-40558514D01*
X213081918Y-40608538D01*
X213175784Y-40637879D01*
X213275572Y-40645200D01*
X213377970Y-40629161D01*
X213408314Y-40619729D01*
X213492054Y-40577779D01*
X213564976Y-40516294D01*
X213624237Y-40439856D01*
X213666994Y-40353046D01*
X213690403Y-40260445D01*
X213691622Y-40166634D01*
X213691279Y-40163790D01*
X213667256Y-40068922D01*
X213621692Y-39979378D01*
X213558443Y-39900428D01*
X213481370Y-39837343D01*
X213432631Y-39810457D01*
X213370473Y-39791384D01*
X213294469Y-39782153D01*
X213214183Y-39782758D01*
X213139182Y-39793194D01*
X213084741Y-39810690D01*
X213014731Y-39853397D01*
X212947459Y-39912865D01*
X212891104Y-39981048D01*
X212862849Y-40028994D01*
X212844637Y-40071146D01*
X212834000Y-40110430D01*
X212829003Y-40156759D01*
X212827744Y-40208626D01*
X211469814Y-40208626D01*
X211503707Y-40024110D01*
X211536045Y-39733199D01*
X211538045Y-39706750D01*
X211539420Y-39678150D01*
X211540700Y-39631181D01*
X211541886Y-39565482D01*
X211542979Y-39480694D01*
X211543979Y-39376459D01*
X211544888Y-39252417D01*
X211545705Y-39108210D01*
X211546432Y-38943478D01*
X211547069Y-38757862D01*
X211547618Y-38551003D01*
X211547685Y-38517304D01*
X214274076Y-38517304D01*
X214274500Y-38601288D01*
X214286675Y-38678714D01*
X214302282Y-38724054D01*
X214354145Y-38808080D01*
X214425101Y-38880573D01*
X214509852Y-38937092D01*
X214597902Y-38971834D01*
X214658957Y-38984762D01*
X214713964Y-38986821D01*
X214774577Y-38977894D01*
X214808856Y-38969732D01*
X214905558Y-38932600D01*
X214987825Y-38876267D01*
X215053725Y-38803642D01*
X215101324Y-38717635D01*
X215128689Y-38621156D01*
X215133888Y-38517113D01*
X215130864Y-38485076D01*
X215106562Y-38391586D01*
X215060149Y-38305192D01*
X214994739Y-38230028D01*
X214913447Y-38170226D01*
X214880695Y-38153161D01*
X214837849Y-38135229D01*
X214797978Y-38124874D01*
X214751048Y-38120212D01*
X214700400Y-38119318D01*
X214641442Y-38120663D01*
X214597984Y-38125898D01*
X214560197Y-38136951D01*
X214520521Y-38154640D01*
X214433952Y-38209895D01*
X214361457Y-38282135D01*
X214308250Y-38366155D01*
X214307897Y-38366900D01*
X214285257Y-38436072D01*
X214274076Y-38517304D01*
X211547685Y-38517304D01*
X211548079Y-38322543D01*
X211548452Y-38072122D01*
X211548740Y-37799381D01*
X211548941Y-37503961D01*
X211549057Y-37185503D01*
X211549085Y-36887082D01*
X212827274Y-36887082D01*
X212829092Y-36946758D01*
X212835930Y-36992728D01*
X212850125Y-37036544D01*
X212863919Y-37068292D01*
X212917444Y-37156348D01*
X212986968Y-37226963D01*
X213068976Y-37278886D01*
X213159951Y-37310864D01*
X213256375Y-37321647D01*
X213354733Y-37309982D01*
X213448196Y-37276264D01*
X213536191Y-37220019D01*
X213606362Y-37146178D01*
X213656925Y-37060324D01*
X213675487Y-37014379D01*
X213685787Y-36970101D01*
X213689953Y-36916471D01*
X213690392Y-36887082D01*
X213689241Y-36830600D01*
X213683668Y-36788249D01*
X213671203Y-36748838D01*
X213649376Y-36701173D01*
X213649352Y-36701124D01*
X213593171Y-36612213D01*
X213520537Y-36541961D01*
X213431924Y-36489374D01*
X213345747Y-36462166D01*
X213251551Y-36454087D01*
X213158030Y-36465135D01*
X213085975Y-36489374D01*
X212995084Y-36543695D01*
X212922942Y-36614438D01*
X212868547Y-36701124D01*
X212846656Y-36748977D01*
X212834144Y-36788663D01*
X212828516Y-36831426D01*
X212827274Y-36887082D01*
X211549085Y-36887082D01*
X211549090Y-36843648D01*
X211549039Y-36478037D01*
X211548905Y-36088311D01*
X211548690Y-35674111D01*
X211548393Y-35235077D01*
X211548364Y-35197854D01*
X216063709Y-35197854D01*
X216066762Y-35281878D01*
X216081368Y-35360497D01*
X216098597Y-35407800D01*
X216134755Y-35468356D01*
X216183216Y-35527772D01*
X216236698Y-35578053D01*
X216280793Y-35607709D01*
X216380416Y-35645988D01*
X216483211Y-35659577D01*
X216586282Y-35648441D01*
X216686733Y-35612546D01*
X216686898Y-35612465D01*
X216775531Y-35555850D01*
X216844445Y-35483616D01*
X216892811Y-35397119D01*
X216919801Y-35297718D01*
X216925534Y-35220932D01*
X216914085Y-35123080D01*
X216881367Y-35033341D01*
X216830444Y-34954150D01*
X216764382Y-34887943D01*
X216686245Y-34837155D01*
X216599098Y-34804222D01*
X216506006Y-34791579D01*
X216410034Y-34801663D01*
X216400778Y-34803917D01*
X216296603Y-34842269D01*
X216208577Y-34899307D01*
X216138092Y-34973916D01*
X216092858Y-35050645D01*
X216072358Y-35117688D01*
X216063709Y-35197854D01*
X211548364Y-35197854D01*
X211548185Y-34969650D01*
X211547029Y-33562144D01*
X212823972Y-33562144D01*
X212833297Y-33656608D01*
X212864500Y-33747705D01*
X212894742Y-33800027D01*
X212949497Y-33869612D01*
X213008852Y-33921047D01*
X213081197Y-33961297D01*
X213097688Y-33968502D01*
X213141482Y-33984835D01*
X213181535Y-33993366D01*
X213228530Y-33995688D01*
X213271650Y-33994455D01*
X213363204Y-33984244D01*
X213432631Y-33963372D01*
X213514207Y-33913788D01*
X213585012Y-33845058D01*
X213641155Y-33762484D01*
X213678743Y-33671371D01*
X213691279Y-33610909D01*
X213690889Y-33531476D01*
X213673057Y-33446962D01*
X213640714Y-33364557D01*
X213596794Y-33291449D01*
X213544225Y-33234829D01*
X213534985Y-33227615D01*
X213476977Y-33188098D01*
X213425253Y-33162452D01*
X213371056Y-33147927D01*
X213305631Y-33141775D01*
X213258950Y-33140960D01*
X213196222Y-33141785D01*
X213151195Y-33145220D01*
X213116205Y-33152514D01*
X213083591Y-33164914D01*
X213068781Y-33171934D01*
X212984461Y-33226398D01*
X212916771Y-33296440D01*
X212866759Y-33378271D01*
X212835476Y-33468102D01*
X212823972Y-33562144D01*
X211547029Y-33562144D01*
X211545665Y-31901591D01*
X214268337Y-31901591D01*
X214278307Y-31997357D01*
X214310545Y-32090604D01*
X214351275Y-32158726D01*
X214408756Y-32221628D01*
X214480681Y-32276304D01*
X214556447Y-32314717D01*
X214557685Y-32315175D01*
X214621232Y-32329602D01*
X214697689Y-32333602D01*
X214776929Y-32327450D01*
X214848825Y-32311421D01*
X214861754Y-32306934D01*
X214936676Y-32267289D01*
X215006654Y-32209099D01*
X215064901Y-32139152D01*
X215104629Y-32064236D01*
X215104734Y-32063954D01*
X215129566Y-31964160D01*
X215131348Y-31864174D01*
X215111517Y-31767743D01*
X215071507Y-31678611D01*
X215012753Y-31600524D01*
X214936692Y-31537228D01*
X214893473Y-31512714D01*
X214855304Y-31495443D01*
X214821180Y-31484847D01*
X214782613Y-31479370D01*
X214731114Y-31477457D01*
X214700400Y-31477347D01*
X214637625Y-31478577D01*
X214592297Y-31482884D01*
X214556526Y-31491555D01*
X214522422Y-31505877D01*
X214520871Y-31506640D01*
X214433060Y-31562860D01*
X214362997Y-31633942D01*
X214311586Y-31716408D01*
X214279731Y-31806783D01*
X214268337Y-31901591D01*
X211545665Y-31901591D01*
X211544450Y-30423050D01*
X209598175Y-30419834D01*
X207651900Y-30416619D01*
X207651900Y-31369080D01*
X210261750Y-31375550D01*
X210261750Y-35280800D01*
X210261748Y-35660440D01*
X210261738Y-36015595D01*
X210261707Y-36347180D01*
X210261646Y-36656111D01*
X210261544Y-36943301D01*
X210261390Y-37209665D01*
X210261174Y-37456120D01*
X210260886Y-37683579D01*
X210260515Y-37892958D01*
X210260050Y-38085172D01*
X210259480Y-38261135D01*
X210258797Y-38421762D01*
X210257988Y-38567970D01*
X210257043Y-38700671D01*
X210255952Y-38820783D01*
X210254704Y-38929218D01*
X210253290Y-39026893D01*
X210251697Y-39114722D01*
X210249916Y-39193621D01*
X210247936Y-39264503D01*
X210245747Y-39328285D01*
X210243338Y-39385881D01*
X210240699Y-39438206D01*
X210237819Y-39486176D01*
X210234687Y-39530704D01*
X210231293Y-39572706D01*
X210227627Y-39613097D01*
X210223678Y-39652792D01*
X210219436Y-39692706D01*
X210214889Y-39733754D01*
X210210057Y-39776600D01*
X210180770Y-39987203D01*
X210142378Y-40177092D01*
X210093762Y-40349665D01*
X210033805Y-40508319D01*
X209961391Y-40656450D01*
X209875403Y-40797457D01*
X209873435Y-40800378D01*
X209767096Y-40935538D01*
X209639342Y-41058202D01*
X209491155Y-41167862D01*
X209323514Y-41264009D01*
X209137400Y-41346132D01*
X208933792Y-41413724D01*
X208713672Y-41466274D01*
X208534550Y-41496029D01*
X208201257Y-41529110D01*
X207863318Y-41538134D01*
X207523750Y-41523264D01*
X207185573Y-41484660D01*
X206851804Y-41422482D01*
X206763136Y-41401747D01*
X206712923Y-41389050D01*
X206647860Y-41371950D01*
X206572180Y-41351625D01*
X206490118Y-41329253D01*
X206405910Y-41306012D01*
X206323791Y-41283079D01*
X206247996Y-41261633D01*
X206182760Y-41242850D01*
X206132317Y-41227909D01*
X206100903Y-41217988D01*
X206095804Y-41216160D01*
X206091350Y-41216804D01*
X206087679Y-41223837D01*
X206084738Y-41239306D01*
X206082470Y-41265258D01*
X206080820Y-41303742D01*
X206079734Y-41356805D01*
X206079155Y-41426495D01*
X206079030Y-41514861D01*
X205723776Y-41514861D01*
X205721336Y-40818000D01*
X205878179Y-40818000D01*
X205953954Y-40818984D01*
X206011249Y-40822449D01*
X206056926Y-40829163D01*
X206097847Y-40839894D01*
X206110036Y-40843947D01*
X206165363Y-40862030D01*
X206240415Y-40885029D01*
X206330311Y-40911557D01*
X206430169Y-40940226D01*
X206535110Y-40969651D01*
X206640251Y-40998444D01*
X206740713Y-41025218D01*
X206820050Y-41045674D01*
X206978845Y-41083778D01*
X207125479Y-41114186D01*
X207265569Y-41137495D01*
X207404733Y-41154302D01*
X207548591Y-41165203D01*
X207702760Y-41170794D01*
X207872859Y-41171671D01*
X207991960Y-41170048D01*
X208209953Y-41162304D01*
X208406019Y-41147624D01*
X208582815Y-41125452D01*
X208742997Y-41095236D01*
X208889225Y-41056421D01*
X209024154Y-41008455D01*
X209150442Y-40950782D01*
X209217272Y-40914672D01*
X209341163Y-40835642D01*
X209445715Y-40749497D01*
X209535264Y-40651569D01*
X209614146Y-40537191D01*
X209678998Y-40417561D01*
X209725297Y-40311201D01*
X209765416Y-40192557D01*
X209799788Y-40059444D01*
X209828841Y-39909679D01*
X209853007Y-39741080D01*
X209872717Y-39551461D01*
X209886808Y-39364066D01*
X209888222Y-39328736D01*
X209889560Y-39268319D01*
X209890821Y-39183130D01*
X209892004Y-39073482D01*
X209893108Y-38939688D01*
X209894131Y-38782063D01*
X209895073Y-38600920D01*
X209895933Y-38396573D01*
X209896709Y-38169335D01*
X209897401Y-37919520D01*
X209898008Y-37647441D01*
X209898528Y-37353413D01*
X209898961Y-37037749D01*
X209899305Y-36700763D01*
X209899560Y-36342768D01*
X209899724Y-35964077D01*
X209899796Y-35565006D01*
X209899800Y-35449291D01*
X209899800Y-31737500D01*
X207296300Y-31737500D01*
X207296300Y-30061100D01*
X215062350Y-30061356D01*
D14*
%TO.C,C1*%
X190010000Y-64896267D02*
X190010000Y-64603733D01*
X188990000Y-64896267D02*
X188990000Y-64603733D01*
%TO.C,C2*%
X182353733Y-86260000D02*
X182646267Y-86260000D01*
X182353733Y-85240000D02*
X182646267Y-85240000D01*
%TO.C,C3*%
X184510000Y-64396267D02*
X184510000Y-64103733D01*
X183490000Y-64396267D02*
X183490000Y-64103733D01*
%TO.C,C4*%
X171853733Y-86260000D02*
X172146267Y-86260000D01*
X171853733Y-85240000D02*
X172146267Y-85240000D01*
%TO.C,C5*%
X187260000Y-84353733D02*
X187260000Y-84646267D01*
X186240000Y-84353733D02*
X186240000Y-84646267D01*
%TO.C,C7*%
X190490000Y-64896267D02*
X190490000Y-64603733D01*
X191510000Y-64896267D02*
X191510000Y-64603733D01*
%TO.C,C8*%
X194353733Y-76740000D02*
X194646267Y-76740000D01*
X194353733Y-77760000D02*
X194646267Y-77760000D01*
%TO.C,C10*%
X193353733Y-72760000D02*
X193646267Y-72760000D01*
X193353733Y-71740000D02*
X193646267Y-71740000D01*
%TO.C,C11*%
X218760000Y-56853733D02*
X218760000Y-57146267D01*
X217740000Y-56853733D02*
X217740000Y-57146267D01*
%TO.C,C12*%
X184990000Y-64396267D02*
X184990000Y-64103733D01*
X186010000Y-64396267D02*
X186010000Y-64103733D01*
%TO.C,C13*%
X215740000Y-56853733D02*
X215740000Y-57146267D01*
X216760000Y-56853733D02*
X216760000Y-57146267D01*
%TO.C,C14*%
X187010000Y-67896267D02*
X187010000Y-67603733D01*
X185990000Y-67896267D02*
X185990000Y-67603733D01*
%TO.C,C15*%
X188990000Y-68396267D02*
X188990000Y-68103733D01*
X190010000Y-68396267D02*
X190010000Y-68103733D01*
%TO.C,C16*%
X191510000Y-68396267D02*
X191510000Y-68103733D01*
X190490000Y-68396267D02*
X190490000Y-68103733D01*
%TO.C,C17*%
X185760000Y-84353733D02*
X185760000Y-84646267D01*
X184740000Y-84353733D02*
X184740000Y-84646267D01*
%TO.C,C18*%
X210103733Y-48990000D02*
X210396267Y-48990000D01*
X210103733Y-50010000D02*
X210396267Y-50010000D01*
%TO.C,C19*%
X178646267Y-76740000D02*
X178353733Y-76740000D01*
X178646267Y-77760000D02*
X178353733Y-77760000D01*
%TO.C,C20*%
X222353733Y-50010000D02*
X222646267Y-50010000D01*
X222353733Y-48990000D02*
X222646267Y-48990000D01*
%TO.C,C21*%
X179396267Y-72760000D02*
X179103733Y-72760000D01*
X179396267Y-71740000D02*
X179103733Y-71740000D01*
%TO.C,C22*%
X216603733Y-50010000D02*
X216896267Y-50010000D01*
X216603733Y-48990000D02*
X216896267Y-48990000D01*
%TO.C,C23*%
X228853733Y-48990000D02*
X229146267Y-48990000D01*
X228853733Y-50010000D02*
X229146267Y-50010000D01*
%TO.C,C24*%
X193010000Y-68396267D02*
X193010000Y-68103733D01*
X191990000Y-68396267D02*
X191990000Y-68103733D01*
%TO.C,C25*%
X212765000Y-46488748D02*
X212765000Y-47011252D01*
X214235000Y-46488748D02*
X214235000Y-47011252D01*
%TO.C,C26*%
X226485000Y-46488748D02*
X226485000Y-47011252D01*
X225015000Y-46488748D02*
X225015000Y-47011252D01*
%TO.C,C27*%
X179396267Y-59510000D02*
X179103733Y-59510000D01*
X179396267Y-58490000D02*
X179103733Y-58490000D01*
%TO.C,C28*%
X202396267Y-92510000D02*
X202103733Y-92510000D01*
X202396267Y-91490000D02*
X202103733Y-91490000D01*
%TO.C,C29*%
X202396267Y-87010000D02*
X202103733Y-87010000D01*
X202396267Y-85990000D02*
X202103733Y-85990000D01*
%TO.C,C30*%
X202396267Y-80490000D02*
X202103733Y-80490000D01*
X202396267Y-81510000D02*
X202103733Y-81510000D01*
%TO.C,C31*%
X202396267Y-76010000D02*
X202103733Y-76010000D01*
X202396267Y-74990000D02*
X202103733Y-74990000D01*
%TO.C,C32*%
X202396267Y-69490000D02*
X202103733Y-69490000D01*
X202396267Y-70510000D02*
X202103733Y-70510000D01*
%TO.C,C33*%
X202396267Y-65010000D02*
X202103733Y-65010000D01*
X202396267Y-63990000D02*
X202103733Y-63990000D01*
%TO.C,C34*%
X202396267Y-58490000D02*
X202103733Y-58490000D01*
X202396267Y-59510000D02*
X202103733Y-59510000D01*
%TO.C,FB1*%
X217078733Y-54760000D02*
X217421267Y-54760000D01*
X217078733Y-53740000D02*
X217421267Y-53740000D01*
%TO.C,J1*%
X196250000Y-46820000D02*
X195750000Y-46320000D01*
X195250000Y-46820000D02*
X196250000Y-46820000D01*
X195750000Y-46320000D02*
X195250000Y-46820000D01*
X203160000Y-29380000D02*
X203160000Y-37740000D01*
X190840000Y-29380000D02*
X203160000Y-29380000D01*
X190840000Y-37740000D02*
X190840000Y-29380000D01*
X203160000Y-46100000D02*
X203160000Y-41840000D01*
X190840000Y-46100000D02*
X203160000Y-46100000D01*
X190840000Y-41840000D02*
X190840000Y-46100000D01*
%TO.C,J2*%
X171950000Y-66000000D02*
X170550000Y-66000000D01*
X169850000Y-65300000D02*
X169850000Y-64700000D01*
X170550000Y-64000000D02*
X171950000Y-64000000D01*
X172650000Y-64700000D02*
X172650000Y-65300000D01*
X170550000Y-66000000D02*
G75*
G02*
X169850000Y-65300000I0J700000D01*
G01*
X169850000Y-64700000D02*
G75*
G02*
X170550000Y-64000000I700000J0D01*
G01*
X171950000Y-64000000D02*
G75*
G02*
X172650000Y-64700000I0J-700000D01*
G01*
X172650000Y-65300000D02*
G75*
G02*
X171950000Y-66000000I-700000J0D01*
G01*
%TO.C,J3*%
X183170000Y-91580000D02*
X183170000Y-90250000D01*
X184500000Y-91580000D02*
X183170000Y-91580000D01*
X185770000Y-91580000D02*
X185770000Y-88920000D01*
X185770000Y-88920000D02*
X193450000Y-88920000D01*
X185770000Y-91580000D02*
X193450000Y-91580000D01*
X193450000Y-91580000D02*
X193450000Y-88920000D01*
D12*
%TO.C,J4*%
X219000000Y-40250000D02*
X219000000Y-32500000D01*
X219000000Y-32500000D02*
X219250000Y-32500000D01*
X219000000Y-40250000D02*
X220000000Y-40250000D01*
X223000000Y-40250000D02*
X224000000Y-40250000D01*
X224000000Y-40250000D02*
X224000000Y-32500000D01*
X224000000Y-32500000D02*
X223500000Y-32500000D01*
X223500000Y-32500000D02*
X223500000Y-29500000D01*
X223500000Y-29500000D02*
X219250000Y-29500000D01*
X219250000Y-29500000D02*
X219250000Y-32500000D01*
%TO.C,J5*%
X179282500Y-51000000D02*
X163072500Y-51000000D01*
X179282500Y-35500000D02*
X163072500Y-35500000D01*
X179282500Y-29360000D02*
X163072500Y-29360000D01*
X163072500Y-51000000D02*
X163072500Y-29360000D01*
X179282500Y-51000000D02*
X179282500Y-29360000D01*
D14*
%TO.C,R1*%
X178495276Y-86272500D02*
X179004724Y-86272500D01*
X178495276Y-85227500D02*
X179004724Y-85227500D01*
%TO.C,R2*%
X187485000Y-60977064D02*
X187485000Y-60522936D01*
X186015000Y-60977064D02*
X186015000Y-60522936D01*
%TO.C,R3*%
X188015000Y-60977064D02*
X188015000Y-60522936D01*
X189485000Y-60977064D02*
X189485000Y-60522936D01*
%TO.C,R4*%
X189227500Y-84754724D02*
X189227500Y-84245276D01*
X190272500Y-84754724D02*
X190272500Y-84245276D01*
%TO.C,R5*%
X191772500Y-84754724D02*
X191772500Y-84245276D01*
X190727500Y-84754724D02*
X190727500Y-84245276D01*
%TO.C,R6*%
X214235000Y-50522936D02*
X214235000Y-50977064D01*
X212765000Y-50522936D02*
X212765000Y-50977064D01*
%TO.C,R7*%
X225015000Y-50522936D02*
X225015000Y-50977064D01*
X226485000Y-50522936D02*
X226485000Y-50977064D01*
%TO.C,R8*%
X171504724Y-61977500D02*
X170995276Y-61977500D01*
X171504724Y-63022500D02*
X170995276Y-63022500D01*
%TO.C,R9*%
X216522936Y-48485000D02*
X216977064Y-48485000D01*
X216522936Y-47015000D02*
X216977064Y-47015000D01*
%TO.C,R10*%
X228772936Y-47015000D02*
X229227064Y-47015000D01*
X228772936Y-48485000D02*
X229227064Y-48485000D01*
%TO.C,R11*%
X170995276Y-60227500D02*
X171504724Y-60227500D01*
X170995276Y-61272500D02*
X171504724Y-61272500D01*
%TO.C,R12*%
X216522936Y-45015000D02*
X216977064Y-45015000D01*
X216522936Y-46485000D02*
X216977064Y-46485000D01*
%TO.C,R13*%
X228772936Y-46485000D02*
X229227064Y-46485000D01*
X228772936Y-45015000D02*
X229227064Y-45015000D01*
%TO.C,R14*%
X165995276Y-69772500D02*
X166504724Y-69772500D01*
X165995276Y-68727500D02*
X166504724Y-68727500D01*
%TO.C,R15*%
X169495276Y-70772500D02*
X170004724Y-70772500D01*
X169495276Y-69727500D02*
X170004724Y-69727500D01*
%TO.C,R16*%
X165995276Y-70727500D02*
X166504724Y-70727500D01*
X165995276Y-71772500D02*
X166504724Y-71772500D01*
%TO.C,R17*%
X169495276Y-72772500D02*
X170004724Y-72772500D01*
X169495276Y-71727500D02*
X170004724Y-71727500D01*
%TO.C,R18*%
X165995276Y-72727500D02*
X166504724Y-72727500D01*
X165995276Y-73772500D02*
X166504724Y-73772500D01*
%TO.C,R19*%
X169495276Y-74772500D02*
X170004724Y-74772500D01*
X169495276Y-73727500D02*
X170004724Y-73727500D01*
%TO.C,R20*%
X165995276Y-74727500D02*
X166504724Y-74727500D01*
X165995276Y-75772500D02*
X166504724Y-75772500D01*
%TO.C,R21*%
X169495276Y-76772500D02*
X170004724Y-76772500D01*
X169495276Y-75727500D02*
X170004724Y-75727500D01*
%TO.C,R22*%
X165995276Y-76727500D02*
X166504724Y-76727500D01*
X165995276Y-77772500D02*
X166504724Y-77772500D01*
%TO.C,R23*%
X169495276Y-78772500D02*
X170004724Y-78772500D01*
X169495276Y-77727500D02*
X170004724Y-77727500D01*
%TO.C,R24*%
X165995276Y-78727500D02*
X166504724Y-78727500D01*
X165995276Y-79772500D02*
X166504724Y-79772500D01*
%TO.C,R25*%
X169495276Y-80772500D02*
X170004724Y-80772500D01*
X169495276Y-79727500D02*
X170004724Y-79727500D01*
%TO.C,R26*%
X165995276Y-80727500D02*
X166504724Y-80727500D01*
X165995276Y-81772500D02*
X166504724Y-81772500D01*
%TO.C,R27*%
X169495276Y-82772500D02*
X170004724Y-82772500D01*
X169495276Y-81727500D02*
X170004724Y-81727500D01*
%TO.C,R28*%
X165995276Y-82727500D02*
X166504724Y-82727500D01*
X165995276Y-83772500D02*
X166504724Y-83772500D01*
%TO.C,R29*%
X169495276Y-84772500D02*
X170004724Y-84772500D01*
X169495276Y-83727500D02*
X170004724Y-83727500D01*
%TO.C,R30*%
X201995276Y-94477500D02*
X202504724Y-94477500D01*
X201995276Y-95522500D02*
X202504724Y-95522500D01*
%TO.C,R31*%
X201995276Y-88977500D02*
X202504724Y-88977500D01*
X201995276Y-90022500D02*
X202504724Y-90022500D01*
%TO.C,R32*%
X201995276Y-83477500D02*
X202504724Y-83477500D01*
X201995276Y-84522500D02*
X202504724Y-84522500D01*
%TO.C,R33*%
X201995276Y-79022500D02*
X202504724Y-79022500D01*
X201995276Y-77977500D02*
X202504724Y-77977500D01*
%TO.C,R34*%
X201995276Y-72477500D02*
X202504724Y-72477500D01*
X201995276Y-73522500D02*
X202504724Y-73522500D01*
%TO.C,R35*%
X201995276Y-68022500D02*
X202504724Y-68022500D01*
X201995276Y-66977500D02*
X202504724Y-66977500D01*
%TO.C,R36*%
X201995276Y-62522500D02*
X202504724Y-62522500D01*
X201995276Y-61477500D02*
X202504724Y-61477500D01*
%TO.C,R37*%
X202504724Y-94022500D02*
X201995276Y-94022500D01*
X202504724Y-92977500D02*
X201995276Y-92977500D01*
%TO.C,R38*%
X202504724Y-87477500D02*
X201995276Y-87477500D01*
X202504724Y-88522500D02*
X201995276Y-88522500D01*
%TO.C,R39*%
X202504724Y-83022500D02*
X201995276Y-83022500D01*
X202504724Y-81977500D02*
X201995276Y-81977500D01*
%TO.C,R40*%
X202504724Y-76477500D02*
X201995276Y-76477500D01*
X202504724Y-77522500D02*
X201995276Y-77522500D01*
%TO.C,R41*%
X202504724Y-72022500D02*
X201995276Y-72022500D01*
X202504724Y-70977500D02*
X201995276Y-70977500D01*
%TO.C,R42*%
X202504724Y-65477500D02*
X201995276Y-65477500D01*
X202504724Y-66522500D02*
X201995276Y-66522500D01*
%TO.C,R43*%
X202504724Y-61022500D02*
X201995276Y-61022500D01*
X202504724Y-59977500D02*
X201995276Y-59977500D01*
%TO.C,SW1*%
X204890000Y-91790000D02*
X204890000Y-95810000D01*
X204890000Y-95810000D02*
X212610000Y-95810000D01*
X212610000Y-95810000D02*
X212610000Y-91790000D01*
X212610000Y-91790000D02*
X204890000Y-91790000D01*
X204890000Y-93500000D02*
X205390000Y-93500000D01*
X205390000Y-93500000D02*
X205390000Y-92290000D01*
X205390000Y-92290000D02*
X212110000Y-92290000D01*
X212110000Y-92290000D02*
X212110000Y-93500000D01*
X212110000Y-93500000D02*
X212610000Y-93500000D01*
X204890000Y-94310000D02*
X205890000Y-94310000D01*
X205890000Y-94310000D02*
X205890000Y-95810000D01*
X212610000Y-94310000D02*
X211610000Y-94310000D01*
X211610000Y-94310000D02*
X211610000Y-95810000D01*
X204590000Y-93610000D02*
X204590000Y-96110000D01*
X204590000Y-96110000D02*
X207090000Y-96110000D01*
%TO.C,SW2*%
X204890000Y-86290000D02*
X204890000Y-90310000D01*
X204890000Y-90310000D02*
X212610000Y-90310000D01*
X212610000Y-90310000D02*
X212610000Y-86290000D01*
X212610000Y-86290000D02*
X204890000Y-86290000D01*
X204890000Y-88000000D02*
X205390000Y-88000000D01*
X205390000Y-88000000D02*
X205390000Y-86790000D01*
X205390000Y-86790000D02*
X212110000Y-86790000D01*
X212110000Y-86790000D02*
X212110000Y-88000000D01*
X212110000Y-88000000D02*
X212610000Y-88000000D01*
X204890000Y-88810000D02*
X205890000Y-88810000D01*
X205890000Y-88810000D02*
X205890000Y-90310000D01*
X212610000Y-88810000D02*
X211610000Y-88810000D01*
X211610000Y-88810000D02*
X211610000Y-90310000D01*
X204590000Y-88110000D02*
X204590000Y-90610000D01*
X204590000Y-90610000D02*
X207090000Y-90610000D01*
%TO.C,SW3*%
X204590000Y-85110000D02*
X207090000Y-85110000D01*
X204590000Y-82610000D02*
X204590000Y-85110000D01*
X211610000Y-83310000D02*
X211610000Y-84810000D01*
X212610000Y-83310000D02*
X211610000Y-83310000D01*
X205890000Y-83310000D02*
X205890000Y-84810000D01*
X204890000Y-83310000D02*
X205890000Y-83310000D01*
X212110000Y-82500000D02*
X212610000Y-82500000D01*
X212110000Y-81290000D02*
X212110000Y-82500000D01*
X205390000Y-81290000D02*
X212110000Y-81290000D01*
X205390000Y-82500000D02*
X205390000Y-81290000D01*
X204890000Y-82500000D02*
X205390000Y-82500000D01*
X212610000Y-80790000D02*
X204890000Y-80790000D01*
X212610000Y-84810000D02*
X212610000Y-80790000D01*
X204890000Y-84810000D02*
X212610000Y-84810000D01*
X204890000Y-80790000D02*
X204890000Y-84810000D01*
%TO.C,SW4*%
X204590000Y-79610000D02*
X207090000Y-79610000D01*
X204590000Y-77110000D02*
X204590000Y-79610000D01*
X211610000Y-77810000D02*
X211610000Y-79310000D01*
X212610000Y-77810000D02*
X211610000Y-77810000D01*
X205890000Y-77810000D02*
X205890000Y-79310000D01*
X204890000Y-77810000D02*
X205890000Y-77810000D01*
X212110000Y-77000000D02*
X212610000Y-77000000D01*
X212110000Y-75790000D02*
X212110000Y-77000000D01*
X205390000Y-75790000D02*
X212110000Y-75790000D01*
X205390000Y-77000000D02*
X205390000Y-75790000D01*
X204890000Y-77000000D02*
X205390000Y-77000000D01*
X212610000Y-75290000D02*
X204890000Y-75290000D01*
X212610000Y-79310000D02*
X212610000Y-75290000D01*
X204890000Y-79310000D02*
X212610000Y-79310000D01*
X204890000Y-75290000D02*
X204890000Y-79310000D01*
%TO.C,SW5*%
X204890000Y-69790000D02*
X204890000Y-73810000D01*
X204890000Y-73810000D02*
X212610000Y-73810000D01*
X212610000Y-73810000D02*
X212610000Y-69790000D01*
X212610000Y-69790000D02*
X204890000Y-69790000D01*
X204890000Y-71500000D02*
X205390000Y-71500000D01*
X205390000Y-71500000D02*
X205390000Y-70290000D01*
X205390000Y-70290000D02*
X212110000Y-70290000D01*
X212110000Y-70290000D02*
X212110000Y-71500000D01*
X212110000Y-71500000D02*
X212610000Y-71500000D01*
X204890000Y-72310000D02*
X205890000Y-72310000D01*
X205890000Y-72310000D02*
X205890000Y-73810000D01*
X212610000Y-72310000D02*
X211610000Y-72310000D01*
X211610000Y-72310000D02*
X211610000Y-73810000D01*
X204590000Y-71610000D02*
X204590000Y-74110000D01*
X204590000Y-74110000D02*
X207090000Y-74110000D01*
%TO.C,SW6*%
X204590000Y-68610000D02*
X207090000Y-68610000D01*
X204590000Y-66110000D02*
X204590000Y-68610000D01*
X211610000Y-66810000D02*
X211610000Y-68310000D01*
X212610000Y-66810000D02*
X211610000Y-66810000D01*
X205890000Y-66810000D02*
X205890000Y-68310000D01*
X204890000Y-66810000D02*
X205890000Y-66810000D01*
X212110000Y-66000000D02*
X212610000Y-66000000D01*
X212110000Y-64790000D02*
X212110000Y-66000000D01*
X205390000Y-64790000D02*
X212110000Y-64790000D01*
X205390000Y-66000000D02*
X205390000Y-64790000D01*
X204890000Y-66000000D02*
X205390000Y-66000000D01*
X212610000Y-64290000D02*
X204890000Y-64290000D01*
X212610000Y-68310000D02*
X212610000Y-64290000D01*
X204890000Y-68310000D02*
X212610000Y-68310000D01*
X204890000Y-64290000D02*
X204890000Y-68310000D01*
%TO.C,SW7*%
X204590000Y-63110000D02*
X207090000Y-63110000D01*
X204590000Y-60610000D02*
X204590000Y-63110000D01*
X211610000Y-61310000D02*
X211610000Y-62810000D01*
X212610000Y-61310000D02*
X211610000Y-61310000D01*
X205890000Y-61310000D02*
X205890000Y-62810000D01*
X204890000Y-61310000D02*
X205890000Y-61310000D01*
X212110000Y-60500000D02*
X212610000Y-60500000D01*
X212110000Y-59290000D02*
X212110000Y-60500000D01*
X205390000Y-59290000D02*
X212110000Y-59290000D01*
X205390000Y-60500000D02*
X205390000Y-59290000D01*
X204890000Y-60500000D02*
X205390000Y-60500000D01*
X212610000Y-58790000D02*
X204890000Y-58790000D01*
X212610000Y-62810000D02*
X212610000Y-58790000D01*
X204890000Y-62810000D02*
X212610000Y-62810000D01*
X204890000Y-58790000D02*
X204890000Y-62810000D01*
%TO.C,U3*%
X208740000Y-52620000D02*
X208740000Y-55050000D01*
X211810000Y-54380000D02*
X211810000Y-52620000D01*
%TO.C,U4*%
X224060000Y-54380000D02*
X224060000Y-52620000D01*
X220990000Y-52620000D02*
X220990000Y-55050000D01*
%TO.C,U5*%
X175275000Y-60285000D02*
X173600000Y-60285000D01*
X175275000Y-60025000D02*
X175275000Y-60285000D01*
X178000000Y-60025000D02*
X175275000Y-60025000D01*
X180725000Y-60025000D02*
X180725000Y-60285000D01*
X178000000Y-60025000D02*
X180725000Y-60025000D01*
X175275000Y-65475000D02*
X175275000Y-65215000D01*
X178000000Y-65475000D02*
X175275000Y-65475000D01*
X180725000Y-65475000D02*
X180725000Y-65215000D01*
X178000000Y-65475000D02*
X180725000Y-65475000D01*
%TO.C,Y1*%
X168800000Y-91800000D02*
X181400000Y-91800000D01*
X168800000Y-86700000D02*
X168800000Y-91800000D01*
X181400000Y-86700000D02*
X168800000Y-86700000D01*
%TO.C,U2*%
X183250000Y-71725000D02*
X181937500Y-71725000D01*
X182225000Y-79775000D02*
X182225000Y-78750000D01*
X183250000Y-79775000D02*
X182225000Y-79775000D01*
X190275000Y-79775000D02*
X190275000Y-78750000D01*
X189250000Y-79775000D02*
X190275000Y-79775000D01*
X190275000Y-71725000D02*
X190275000Y-72750000D01*
X189250000Y-71725000D02*
X190275000Y-71725000D01*
%TO.C,C35*%
X195353733Y-54490000D02*
X195646267Y-54490000D01*
X195353733Y-55510000D02*
X195646267Y-55510000D01*
%TO.C,J6*%
X185390000Y-51790000D02*
X185390000Y-55810000D01*
X185390000Y-55810000D02*
X193110000Y-55810000D01*
X193110000Y-55810000D02*
X193110000Y-51790000D01*
X193110000Y-51790000D02*
X185390000Y-51790000D01*
X185390000Y-53500000D02*
X185890000Y-53500000D01*
X185890000Y-53500000D02*
X185890000Y-52290000D01*
X185890000Y-52290000D02*
X192610000Y-52290000D01*
X192610000Y-52290000D02*
X192610000Y-53500000D01*
X192610000Y-53500000D02*
X193110000Y-53500000D01*
X185390000Y-54310000D02*
X186390000Y-54310000D01*
X186390000Y-54310000D02*
X186390000Y-55810000D01*
X193110000Y-54310000D02*
X192110000Y-54310000D01*
X192110000Y-54310000D02*
X192110000Y-55810000D01*
X185090000Y-53610000D02*
X185090000Y-56110000D01*
X185090000Y-56110000D02*
X187590000Y-56110000D01*
%TO.C,Q1*%
X199550000Y-50500000D02*
X199550000Y-49450000D01*
X199550000Y-49450000D02*
X201400000Y-49450000D01*
X199550000Y-52500000D02*
X199550000Y-51500000D01*
X199570000Y-52510000D02*
X202000000Y-52510000D01*
%TO.C,R44*%
X200504724Y-53227500D02*
X199995276Y-53227500D01*
X200504724Y-54272500D02*
X199995276Y-54272500D01*
%TO.C,R45*%
X195245276Y-57022500D02*
X195754724Y-57022500D01*
X195245276Y-55977500D02*
X195754724Y-55977500D01*
%TO.C,R46*%
X203977500Y-51254724D02*
X203977500Y-50745276D01*
X205022500Y-51254724D02*
X205022500Y-50745276D01*
%TO.C,R47*%
X187727500Y-84754724D02*
X187727500Y-84245276D01*
X188772500Y-84754724D02*
X188772500Y-84245276D01*
%TO.C,U6*%
X193890000Y-50600000D02*
X193890000Y-52400000D01*
X197110000Y-52400000D02*
X197110000Y-49450000D01*
%TO.C,C1*%
D12*
X188607142Y-64916666D02*
X188654761Y-64964285D01*
X188702380Y-65107142D01*
X188702380Y-65202380D01*
X188654761Y-65345238D01*
X188559523Y-65440476D01*
X188464285Y-65488095D01*
X188273809Y-65535714D01*
X188130952Y-65535714D01*
X187940476Y-65488095D01*
X187845238Y-65440476D01*
X187750000Y-65345238D01*
X187702380Y-65202380D01*
X187702380Y-65107142D01*
X187750000Y-64964285D01*
X187797619Y-64916666D01*
X188702380Y-63964285D02*
X188702380Y-64535714D01*
X188702380Y-64250000D02*
X187702380Y-64250000D01*
X187845238Y-64345238D01*
X187940476Y-64440476D01*
X187988095Y-64535714D01*
%TO.C,C2*%
X182333333Y-84677142D02*
X182285714Y-84724761D01*
X182142857Y-84772380D01*
X182047619Y-84772380D01*
X181904761Y-84724761D01*
X181809523Y-84629523D01*
X181761904Y-84534285D01*
X181714285Y-84343809D01*
X181714285Y-84200952D01*
X181761904Y-84010476D01*
X181809523Y-83915238D01*
X181904761Y-83820000D01*
X182047619Y-83772380D01*
X182142857Y-83772380D01*
X182285714Y-83820000D01*
X182333333Y-83867619D01*
X182714285Y-83867619D02*
X182761904Y-83820000D01*
X182857142Y-83772380D01*
X183095238Y-83772380D01*
X183190476Y-83820000D01*
X183238095Y-83867619D01*
X183285714Y-83962857D01*
X183285714Y-84058095D01*
X183238095Y-84200952D01*
X182666666Y-84772380D01*
X183285714Y-84772380D01*
%TO.C,C3*%
X184357142Y-61666666D02*
X184404761Y-61714285D01*
X184452380Y-61857142D01*
X184452380Y-61952380D01*
X184404761Y-62095238D01*
X184309523Y-62190476D01*
X184214285Y-62238095D01*
X184023809Y-62285714D01*
X183880952Y-62285714D01*
X183690476Y-62238095D01*
X183595238Y-62190476D01*
X183500000Y-62095238D01*
X183452380Y-61952380D01*
X183452380Y-61857142D01*
X183500000Y-61714285D01*
X183547619Y-61666666D01*
X183452380Y-61333333D02*
X183452380Y-60714285D01*
X183833333Y-61047619D01*
X183833333Y-60904761D01*
X183880952Y-60809523D01*
X183928571Y-60761904D01*
X184023809Y-60714285D01*
X184261904Y-60714285D01*
X184357142Y-60761904D01*
X184404761Y-60809523D01*
X184452380Y-60904761D01*
X184452380Y-61190476D01*
X184404761Y-61285714D01*
X184357142Y-61333333D01*
%TO.C,C4*%
X169083333Y-86107142D02*
X169035714Y-86154761D01*
X168892857Y-86202380D01*
X168797619Y-86202380D01*
X168654761Y-86154761D01*
X168559523Y-86059523D01*
X168511904Y-85964285D01*
X168464285Y-85773809D01*
X168464285Y-85630952D01*
X168511904Y-85440476D01*
X168559523Y-85345238D01*
X168654761Y-85250000D01*
X168797619Y-85202380D01*
X168892857Y-85202380D01*
X169035714Y-85250000D01*
X169083333Y-85297619D01*
X169940476Y-85535714D02*
X169940476Y-86202380D01*
X169702380Y-85154761D02*
X169464285Y-85869047D01*
X170083333Y-85869047D01*
%TO.C,C5*%
X187107142Y-87416666D02*
X187154761Y-87464285D01*
X187202380Y-87607142D01*
X187202380Y-87702380D01*
X187154761Y-87845238D01*
X187059523Y-87940476D01*
X186964285Y-87988095D01*
X186773809Y-88035714D01*
X186630952Y-88035714D01*
X186440476Y-87988095D01*
X186345238Y-87940476D01*
X186250000Y-87845238D01*
X186202380Y-87702380D01*
X186202380Y-87607142D01*
X186250000Y-87464285D01*
X186297619Y-87416666D01*
X186202380Y-86511904D02*
X186202380Y-86988095D01*
X186678571Y-87035714D01*
X186630952Y-86988095D01*
X186583333Y-86892857D01*
X186583333Y-86654761D01*
X186630952Y-86559523D01*
X186678571Y-86511904D01*
X186773809Y-86464285D01*
X187011904Y-86464285D01*
X187107142Y-86511904D01*
X187154761Y-86559523D01*
X187202380Y-86654761D01*
X187202380Y-86892857D01*
X187154761Y-86988095D01*
X187107142Y-87035714D01*
%TO.C,C7*%
X192857142Y-64916666D02*
X192904761Y-64964285D01*
X192952380Y-65107142D01*
X192952380Y-65202380D01*
X192904761Y-65345238D01*
X192809523Y-65440476D01*
X192714285Y-65488095D01*
X192523809Y-65535714D01*
X192380952Y-65535714D01*
X192190476Y-65488095D01*
X192095238Y-65440476D01*
X192000000Y-65345238D01*
X191952380Y-65202380D01*
X191952380Y-65107142D01*
X192000000Y-64964285D01*
X192047619Y-64916666D01*
X191952380Y-64583333D02*
X191952380Y-63916666D01*
X192952380Y-64345238D01*
%TO.C,C8*%
X194333333Y-76177142D02*
X194285714Y-76224761D01*
X194142857Y-76272380D01*
X194047619Y-76272380D01*
X193904761Y-76224761D01*
X193809523Y-76129523D01*
X193761904Y-76034285D01*
X193714285Y-75843809D01*
X193714285Y-75700952D01*
X193761904Y-75510476D01*
X193809523Y-75415238D01*
X193904761Y-75320000D01*
X194047619Y-75272380D01*
X194142857Y-75272380D01*
X194285714Y-75320000D01*
X194333333Y-75367619D01*
X194904761Y-75700952D02*
X194809523Y-75653333D01*
X194761904Y-75605714D01*
X194714285Y-75510476D01*
X194714285Y-75462857D01*
X194761904Y-75367619D01*
X194809523Y-75320000D01*
X194904761Y-75272380D01*
X195095238Y-75272380D01*
X195190476Y-75320000D01*
X195238095Y-75367619D01*
X195285714Y-75462857D01*
X195285714Y-75510476D01*
X195238095Y-75605714D01*
X195190476Y-75653333D01*
X195095238Y-75700952D01*
X194904761Y-75700952D01*
X194809523Y-75748571D01*
X194761904Y-75796190D01*
X194714285Y-75891428D01*
X194714285Y-76081904D01*
X194761904Y-76177142D01*
X194809523Y-76224761D01*
X194904761Y-76272380D01*
X195095238Y-76272380D01*
X195190476Y-76224761D01*
X195238095Y-76177142D01*
X195285714Y-76081904D01*
X195285714Y-75891428D01*
X195238095Y-75796190D01*
X195190476Y-75748571D01*
X195095238Y-75700952D01*
%TO.C,C10*%
X192857142Y-71177142D02*
X192809523Y-71224761D01*
X192666666Y-71272380D01*
X192571428Y-71272380D01*
X192428571Y-71224761D01*
X192333333Y-71129523D01*
X192285714Y-71034285D01*
X192238095Y-70843809D01*
X192238095Y-70700952D01*
X192285714Y-70510476D01*
X192333333Y-70415238D01*
X192428571Y-70320000D01*
X192571428Y-70272380D01*
X192666666Y-70272380D01*
X192809523Y-70320000D01*
X192857142Y-70367619D01*
X193809523Y-71272380D02*
X193238095Y-71272380D01*
X193523809Y-71272380D02*
X193523809Y-70272380D01*
X193428571Y-70415238D01*
X193333333Y-70510476D01*
X193238095Y-70558095D01*
X194428571Y-70272380D02*
X194523809Y-70272380D01*
X194619047Y-70320000D01*
X194666666Y-70367619D01*
X194714285Y-70462857D01*
X194761904Y-70653333D01*
X194761904Y-70891428D01*
X194714285Y-71081904D01*
X194666666Y-71177142D01*
X194619047Y-71224761D01*
X194523809Y-71272380D01*
X194428571Y-71272380D01*
X194333333Y-71224761D01*
X194285714Y-71177142D01*
X194238095Y-71081904D01*
X194190476Y-70891428D01*
X194190476Y-70653333D01*
X194238095Y-70462857D01*
X194285714Y-70367619D01*
X194333333Y-70320000D01*
X194428571Y-70272380D01*
%TO.C,C11*%
X220107142Y-57642857D02*
X220154761Y-57690476D01*
X220202380Y-57833333D01*
X220202380Y-57928571D01*
X220154761Y-58071428D01*
X220059523Y-58166666D01*
X219964285Y-58214285D01*
X219773809Y-58261904D01*
X219630952Y-58261904D01*
X219440476Y-58214285D01*
X219345238Y-58166666D01*
X219250000Y-58071428D01*
X219202380Y-57928571D01*
X219202380Y-57833333D01*
X219250000Y-57690476D01*
X219297619Y-57642857D01*
X220202380Y-56690476D02*
X220202380Y-57261904D01*
X220202380Y-56976190D02*
X219202380Y-56976190D01*
X219345238Y-57071428D01*
X219440476Y-57166666D01*
X219488095Y-57261904D01*
X220202380Y-55738095D02*
X220202380Y-56309523D01*
X220202380Y-56023809D02*
X219202380Y-56023809D01*
X219345238Y-56119047D01*
X219440476Y-56214285D01*
X219488095Y-56309523D01*
%TO.C,C12*%
X187357142Y-64892857D02*
X187404761Y-64940476D01*
X187452380Y-65083333D01*
X187452380Y-65178571D01*
X187404761Y-65321428D01*
X187309523Y-65416666D01*
X187214285Y-65464285D01*
X187023809Y-65511904D01*
X186880952Y-65511904D01*
X186690476Y-65464285D01*
X186595238Y-65416666D01*
X186500000Y-65321428D01*
X186452380Y-65178571D01*
X186452380Y-65083333D01*
X186500000Y-64940476D01*
X186547619Y-64892857D01*
X187452380Y-63940476D02*
X187452380Y-64511904D01*
X187452380Y-64226190D02*
X186452380Y-64226190D01*
X186595238Y-64321428D01*
X186690476Y-64416666D01*
X186738095Y-64511904D01*
X186547619Y-63559523D02*
X186500000Y-63511904D01*
X186452380Y-63416666D01*
X186452380Y-63178571D01*
X186500000Y-63083333D01*
X186547619Y-63035714D01*
X186642857Y-62988095D01*
X186738095Y-62988095D01*
X186880952Y-63035714D01*
X187452380Y-63607142D01*
X187452380Y-62988095D01*
%TO.C,C13*%
X215107142Y-57642857D02*
X215154761Y-57690476D01*
X215202380Y-57833333D01*
X215202380Y-57928571D01*
X215154761Y-58071428D01*
X215059523Y-58166666D01*
X214964285Y-58214285D01*
X214773809Y-58261904D01*
X214630952Y-58261904D01*
X214440476Y-58214285D01*
X214345238Y-58166666D01*
X214250000Y-58071428D01*
X214202380Y-57928571D01*
X214202380Y-57833333D01*
X214250000Y-57690476D01*
X214297619Y-57642857D01*
X215202380Y-56690476D02*
X215202380Y-57261904D01*
X215202380Y-56976190D02*
X214202380Y-56976190D01*
X214345238Y-57071428D01*
X214440476Y-57166666D01*
X214488095Y-57261904D01*
X214202380Y-56357142D02*
X214202380Y-55738095D01*
X214583333Y-56071428D01*
X214583333Y-55928571D01*
X214630952Y-55833333D01*
X214678571Y-55785714D01*
X214773809Y-55738095D01*
X215011904Y-55738095D01*
X215107142Y-55785714D01*
X215154761Y-55833333D01*
X215202380Y-55928571D01*
X215202380Y-56214285D01*
X215154761Y-56309523D01*
X215107142Y-56357142D01*
%TO.C,C14*%
X185357142Y-68392857D02*
X185404761Y-68440476D01*
X185452380Y-68583333D01*
X185452380Y-68678571D01*
X185404761Y-68821428D01*
X185309523Y-68916666D01*
X185214285Y-68964285D01*
X185023809Y-69011904D01*
X184880952Y-69011904D01*
X184690476Y-68964285D01*
X184595238Y-68916666D01*
X184500000Y-68821428D01*
X184452380Y-68678571D01*
X184452380Y-68583333D01*
X184500000Y-68440476D01*
X184547619Y-68392857D01*
X185452380Y-67440476D02*
X185452380Y-68011904D01*
X185452380Y-67726190D02*
X184452380Y-67726190D01*
X184595238Y-67821428D01*
X184690476Y-67916666D01*
X184738095Y-68011904D01*
X184785714Y-66583333D02*
X185452380Y-66583333D01*
X184404761Y-66821428D02*
X185119047Y-67059523D01*
X185119047Y-66440476D01*
%TO.C,C15*%
X188607142Y-68892857D02*
X188654761Y-68940476D01*
X188702380Y-69083333D01*
X188702380Y-69178571D01*
X188654761Y-69321428D01*
X188559523Y-69416666D01*
X188464285Y-69464285D01*
X188273809Y-69511904D01*
X188130952Y-69511904D01*
X187940476Y-69464285D01*
X187845238Y-69416666D01*
X187750000Y-69321428D01*
X187702380Y-69178571D01*
X187702380Y-69083333D01*
X187750000Y-68940476D01*
X187797619Y-68892857D01*
X188702380Y-67940476D02*
X188702380Y-68511904D01*
X188702380Y-68226190D02*
X187702380Y-68226190D01*
X187845238Y-68321428D01*
X187940476Y-68416666D01*
X187988095Y-68511904D01*
X187702380Y-67035714D02*
X187702380Y-67511904D01*
X188178571Y-67559523D01*
X188130952Y-67511904D01*
X188083333Y-67416666D01*
X188083333Y-67178571D01*
X188130952Y-67083333D01*
X188178571Y-67035714D01*
X188273809Y-66988095D01*
X188511904Y-66988095D01*
X188607142Y-67035714D01*
X188654761Y-67083333D01*
X188702380Y-67178571D01*
X188702380Y-67416666D01*
X188654761Y-67511904D01*
X188607142Y-67559523D01*
%TO.C,C16*%
X194357142Y-68892857D02*
X194404761Y-68940476D01*
X194452380Y-69083333D01*
X194452380Y-69178571D01*
X194404761Y-69321428D01*
X194309523Y-69416666D01*
X194214285Y-69464285D01*
X194023809Y-69511904D01*
X193880952Y-69511904D01*
X193690476Y-69464285D01*
X193595238Y-69416666D01*
X193500000Y-69321428D01*
X193452380Y-69178571D01*
X193452380Y-69083333D01*
X193500000Y-68940476D01*
X193547619Y-68892857D01*
X194452380Y-67940476D02*
X194452380Y-68511904D01*
X194452380Y-68226190D02*
X193452380Y-68226190D01*
X193595238Y-68321428D01*
X193690476Y-68416666D01*
X193738095Y-68511904D01*
X193452380Y-67083333D02*
X193452380Y-67273809D01*
X193500000Y-67369047D01*
X193547619Y-67416666D01*
X193690476Y-67511904D01*
X193880952Y-67559523D01*
X194261904Y-67559523D01*
X194357142Y-67511904D01*
X194404761Y-67464285D01*
X194452380Y-67369047D01*
X194452380Y-67178571D01*
X194404761Y-67083333D01*
X194357142Y-67035714D01*
X194261904Y-66988095D01*
X194023809Y-66988095D01*
X193928571Y-67035714D01*
X193880952Y-67083333D01*
X193833333Y-67178571D01*
X193833333Y-67369047D01*
X193880952Y-67464285D01*
X193928571Y-67511904D01*
X194023809Y-67559523D01*
%TO.C,C17*%
X185607142Y-88392857D02*
X185654761Y-88440476D01*
X185702380Y-88583333D01*
X185702380Y-88678571D01*
X185654761Y-88821428D01*
X185559523Y-88916666D01*
X185464285Y-88964285D01*
X185273809Y-89011904D01*
X185130952Y-89011904D01*
X184940476Y-88964285D01*
X184845238Y-88916666D01*
X184750000Y-88821428D01*
X184702380Y-88678571D01*
X184702380Y-88583333D01*
X184750000Y-88440476D01*
X184797619Y-88392857D01*
X185702380Y-87440476D02*
X185702380Y-88011904D01*
X185702380Y-87726190D02*
X184702380Y-87726190D01*
X184845238Y-87821428D01*
X184940476Y-87916666D01*
X184988095Y-88011904D01*
X184702380Y-87107142D02*
X184702380Y-86440476D01*
X185702380Y-86869047D01*
%TO.C,C18*%
X209607142Y-48427142D02*
X209559523Y-48474761D01*
X209416666Y-48522380D01*
X209321428Y-48522380D01*
X209178571Y-48474761D01*
X209083333Y-48379523D01*
X209035714Y-48284285D01*
X208988095Y-48093809D01*
X208988095Y-47950952D01*
X209035714Y-47760476D01*
X209083333Y-47665238D01*
X209178571Y-47570000D01*
X209321428Y-47522380D01*
X209416666Y-47522380D01*
X209559523Y-47570000D01*
X209607142Y-47617619D01*
X210559523Y-48522380D02*
X209988095Y-48522380D01*
X210273809Y-48522380D02*
X210273809Y-47522380D01*
X210178571Y-47665238D01*
X210083333Y-47760476D01*
X209988095Y-47808095D01*
X211130952Y-47950952D02*
X211035714Y-47903333D01*
X210988095Y-47855714D01*
X210940476Y-47760476D01*
X210940476Y-47712857D01*
X210988095Y-47617619D01*
X211035714Y-47570000D01*
X211130952Y-47522380D01*
X211321428Y-47522380D01*
X211416666Y-47570000D01*
X211464285Y-47617619D01*
X211511904Y-47712857D01*
X211511904Y-47760476D01*
X211464285Y-47855714D01*
X211416666Y-47903333D01*
X211321428Y-47950952D01*
X211130952Y-47950952D01*
X211035714Y-47998571D01*
X210988095Y-48046190D01*
X210940476Y-48141428D01*
X210940476Y-48331904D01*
X210988095Y-48427142D01*
X211035714Y-48474761D01*
X211130952Y-48522380D01*
X211321428Y-48522380D01*
X211416666Y-48474761D01*
X211464285Y-48427142D01*
X211511904Y-48331904D01*
X211511904Y-48141428D01*
X211464285Y-48046190D01*
X211416666Y-47998571D01*
X211321428Y-47950952D01*
%TO.C,C19*%
X177857142Y-79107142D02*
X177809523Y-79154761D01*
X177666666Y-79202380D01*
X177571428Y-79202380D01*
X177428571Y-79154761D01*
X177333333Y-79059523D01*
X177285714Y-78964285D01*
X177238095Y-78773809D01*
X177238095Y-78630952D01*
X177285714Y-78440476D01*
X177333333Y-78345238D01*
X177428571Y-78250000D01*
X177571428Y-78202380D01*
X177666666Y-78202380D01*
X177809523Y-78250000D01*
X177857142Y-78297619D01*
X178809523Y-79202380D02*
X178238095Y-79202380D01*
X178523809Y-79202380D02*
X178523809Y-78202380D01*
X178428571Y-78345238D01*
X178333333Y-78440476D01*
X178238095Y-78488095D01*
X179285714Y-79202380D02*
X179476190Y-79202380D01*
X179571428Y-79154761D01*
X179619047Y-79107142D01*
X179714285Y-78964285D01*
X179761904Y-78773809D01*
X179761904Y-78392857D01*
X179714285Y-78297619D01*
X179666666Y-78250000D01*
X179571428Y-78202380D01*
X179380952Y-78202380D01*
X179285714Y-78250000D01*
X179238095Y-78297619D01*
X179190476Y-78392857D01*
X179190476Y-78630952D01*
X179238095Y-78726190D01*
X179285714Y-78773809D01*
X179380952Y-78821428D01*
X179571428Y-78821428D01*
X179666666Y-78773809D01*
X179714285Y-78726190D01*
X179761904Y-78630952D01*
%TO.C,C20*%
X221857142Y-48427142D02*
X221809523Y-48474761D01*
X221666666Y-48522380D01*
X221571428Y-48522380D01*
X221428571Y-48474761D01*
X221333333Y-48379523D01*
X221285714Y-48284285D01*
X221238095Y-48093809D01*
X221238095Y-47950952D01*
X221285714Y-47760476D01*
X221333333Y-47665238D01*
X221428571Y-47570000D01*
X221571428Y-47522380D01*
X221666666Y-47522380D01*
X221809523Y-47570000D01*
X221857142Y-47617619D01*
X222238095Y-47617619D02*
X222285714Y-47570000D01*
X222380952Y-47522380D01*
X222619047Y-47522380D01*
X222714285Y-47570000D01*
X222761904Y-47617619D01*
X222809523Y-47712857D01*
X222809523Y-47808095D01*
X222761904Y-47950952D01*
X222190476Y-48522380D01*
X222809523Y-48522380D01*
X223428571Y-47522380D02*
X223523809Y-47522380D01*
X223619047Y-47570000D01*
X223666666Y-47617619D01*
X223714285Y-47712857D01*
X223761904Y-47903333D01*
X223761904Y-48141428D01*
X223714285Y-48331904D01*
X223666666Y-48427142D01*
X223619047Y-48474761D01*
X223523809Y-48522380D01*
X223428571Y-48522380D01*
X223333333Y-48474761D01*
X223285714Y-48427142D01*
X223238095Y-48331904D01*
X223190476Y-48141428D01*
X223190476Y-47903333D01*
X223238095Y-47712857D01*
X223285714Y-47617619D01*
X223333333Y-47570000D01*
X223428571Y-47522380D01*
%TO.C,C21*%
X178607142Y-71107142D02*
X178559523Y-71154761D01*
X178416666Y-71202380D01*
X178321428Y-71202380D01*
X178178571Y-71154761D01*
X178083333Y-71059523D01*
X178035714Y-70964285D01*
X177988095Y-70773809D01*
X177988095Y-70630952D01*
X178035714Y-70440476D01*
X178083333Y-70345238D01*
X178178571Y-70250000D01*
X178321428Y-70202380D01*
X178416666Y-70202380D01*
X178559523Y-70250000D01*
X178607142Y-70297619D01*
X178988095Y-70297619D02*
X179035714Y-70250000D01*
X179130952Y-70202380D01*
X179369047Y-70202380D01*
X179464285Y-70250000D01*
X179511904Y-70297619D01*
X179559523Y-70392857D01*
X179559523Y-70488095D01*
X179511904Y-70630952D01*
X178940476Y-71202380D01*
X179559523Y-71202380D01*
X180511904Y-71202380D02*
X179940476Y-71202380D01*
X180226190Y-71202380D02*
X180226190Y-70202380D01*
X180130952Y-70345238D01*
X180035714Y-70440476D01*
X179940476Y-70488095D01*
%TO.C,C22*%
X216107142Y-51357142D02*
X216059523Y-51404761D01*
X215916666Y-51452380D01*
X215821428Y-51452380D01*
X215678571Y-51404761D01*
X215583333Y-51309523D01*
X215535714Y-51214285D01*
X215488095Y-51023809D01*
X215488095Y-50880952D01*
X215535714Y-50690476D01*
X215583333Y-50595238D01*
X215678571Y-50500000D01*
X215821428Y-50452380D01*
X215916666Y-50452380D01*
X216059523Y-50500000D01*
X216107142Y-50547619D01*
X216488095Y-50547619D02*
X216535714Y-50500000D01*
X216630952Y-50452380D01*
X216869047Y-50452380D01*
X216964285Y-50500000D01*
X217011904Y-50547619D01*
X217059523Y-50642857D01*
X217059523Y-50738095D01*
X217011904Y-50880952D01*
X216440476Y-51452380D01*
X217059523Y-51452380D01*
X217440476Y-50547619D02*
X217488095Y-50500000D01*
X217583333Y-50452380D01*
X217821428Y-50452380D01*
X217916666Y-50500000D01*
X217964285Y-50547619D01*
X218011904Y-50642857D01*
X218011904Y-50738095D01*
X217964285Y-50880952D01*
X217392857Y-51452380D01*
X218011904Y-51452380D01*
%TO.C,C23*%
X228357142Y-51357142D02*
X228309523Y-51404761D01*
X228166666Y-51452380D01*
X228071428Y-51452380D01*
X227928571Y-51404761D01*
X227833333Y-51309523D01*
X227785714Y-51214285D01*
X227738095Y-51023809D01*
X227738095Y-50880952D01*
X227785714Y-50690476D01*
X227833333Y-50595238D01*
X227928571Y-50500000D01*
X228071428Y-50452380D01*
X228166666Y-50452380D01*
X228309523Y-50500000D01*
X228357142Y-50547619D01*
X228738095Y-50547619D02*
X228785714Y-50500000D01*
X228880952Y-50452380D01*
X229119047Y-50452380D01*
X229214285Y-50500000D01*
X229261904Y-50547619D01*
X229309523Y-50642857D01*
X229309523Y-50738095D01*
X229261904Y-50880952D01*
X228690476Y-51452380D01*
X229309523Y-51452380D01*
X229642857Y-50452380D02*
X230261904Y-50452380D01*
X229928571Y-50833333D01*
X230071428Y-50833333D01*
X230166666Y-50880952D01*
X230214285Y-50928571D01*
X230261904Y-51023809D01*
X230261904Y-51261904D01*
X230214285Y-51357142D01*
X230166666Y-51404761D01*
X230071428Y-51452380D01*
X229785714Y-51452380D01*
X229690476Y-51404761D01*
X229642857Y-51357142D01*
%TO.C,C24*%
X195857142Y-68892857D02*
X195904761Y-68940476D01*
X195952380Y-69083333D01*
X195952380Y-69178571D01*
X195904761Y-69321428D01*
X195809523Y-69416666D01*
X195714285Y-69464285D01*
X195523809Y-69511904D01*
X195380952Y-69511904D01*
X195190476Y-69464285D01*
X195095238Y-69416666D01*
X195000000Y-69321428D01*
X194952380Y-69178571D01*
X194952380Y-69083333D01*
X195000000Y-68940476D01*
X195047619Y-68892857D01*
X195047619Y-68511904D02*
X195000000Y-68464285D01*
X194952380Y-68369047D01*
X194952380Y-68130952D01*
X195000000Y-68035714D01*
X195047619Y-67988095D01*
X195142857Y-67940476D01*
X195238095Y-67940476D01*
X195380952Y-67988095D01*
X195952380Y-68559523D01*
X195952380Y-67940476D01*
X195285714Y-67083333D02*
X195952380Y-67083333D01*
X194904761Y-67321428D02*
X195619047Y-67559523D01*
X195619047Y-66940476D01*
%TO.C,C25*%
X212857142Y-44607142D02*
X212809523Y-44654761D01*
X212666666Y-44702380D01*
X212571428Y-44702380D01*
X212428571Y-44654761D01*
X212333333Y-44559523D01*
X212285714Y-44464285D01*
X212238095Y-44273809D01*
X212238095Y-44130952D01*
X212285714Y-43940476D01*
X212333333Y-43845238D01*
X212428571Y-43750000D01*
X212571428Y-43702380D01*
X212666666Y-43702380D01*
X212809523Y-43750000D01*
X212857142Y-43797619D01*
X213238095Y-43797619D02*
X213285714Y-43750000D01*
X213380952Y-43702380D01*
X213619047Y-43702380D01*
X213714285Y-43750000D01*
X213761904Y-43797619D01*
X213809523Y-43892857D01*
X213809523Y-43988095D01*
X213761904Y-44130952D01*
X213190476Y-44702380D01*
X213809523Y-44702380D01*
X214714285Y-43702380D02*
X214238095Y-43702380D01*
X214190476Y-44178571D01*
X214238095Y-44130952D01*
X214333333Y-44083333D01*
X214571428Y-44083333D01*
X214666666Y-44130952D01*
X214714285Y-44178571D01*
X214761904Y-44273809D01*
X214761904Y-44511904D01*
X214714285Y-44607142D01*
X214666666Y-44654761D01*
X214571428Y-44702380D01*
X214333333Y-44702380D01*
X214238095Y-44654761D01*
X214190476Y-44607142D01*
%TO.C,C26*%
X225107142Y-44607142D02*
X225059523Y-44654761D01*
X224916666Y-44702380D01*
X224821428Y-44702380D01*
X224678571Y-44654761D01*
X224583333Y-44559523D01*
X224535714Y-44464285D01*
X224488095Y-44273809D01*
X224488095Y-44130952D01*
X224535714Y-43940476D01*
X224583333Y-43845238D01*
X224678571Y-43750000D01*
X224821428Y-43702380D01*
X224916666Y-43702380D01*
X225059523Y-43750000D01*
X225107142Y-43797619D01*
X225488095Y-43797619D02*
X225535714Y-43750000D01*
X225630952Y-43702380D01*
X225869047Y-43702380D01*
X225964285Y-43750000D01*
X226011904Y-43797619D01*
X226059523Y-43892857D01*
X226059523Y-43988095D01*
X226011904Y-44130952D01*
X225440476Y-44702380D01*
X226059523Y-44702380D01*
X226916666Y-43702380D02*
X226726190Y-43702380D01*
X226630952Y-43750000D01*
X226583333Y-43797619D01*
X226488095Y-43940476D01*
X226440476Y-44130952D01*
X226440476Y-44511904D01*
X226488095Y-44607142D01*
X226535714Y-44654761D01*
X226630952Y-44702380D01*
X226821428Y-44702380D01*
X226916666Y-44654761D01*
X226964285Y-44607142D01*
X227011904Y-44511904D01*
X227011904Y-44273809D01*
X226964285Y-44178571D01*
X226916666Y-44130952D01*
X226821428Y-44083333D01*
X226630952Y-44083333D01*
X226535714Y-44130952D01*
X226488095Y-44178571D01*
X226440476Y-44273809D01*
%TO.C,C27*%
X178607142Y-57857142D02*
X178559523Y-57904761D01*
X178416666Y-57952380D01*
X178321428Y-57952380D01*
X178178571Y-57904761D01*
X178083333Y-57809523D01*
X178035714Y-57714285D01*
X177988095Y-57523809D01*
X177988095Y-57380952D01*
X178035714Y-57190476D01*
X178083333Y-57095238D01*
X178178571Y-57000000D01*
X178321428Y-56952380D01*
X178416666Y-56952380D01*
X178559523Y-57000000D01*
X178607142Y-57047619D01*
X178988095Y-57047619D02*
X179035714Y-57000000D01*
X179130952Y-56952380D01*
X179369047Y-56952380D01*
X179464285Y-57000000D01*
X179511904Y-57047619D01*
X179559523Y-57142857D01*
X179559523Y-57238095D01*
X179511904Y-57380952D01*
X178940476Y-57952380D01*
X179559523Y-57952380D01*
X179892857Y-56952380D02*
X180559523Y-56952380D01*
X180130952Y-57952380D01*
%TO.C,C28*%
X198357142Y-92357142D02*
X198309523Y-92404761D01*
X198166666Y-92452380D01*
X198071428Y-92452380D01*
X197928571Y-92404761D01*
X197833333Y-92309523D01*
X197785714Y-92214285D01*
X197738095Y-92023809D01*
X197738095Y-91880952D01*
X197785714Y-91690476D01*
X197833333Y-91595238D01*
X197928571Y-91500000D01*
X198071428Y-91452380D01*
X198166666Y-91452380D01*
X198309523Y-91500000D01*
X198357142Y-91547619D01*
X198738095Y-91547619D02*
X198785714Y-91500000D01*
X198880952Y-91452380D01*
X199119047Y-91452380D01*
X199214285Y-91500000D01*
X199261904Y-91547619D01*
X199309523Y-91642857D01*
X199309523Y-91738095D01*
X199261904Y-91880952D01*
X198690476Y-92452380D01*
X199309523Y-92452380D01*
X199880952Y-91880952D02*
X199785714Y-91833333D01*
X199738095Y-91785714D01*
X199690476Y-91690476D01*
X199690476Y-91642857D01*
X199738095Y-91547619D01*
X199785714Y-91500000D01*
X199880952Y-91452380D01*
X200071428Y-91452380D01*
X200166666Y-91500000D01*
X200214285Y-91547619D01*
X200261904Y-91642857D01*
X200261904Y-91690476D01*
X200214285Y-91785714D01*
X200166666Y-91833333D01*
X200071428Y-91880952D01*
X199880952Y-91880952D01*
X199785714Y-91928571D01*
X199738095Y-91976190D01*
X199690476Y-92071428D01*
X199690476Y-92261904D01*
X199738095Y-92357142D01*
X199785714Y-92404761D01*
X199880952Y-92452380D01*
X200071428Y-92452380D01*
X200166666Y-92404761D01*
X200214285Y-92357142D01*
X200261904Y-92261904D01*
X200261904Y-92071428D01*
X200214285Y-91976190D01*
X200166666Y-91928571D01*
X200071428Y-91880952D01*
%TO.C,C29*%
X198357142Y-86857142D02*
X198309523Y-86904761D01*
X198166666Y-86952380D01*
X198071428Y-86952380D01*
X197928571Y-86904761D01*
X197833333Y-86809523D01*
X197785714Y-86714285D01*
X197738095Y-86523809D01*
X197738095Y-86380952D01*
X197785714Y-86190476D01*
X197833333Y-86095238D01*
X197928571Y-86000000D01*
X198071428Y-85952380D01*
X198166666Y-85952380D01*
X198309523Y-86000000D01*
X198357142Y-86047619D01*
X198738095Y-86047619D02*
X198785714Y-86000000D01*
X198880952Y-85952380D01*
X199119047Y-85952380D01*
X199214285Y-86000000D01*
X199261904Y-86047619D01*
X199309523Y-86142857D01*
X199309523Y-86238095D01*
X199261904Y-86380952D01*
X198690476Y-86952380D01*
X199309523Y-86952380D01*
X199785714Y-86952380D02*
X199976190Y-86952380D01*
X200071428Y-86904761D01*
X200119047Y-86857142D01*
X200214285Y-86714285D01*
X200261904Y-86523809D01*
X200261904Y-86142857D01*
X200214285Y-86047619D01*
X200166666Y-86000000D01*
X200071428Y-85952380D01*
X199880952Y-85952380D01*
X199785714Y-86000000D01*
X199738095Y-86047619D01*
X199690476Y-86142857D01*
X199690476Y-86380952D01*
X199738095Y-86476190D01*
X199785714Y-86523809D01*
X199880952Y-86571428D01*
X200071428Y-86571428D01*
X200166666Y-86523809D01*
X200214285Y-86476190D01*
X200261904Y-86380952D01*
%TO.C,C30*%
X198357142Y-81357142D02*
X198309523Y-81404761D01*
X198166666Y-81452380D01*
X198071428Y-81452380D01*
X197928571Y-81404761D01*
X197833333Y-81309523D01*
X197785714Y-81214285D01*
X197738095Y-81023809D01*
X197738095Y-80880952D01*
X197785714Y-80690476D01*
X197833333Y-80595238D01*
X197928571Y-80500000D01*
X198071428Y-80452380D01*
X198166666Y-80452380D01*
X198309523Y-80500000D01*
X198357142Y-80547619D01*
X198690476Y-80452380D02*
X199309523Y-80452380D01*
X198976190Y-80833333D01*
X199119047Y-80833333D01*
X199214285Y-80880952D01*
X199261904Y-80928571D01*
X199309523Y-81023809D01*
X199309523Y-81261904D01*
X199261904Y-81357142D01*
X199214285Y-81404761D01*
X199119047Y-81452380D01*
X198833333Y-81452380D01*
X198738095Y-81404761D01*
X198690476Y-81357142D01*
X199928571Y-80452380D02*
X200023809Y-80452380D01*
X200119047Y-80500000D01*
X200166666Y-80547619D01*
X200214285Y-80642857D01*
X200261904Y-80833333D01*
X200261904Y-81071428D01*
X200214285Y-81261904D01*
X200166666Y-81357142D01*
X200119047Y-81404761D01*
X200023809Y-81452380D01*
X199928571Y-81452380D01*
X199833333Y-81404761D01*
X199785714Y-81357142D01*
X199738095Y-81261904D01*
X199690476Y-81071428D01*
X199690476Y-80833333D01*
X199738095Y-80642857D01*
X199785714Y-80547619D01*
X199833333Y-80500000D01*
X199928571Y-80452380D01*
%TO.C,C31*%
X198357142Y-75857142D02*
X198309523Y-75904761D01*
X198166666Y-75952380D01*
X198071428Y-75952380D01*
X197928571Y-75904761D01*
X197833333Y-75809523D01*
X197785714Y-75714285D01*
X197738095Y-75523809D01*
X197738095Y-75380952D01*
X197785714Y-75190476D01*
X197833333Y-75095238D01*
X197928571Y-75000000D01*
X198071428Y-74952380D01*
X198166666Y-74952380D01*
X198309523Y-75000000D01*
X198357142Y-75047619D01*
X198690476Y-74952380D02*
X199309523Y-74952380D01*
X198976190Y-75333333D01*
X199119047Y-75333333D01*
X199214285Y-75380952D01*
X199261904Y-75428571D01*
X199309523Y-75523809D01*
X199309523Y-75761904D01*
X199261904Y-75857142D01*
X199214285Y-75904761D01*
X199119047Y-75952380D01*
X198833333Y-75952380D01*
X198738095Y-75904761D01*
X198690476Y-75857142D01*
X200261904Y-75952380D02*
X199690476Y-75952380D01*
X199976190Y-75952380D02*
X199976190Y-74952380D01*
X199880952Y-75095238D01*
X199785714Y-75190476D01*
X199690476Y-75238095D01*
%TO.C,C32*%
X198357142Y-70357142D02*
X198309523Y-70404761D01*
X198166666Y-70452380D01*
X198071428Y-70452380D01*
X197928571Y-70404761D01*
X197833333Y-70309523D01*
X197785714Y-70214285D01*
X197738095Y-70023809D01*
X197738095Y-69880952D01*
X197785714Y-69690476D01*
X197833333Y-69595238D01*
X197928571Y-69500000D01*
X198071428Y-69452380D01*
X198166666Y-69452380D01*
X198309523Y-69500000D01*
X198357142Y-69547619D01*
X198690476Y-69452380D02*
X199309523Y-69452380D01*
X198976190Y-69833333D01*
X199119047Y-69833333D01*
X199214285Y-69880952D01*
X199261904Y-69928571D01*
X199309523Y-70023809D01*
X199309523Y-70261904D01*
X199261904Y-70357142D01*
X199214285Y-70404761D01*
X199119047Y-70452380D01*
X198833333Y-70452380D01*
X198738095Y-70404761D01*
X198690476Y-70357142D01*
X199690476Y-69547619D02*
X199738095Y-69500000D01*
X199833333Y-69452380D01*
X200071428Y-69452380D01*
X200166666Y-69500000D01*
X200214285Y-69547619D01*
X200261904Y-69642857D01*
X200261904Y-69738095D01*
X200214285Y-69880952D01*
X199642857Y-70452380D01*
X200261904Y-70452380D01*
%TO.C,C33*%
X198357142Y-64857142D02*
X198309523Y-64904761D01*
X198166666Y-64952380D01*
X198071428Y-64952380D01*
X197928571Y-64904761D01*
X197833333Y-64809523D01*
X197785714Y-64714285D01*
X197738095Y-64523809D01*
X197738095Y-64380952D01*
X197785714Y-64190476D01*
X197833333Y-64095238D01*
X197928571Y-64000000D01*
X198071428Y-63952380D01*
X198166666Y-63952380D01*
X198309523Y-64000000D01*
X198357142Y-64047619D01*
X198690476Y-63952380D02*
X199309523Y-63952380D01*
X198976190Y-64333333D01*
X199119047Y-64333333D01*
X199214285Y-64380952D01*
X199261904Y-64428571D01*
X199309523Y-64523809D01*
X199309523Y-64761904D01*
X199261904Y-64857142D01*
X199214285Y-64904761D01*
X199119047Y-64952380D01*
X198833333Y-64952380D01*
X198738095Y-64904761D01*
X198690476Y-64857142D01*
X199642857Y-63952380D02*
X200261904Y-63952380D01*
X199928571Y-64333333D01*
X200071428Y-64333333D01*
X200166666Y-64380952D01*
X200214285Y-64428571D01*
X200261904Y-64523809D01*
X200261904Y-64761904D01*
X200214285Y-64857142D01*
X200166666Y-64904761D01*
X200071428Y-64952380D01*
X199785714Y-64952380D01*
X199690476Y-64904761D01*
X199642857Y-64857142D01*
%TO.C,C34*%
X198357142Y-59357142D02*
X198309523Y-59404761D01*
X198166666Y-59452380D01*
X198071428Y-59452380D01*
X197928571Y-59404761D01*
X197833333Y-59309523D01*
X197785714Y-59214285D01*
X197738095Y-59023809D01*
X197738095Y-58880952D01*
X197785714Y-58690476D01*
X197833333Y-58595238D01*
X197928571Y-58500000D01*
X198071428Y-58452380D01*
X198166666Y-58452380D01*
X198309523Y-58500000D01*
X198357142Y-58547619D01*
X198690476Y-58452380D02*
X199309523Y-58452380D01*
X198976190Y-58833333D01*
X199119047Y-58833333D01*
X199214285Y-58880952D01*
X199261904Y-58928571D01*
X199309523Y-59023809D01*
X199309523Y-59261904D01*
X199261904Y-59357142D01*
X199214285Y-59404761D01*
X199119047Y-59452380D01*
X198833333Y-59452380D01*
X198738095Y-59404761D01*
X198690476Y-59357142D01*
X200166666Y-58785714D02*
X200166666Y-59452380D01*
X199928571Y-58404761D02*
X199690476Y-59119047D01*
X200309523Y-59119047D01*
%TO.C,FB1*%
X216416666Y-52748571D02*
X216083333Y-52748571D01*
X216083333Y-53272380D02*
X216083333Y-52272380D01*
X216559523Y-52272380D01*
X217273809Y-52748571D02*
X217416666Y-52796190D01*
X217464285Y-52843809D01*
X217511904Y-52939047D01*
X217511904Y-53081904D01*
X217464285Y-53177142D01*
X217416666Y-53224761D01*
X217321428Y-53272380D01*
X216940476Y-53272380D01*
X216940476Y-52272380D01*
X217273809Y-52272380D01*
X217369047Y-52320000D01*
X217416666Y-52367619D01*
X217464285Y-52462857D01*
X217464285Y-52558095D01*
X217416666Y-52653333D01*
X217369047Y-52700952D01*
X217273809Y-52748571D01*
X216940476Y-52748571D01*
X218464285Y-53272380D02*
X217892857Y-53272380D01*
X218178571Y-53272380D02*
X218178571Y-52272380D01*
X218083333Y-52415238D01*
X217988095Y-52510476D01*
X217892857Y-52558095D01*
%TO.C,J1*%
X191166666Y-46452380D02*
X191166666Y-47166666D01*
X191119047Y-47309523D01*
X191023809Y-47404761D01*
X190880952Y-47452380D01*
X190785714Y-47452380D01*
X192166666Y-47452380D02*
X191595238Y-47452380D01*
X191880952Y-47452380D02*
X191880952Y-46452380D01*
X191785714Y-46595238D01*
X191690476Y-46690476D01*
X191595238Y-46738095D01*
%TO.C,J2*%
X170916666Y-66252380D02*
X170916666Y-66966666D01*
X170869047Y-67109523D01*
X170773809Y-67204761D01*
X170630952Y-67252380D01*
X170535714Y-67252380D01*
X171345238Y-66347619D02*
X171392857Y-66300000D01*
X171488095Y-66252380D01*
X171726190Y-66252380D01*
X171821428Y-66300000D01*
X171869047Y-66347619D01*
X171916666Y-66442857D01*
X171916666Y-66538095D01*
X171869047Y-66680952D01*
X171297619Y-67252380D01*
X171916666Y-67252380D01*
%TO.C,J3*%
X194202380Y-90583333D02*
X194916666Y-90583333D01*
X195059523Y-90630952D01*
X195154761Y-90726190D01*
X195202380Y-90869047D01*
X195202380Y-90964285D01*
X194202380Y-90202380D02*
X194202380Y-89583333D01*
X194583333Y-89916666D01*
X194583333Y-89773809D01*
X194630952Y-89678571D01*
X194678571Y-89630952D01*
X194773809Y-89583333D01*
X195011904Y-89583333D01*
X195107142Y-89630952D01*
X195154761Y-89678571D01*
X195202380Y-89773809D01*
X195202380Y-90059523D01*
X195154761Y-90154761D01*
X195107142Y-90202380D01*
%TO.C,J4*%
X217452380Y-36333333D02*
X218166666Y-36333333D01*
X218309523Y-36380952D01*
X218404761Y-36476190D01*
X218452380Y-36619047D01*
X218452380Y-36714285D01*
X217785714Y-35428571D02*
X218452380Y-35428571D01*
X217404761Y-35666666D02*
X218119047Y-35904761D01*
X218119047Y-35285714D01*
%TO.C,J5*%
X170949166Y-51202380D02*
X170949166Y-51916666D01*
X170901547Y-52059523D01*
X170806309Y-52154761D01*
X170663452Y-52202380D01*
X170568214Y-52202380D01*
X171901547Y-51202380D02*
X171425357Y-51202380D01*
X171377738Y-51678571D01*
X171425357Y-51630952D01*
X171520595Y-51583333D01*
X171758690Y-51583333D01*
X171853928Y-51630952D01*
X171901547Y-51678571D01*
X171949166Y-51773809D01*
X171949166Y-52011904D01*
X171901547Y-52107142D01*
X171853928Y-52154761D01*
X171758690Y-52202380D01*
X171520595Y-52202380D01*
X171425357Y-52154761D01*
X171377738Y-52107142D01*
%TO.C,R1*%
X178583333Y-84772380D02*
X178250000Y-84296190D01*
X178011904Y-84772380D02*
X178011904Y-83772380D01*
X178392857Y-83772380D01*
X178488095Y-83820000D01*
X178535714Y-83867619D01*
X178583333Y-83962857D01*
X178583333Y-84105714D01*
X178535714Y-84200952D01*
X178488095Y-84248571D01*
X178392857Y-84296190D01*
X178011904Y-84296190D01*
X179535714Y-84772380D02*
X178964285Y-84772380D01*
X179250000Y-84772380D02*
X179250000Y-83772380D01*
X179154761Y-83915238D01*
X179059523Y-84010476D01*
X178964285Y-84058095D01*
%TO.C,R2*%
X187202380Y-57916666D02*
X186726190Y-58250000D01*
X187202380Y-58488095D02*
X186202380Y-58488095D01*
X186202380Y-58107142D01*
X186250000Y-58011904D01*
X186297619Y-57964285D01*
X186392857Y-57916666D01*
X186535714Y-57916666D01*
X186630952Y-57964285D01*
X186678571Y-58011904D01*
X186726190Y-58107142D01*
X186726190Y-58488095D01*
X186297619Y-57535714D02*
X186250000Y-57488095D01*
X186202380Y-57392857D01*
X186202380Y-57154761D01*
X186250000Y-57059523D01*
X186297619Y-57011904D01*
X186392857Y-56964285D01*
X186488095Y-56964285D01*
X186630952Y-57011904D01*
X187202380Y-57583333D01*
X187202380Y-56964285D01*
%TO.C,R3*%
X189202380Y-57916666D02*
X188726190Y-58250000D01*
X189202380Y-58488095D02*
X188202380Y-58488095D01*
X188202380Y-58107142D01*
X188250000Y-58011904D01*
X188297619Y-57964285D01*
X188392857Y-57916666D01*
X188535714Y-57916666D01*
X188630952Y-57964285D01*
X188678571Y-58011904D01*
X188726190Y-58107142D01*
X188726190Y-58488095D01*
X188202380Y-57583333D02*
X188202380Y-56964285D01*
X188583333Y-57297619D01*
X188583333Y-57154761D01*
X188630952Y-57059523D01*
X188678571Y-57011904D01*
X188773809Y-56964285D01*
X189011904Y-56964285D01*
X189107142Y-57011904D01*
X189154761Y-57059523D01*
X189202380Y-57154761D01*
X189202380Y-57440476D01*
X189154761Y-57535714D01*
X189107142Y-57583333D01*
%TO.C,R4*%
X190202380Y-87416666D02*
X189726190Y-87750000D01*
X190202380Y-87988095D02*
X189202380Y-87988095D01*
X189202380Y-87607142D01*
X189250000Y-87511904D01*
X189297619Y-87464285D01*
X189392857Y-87416666D01*
X189535714Y-87416666D01*
X189630952Y-87464285D01*
X189678571Y-87511904D01*
X189726190Y-87607142D01*
X189726190Y-87988095D01*
X189535714Y-86559523D02*
X190202380Y-86559523D01*
X189154761Y-86797619D02*
X189869047Y-87035714D01*
X189869047Y-86416666D01*
%TO.C,R5*%
X191702380Y-87416666D02*
X191226190Y-87750000D01*
X191702380Y-87988095D02*
X190702380Y-87988095D01*
X190702380Y-87607142D01*
X190750000Y-87511904D01*
X190797619Y-87464285D01*
X190892857Y-87416666D01*
X191035714Y-87416666D01*
X191130952Y-87464285D01*
X191178571Y-87511904D01*
X191226190Y-87607142D01*
X191226190Y-87988095D01*
X190702380Y-86511904D02*
X190702380Y-86988095D01*
X191178571Y-87035714D01*
X191130952Y-86988095D01*
X191083333Y-86892857D01*
X191083333Y-86654761D01*
X191130952Y-86559523D01*
X191178571Y-86511904D01*
X191273809Y-86464285D01*
X191511904Y-86464285D01*
X191607142Y-86511904D01*
X191654761Y-86559523D01*
X191702380Y-86654761D01*
X191702380Y-86892857D01*
X191654761Y-86988095D01*
X191607142Y-87035714D01*
%TO.C,R6*%
X213952380Y-53916666D02*
X213476190Y-54250000D01*
X213952380Y-54488095D02*
X212952380Y-54488095D01*
X212952380Y-54107142D01*
X213000000Y-54011904D01*
X213047619Y-53964285D01*
X213142857Y-53916666D01*
X213285714Y-53916666D01*
X213380952Y-53964285D01*
X213428571Y-54011904D01*
X213476190Y-54107142D01*
X213476190Y-54488095D01*
X212952380Y-53059523D02*
X212952380Y-53250000D01*
X213000000Y-53345238D01*
X213047619Y-53392857D01*
X213190476Y-53488095D01*
X213380952Y-53535714D01*
X213761904Y-53535714D01*
X213857142Y-53488095D01*
X213904761Y-53440476D01*
X213952380Y-53345238D01*
X213952380Y-53154761D01*
X213904761Y-53059523D01*
X213857142Y-53011904D01*
X213761904Y-52964285D01*
X213523809Y-52964285D01*
X213428571Y-53011904D01*
X213380952Y-53059523D01*
X213333333Y-53154761D01*
X213333333Y-53345238D01*
X213380952Y-53440476D01*
X213428571Y-53488095D01*
X213523809Y-53535714D01*
%TO.C,R7*%
X226202380Y-53916666D02*
X225726190Y-54250000D01*
X226202380Y-54488095D02*
X225202380Y-54488095D01*
X225202380Y-54107142D01*
X225250000Y-54011904D01*
X225297619Y-53964285D01*
X225392857Y-53916666D01*
X225535714Y-53916666D01*
X225630952Y-53964285D01*
X225678571Y-54011904D01*
X225726190Y-54107142D01*
X225726190Y-54488095D01*
X225202380Y-53583333D02*
X225202380Y-52916666D01*
X226202380Y-53345238D01*
%TO.C,R8*%
X168333333Y-62952380D02*
X168000000Y-62476190D01*
X167761904Y-62952380D02*
X167761904Y-61952380D01*
X168142857Y-61952380D01*
X168238095Y-62000000D01*
X168285714Y-62047619D01*
X168333333Y-62142857D01*
X168333333Y-62285714D01*
X168285714Y-62380952D01*
X168238095Y-62428571D01*
X168142857Y-62476190D01*
X167761904Y-62476190D01*
X168904761Y-62380952D02*
X168809523Y-62333333D01*
X168761904Y-62285714D01*
X168714285Y-62190476D01*
X168714285Y-62142857D01*
X168761904Y-62047619D01*
X168809523Y-62000000D01*
X168904761Y-61952380D01*
X169095238Y-61952380D01*
X169190476Y-62000000D01*
X169238095Y-62047619D01*
X169285714Y-62142857D01*
X169285714Y-62190476D01*
X169238095Y-62285714D01*
X169190476Y-62333333D01*
X169095238Y-62380952D01*
X168904761Y-62380952D01*
X168809523Y-62428571D01*
X168761904Y-62476190D01*
X168714285Y-62571428D01*
X168714285Y-62761904D01*
X168761904Y-62857142D01*
X168809523Y-62904761D01*
X168904761Y-62952380D01*
X169095238Y-62952380D01*
X169190476Y-62904761D01*
X169238095Y-62857142D01*
X169285714Y-62761904D01*
X169285714Y-62571428D01*
X169238095Y-62476190D01*
X169190476Y-62428571D01*
X169095238Y-62380952D01*
%TO.C,R9*%
X219583333Y-48202380D02*
X219250000Y-47726190D01*
X219011904Y-48202380D02*
X219011904Y-47202380D01*
X219392857Y-47202380D01*
X219488095Y-47250000D01*
X219535714Y-47297619D01*
X219583333Y-47392857D01*
X219583333Y-47535714D01*
X219535714Y-47630952D01*
X219488095Y-47678571D01*
X219392857Y-47726190D01*
X219011904Y-47726190D01*
X220059523Y-48202380D02*
X220250000Y-48202380D01*
X220345238Y-48154761D01*
X220392857Y-48107142D01*
X220488095Y-47964285D01*
X220535714Y-47773809D01*
X220535714Y-47392857D01*
X220488095Y-47297619D01*
X220440476Y-47250000D01*
X220345238Y-47202380D01*
X220154761Y-47202380D01*
X220059523Y-47250000D01*
X220011904Y-47297619D01*
X219964285Y-47392857D01*
X219964285Y-47630952D01*
X220011904Y-47726190D01*
X220059523Y-47773809D01*
X220154761Y-47821428D01*
X220345238Y-47821428D01*
X220440476Y-47773809D01*
X220488095Y-47726190D01*
X220535714Y-47630952D01*
%TO.C,R10*%
X231857142Y-48202380D02*
X231523809Y-47726190D01*
X231285714Y-48202380D02*
X231285714Y-47202380D01*
X231666666Y-47202380D01*
X231761904Y-47250000D01*
X231809523Y-47297619D01*
X231857142Y-47392857D01*
X231857142Y-47535714D01*
X231809523Y-47630952D01*
X231761904Y-47678571D01*
X231666666Y-47726190D01*
X231285714Y-47726190D01*
X232809523Y-48202380D02*
X232238095Y-48202380D01*
X232523809Y-48202380D02*
X232523809Y-47202380D01*
X232428571Y-47345238D01*
X232333333Y-47440476D01*
X232238095Y-47488095D01*
X233428571Y-47202380D02*
X233523809Y-47202380D01*
X233619047Y-47250000D01*
X233666666Y-47297619D01*
X233714285Y-47392857D01*
X233761904Y-47583333D01*
X233761904Y-47821428D01*
X233714285Y-48011904D01*
X233666666Y-48107142D01*
X233619047Y-48154761D01*
X233523809Y-48202380D01*
X233428571Y-48202380D01*
X233333333Y-48154761D01*
X233285714Y-48107142D01*
X233238095Y-48011904D01*
X233190476Y-47821428D01*
X233190476Y-47583333D01*
X233238095Y-47392857D01*
X233285714Y-47297619D01*
X233333333Y-47250000D01*
X233428571Y-47202380D01*
%TO.C,R11*%
X167357142Y-61202380D02*
X167023809Y-60726190D01*
X166785714Y-61202380D02*
X166785714Y-60202380D01*
X167166666Y-60202380D01*
X167261904Y-60250000D01*
X167309523Y-60297619D01*
X167357142Y-60392857D01*
X167357142Y-60535714D01*
X167309523Y-60630952D01*
X167261904Y-60678571D01*
X167166666Y-60726190D01*
X166785714Y-60726190D01*
X168309523Y-61202380D02*
X167738095Y-61202380D01*
X168023809Y-61202380D02*
X168023809Y-60202380D01*
X167928571Y-60345238D01*
X167833333Y-60440476D01*
X167738095Y-60488095D01*
X169261904Y-61202380D02*
X168690476Y-61202380D01*
X168976190Y-61202380D02*
X168976190Y-60202380D01*
X168880952Y-60345238D01*
X168785714Y-60440476D01*
X168690476Y-60488095D01*
%TO.C,R12*%
X219607142Y-46202380D02*
X219273809Y-45726190D01*
X219035714Y-46202380D02*
X219035714Y-45202380D01*
X219416666Y-45202380D01*
X219511904Y-45250000D01*
X219559523Y-45297619D01*
X219607142Y-45392857D01*
X219607142Y-45535714D01*
X219559523Y-45630952D01*
X219511904Y-45678571D01*
X219416666Y-45726190D01*
X219035714Y-45726190D01*
X220559523Y-46202380D02*
X219988095Y-46202380D01*
X220273809Y-46202380D02*
X220273809Y-45202380D01*
X220178571Y-45345238D01*
X220083333Y-45440476D01*
X219988095Y-45488095D01*
X220940476Y-45297619D02*
X220988095Y-45250000D01*
X221083333Y-45202380D01*
X221321428Y-45202380D01*
X221416666Y-45250000D01*
X221464285Y-45297619D01*
X221511904Y-45392857D01*
X221511904Y-45488095D01*
X221464285Y-45630952D01*
X220892857Y-46202380D01*
X221511904Y-46202380D01*
%TO.C,R13*%
X231857142Y-46202380D02*
X231523809Y-45726190D01*
X231285714Y-46202380D02*
X231285714Y-45202380D01*
X231666666Y-45202380D01*
X231761904Y-45250000D01*
X231809523Y-45297619D01*
X231857142Y-45392857D01*
X231857142Y-45535714D01*
X231809523Y-45630952D01*
X231761904Y-45678571D01*
X231666666Y-45726190D01*
X231285714Y-45726190D01*
X232809523Y-46202380D02*
X232238095Y-46202380D01*
X232523809Y-46202380D02*
X232523809Y-45202380D01*
X232428571Y-45345238D01*
X232333333Y-45440476D01*
X232238095Y-45488095D01*
X233142857Y-45202380D02*
X233761904Y-45202380D01*
X233428571Y-45583333D01*
X233571428Y-45583333D01*
X233666666Y-45630952D01*
X233714285Y-45678571D01*
X233761904Y-45773809D01*
X233761904Y-46011904D01*
X233714285Y-46107142D01*
X233666666Y-46154761D01*
X233571428Y-46202380D01*
X233285714Y-46202380D01*
X233190476Y-46154761D01*
X233142857Y-46107142D01*
%TO.C,R14*%
X162357142Y-69702380D02*
X162023809Y-69226190D01*
X161785714Y-69702380D02*
X161785714Y-68702380D01*
X162166666Y-68702380D01*
X162261904Y-68750000D01*
X162309523Y-68797619D01*
X162357142Y-68892857D01*
X162357142Y-69035714D01*
X162309523Y-69130952D01*
X162261904Y-69178571D01*
X162166666Y-69226190D01*
X161785714Y-69226190D01*
X163309523Y-69702380D02*
X162738095Y-69702380D01*
X163023809Y-69702380D02*
X163023809Y-68702380D01*
X162928571Y-68845238D01*
X162833333Y-68940476D01*
X162738095Y-68988095D01*
X164166666Y-69035714D02*
X164166666Y-69702380D01*
X163928571Y-68654761D02*
X163690476Y-69369047D01*
X164309523Y-69369047D01*
%TO.C,R15*%
X172357142Y-70702380D02*
X172023809Y-70226190D01*
X171785714Y-70702380D02*
X171785714Y-69702380D01*
X172166666Y-69702380D01*
X172261904Y-69750000D01*
X172309523Y-69797619D01*
X172357142Y-69892857D01*
X172357142Y-70035714D01*
X172309523Y-70130952D01*
X172261904Y-70178571D01*
X172166666Y-70226190D01*
X171785714Y-70226190D01*
X173309523Y-70702380D02*
X172738095Y-70702380D01*
X173023809Y-70702380D02*
X173023809Y-69702380D01*
X172928571Y-69845238D01*
X172833333Y-69940476D01*
X172738095Y-69988095D01*
X174214285Y-69702380D02*
X173738095Y-69702380D01*
X173690476Y-70178571D01*
X173738095Y-70130952D01*
X173833333Y-70083333D01*
X174071428Y-70083333D01*
X174166666Y-70130952D01*
X174214285Y-70178571D01*
X174261904Y-70273809D01*
X174261904Y-70511904D01*
X174214285Y-70607142D01*
X174166666Y-70654761D01*
X174071428Y-70702380D01*
X173833333Y-70702380D01*
X173738095Y-70654761D01*
X173690476Y-70607142D01*
%TO.C,R16*%
X162357142Y-71702380D02*
X162023809Y-71226190D01*
X161785714Y-71702380D02*
X161785714Y-70702380D01*
X162166666Y-70702380D01*
X162261904Y-70750000D01*
X162309523Y-70797619D01*
X162357142Y-70892857D01*
X162357142Y-71035714D01*
X162309523Y-71130952D01*
X162261904Y-71178571D01*
X162166666Y-71226190D01*
X161785714Y-71226190D01*
X163309523Y-71702380D02*
X162738095Y-71702380D01*
X163023809Y-71702380D02*
X163023809Y-70702380D01*
X162928571Y-70845238D01*
X162833333Y-70940476D01*
X162738095Y-70988095D01*
X164166666Y-70702380D02*
X163976190Y-70702380D01*
X163880952Y-70750000D01*
X163833333Y-70797619D01*
X163738095Y-70940476D01*
X163690476Y-71130952D01*
X163690476Y-71511904D01*
X163738095Y-71607142D01*
X163785714Y-71654761D01*
X163880952Y-71702380D01*
X164071428Y-71702380D01*
X164166666Y-71654761D01*
X164214285Y-71607142D01*
X164261904Y-71511904D01*
X164261904Y-71273809D01*
X164214285Y-71178571D01*
X164166666Y-71130952D01*
X164071428Y-71083333D01*
X163880952Y-71083333D01*
X163785714Y-71130952D01*
X163738095Y-71178571D01*
X163690476Y-71273809D01*
%TO.C,R17*%
X172357142Y-72702380D02*
X172023809Y-72226190D01*
X171785714Y-72702380D02*
X171785714Y-71702380D01*
X172166666Y-71702380D01*
X172261904Y-71750000D01*
X172309523Y-71797619D01*
X172357142Y-71892857D01*
X172357142Y-72035714D01*
X172309523Y-72130952D01*
X172261904Y-72178571D01*
X172166666Y-72226190D01*
X171785714Y-72226190D01*
X173309523Y-72702380D02*
X172738095Y-72702380D01*
X173023809Y-72702380D02*
X173023809Y-71702380D01*
X172928571Y-71845238D01*
X172833333Y-71940476D01*
X172738095Y-71988095D01*
X173642857Y-71702380D02*
X174309523Y-71702380D01*
X173880952Y-72702380D01*
%TO.C,R18*%
X162357142Y-73702380D02*
X162023809Y-73226190D01*
X161785714Y-73702380D02*
X161785714Y-72702380D01*
X162166666Y-72702380D01*
X162261904Y-72750000D01*
X162309523Y-72797619D01*
X162357142Y-72892857D01*
X162357142Y-73035714D01*
X162309523Y-73130952D01*
X162261904Y-73178571D01*
X162166666Y-73226190D01*
X161785714Y-73226190D01*
X163309523Y-73702380D02*
X162738095Y-73702380D01*
X163023809Y-73702380D02*
X163023809Y-72702380D01*
X162928571Y-72845238D01*
X162833333Y-72940476D01*
X162738095Y-72988095D01*
X163880952Y-73130952D02*
X163785714Y-73083333D01*
X163738095Y-73035714D01*
X163690476Y-72940476D01*
X163690476Y-72892857D01*
X163738095Y-72797619D01*
X163785714Y-72750000D01*
X163880952Y-72702380D01*
X164071428Y-72702380D01*
X164166666Y-72750000D01*
X164214285Y-72797619D01*
X164261904Y-72892857D01*
X164261904Y-72940476D01*
X164214285Y-73035714D01*
X164166666Y-73083333D01*
X164071428Y-73130952D01*
X163880952Y-73130952D01*
X163785714Y-73178571D01*
X163738095Y-73226190D01*
X163690476Y-73321428D01*
X163690476Y-73511904D01*
X163738095Y-73607142D01*
X163785714Y-73654761D01*
X163880952Y-73702380D01*
X164071428Y-73702380D01*
X164166666Y-73654761D01*
X164214285Y-73607142D01*
X164261904Y-73511904D01*
X164261904Y-73321428D01*
X164214285Y-73226190D01*
X164166666Y-73178571D01*
X164071428Y-73130952D01*
%TO.C,R19*%
X172357142Y-74702380D02*
X172023809Y-74226190D01*
X171785714Y-74702380D02*
X171785714Y-73702380D01*
X172166666Y-73702380D01*
X172261904Y-73750000D01*
X172309523Y-73797619D01*
X172357142Y-73892857D01*
X172357142Y-74035714D01*
X172309523Y-74130952D01*
X172261904Y-74178571D01*
X172166666Y-74226190D01*
X171785714Y-74226190D01*
X173309523Y-74702380D02*
X172738095Y-74702380D01*
X173023809Y-74702380D02*
X173023809Y-73702380D01*
X172928571Y-73845238D01*
X172833333Y-73940476D01*
X172738095Y-73988095D01*
X173785714Y-74702380D02*
X173976190Y-74702380D01*
X174071428Y-74654761D01*
X174119047Y-74607142D01*
X174214285Y-74464285D01*
X174261904Y-74273809D01*
X174261904Y-73892857D01*
X174214285Y-73797619D01*
X174166666Y-73750000D01*
X174071428Y-73702380D01*
X173880952Y-73702380D01*
X173785714Y-73750000D01*
X173738095Y-73797619D01*
X173690476Y-73892857D01*
X173690476Y-74130952D01*
X173738095Y-74226190D01*
X173785714Y-74273809D01*
X173880952Y-74321428D01*
X174071428Y-74321428D01*
X174166666Y-74273809D01*
X174214285Y-74226190D01*
X174261904Y-74130952D01*
%TO.C,R20*%
X162357142Y-75702380D02*
X162023809Y-75226190D01*
X161785714Y-75702380D02*
X161785714Y-74702380D01*
X162166666Y-74702380D01*
X162261904Y-74750000D01*
X162309523Y-74797619D01*
X162357142Y-74892857D01*
X162357142Y-75035714D01*
X162309523Y-75130952D01*
X162261904Y-75178571D01*
X162166666Y-75226190D01*
X161785714Y-75226190D01*
X162738095Y-74797619D02*
X162785714Y-74750000D01*
X162880952Y-74702380D01*
X163119047Y-74702380D01*
X163214285Y-74750000D01*
X163261904Y-74797619D01*
X163309523Y-74892857D01*
X163309523Y-74988095D01*
X163261904Y-75130952D01*
X162690476Y-75702380D01*
X163309523Y-75702380D01*
X163928571Y-74702380D02*
X164023809Y-74702380D01*
X164119047Y-74750000D01*
X164166666Y-74797619D01*
X164214285Y-74892857D01*
X164261904Y-75083333D01*
X164261904Y-75321428D01*
X164214285Y-75511904D01*
X164166666Y-75607142D01*
X164119047Y-75654761D01*
X164023809Y-75702380D01*
X163928571Y-75702380D01*
X163833333Y-75654761D01*
X163785714Y-75607142D01*
X163738095Y-75511904D01*
X163690476Y-75321428D01*
X163690476Y-75083333D01*
X163738095Y-74892857D01*
X163785714Y-74797619D01*
X163833333Y-74750000D01*
X163928571Y-74702380D01*
%TO.C,R21*%
X172357142Y-76702380D02*
X172023809Y-76226190D01*
X171785714Y-76702380D02*
X171785714Y-75702380D01*
X172166666Y-75702380D01*
X172261904Y-75750000D01*
X172309523Y-75797619D01*
X172357142Y-75892857D01*
X172357142Y-76035714D01*
X172309523Y-76130952D01*
X172261904Y-76178571D01*
X172166666Y-76226190D01*
X171785714Y-76226190D01*
X172738095Y-75797619D02*
X172785714Y-75750000D01*
X172880952Y-75702380D01*
X173119047Y-75702380D01*
X173214285Y-75750000D01*
X173261904Y-75797619D01*
X173309523Y-75892857D01*
X173309523Y-75988095D01*
X173261904Y-76130952D01*
X172690476Y-76702380D01*
X173309523Y-76702380D01*
X174261904Y-76702380D02*
X173690476Y-76702380D01*
X173976190Y-76702380D02*
X173976190Y-75702380D01*
X173880952Y-75845238D01*
X173785714Y-75940476D01*
X173690476Y-75988095D01*
%TO.C,R22*%
X162357142Y-77702380D02*
X162023809Y-77226190D01*
X161785714Y-77702380D02*
X161785714Y-76702380D01*
X162166666Y-76702380D01*
X162261904Y-76750000D01*
X162309523Y-76797619D01*
X162357142Y-76892857D01*
X162357142Y-77035714D01*
X162309523Y-77130952D01*
X162261904Y-77178571D01*
X162166666Y-77226190D01*
X161785714Y-77226190D01*
X162738095Y-76797619D02*
X162785714Y-76750000D01*
X162880952Y-76702380D01*
X163119047Y-76702380D01*
X163214285Y-76750000D01*
X163261904Y-76797619D01*
X163309523Y-76892857D01*
X163309523Y-76988095D01*
X163261904Y-77130952D01*
X162690476Y-77702380D01*
X163309523Y-77702380D01*
X163690476Y-76797619D02*
X163738095Y-76750000D01*
X163833333Y-76702380D01*
X164071428Y-76702380D01*
X164166666Y-76750000D01*
X164214285Y-76797619D01*
X164261904Y-76892857D01*
X164261904Y-76988095D01*
X164214285Y-77130952D01*
X163642857Y-77702380D01*
X164261904Y-77702380D01*
%TO.C,R23*%
X172357142Y-78702380D02*
X172023809Y-78226190D01*
X171785714Y-78702380D02*
X171785714Y-77702380D01*
X172166666Y-77702380D01*
X172261904Y-77750000D01*
X172309523Y-77797619D01*
X172357142Y-77892857D01*
X172357142Y-78035714D01*
X172309523Y-78130952D01*
X172261904Y-78178571D01*
X172166666Y-78226190D01*
X171785714Y-78226190D01*
X172738095Y-77797619D02*
X172785714Y-77750000D01*
X172880952Y-77702380D01*
X173119047Y-77702380D01*
X173214285Y-77750000D01*
X173261904Y-77797619D01*
X173309523Y-77892857D01*
X173309523Y-77988095D01*
X173261904Y-78130952D01*
X172690476Y-78702380D01*
X173309523Y-78702380D01*
X173642857Y-77702380D02*
X174261904Y-77702380D01*
X173928571Y-78083333D01*
X174071428Y-78083333D01*
X174166666Y-78130952D01*
X174214285Y-78178571D01*
X174261904Y-78273809D01*
X174261904Y-78511904D01*
X174214285Y-78607142D01*
X174166666Y-78654761D01*
X174071428Y-78702380D01*
X173785714Y-78702380D01*
X173690476Y-78654761D01*
X173642857Y-78607142D01*
%TO.C,R24*%
X162357142Y-79702380D02*
X162023809Y-79226190D01*
X161785714Y-79702380D02*
X161785714Y-78702380D01*
X162166666Y-78702380D01*
X162261904Y-78750000D01*
X162309523Y-78797619D01*
X162357142Y-78892857D01*
X162357142Y-79035714D01*
X162309523Y-79130952D01*
X162261904Y-79178571D01*
X162166666Y-79226190D01*
X161785714Y-79226190D01*
X162738095Y-78797619D02*
X162785714Y-78750000D01*
X162880952Y-78702380D01*
X163119047Y-78702380D01*
X163214285Y-78750000D01*
X163261904Y-78797619D01*
X163309523Y-78892857D01*
X163309523Y-78988095D01*
X163261904Y-79130952D01*
X162690476Y-79702380D01*
X163309523Y-79702380D01*
X164166666Y-79035714D02*
X164166666Y-79702380D01*
X163928571Y-78654761D02*
X163690476Y-79369047D01*
X164309523Y-79369047D01*
%TO.C,R25*%
X172357142Y-80702380D02*
X172023809Y-80226190D01*
X171785714Y-80702380D02*
X171785714Y-79702380D01*
X172166666Y-79702380D01*
X172261904Y-79750000D01*
X172309523Y-79797619D01*
X172357142Y-79892857D01*
X172357142Y-80035714D01*
X172309523Y-80130952D01*
X172261904Y-80178571D01*
X172166666Y-80226190D01*
X171785714Y-80226190D01*
X172738095Y-79797619D02*
X172785714Y-79750000D01*
X172880952Y-79702380D01*
X173119047Y-79702380D01*
X173214285Y-79750000D01*
X173261904Y-79797619D01*
X173309523Y-79892857D01*
X173309523Y-79988095D01*
X173261904Y-80130952D01*
X172690476Y-80702380D01*
X173309523Y-80702380D01*
X174214285Y-79702380D02*
X173738095Y-79702380D01*
X173690476Y-80178571D01*
X173738095Y-80130952D01*
X173833333Y-80083333D01*
X174071428Y-80083333D01*
X174166666Y-80130952D01*
X174214285Y-80178571D01*
X174261904Y-80273809D01*
X174261904Y-80511904D01*
X174214285Y-80607142D01*
X174166666Y-80654761D01*
X174071428Y-80702380D01*
X173833333Y-80702380D01*
X173738095Y-80654761D01*
X173690476Y-80607142D01*
%TO.C,R26*%
X162357142Y-81702380D02*
X162023809Y-81226190D01*
X161785714Y-81702380D02*
X161785714Y-80702380D01*
X162166666Y-80702380D01*
X162261904Y-80750000D01*
X162309523Y-80797619D01*
X162357142Y-80892857D01*
X162357142Y-81035714D01*
X162309523Y-81130952D01*
X162261904Y-81178571D01*
X162166666Y-81226190D01*
X161785714Y-81226190D01*
X162738095Y-80797619D02*
X162785714Y-80750000D01*
X162880952Y-80702380D01*
X163119047Y-80702380D01*
X163214285Y-80750000D01*
X163261904Y-80797619D01*
X163309523Y-80892857D01*
X163309523Y-80988095D01*
X163261904Y-81130952D01*
X162690476Y-81702380D01*
X163309523Y-81702380D01*
X164166666Y-80702380D02*
X163976190Y-80702380D01*
X163880952Y-80750000D01*
X163833333Y-80797619D01*
X163738095Y-80940476D01*
X163690476Y-81130952D01*
X163690476Y-81511904D01*
X163738095Y-81607142D01*
X163785714Y-81654761D01*
X163880952Y-81702380D01*
X164071428Y-81702380D01*
X164166666Y-81654761D01*
X164214285Y-81607142D01*
X164261904Y-81511904D01*
X164261904Y-81273809D01*
X164214285Y-81178571D01*
X164166666Y-81130952D01*
X164071428Y-81083333D01*
X163880952Y-81083333D01*
X163785714Y-81130952D01*
X163738095Y-81178571D01*
X163690476Y-81273809D01*
%TO.C,R27*%
X172357142Y-82702380D02*
X172023809Y-82226190D01*
X171785714Y-82702380D02*
X171785714Y-81702380D01*
X172166666Y-81702380D01*
X172261904Y-81750000D01*
X172309523Y-81797619D01*
X172357142Y-81892857D01*
X172357142Y-82035714D01*
X172309523Y-82130952D01*
X172261904Y-82178571D01*
X172166666Y-82226190D01*
X171785714Y-82226190D01*
X172738095Y-81797619D02*
X172785714Y-81750000D01*
X172880952Y-81702380D01*
X173119047Y-81702380D01*
X173214285Y-81750000D01*
X173261904Y-81797619D01*
X173309523Y-81892857D01*
X173309523Y-81988095D01*
X173261904Y-82130952D01*
X172690476Y-82702380D01*
X173309523Y-82702380D01*
X173642857Y-81702380D02*
X174309523Y-81702380D01*
X173880952Y-82702380D01*
%TO.C,R28*%
X162357142Y-83702380D02*
X162023809Y-83226190D01*
X161785714Y-83702380D02*
X161785714Y-82702380D01*
X162166666Y-82702380D01*
X162261904Y-82750000D01*
X162309523Y-82797619D01*
X162357142Y-82892857D01*
X162357142Y-83035714D01*
X162309523Y-83130952D01*
X162261904Y-83178571D01*
X162166666Y-83226190D01*
X161785714Y-83226190D01*
X162738095Y-82797619D02*
X162785714Y-82750000D01*
X162880952Y-82702380D01*
X163119047Y-82702380D01*
X163214285Y-82750000D01*
X163261904Y-82797619D01*
X163309523Y-82892857D01*
X163309523Y-82988095D01*
X163261904Y-83130952D01*
X162690476Y-83702380D01*
X163309523Y-83702380D01*
X163880952Y-83130952D02*
X163785714Y-83083333D01*
X163738095Y-83035714D01*
X163690476Y-82940476D01*
X163690476Y-82892857D01*
X163738095Y-82797619D01*
X163785714Y-82750000D01*
X163880952Y-82702380D01*
X164071428Y-82702380D01*
X164166666Y-82750000D01*
X164214285Y-82797619D01*
X164261904Y-82892857D01*
X164261904Y-82940476D01*
X164214285Y-83035714D01*
X164166666Y-83083333D01*
X164071428Y-83130952D01*
X163880952Y-83130952D01*
X163785714Y-83178571D01*
X163738095Y-83226190D01*
X163690476Y-83321428D01*
X163690476Y-83511904D01*
X163738095Y-83607142D01*
X163785714Y-83654761D01*
X163880952Y-83702380D01*
X164071428Y-83702380D01*
X164166666Y-83654761D01*
X164214285Y-83607142D01*
X164261904Y-83511904D01*
X164261904Y-83321428D01*
X164214285Y-83226190D01*
X164166666Y-83178571D01*
X164071428Y-83130952D01*
%TO.C,R29*%
X172357142Y-84702380D02*
X172023809Y-84226190D01*
X171785714Y-84702380D02*
X171785714Y-83702380D01*
X172166666Y-83702380D01*
X172261904Y-83750000D01*
X172309523Y-83797619D01*
X172357142Y-83892857D01*
X172357142Y-84035714D01*
X172309523Y-84130952D01*
X172261904Y-84178571D01*
X172166666Y-84226190D01*
X171785714Y-84226190D01*
X172738095Y-83797619D02*
X172785714Y-83750000D01*
X172880952Y-83702380D01*
X173119047Y-83702380D01*
X173214285Y-83750000D01*
X173261904Y-83797619D01*
X173309523Y-83892857D01*
X173309523Y-83988095D01*
X173261904Y-84130952D01*
X172690476Y-84702380D01*
X173309523Y-84702380D01*
X173785714Y-84702380D02*
X173976190Y-84702380D01*
X174071428Y-84654761D01*
X174119047Y-84607142D01*
X174214285Y-84464285D01*
X174261904Y-84273809D01*
X174261904Y-83892857D01*
X174214285Y-83797619D01*
X174166666Y-83750000D01*
X174071428Y-83702380D01*
X173880952Y-83702380D01*
X173785714Y-83750000D01*
X173738095Y-83797619D01*
X173690476Y-83892857D01*
X173690476Y-84130952D01*
X173738095Y-84226190D01*
X173785714Y-84273809D01*
X173880952Y-84321428D01*
X174071428Y-84321428D01*
X174166666Y-84273809D01*
X174214285Y-84226190D01*
X174261904Y-84130952D01*
%TO.C,R30*%
X198357142Y-95452380D02*
X198023809Y-94976190D01*
X197785714Y-95452380D02*
X197785714Y-94452380D01*
X198166666Y-94452380D01*
X198261904Y-94500000D01*
X198309523Y-94547619D01*
X198357142Y-94642857D01*
X198357142Y-94785714D01*
X198309523Y-94880952D01*
X198261904Y-94928571D01*
X198166666Y-94976190D01*
X197785714Y-94976190D01*
X198690476Y-94452380D02*
X199309523Y-94452380D01*
X198976190Y-94833333D01*
X199119047Y-94833333D01*
X199214285Y-94880952D01*
X199261904Y-94928571D01*
X199309523Y-95023809D01*
X199309523Y-95261904D01*
X199261904Y-95357142D01*
X199214285Y-95404761D01*
X199119047Y-95452380D01*
X198833333Y-95452380D01*
X198738095Y-95404761D01*
X198690476Y-95357142D01*
X199928571Y-94452380D02*
X200023809Y-94452380D01*
X200119047Y-94500000D01*
X200166666Y-94547619D01*
X200214285Y-94642857D01*
X200261904Y-94833333D01*
X200261904Y-95071428D01*
X200214285Y-95261904D01*
X200166666Y-95357142D01*
X200119047Y-95404761D01*
X200023809Y-95452380D01*
X199928571Y-95452380D01*
X199833333Y-95404761D01*
X199785714Y-95357142D01*
X199738095Y-95261904D01*
X199690476Y-95071428D01*
X199690476Y-94833333D01*
X199738095Y-94642857D01*
X199785714Y-94547619D01*
X199833333Y-94500000D01*
X199928571Y-94452380D01*
%TO.C,R31*%
X198357142Y-89952380D02*
X198023809Y-89476190D01*
X197785714Y-89952380D02*
X197785714Y-88952380D01*
X198166666Y-88952380D01*
X198261904Y-89000000D01*
X198309523Y-89047619D01*
X198357142Y-89142857D01*
X198357142Y-89285714D01*
X198309523Y-89380952D01*
X198261904Y-89428571D01*
X198166666Y-89476190D01*
X197785714Y-89476190D01*
X198690476Y-88952380D02*
X199309523Y-88952380D01*
X198976190Y-89333333D01*
X199119047Y-89333333D01*
X199214285Y-89380952D01*
X199261904Y-89428571D01*
X199309523Y-89523809D01*
X199309523Y-89761904D01*
X199261904Y-89857142D01*
X199214285Y-89904761D01*
X199119047Y-89952380D01*
X198833333Y-89952380D01*
X198738095Y-89904761D01*
X198690476Y-89857142D01*
X200261904Y-89952380D02*
X199690476Y-89952380D01*
X199976190Y-89952380D02*
X199976190Y-88952380D01*
X199880952Y-89095238D01*
X199785714Y-89190476D01*
X199690476Y-89238095D01*
%TO.C,R32*%
X198357142Y-84452380D02*
X198023809Y-83976190D01*
X197785714Y-84452380D02*
X197785714Y-83452380D01*
X198166666Y-83452380D01*
X198261904Y-83500000D01*
X198309523Y-83547619D01*
X198357142Y-83642857D01*
X198357142Y-83785714D01*
X198309523Y-83880952D01*
X198261904Y-83928571D01*
X198166666Y-83976190D01*
X197785714Y-83976190D01*
X198690476Y-83452380D02*
X199309523Y-83452380D01*
X198976190Y-83833333D01*
X199119047Y-83833333D01*
X199214285Y-83880952D01*
X199261904Y-83928571D01*
X199309523Y-84023809D01*
X199309523Y-84261904D01*
X199261904Y-84357142D01*
X199214285Y-84404761D01*
X199119047Y-84452380D01*
X198833333Y-84452380D01*
X198738095Y-84404761D01*
X198690476Y-84357142D01*
X199690476Y-83547619D02*
X199738095Y-83500000D01*
X199833333Y-83452380D01*
X200071428Y-83452380D01*
X200166666Y-83500000D01*
X200214285Y-83547619D01*
X200261904Y-83642857D01*
X200261904Y-83738095D01*
X200214285Y-83880952D01*
X199642857Y-84452380D01*
X200261904Y-84452380D01*
%TO.C,R33*%
X198357142Y-78952380D02*
X198023809Y-78476190D01*
X197785714Y-78952380D02*
X197785714Y-77952380D01*
X198166666Y-77952380D01*
X198261904Y-78000000D01*
X198309523Y-78047619D01*
X198357142Y-78142857D01*
X198357142Y-78285714D01*
X198309523Y-78380952D01*
X198261904Y-78428571D01*
X198166666Y-78476190D01*
X197785714Y-78476190D01*
X198690476Y-77952380D02*
X199309523Y-77952380D01*
X198976190Y-78333333D01*
X199119047Y-78333333D01*
X199214285Y-78380952D01*
X199261904Y-78428571D01*
X199309523Y-78523809D01*
X199309523Y-78761904D01*
X199261904Y-78857142D01*
X199214285Y-78904761D01*
X199119047Y-78952380D01*
X198833333Y-78952380D01*
X198738095Y-78904761D01*
X198690476Y-78857142D01*
X199642857Y-77952380D02*
X200261904Y-77952380D01*
X199928571Y-78333333D01*
X200071428Y-78333333D01*
X200166666Y-78380952D01*
X200214285Y-78428571D01*
X200261904Y-78523809D01*
X200261904Y-78761904D01*
X200214285Y-78857142D01*
X200166666Y-78904761D01*
X200071428Y-78952380D01*
X199785714Y-78952380D01*
X199690476Y-78904761D01*
X199642857Y-78857142D01*
%TO.C,R34*%
X198357142Y-73452380D02*
X198023809Y-72976190D01*
X197785714Y-73452380D02*
X197785714Y-72452380D01*
X198166666Y-72452380D01*
X198261904Y-72500000D01*
X198309523Y-72547619D01*
X198357142Y-72642857D01*
X198357142Y-72785714D01*
X198309523Y-72880952D01*
X198261904Y-72928571D01*
X198166666Y-72976190D01*
X197785714Y-72976190D01*
X198690476Y-72452380D02*
X199309523Y-72452380D01*
X198976190Y-72833333D01*
X199119047Y-72833333D01*
X199214285Y-72880952D01*
X199261904Y-72928571D01*
X199309523Y-73023809D01*
X199309523Y-73261904D01*
X199261904Y-73357142D01*
X199214285Y-73404761D01*
X199119047Y-73452380D01*
X198833333Y-73452380D01*
X198738095Y-73404761D01*
X198690476Y-73357142D01*
X200166666Y-72785714D02*
X200166666Y-73452380D01*
X199928571Y-72404761D02*
X199690476Y-73119047D01*
X200309523Y-73119047D01*
%TO.C,R35*%
X198357142Y-67952380D02*
X198023809Y-67476190D01*
X197785714Y-67952380D02*
X197785714Y-66952380D01*
X198166666Y-66952380D01*
X198261904Y-67000000D01*
X198309523Y-67047619D01*
X198357142Y-67142857D01*
X198357142Y-67285714D01*
X198309523Y-67380952D01*
X198261904Y-67428571D01*
X198166666Y-67476190D01*
X197785714Y-67476190D01*
X198690476Y-66952380D02*
X199309523Y-66952380D01*
X198976190Y-67333333D01*
X199119047Y-67333333D01*
X199214285Y-67380952D01*
X199261904Y-67428571D01*
X199309523Y-67523809D01*
X199309523Y-67761904D01*
X199261904Y-67857142D01*
X199214285Y-67904761D01*
X199119047Y-67952380D01*
X198833333Y-67952380D01*
X198738095Y-67904761D01*
X198690476Y-67857142D01*
X200214285Y-66952380D02*
X199738095Y-66952380D01*
X199690476Y-67428571D01*
X199738095Y-67380952D01*
X199833333Y-67333333D01*
X200071428Y-67333333D01*
X200166666Y-67380952D01*
X200214285Y-67428571D01*
X200261904Y-67523809D01*
X200261904Y-67761904D01*
X200214285Y-67857142D01*
X200166666Y-67904761D01*
X200071428Y-67952380D01*
X199833333Y-67952380D01*
X199738095Y-67904761D01*
X199690476Y-67857142D01*
%TO.C,R36*%
X198357142Y-62452380D02*
X198023809Y-61976190D01*
X197785714Y-62452380D02*
X197785714Y-61452380D01*
X198166666Y-61452380D01*
X198261904Y-61500000D01*
X198309523Y-61547619D01*
X198357142Y-61642857D01*
X198357142Y-61785714D01*
X198309523Y-61880952D01*
X198261904Y-61928571D01*
X198166666Y-61976190D01*
X197785714Y-61976190D01*
X198690476Y-61452380D02*
X199309523Y-61452380D01*
X198976190Y-61833333D01*
X199119047Y-61833333D01*
X199214285Y-61880952D01*
X199261904Y-61928571D01*
X199309523Y-62023809D01*
X199309523Y-62261904D01*
X199261904Y-62357142D01*
X199214285Y-62404761D01*
X199119047Y-62452380D01*
X198833333Y-62452380D01*
X198738095Y-62404761D01*
X198690476Y-62357142D01*
X200166666Y-61452380D02*
X199976190Y-61452380D01*
X199880952Y-61500000D01*
X199833333Y-61547619D01*
X199738095Y-61690476D01*
X199690476Y-61880952D01*
X199690476Y-62261904D01*
X199738095Y-62357142D01*
X199785714Y-62404761D01*
X199880952Y-62452380D01*
X200071428Y-62452380D01*
X200166666Y-62404761D01*
X200214285Y-62357142D01*
X200261904Y-62261904D01*
X200261904Y-62023809D01*
X200214285Y-61928571D01*
X200166666Y-61880952D01*
X200071428Y-61833333D01*
X199880952Y-61833333D01*
X199785714Y-61880952D01*
X199738095Y-61928571D01*
X199690476Y-62023809D01*
%TO.C,R37*%
X198357142Y-93952380D02*
X198023809Y-93476190D01*
X197785714Y-93952380D02*
X197785714Y-92952380D01*
X198166666Y-92952380D01*
X198261904Y-93000000D01*
X198309523Y-93047619D01*
X198357142Y-93142857D01*
X198357142Y-93285714D01*
X198309523Y-93380952D01*
X198261904Y-93428571D01*
X198166666Y-93476190D01*
X197785714Y-93476190D01*
X198690476Y-92952380D02*
X199309523Y-92952380D01*
X198976190Y-93333333D01*
X199119047Y-93333333D01*
X199214285Y-93380952D01*
X199261904Y-93428571D01*
X199309523Y-93523809D01*
X199309523Y-93761904D01*
X199261904Y-93857142D01*
X199214285Y-93904761D01*
X199119047Y-93952380D01*
X198833333Y-93952380D01*
X198738095Y-93904761D01*
X198690476Y-93857142D01*
X199642857Y-92952380D02*
X200309523Y-92952380D01*
X199880952Y-93952380D01*
%TO.C,R38*%
X198357142Y-88452380D02*
X198023809Y-87976190D01*
X197785714Y-88452380D02*
X197785714Y-87452380D01*
X198166666Y-87452380D01*
X198261904Y-87500000D01*
X198309523Y-87547619D01*
X198357142Y-87642857D01*
X198357142Y-87785714D01*
X198309523Y-87880952D01*
X198261904Y-87928571D01*
X198166666Y-87976190D01*
X197785714Y-87976190D01*
X198690476Y-87452380D02*
X199309523Y-87452380D01*
X198976190Y-87833333D01*
X199119047Y-87833333D01*
X199214285Y-87880952D01*
X199261904Y-87928571D01*
X199309523Y-88023809D01*
X199309523Y-88261904D01*
X199261904Y-88357142D01*
X199214285Y-88404761D01*
X199119047Y-88452380D01*
X198833333Y-88452380D01*
X198738095Y-88404761D01*
X198690476Y-88357142D01*
X199880952Y-87880952D02*
X199785714Y-87833333D01*
X199738095Y-87785714D01*
X199690476Y-87690476D01*
X199690476Y-87642857D01*
X199738095Y-87547619D01*
X199785714Y-87500000D01*
X199880952Y-87452380D01*
X200071428Y-87452380D01*
X200166666Y-87500000D01*
X200214285Y-87547619D01*
X200261904Y-87642857D01*
X200261904Y-87690476D01*
X200214285Y-87785714D01*
X200166666Y-87833333D01*
X200071428Y-87880952D01*
X199880952Y-87880952D01*
X199785714Y-87928571D01*
X199738095Y-87976190D01*
X199690476Y-88071428D01*
X199690476Y-88261904D01*
X199738095Y-88357142D01*
X199785714Y-88404761D01*
X199880952Y-88452380D01*
X200071428Y-88452380D01*
X200166666Y-88404761D01*
X200214285Y-88357142D01*
X200261904Y-88261904D01*
X200261904Y-88071428D01*
X200214285Y-87976190D01*
X200166666Y-87928571D01*
X200071428Y-87880952D01*
%TO.C,R39*%
X198357142Y-82952380D02*
X198023809Y-82476190D01*
X197785714Y-82952380D02*
X197785714Y-81952380D01*
X198166666Y-81952380D01*
X198261904Y-82000000D01*
X198309523Y-82047619D01*
X198357142Y-82142857D01*
X198357142Y-82285714D01*
X198309523Y-82380952D01*
X198261904Y-82428571D01*
X198166666Y-82476190D01*
X197785714Y-82476190D01*
X198690476Y-81952380D02*
X199309523Y-81952380D01*
X198976190Y-82333333D01*
X199119047Y-82333333D01*
X199214285Y-82380952D01*
X199261904Y-82428571D01*
X199309523Y-82523809D01*
X199309523Y-82761904D01*
X199261904Y-82857142D01*
X199214285Y-82904761D01*
X199119047Y-82952380D01*
X198833333Y-82952380D01*
X198738095Y-82904761D01*
X198690476Y-82857142D01*
X199785714Y-82952380D02*
X199976190Y-82952380D01*
X200071428Y-82904761D01*
X200119047Y-82857142D01*
X200214285Y-82714285D01*
X200261904Y-82523809D01*
X200261904Y-82142857D01*
X200214285Y-82047619D01*
X200166666Y-82000000D01*
X200071428Y-81952380D01*
X199880952Y-81952380D01*
X199785714Y-82000000D01*
X199738095Y-82047619D01*
X199690476Y-82142857D01*
X199690476Y-82380952D01*
X199738095Y-82476190D01*
X199785714Y-82523809D01*
X199880952Y-82571428D01*
X200071428Y-82571428D01*
X200166666Y-82523809D01*
X200214285Y-82476190D01*
X200261904Y-82380952D01*
%TO.C,R40*%
X198357142Y-77452380D02*
X198023809Y-76976190D01*
X197785714Y-77452380D02*
X197785714Y-76452380D01*
X198166666Y-76452380D01*
X198261904Y-76500000D01*
X198309523Y-76547619D01*
X198357142Y-76642857D01*
X198357142Y-76785714D01*
X198309523Y-76880952D01*
X198261904Y-76928571D01*
X198166666Y-76976190D01*
X197785714Y-76976190D01*
X199214285Y-76785714D02*
X199214285Y-77452380D01*
X198976190Y-76404761D02*
X198738095Y-77119047D01*
X199357142Y-77119047D01*
X199928571Y-76452380D02*
X200023809Y-76452380D01*
X200119047Y-76500000D01*
X200166666Y-76547619D01*
X200214285Y-76642857D01*
X200261904Y-76833333D01*
X200261904Y-77071428D01*
X200214285Y-77261904D01*
X200166666Y-77357142D01*
X200119047Y-77404761D01*
X200023809Y-77452380D01*
X199928571Y-77452380D01*
X199833333Y-77404761D01*
X199785714Y-77357142D01*
X199738095Y-77261904D01*
X199690476Y-77071428D01*
X199690476Y-76833333D01*
X199738095Y-76642857D01*
X199785714Y-76547619D01*
X199833333Y-76500000D01*
X199928571Y-76452380D01*
%TO.C,R41*%
X198357142Y-71952380D02*
X198023809Y-71476190D01*
X197785714Y-71952380D02*
X197785714Y-70952380D01*
X198166666Y-70952380D01*
X198261904Y-71000000D01*
X198309523Y-71047619D01*
X198357142Y-71142857D01*
X198357142Y-71285714D01*
X198309523Y-71380952D01*
X198261904Y-71428571D01*
X198166666Y-71476190D01*
X197785714Y-71476190D01*
X199214285Y-71285714D02*
X199214285Y-71952380D01*
X198976190Y-70904761D02*
X198738095Y-71619047D01*
X199357142Y-71619047D01*
X200261904Y-71952380D02*
X199690476Y-71952380D01*
X199976190Y-71952380D02*
X199976190Y-70952380D01*
X199880952Y-71095238D01*
X199785714Y-71190476D01*
X199690476Y-71238095D01*
%TO.C,R42*%
X198357142Y-66452380D02*
X198023809Y-65976190D01*
X197785714Y-66452380D02*
X197785714Y-65452380D01*
X198166666Y-65452380D01*
X198261904Y-65500000D01*
X198309523Y-65547619D01*
X198357142Y-65642857D01*
X198357142Y-65785714D01*
X198309523Y-65880952D01*
X198261904Y-65928571D01*
X198166666Y-65976190D01*
X197785714Y-65976190D01*
X199214285Y-65785714D02*
X199214285Y-66452380D01*
X198976190Y-65404761D02*
X198738095Y-66119047D01*
X199357142Y-66119047D01*
X199690476Y-65547619D02*
X199738095Y-65500000D01*
X199833333Y-65452380D01*
X200071428Y-65452380D01*
X200166666Y-65500000D01*
X200214285Y-65547619D01*
X200261904Y-65642857D01*
X200261904Y-65738095D01*
X200214285Y-65880952D01*
X199642857Y-66452380D01*
X200261904Y-66452380D01*
%TO.C,R43*%
X198357142Y-60952380D02*
X198023809Y-60476190D01*
X197785714Y-60952380D02*
X197785714Y-59952380D01*
X198166666Y-59952380D01*
X198261904Y-60000000D01*
X198309523Y-60047619D01*
X198357142Y-60142857D01*
X198357142Y-60285714D01*
X198309523Y-60380952D01*
X198261904Y-60428571D01*
X198166666Y-60476190D01*
X197785714Y-60476190D01*
X199214285Y-60285714D02*
X199214285Y-60952380D01*
X198976190Y-59904761D02*
X198738095Y-60619047D01*
X199357142Y-60619047D01*
X199642857Y-59952380D02*
X200261904Y-59952380D01*
X199928571Y-60333333D01*
X200071428Y-60333333D01*
X200166666Y-60380952D01*
X200214285Y-60428571D01*
X200261904Y-60523809D01*
X200261904Y-60761904D01*
X200214285Y-60857142D01*
X200166666Y-60904761D01*
X200071428Y-60952380D01*
X199785714Y-60952380D01*
X199690476Y-60904761D01*
X199642857Y-60857142D01*
%TO.C,SW1*%
X213416666Y-93904761D02*
X213559523Y-93952380D01*
X213797619Y-93952380D01*
X213892857Y-93904761D01*
X213940476Y-93857142D01*
X213988095Y-93761904D01*
X213988095Y-93666666D01*
X213940476Y-93571428D01*
X213892857Y-93523809D01*
X213797619Y-93476190D01*
X213607142Y-93428571D01*
X213511904Y-93380952D01*
X213464285Y-93333333D01*
X213416666Y-93238095D01*
X213416666Y-93142857D01*
X213464285Y-93047619D01*
X213511904Y-93000000D01*
X213607142Y-92952380D01*
X213845238Y-92952380D01*
X213988095Y-93000000D01*
X214321428Y-92952380D02*
X214559523Y-93952380D01*
X214750000Y-93238095D01*
X214940476Y-93952380D01*
X215178571Y-92952380D01*
X216083333Y-93952380D02*
X215511904Y-93952380D01*
X215797619Y-93952380D02*
X215797619Y-92952380D01*
X215702380Y-93095238D01*
X215607142Y-93190476D01*
X215511904Y-93238095D01*
%TO.C,SW2*%
X213416666Y-88404761D02*
X213559523Y-88452380D01*
X213797619Y-88452380D01*
X213892857Y-88404761D01*
X213940476Y-88357142D01*
X213988095Y-88261904D01*
X213988095Y-88166666D01*
X213940476Y-88071428D01*
X213892857Y-88023809D01*
X213797619Y-87976190D01*
X213607142Y-87928571D01*
X213511904Y-87880952D01*
X213464285Y-87833333D01*
X213416666Y-87738095D01*
X213416666Y-87642857D01*
X213464285Y-87547619D01*
X213511904Y-87500000D01*
X213607142Y-87452380D01*
X213845238Y-87452380D01*
X213988095Y-87500000D01*
X214321428Y-87452380D02*
X214559523Y-88452380D01*
X214750000Y-87738095D01*
X214940476Y-88452380D01*
X215178571Y-87452380D01*
X215511904Y-87547619D02*
X215559523Y-87500000D01*
X215654761Y-87452380D01*
X215892857Y-87452380D01*
X215988095Y-87500000D01*
X216035714Y-87547619D01*
X216083333Y-87642857D01*
X216083333Y-87738095D01*
X216035714Y-87880952D01*
X215464285Y-88452380D01*
X216083333Y-88452380D01*
%TO.C,SW3*%
X213416666Y-82904761D02*
X213559523Y-82952380D01*
X213797619Y-82952380D01*
X213892857Y-82904761D01*
X213940476Y-82857142D01*
X213988095Y-82761904D01*
X213988095Y-82666666D01*
X213940476Y-82571428D01*
X213892857Y-82523809D01*
X213797619Y-82476190D01*
X213607142Y-82428571D01*
X213511904Y-82380952D01*
X213464285Y-82333333D01*
X213416666Y-82238095D01*
X213416666Y-82142857D01*
X213464285Y-82047619D01*
X213511904Y-82000000D01*
X213607142Y-81952380D01*
X213845238Y-81952380D01*
X213988095Y-82000000D01*
X214321428Y-81952380D02*
X214559523Y-82952380D01*
X214750000Y-82238095D01*
X214940476Y-82952380D01*
X215178571Y-81952380D01*
X215464285Y-81952380D02*
X216083333Y-81952380D01*
X215750000Y-82333333D01*
X215892857Y-82333333D01*
X215988095Y-82380952D01*
X216035714Y-82428571D01*
X216083333Y-82523809D01*
X216083333Y-82761904D01*
X216035714Y-82857142D01*
X215988095Y-82904761D01*
X215892857Y-82952380D01*
X215607142Y-82952380D01*
X215511904Y-82904761D01*
X215464285Y-82857142D01*
%TO.C,SW4*%
X213416666Y-77404761D02*
X213559523Y-77452380D01*
X213797619Y-77452380D01*
X213892857Y-77404761D01*
X213940476Y-77357142D01*
X213988095Y-77261904D01*
X213988095Y-77166666D01*
X213940476Y-77071428D01*
X213892857Y-77023809D01*
X213797619Y-76976190D01*
X213607142Y-76928571D01*
X213511904Y-76880952D01*
X213464285Y-76833333D01*
X213416666Y-76738095D01*
X213416666Y-76642857D01*
X213464285Y-76547619D01*
X213511904Y-76500000D01*
X213607142Y-76452380D01*
X213845238Y-76452380D01*
X213988095Y-76500000D01*
X214321428Y-76452380D02*
X214559523Y-77452380D01*
X214750000Y-76738095D01*
X214940476Y-77452380D01*
X215178571Y-76452380D01*
X215988095Y-76785714D02*
X215988095Y-77452380D01*
X215750000Y-76404761D02*
X215511904Y-77119047D01*
X216130952Y-77119047D01*
%TO.C,SW5*%
X213416666Y-71904761D02*
X213559523Y-71952380D01*
X213797619Y-71952380D01*
X213892857Y-71904761D01*
X213940476Y-71857142D01*
X213988095Y-71761904D01*
X213988095Y-71666666D01*
X213940476Y-71571428D01*
X213892857Y-71523809D01*
X213797619Y-71476190D01*
X213607142Y-71428571D01*
X213511904Y-71380952D01*
X213464285Y-71333333D01*
X213416666Y-71238095D01*
X213416666Y-71142857D01*
X213464285Y-71047619D01*
X213511904Y-71000000D01*
X213607142Y-70952380D01*
X213845238Y-70952380D01*
X213988095Y-71000000D01*
X214321428Y-70952380D02*
X214559523Y-71952380D01*
X214750000Y-71238095D01*
X214940476Y-71952380D01*
X215178571Y-70952380D01*
X216035714Y-70952380D02*
X215559523Y-70952380D01*
X215511904Y-71428571D01*
X215559523Y-71380952D01*
X215654761Y-71333333D01*
X215892857Y-71333333D01*
X215988095Y-71380952D01*
X216035714Y-71428571D01*
X216083333Y-71523809D01*
X216083333Y-71761904D01*
X216035714Y-71857142D01*
X215988095Y-71904761D01*
X215892857Y-71952380D01*
X215654761Y-71952380D01*
X215559523Y-71904761D01*
X215511904Y-71857142D01*
%TO.C,SW6*%
X213416666Y-66404761D02*
X213559523Y-66452380D01*
X213797619Y-66452380D01*
X213892857Y-66404761D01*
X213940476Y-66357142D01*
X213988095Y-66261904D01*
X213988095Y-66166666D01*
X213940476Y-66071428D01*
X213892857Y-66023809D01*
X213797619Y-65976190D01*
X213607142Y-65928571D01*
X213511904Y-65880952D01*
X213464285Y-65833333D01*
X213416666Y-65738095D01*
X213416666Y-65642857D01*
X213464285Y-65547619D01*
X213511904Y-65500000D01*
X213607142Y-65452380D01*
X213845238Y-65452380D01*
X213988095Y-65500000D01*
X214321428Y-65452380D02*
X214559523Y-66452380D01*
X214750000Y-65738095D01*
X214940476Y-66452380D01*
X215178571Y-65452380D01*
X215988095Y-65452380D02*
X215797619Y-65452380D01*
X215702380Y-65500000D01*
X215654761Y-65547619D01*
X215559523Y-65690476D01*
X215511904Y-65880952D01*
X215511904Y-66261904D01*
X215559523Y-66357142D01*
X215607142Y-66404761D01*
X215702380Y-66452380D01*
X215892857Y-66452380D01*
X215988095Y-66404761D01*
X216035714Y-66357142D01*
X216083333Y-66261904D01*
X216083333Y-66023809D01*
X216035714Y-65928571D01*
X215988095Y-65880952D01*
X215892857Y-65833333D01*
X215702380Y-65833333D01*
X215607142Y-65880952D01*
X215559523Y-65928571D01*
X215511904Y-66023809D01*
%TO.C,SW7*%
X213416666Y-60904761D02*
X213559523Y-60952380D01*
X213797619Y-60952380D01*
X213892857Y-60904761D01*
X213940476Y-60857142D01*
X213988095Y-60761904D01*
X213988095Y-60666666D01*
X213940476Y-60571428D01*
X213892857Y-60523809D01*
X213797619Y-60476190D01*
X213607142Y-60428571D01*
X213511904Y-60380952D01*
X213464285Y-60333333D01*
X213416666Y-60238095D01*
X213416666Y-60142857D01*
X213464285Y-60047619D01*
X213511904Y-60000000D01*
X213607142Y-59952380D01*
X213845238Y-59952380D01*
X213988095Y-60000000D01*
X214321428Y-59952380D02*
X214559523Y-60952380D01*
X214750000Y-60238095D01*
X214940476Y-60952380D01*
X215178571Y-59952380D01*
X215464285Y-59952380D02*
X216130952Y-59952380D01*
X215702380Y-60952380D01*
%TO.C,U3*%
X207252380Y-54261904D02*
X208061904Y-54261904D01*
X208157142Y-54214285D01*
X208204761Y-54166666D01*
X208252380Y-54071428D01*
X208252380Y-53880952D01*
X208204761Y-53785714D01*
X208157142Y-53738095D01*
X208061904Y-53690476D01*
X207252380Y-53690476D01*
X207252380Y-53309523D02*
X207252380Y-52690476D01*
X207633333Y-53023809D01*
X207633333Y-52880952D01*
X207680952Y-52785714D01*
X207728571Y-52738095D01*
X207823809Y-52690476D01*
X208061904Y-52690476D01*
X208157142Y-52738095D01*
X208204761Y-52785714D01*
X208252380Y-52880952D01*
X208252380Y-53166666D01*
X208204761Y-53261904D01*
X208157142Y-53309523D01*
%TO.C,U4*%
X219502380Y-54261904D02*
X220311904Y-54261904D01*
X220407142Y-54214285D01*
X220454761Y-54166666D01*
X220502380Y-54071428D01*
X220502380Y-53880952D01*
X220454761Y-53785714D01*
X220407142Y-53738095D01*
X220311904Y-53690476D01*
X219502380Y-53690476D01*
X219835714Y-52785714D02*
X220502380Y-52785714D01*
X219454761Y-53023809D02*
X220169047Y-53261904D01*
X220169047Y-52642857D01*
%TO.C,U5*%
X175238095Y-58642380D02*
X175238095Y-59451904D01*
X175285714Y-59547142D01*
X175333333Y-59594761D01*
X175428571Y-59642380D01*
X175619047Y-59642380D01*
X175714285Y-59594761D01*
X175761904Y-59547142D01*
X175809523Y-59451904D01*
X175809523Y-58642380D01*
X176761904Y-58642380D02*
X176285714Y-58642380D01*
X176238095Y-59118571D01*
X176285714Y-59070952D01*
X176380952Y-59023333D01*
X176619047Y-59023333D01*
X176714285Y-59070952D01*
X176761904Y-59118571D01*
X176809523Y-59213809D01*
X176809523Y-59451904D01*
X176761904Y-59547142D01*
X176714285Y-59594761D01*
X176619047Y-59642380D01*
X176380952Y-59642380D01*
X176285714Y-59594761D01*
X176238095Y-59547142D01*
%TO.C,Y1*%
X175023809Y-92726190D02*
X175023809Y-93202380D01*
X174690476Y-92202380D02*
X175023809Y-92726190D01*
X175357142Y-92202380D01*
X176214285Y-93202380D02*
X175642857Y-93202380D01*
X175928571Y-93202380D02*
X175928571Y-92202380D01*
X175833333Y-92345238D01*
X175738095Y-92440476D01*
X175642857Y-92488095D01*
%TO.C,U2*%
X181488095Y-70202380D02*
X181488095Y-71011904D01*
X181535714Y-71107142D01*
X181583333Y-71154761D01*
X181678571Y-71202380D01*
X181869047Y-71202380D01*
X181964285Y-71154761D01*
X182011904Y-71107142D01*
X182059523Y-71011904D01*
X182059523Y-70202380D01*
X182488095Y-70297619D02*
X182535714Y-70250000D01*
X182630952Y-70202380D01*
X182869047Y-70202380D01*
X182964285Y-70250000D01*
X183011904Y-70297619D01*
X183059523Y-70392857D01*
X183059523Y-70488095D01*
X183011904Y-70630952D01*
X182440476Y-71202380D01*
X183059523Y-71202380D01*
%TO.C,C35*%
X198107142Y-55607142D02*
X198059523Y-55654761D01*
X197916666Y-55702380D01*
X197821428Y-55702380D01*
X197678571Y-55654761D01*
X197583333Y-55559523D01*
X197535714Y-55464285D01*
X197488095Y-55273809D01*
X197488095Y-55130952D01*
X197535714Y-54940476D01*
X197583333Y-54845238D01*
X197678571Y-54750000D01*
X197821428Y-54702380D01*
X197916666Y-54702380D01*
X198059523Y-54750000D01*
X198107142Y-54797619D01*
X198440476Y-54702380D02*
X199059523Y-54702380D01*
X198726190Y-55083333D01*
X198869047Y-55083333D01*
X198964285Y-55130952D01*
X199011904Y-55178571D01*
X199059523Y-55273809D01*
X199059523Y-55511904D01*
X199011904Y-55607142D01*
X198964285Y-55654761D01*
X198869047Y-55702380D01*
X198583333Y-55702380D01*
X198488095Y-55654761D01*
X198440476Y-55607142D01*
X199964285Y-54702380D02*
X199488095Y-54702380D01*
X199440476Y-55178571D01*
X199488095Y-55130952D01*
X199583333Y-55083333D01*
X199821428Y-55083333D01*
X199916666Y-55130952D01*
X199964285Y-55178571D01*
X200011904Y-55273809D01*
X200011904Y-55511904D01*
X199964285Y-55607142D01*
X199916666Y-55654761D01*
X199821428Y-55702380D01*
X199583333Y-55702380D01*
X199488095Y-55654761D01*
X199440476Y-55607142D01*
%TO.C,J6*%
X188916666Y-50152380D02*
X188916666Y-50866666D01*
X188869047Y-51009523D01*
X188773809Y-51104761D01*
X188630952Y-51152380D01*
X188535714Y-51152380D01*
X189821428Y-50152380D02*
X189630952Y-50152380D01*
X189535714Y-50200000D01*
X189488095Y-50247619D01*
X189392857Y-50390476D01*
X189345238Y-50580952D01*
X189345238Y-50961904D01*
X189392857Y-51057142D01*
X189440476Y-51104761D01*
X189535714Y-51152380D01*
X189726190Y-51152380D01*
X189821428Y-51104761D01*
X189869047Y-51057142D01*
X189916666Y-50961904D01*
X189916666Y-50723809D01*
X189869047Y-50628571D01*
X189821428Y-50580952D01*
X189726190Y-50533333D01*
X189535714Y-50533333D01*
X189440476Y-50580952D01*
X189392857Y-50628571D01*
X189345238Y-50723809D01*
%TO.C,Q1*%
X200404761Y-49047619D02*
X200309523Y-49000000D01*
X200214285Y-48904761D01*
X200071428Y-48761904D01*
X199976190Y-48714285D01*
X199880952Y-48714285D01*
X199928571Y-48952380D02*
X199833333Y-48904761D01*
X199738095Y-48809523D01*
X199690476Y-48619047D01*
X199690476Y-48285714D01*
X199738095Y-48095238D01*
X199833333Y-48000000D01*
X199928571Y-47952380D01*
X200119047Y-47952380D01*
X200214285Y-48000000D01*
X200309523Y-48095238D01*
X200357142Y-48285714D01*
X200357142Y-48619047D01*
X200309523Y-48809523D01*
X200214285Y-48904761D01*
X200119047Y-48952380D01*
X199928571Y-48952380D01*
X201309523Y-48952380D02*
X200738095Y-48952380D01*
X201023809Y-48952380D02*
X201023809Y-47952380D01*
X200928571Y-48095238D01*
X200833333Y-48190476D01*
X200738095Y-48238095D01*
%TO.C,R44*%
X202857142Y-54202380D02*
X202523809Y-53726190D01*
X202285714Y-54202380D02*
X202285714Y-53202380D01*
X202666666Y-53202380D01*
X202761904Y-53250000D01*
X202809523Y-53297619D01*
X202857142Y-53392857D01*
X202857142Y-53535714D01*
X202809523Y-53630952D01*
X202761904Y-53678571D01*
X202666666Y-53726190D01*
X202285714Y-53726190D01*
X203714285Y-53535714D02*
X203714285Y-54202380D01*
X203476190Y-53154761D02*
X203238095Y-53869047D01*
X203857142Y-53869047D01*
X204666666Y-53535714D02*
X204666666Y-54202380D01*
X204428571Y-53154761D02*
X204190476Y-53869047D01*
X204809523Y-53869047D01*
%TO.C,R45*%
X198107142Y-56952380D02*
X197773809Y-56476190D01*
X197535714Y-56952380D02*
X197535714Y-55952380D01*
X197916666Y-55952380D01*
X198011904Y-56000000D01*
X198059523Y-56047619D01*
X198107142Y-56142857D01*
X198107142Y-56285714D01*
X198059523Y-56380952D01*
X198011904Y-56428571D01*
X197916666Y-56476190D01*
X197535714Y-56476190D01*
X198964285Y-56285714D02*
X198964285Y-56952380D01*
X198726190Y-55904761D02*
X198488095Y-56619047D01*
X199107142Y-56619047D01*
X199964285Y-55952380D02*
X199488095Y-55952380D01*
X199440476Y-56428571D01*
X199488095Y-56380952D01*
X199583333Y-56333333D01*
X199821428Y-56333333D01*
X199916666Y-56380952D01*
X199964285Y-56428571D01*
X200011904Y-56523809D01*
X200011904Y-56761904D01*
X199964285Y-56857142D01*
X199916666Y-56904761D01*
X199821428Y-56952380D01*
X199583333Y-56952380D01*
X199488095Y-56904761D01*
X199440476Y-56857142D01*
%TO.C,R46*%
X203857142Y-48952380D02*
X203523809Y-48476190D01*
X203285714Y-48952380D02*
X203285714Y-47952380D01*
X203666666Y-47952380D01*
X203761904Y-48000000D01*
X203809523Y-48047619D01*
X203857142Y-48142857D01*
X203857142Y-48285714D01*
X203809523Y-48380952D01*
X203761904Y-48428571D01*
X203666666Y-48476190D01*
X203285714Y-48476190D01*
X204714285Y-48285714D02*
X204714285Y-48952380D01*
X204476190Y-47904761D02*
X204238095Y-48619047D01*
X204857142Y-48619047D01*
X205666666Y-47952380D02*
X205476190Y-47952380D01*
X205380952Y-48000000D01*
X205333333Y-48047619D01*
X205238095Y-48190476D01*
X205190476Y-48380952D01*
X205190476Y-48761904D01*
X205238095Y-48857142D01*
X205285714Y-48904761D01*
X205380952Y-48952380D01*
X205571428Y-48952380D01*
X205666666Y-48904761D01*
X205714285Y-48857142D01*
X205761904Y-48761904D01*
X205761904Y-48523809D01*
X205714285Y-48428571D01*
X205666666Y-48380952D01*
X205571428Y-48333333D01*
X205380952Y-48333333D01*
X205285714Y-48380952D01*
X205238095Y-48428571D01*
X205190476Y-48523809D01*
%TO.C,R47*%
X188702380Y-88392857D02*
X188226190Y-88726190D01*
X188702380Y-88964285D02*
X187702380Y-88964285D01*
X187702380Y-88583333D01*
X187750000Y-88488095D01*
X187797619Y-88440476D01*
X187892857Y-88392857D01*
X188035714Y-88392857D01*
X188130952Y-88440476D01*
X188178571Y-88488095D01*
X188226190Y-88583333D01*
X188226190Y-88964285D01*
X188035714Y-87535714D02*
X188702380Y-87535714D01*
X187654761Y-87773809D02*
X188369047Y-88011904D01*
X188369047Y-87392857D01*
X187702380Y-87107142D02*
X187702380Y-86440476D01*
X188702380Y-86869047D01*
%TO.C,U6*%
X194738095Y-47952380D02*
X194738095Y-48761904D01*
X194785714Y-48857142D01*
X194833333Y-48904761D01*
X194928571Y-48952380D01*
X195119047Y-48952380D01*
X195214285Y-48904761D01*
X195261904Y-48857142D01*
X195309523Y-48761904D01*
X195309523Y-47952380D01*
X196214285Y-47952380D02*
X196023809Y-47952380D01*
X195928571Y-48000000D01*
X195880952Y-48047619D01*
X195785714Y-48190476D01*
X195738095Y-48380952D01*
X195738095Y-48761904D01*
X195785714Y-48857142D01*
X195833333Y-48904761D01*
X195928571Y-48952380D01*
X196119047Y-48952380D01*
X196214285Y-48904761D01*
X196261904Y-48857142D01*
X196309523Y-48761904D01*
X196309523Y-48523809D01*
X196261904Y-48428571D01*
X196214285Y-48380952D01*
X196119047Y-48333333D01*
X195928571Y-48333333D01*
X195833333Y-48380952D01*
X195785714Y-48428571D01*
X195738095Y-48523809D01*
%TD*%
M02*
